<?xml version="1.0" encoding="UTF-8" standalone="yes"?>
<!-- Created with sK1/UniConvertor (http://sk1project.org/) -->
<svg xmlns="http://www.w3.org/2000/svg" xmlns:xlink="http://www.w3.org/1999/xlink" width="481.89pt" height="368.504pt" viewBox="0 0 481.89 368.504" fill-rule="evenodd">
  <defs> 
	<marker id="ArrowEnd" viewBox="0 0 10 10" refX="0" refY="5" markerUnits="strokeWidth" markerWidth="4" markerHeight="3" orient="auto"> 
		<path d="M 0 0 L 10 5 L 0 10 z"/> 
	</marker>
	<marker id="ArrowStart" viewBox="0 0 10 10" refX="10" refY="5" markerUnits="strokeWidth" markerWidth="4" markerHeight="3" orient="auto"> 
		<path d="M 10 0 L 0 5 L 10 10 z"/> 
	</marker> </defs>
<g>
<g>
<g>
<path style="stroke:none; fill:#ececed" d="M 232.724 315.727C 201.173 304.205 215.188 306.571 184.054 299.071C 152.92 291.572 157.032 291.997 136.472 289.873C 115.91 287.751 113.981 287.246 101.6 288.569C 89.2212 289.892 77.7627 294.066 70.965 294.894C 64.1661 295.723 67.3934 305.697 74.9046 305.707C 82.4159 305.717 120.981 303.425 134.91 310.984C 148.838 318.544 177.955 330.732 169.184 333.652C 160.413 336.573 129.358 338.876 137.288 342.908C 145.217 346.941 182.35 357.967 190.366 356.805C 198.381 355.643 227.462 355.432 230.4 353.593C 233.338 351.754 247.316 341.719 248.533 341.385C 249.75 341.052 270.521 345.186 273.415 345.944C 276.31 346.702 306.608 346.157 306.861 345.571C 307.112 344.985 295.913 333.575 293.983 333.07C 292.052 332.565 232.724 315.727 232.724 315.727z"/>
<path style="stroke:none; fill:#ececed" d="M 214.82 309.701C 248.353 321.269 243.459 311.353 274.739 322.531C 306.018 333.71 293.436 337.214 312.771 344.422C 332.105 351.631 334.064 352.327 344.489 356.507C 354.914 360.688 363.185 364.377 368.863 366.666C 374.54 368.956 367 367.233 360.294 364.647C 353.589 362.06 320.256 348.924 304.297 343.666C 288.339 338.407 256.667 327.635 263.127 330.476C 269.587 333.317 296.214 343.866 287.255 340.889C 278.297 337.912 240.017 324.452 233.409 321.764C 226.802 319.076 200.958 309.077 199.196 308.179C 197.435 307.279 189.655 303.083 188.725 302.684C 187.795 302.286 167.334 294.882 164.397 293.839C 161.46 292.796 134.686 282.399 134.736 282.348C 134.785 282.297 150.108 286.852 152.066 287.548C 154.024 288.243 214.82 309.701 214.82 309.701z"/>
<path style="stroke:none; fill:#ececed" d="M 127.774 286.789C 100.836 285.879 111.927 285.514 86.575 285.696C 61.2215 285.879 64.3908 285.696 48.5457 286.607C 32.6996 287.517 31.1155 287.517 22.3999 288.792C 13.6853 290.065 6.55466 292.069 1.80101 292.796C -2.95264 293.525 2.59335 296.074 8.13881 295.527C 13.6853 294.981 41.4151 291.523 54.0911 292.614C 66.7682 293.707 92.1205 294.981 86.575 296.438C 81.0284 297.894 58.8453 300.807 65.9757 301.353C 73.1067 301.9 104.005 302.263 109.551 301.353C 115.097 300.443 136.488 298.258 138.073 297.53C 139.657 296.802 146.788 292.979 147.58 292.796C 148.373 292.614 165.01 292.25 167.387 292.25C 169.765 292.25 191.948 289.883 191.948 289.702C 191.948 289.52 180.064 287.153 178.479 287.153C 176.895 287.153 127.774 286.789 127.774 286.789z"/>
<path style="stroke:none; fill:#ececed" d="M 401.876 351.619C 371.268 348.799 383.872 349.053 355.065 347.675C 326.259 346.297 329.86 346.274 311.857 346.391C 293.853 346.508 292.052 346.408 282.15 347.422C 272.248 348.437 264.146 350.446 258.745 351.04C 253.344 351.634 259.645 355.115 265.946 354.794C 272.248 354.474 303.754 351.977 318.158 354.12C 332.561 356.262 361.367 359.428 355.065 360.867C 348.764 362.305 323.559 364.482 331.661 365.603C 339.762 366.724 374.869 369.123 381.171 368.355C 387.472 367.588 411.777 366.256 413.578 365.461C 415.378 364.667 423.48 360.422 424.381 360.248C 425.281 360.075 444.185 360.679 446.885 360.829C 449.585 360.979 474.791 359.473 474.791 359.25C 474.791 359.026 461.289 355.369 459.488 355.269C 457.688 355.169 401.876 351.619 401.876 351.619z"/>
</g>
<g>
<path style="stroke:none; fill:#f59a2c" d="M 283.191 130.745C 274.762 125.085 259.289 120.31 239.428 114.889C 224.926 110.931 209.438 108.748 195.789 107.717C 193.749 107.97 191.706 108.223 189.666 108.477C 205.534 110.287 220.779 112.635 236.889 116.485C 250.915 119.836 270.877 127.924 283.849 133.398C 284.773 131.859 283.957 131.483 283.191 130.745z"/>
<path style="stroke:none; fill:#f9dcea" d="M 356.041 318.906C 320.707 310.754 295.091 278.232 295.561 240.582C 307.065 232.008 319.704 228.068 332.31 228.921C 342.809 229.632 353.384 233.645 363.375 241.049C 355.588 252.434 350.799 266.981 349.741 281.631C 348.809 294.535 350.746 307.64 356.041 318.906z"/>
<path style="stroke:none; fill:#e2e3e4" d="M 450.383 254.263C 443.391 288.781 410.862 314.874 371.999 315.93C 362.691 305.142 358.118 293.071 358.492 280.837C 358.804 270.65 362.519 260.256 369.758 250.292C 381.816 257.369 397.017 261.419 412.176 261.854C 425.528 262.238 438.971 259.84 450.383 254.263z"/>
<path style="stroke:none; fill:#9fdcf5" d="M 295.526 224.022C 303.551 189.784 335.832 164.899 373.27 165.265C 381.821 176.385 385.77 188.616 384.949 200.826C 384.267 210.995 380.301 221.246 372.961 230.938C 361.624 223.425 347.148 218.822 332.577 217.832C 319.743 216.961 306.718 218.867 295.526 224.022z"/>
<path style="stroke:none; fill:#fff8b3" d="M 390.84 164.65C 425.766 174.312 449.868 207.902 447.673 245.494C 435.789 253.566 422.982 256.96 410.427 255.566C 399.971 254.405 389.592 249.942 379.949 242.117C 388.249 231.077 393.699 216.751 395.427 202.159C 396.948 189.308 395.615 176.133 390.84 164.65z"/>
<path style="stroke:none; fill:#525253" d="M 368.215 239.662C 352.991 202.45 339.997 165.238 329.694 128.025C 329.415 123.031 334.448 118.252 341.006 124.364C 351.97 161.577 364.627 198.789 379.527 236C 380.878 240.884 372.982 246.776 368.215 239.662z"/>
<path style="stroke:none; fill:#373736" d="M 363.139 222.959C 356.86 208.745 334.728 148.72 329.685 128.482C 329.273 122.788 334.975 118.18 340.936 125.039C 337.498 124.469 333.3 124.057 333.423 129.262C 333.863 147.854 356.936 199.118 363.139 222.959z"/>
<path style="stroke:none; fill:#787979" d="M 345.182 143.706C 346.782 151.708 372.377 223.153 379.13 235.513C 380.316 239.82 374.301 244.685 369.873 240.176C 372.658 240.603 379.866 240.29 377.358 236.975C 375.475 234.485 343.918 147.609 345.182 143.706z"/>
<path style="stroke:none; fill:#373736" d="M 362.4 219.59C 365.112 225.596 362.912 224.58 368.95 239.756C 371.296 243.591 379.094 242.834 378.868 236.616C 377.234 238.841 374.777 241.865 371.269 239.553C 369.109 238.129 364.205 223.383 362.4 219.59z"/>
<g>
<g>
<path style="stroke:none; fill:#525253" d="M 224.708 174.163C 223.638 175.404 223.668 176.681 225.025 177.999L 245.539 175.665L 245.221 171.83C 238.383 172.607 231.545 173.385 224.708 174.163z"/>
<path style="stroke:none; fill:#404040" d="M 224.492 174.41L 224.018 175.529L 245.321 173.81L 245.181 172.408L 224.492 174.41z"/>
<path style="stroke:none; fill:#666768" d="M 224.286 176.992L 224.713 177.569L 245.482 175.748L 245.368 174.779L 224.286 176.992z"/>
<path style="stroke:none; fill:#787979" d="M 224.148 176.565L 224.464 177.176L 245.464 175.388L 245.349 174.419L 224.148 176.565z"/>
</g>
<path style="stroke:none; fill:#454545" d="M 245.185 175.854C 244.611 175.875 244.106 174.984 244.063 173.872C 244.02 172.757 244.453 171.833 245.028 171.812C 245.603 171.79 246.107 172.682 246.15 173.796C 246.193 174.908 245.76 175.834 245.185 175.854z"/>
</g>
<g>
<path style="stroke:none; fill:#525253" d="M 224.521 229.774L 228.495 229.673L 227.54 173.629L 223.565 173.732L 224.521 229.774z"/>
<path style="stroke:none; fill:#404040" d="M 224.816 229.722L 225.977 229.742L 225.612 173.851L 224.158 173.954L 224.816 229.722z"/>
<path style="stroke:none; fill:#666768" d="M 227.261 229.663L 227.984 229.69L 227.62 173.797L 226.615 173.916L 227.261 229.663z"/>
<path style="stroke:none; fill:#787979" d="M 226.889 229.642L 227.613 229.668L 227.248 173.776L 226.243 173.895L 226.889 229.642z"/>
</g>
<path style="stroke:none; fill:#f9dcea" d="M 140.459 266.35C 124.811 260.808 113.467 238.7 113.675 213.106C 118.77 207.277 124.367 204.599 129.949 205.178C 134.6 205.661 139.282 208.389 143.707 213.423C 140.258 221.162 138.138 231.05 137.669 241.011C 137.256 249.783 138.114 258.691 140.459 266.35z"/>
<path style="stroke:none; fill:#e2e3e4" d="M 182.238 222.405C 179.141 245.871 164.737 263.608 147.525 264.327C 143.404 256.994 141.379 248.787 141.544 240.471C 141.683 233.546 143.327 226.481 146.534 219.705C 151.873 224.517 158.606 227.271 165.319 227.567C 171.231 227.828 177.184 226.197 182.238 222.405z"/>
<path style="stroke:none; fill:#9fdcf5" d="M 113.659 201.848C 117.214 178.574 131.509 161.656 148.088 161.905C 151.876 169.465 153.624 177.779 153.261 186.079C 152.958 192.993 151.202 199.96 147.952 206.55C 142.931 201.442 136.521 198.312 130.067 197.64C 124.384 197.048 118.616 198.343 113.659 201.848z"/>
<path style="stroke:none; fill:#fff8b3" d="M 155.87 161.487C 171.336 168.055 182.01 190.889 181.039 216.444C 175.776 221.932 170.104 224.239 164.543 223.291C 159.913 222.503 155.316 219.469 151.047 214.149C 154.722 206.645 157.136 196.905 157.901 186.986C 158.575 178.25 157.984 169.294 155.87 161.487z"/>
<path style="stroke:none; fill:#2c2c2b" d="M 180.844 146.49L 157.39 211.613L 155.535 210.99L 178.99 145.868L 180.844 146.49z"/>
<g>
<path style="stroke:none; fill:#5c5d5d" d="M 210.287 238.466C 192.791 223.829 175.917 216.972 156.496 217.614C 153.687 217.901 144.659 221.616 142.641 216.107C 141.834 213.904 142.922 211.922 144.035 210.684C 168.41 206.412 188.141 211.378 211.004 230.231C 213.515 232.793 214.816 241.114 210.287 238.466z"/>
<path style="stroke:none; fill:#454545" d="M 201.537 230.444C 185.553 218.978 171.103 214.386 153.76 217.201C 151.321 217.752 144.449 220.962 142.634 216.005C 141.83 213.811 143.118 211.898 144.343 210.771C 143.345 218.455 148.97 216.473 153.482 215.83C 170.403 214.407 186.512 216.436 201.537 230.444z"/>
<path style="stroke:none; fill:#d9dbdc" d="M 155.058 210.105C 155.834 210.145 157.65 210.067 160.187 209.989C 175.868 210.247 189.588 215.281 204.322 225.179C 207.606 227.574 212.442 229.423 212.887 234.994C 213.027 236.767 212.46 238.13 210.93 237.68C 214.484 232.719 210.008 230.918 206.601 228.161C 191.104 216.466 176.616 211.128 159.788 210.382C 157.149 210.393 155.426 210.355 155.058 210.105z"/>
<path style="stroke:none; fill:#454545" d="M 199.256 228.388C 202.29 230.149 210.782 239.849 212.402 237.677C 213.757 235.873 212.447 232.49 211.175 230.756C 211.81 232.781 213.172 238.331 209.835 236.063C 206.273 233.684 202.935 230.413 199.256 228.388z"/>
</g>
<path style="stroke:none; fill:#2c2c2b" d="M 160.873 53.0625C 165.076 46.3808 183.385 41.1357 183.663 39.8701C 184.165 37.6 168.11 38.0477 153.486 38.795C 171.731 33.9135 206.109 35.8491 180.606 45.4739C 173.892 48.007 164.858 52.5656 164.67 55.7687C 163.73 71.7156 176.299 80.9846 182.469 101.524C 180.362 101.863 179.309 102.204 177.202 102.544C 170.266 86.0499 156.483 59.0985 160.873 53.0625z"/>
<g>
<path style="stroke:none; fill:#888a8b" d="M 351.764 36.8004L 349.981 33.3615L 309.13 53.226L 310.914 56.6669L 351.764 36.8004z"/>
<path style="stroke:none; fill:#5c5d5d" d="M 351.599 36.5607L 351.114 35.5397L 310.121 54.8367L 310.823 56.0723L 351.599 36.5607z"/>
<path style="stroke:none; fill:#b1b4b6" d="M 350.504 34.4424L 350.213 33.8014L 309.219 53.0993L 309.739 53.9385L 350.504 34.4424z"/>
<path style="stroke:none; fill:#d9dbdc" d="M 350.648 34.7749L 350.357 34.1339L 309.363 53.4309L 309.883 54.2701L 350.648 34.7749z"/>
</g>
<g>
<path style="stroke:none; fill:#2c2c2b" d="M 384.644 63.1069L 389.691 56.2105L 307.795 0L 302.748 6.89639L 384.644 63.1069z"/>
<path style="stroke:none; fill:#5c5d5d" d="M 384.954 62.5471L 386.5 60.5854L 305.594 3.52118L 303.845 6.11423L 384.954 62.5471z"/>
<path style="stroke:none; fill:#b1b4b6" d="M 388.065 58.3086L 389.049 57.1L 308.142 0.0367432L 306.999 1.87759L 388.065 58.3086z"/>
<path style="stroke:none; fill:#454545" d="M 387.548 58.9215L 388.531 57.713L 307.625 0.649689L 306.482 2.49054L 387.548 58.9215z"/>
</g>
<g>
<path style="stroke:none; fill:#5c5d5d" d="M 206.464 233.885C 206.17 195.111 200.419 161.817 187.373 128.319C 185.34 123.581 176.703 109.939 179.546 103.309C 180.682 100.655 182.88 101.434 184.531 102.675C 203.516 142.76 212.539 179.968 213.13 230.484C 212.824 236.309 207.399 243.277 206.464 233.885z"/>
<path style="stroke:none; fill:#454545" d="M 206.845 214.096C 205.142 179.75 199.253 151.963 185.914 123.313C 183.922 119.371 177.058 109.204 179.617 103.239C 180.75 100.597 183.025 101.762 184.665 103.259C 178.233 105.862 183.364 114.55 186.766 122.054C 198.783 150.752 207.676 179.985 206.845 214.096z"/>
<path style="stroke:none; fill:#d9dbdc" d="M 192.098 121.566C 192.569 122.942 193.803 126.065 195.503 130.446C 205.452 157.932 210.535 184.696 212.613 215.98C 212.933 223.057 214.669 232.533 210.761 236.457C 209.516 237.701 208.122 237.485 207.472 234.563C 213.507 237.957 211.969 229.135 211.84 221.637C 210.624 188.01 205.273 159.734 194.949 129.972C 193.234 125.378 192.147 122.351 192.098 121.566z"/>
<path style="stroke:none; fill:#454545" d="M 206.918 208.956C 207.553 215.242 205.743 235.53 208.427 237.125C 210.662 238.471 212.363 234.275 212.844 231.077C 211.73 233.329 208.433 238.838 207.981 231.739C 207.468 224.186 207.773 216.517 206.918 208.956z"/>
</g>
<path style="stroke:none; fill:#ef8020" d="M 148.241 134.247C 175.752 134.247 199.926 168.748 199.926 213.11C 199.926 257.474 175.752 291.133 148.241 291.133C 120.732 291.133 100.032 257.474 100.032 213.11C 100.032 168.748 120.732 134.247 148.241 134.247zM 148.249 145.079C 171.618 145.079 190.678 175.655 190.678 213.146C 190.678 250.635 171.618 281.212 148.249 281.212C 124.88 281.212 105.82 250.635 105.82 213.146C 105.82 175.655 124.88 145.079 148.249 145.079z"/>
<path style="stroke:none; fill:#888a8b" d="M 108.484 203.698C 111.332 174.232 126.558 151.294 145.193 149.45C 149.819 158.378 152.191 168.512 152.191 178.903C 152.191 187.557 150.559 196.469 147.233 205.102C 141.343 199.389 133.988 196.323 126.707 196.323C 120.294 196.323 113.878 198.687 108.484 203.698zM 153.422 149.88C 171.556 154.508 185.671 179.249 186.806 209.532C 181.311 217.047 175.076 220.901 168.68 220.901C 163.355 220.901 157.871 218.252 152.558 212.846C 156.073 203.274 157.961 191.323 157.961 179.492C 157.961 169.072 156.505 158.645 153.422 149.88zM 186.54 222.906C 183.691 252.372 168.467 275.31 149.831 277.154C 145.206 268.225 142.834 258.092 142.834 247.7C 142.834 239.046 144.463 230.135 147.791 221.501C 153.681 227.214 161.036 230.281 168.317 230.281C 174.729 230.281 181.146 227.917 186.54 222.906zM 141.602 276.721C 123.468 272.093 109.353 247.352 108.218 217.071C 113.712 209.555 119.949 205.7 126.343 205.7C 131.67 205.7 137.153 208.349 142.467 213.756C 138.951 223.327 137.064 235.278 137.064 247.109C 137.064 257.531 138.518 267.955 141.602 276.721zM 106.39 208.469L 107.276 200.459L 107.664 197.65L 108.125 194.887L 108.656 192.173L 109.256 189.508L 109.922 186.899L 110.652 184.346L 111.447 181.851L 112.303 179.42L 113.219 177.053L 114.194 174.754L 115.224 172.524L 116.31 170.369L 117.448 168.288L 118.638 166.286L 119.878 164.367L 121.166 162.53L 122.501 160.78L 123.879 159.121L 125.301 157.553L 126.765 156.08L 128.267 154.705L 129.808 153.431L 131.385 152.259L 132.997 151.195L 134.642 150.239L 136.317 149.395L 138.022 148.666L 139.754 148.053L 141.512 147.562L 143.295 147.192L 145.868 146.845C 146.481 148.051 147.087 149.25 147.67 150.493C 148.608 152.578 149.446 154.692 150.22 156.949C 150.837 158.842 151.379 160.738 151.865 162.729C 152.315 164.698 152.689 166.653 152.999 168.692C 153.279 170.722 153.481 172.719 153.614 174.788C 153.698 176.454 153.736 178.092 153.727 179.763C 153.674 182.701 153.472 185.529 153.119 188.41C 152.8 190.776 152.397 193.05 151.901 195.333C 151.359 197.696 150.741 199.953 150.035 202.196C 149.325 204.359 148.547 206.411 147.755 208.499C 146.784 207.577 145.818 206.647 144.826 205.786C 143.312 204.533 141.787 203.468 140.189 202.528C 138.752 201.727 137.314 201.057 135.836 200.491C 133.896 199.8 131.973 199.326 129.996 199.041C 128.509 198.867 127.039 198.803 125.549 198.853C 123.613 198.965 121.724 199.273 119.815 199.8C 118.312 200.255 116.853 200.828 115.392 201.552C 113.776 202.398 112.24 203.393 110.714 204.6C 109.249 205.815 107.827 207.164 106.39 208.469zM 144.537 280.123L 139.608 278.684L 137.88 278.054L 136.181 277.305L 134.51 276.442L 132.871 275.468L 131.264 274.386L 129.693 273.197L 128.158 271.907L 126.662 270.515L 125.205 269.027L 123.79 267.444L 122.418 265.769L 121.092 264.005L 119.812 262.155L 118.58 260.221L 117.398 258.207L 116.268 256.113L 115.192 253.946L 114.171 251.705L 113.205 249.394L 112.299 247.017L 111.453 244.574L 110.668 242.07L 109.948 239.507L 109.293 236.888L 108.704 234.217L 108.184 231.494L 107.735 228.723L 107.359 225.908L 107.056 223.051L 106.829 220.155L 106.615 215.973C 107.358 214.978 108.096 213.993 108.86 213.046C 110.143 211.521 111.444 210.159 112.834 208.902C 113.998 207.9 115.164 207.021 116.39 206.229C 117.602 205.497 118.804 204.89 120.059 204.385C 121.308 203.932 122.538 203.603 123.812 203.386C 124.836 203.251 125.844 203.188 126.873 203.204C 128.681 203.288 130.421 203.616 132.195 204.192C 133.464 204.642 134.692 205.196 135.924 205.865C 137.566 206.808 139.127 207.912 140.678 209.203C 142.008 210.354 143.271 211.62 144.556 212.907C 143.989 214.487 143.417 216.053 142.887 217.666C 142.116 220.126 141.46 222.605 140.882 225.201C 140.318 227.877 139.861 230.549 139.489 233.314C 139.139 236.123 138.893 238.909 138.737 241.765C 138.629 244.181 138.589 246.569 138.621 248.992C 138.691 252.136 138.88 255.205 139.204 258.308C 139.519 261.056 139.927 263.71 140.455 266.372C 140.88 268.395 141.36 270.343 141.914 272.284C 142.716 274.959 143.644 277.524 144.537 280.123zM 188.633 218.136L 187.748 226.145L 187.359 228.953L 186.899 231.715L 186.368 234.43L 185.768 237.094L 185.102 239.703L 184.371 242.257L 183.577 244.751L 182.72 247.184L 181.805 249.551L 180.83 251.85L 179.8 254.079L 178.715 256.234L 177.576 258.314L 176.386 260.316L 175.146 262.236L 173.859 264.072L 172.524 265.822L 171.145 267.481L 169.723 269.05L 168.26 270.523L 166.757 271.898L 165.216 273.172L 163.639 274.343L 162.027 275.408L 160.382 276.364L 158.707 277.208L 157.002 277.938L 155.27 278.55L 153.511 279.042L 151.729 279.411L 149.156 279.758C 148.543 278.552 147.937 277.352 147.355 276.11C 146.416 274.024 145.578 271.91 144.804 269.654C 144.29 268.076 143.825 266.495 143.398 264.852C 142.839 262.566 142.389 260.298 142.024 257.912C 141.886 256.901 141.762 255.896 141.652 254.877C 141.345 251.602 141.241 248.423 141.338 245.117C 141.433 242.769 141.622 240.499 141.906 238.193C 142.224 235.826 142.626 233.553 143.123 231.27C 143.665 228.908 144.282 226.65 144.99 224.406C 145.697 222.244 146.477 220.193 147.268 218.105C 148.24 219.027 149.205 219.955 150.198 220.816C 151.71 222.07 153.237 223.135 154.834 224.075C 156.482 224.992 158.126 225.735 159.827 226.339C 161.556 226.907 163.27 227.309 165.028 227.561C 166.32 227.714 167.6 227.784 168.896 227.769C 171.028 227.695 173.105 227.382 175.208 226.802C 176.9 226.292 178.533 225.628 180.17 224.77C 181.416 224.077 182.615 223.299 183.809 222.399C 185.456 221.096 187.034 219.588 188.633 218.136zM 150.485 146.479L 155.415 147.917L 157.143 148.548L 158.845 149.296L 160.515 150.159L 162.154 151.132L 163.76 152.215L 165.332 153.403L 166.866 154.695L 168.363 156.086L 169.819 157.574L 171.234 159.158L 172.606 160.832L 173.934 162.596L 175.214 164.446L 176.444 166.38L 177.626 168.395L 178.756 170.487L 179.833 172.656L 180.854 174.896L 181.82 177.207L 182.725 179.585L 183.572 182.027L 184.356 184.53L 185.077 187.094L 185.732 189.713L 186.32 192.385L 186.84 195.107L 187.289 197.878L 187.666 200.694L 187.968 203.551L 188.195 206.446L 188.409 210.629C 187.667 211.624 186.929 212.608 186.163 213.555C 184.88 215.079 183.58 216.442 182.191 217.699C 181.22 218.535 180.247 219.289 179.236 219.984C 177.829 220.893 176.434 221.625 174.965 222.215C 174.344 222.442 173.725 222.643 173.098 222.822C 171.082 223.32 169.126 223.49 167.091 223.332C 165.646 223.175 164.249 222.87 162.831 222.409C 161.374 221.892 159.975 221.237 158.57 220.432C 157.116 219.551 155.727 218.547 154.346 217.398C 153.015 216.247 151.752 214.981 150.467 213.696C 151.036 212.116 151.607 210.548 152.137 208.935C 152.907 206.474 153.563 203.996 154.141 201.4C 154.635 199.064 155.047 196.73 155.395 194.324C 155.82 191.174 156.112 188.051 156.287 184.837C 156.395 182.42 156.436 180.033 156.403 177.61C 156.335 174.466 156.145 171.396 155.821 168.293C 155.541 165.851 155.188 163.48 154.742 161.104C 154.222 158.481 153.609 155.984 152.867 153.506C 152.12 151.123 151.288 148.812 150.485 146.479z"/>
<path style="stroke:none; fill:#a35b39" d="M 194.549 218.824C 197.935 164.613 169.061 144.675 151.105 140.424C 166.585 144.212 194.172 169.277 191.619 218.425C 189.066 267.574 163.186 282.146 148.826 284.955C 161.674 284.495 191.165 273.034 194.549 218.824z"/>
<path style="stroke:none; fill:#2c2c2b" d="M 148.249 144.329C 171.875 144.329 191.144 175.243 191.144 213.146C 191.144 251.048 171.875 281.961 148.249 281.961C 124.623 281.961 105.354 251.048 105.354 213.146C 105.354 175.243 124.623 144.329 148.249 144.329zM 148.241 142.821C 172.258 142.821 191.845 174.397 191.845 213.11C 191.845 251.825 172.258 283.399 148.241 283.399C 124.225 283.399 104.637 251.825 104.637 213.11C 104.637 174.397 124.225 142.821 148.241 142.821z"/>
<path style="stroke:none; fill:#2c2c2b" d="M 148.241 138.598C 173.677 138.598 194.422 172.071 194.422 213.11C 194.422 254.15 173.677 287.622 148.241 287.622C 122.805 287.622 102.061 254.15 102.061 213.11C 102.061 172.071 122.805 138.598 148.241 138.598zM 148.241 136.788C 174.223 136.788 195.413 171.074 195.413 213.11C 195.413 255.148 174.223 289.432 148.241 289.432C 122.26 289.432 101.07 255.148 101.07 213.11C 101.07 171.074 122.26 136.788 148.241 136.788z"/>
<path style="stroke:none; fill:#9e9fa1" d="M 148.241 198.855C 153.112 198.855 157.085 205.258 157.085 213.11C 157.085 220.962 153.112 227.367 148.241 227.367C 143.37 227.367 139.398 220.962 139.398 213.11C 139.398 205.258 143.37 198.855 148.241 198.855zM 148.243 197.446C 153.623 197.446 158.011 204.486 158.011 213.118C 158.011 221.749 153.623 228.788 148.243 228.788C 142.863 228.788 138.475 221.749 138.475 213.118C 138.475 204.486 142.863 197.446 148.243 197.446z"/>
<path style="stroke:none; fill:#454545" d="M 282.093 128.47L 318.097 95.3904L 282.493 111.731L 285.761 91.1045L 311.085 73.9954L 276.416 87.4508C 255.093 120.316 231.701 186.184 210.812 218.06C 209.581 221.636 204.11 228.253 209.159 234.416C 208.579 238.872 225.628 239.124 225.652 232.531C 226.128 226.43 225.322 219.722 227.055 214.229L 271.386 142.721L 282.093 128.47z"/>
<g>
<path style="stroke:none; fill:#525253" d="M 212.426 231.939C 213.062 230.706 212.94 229.436 211.903 228.118L 197.994 230.371L 198.517 234.192C 203.154 233.44 207.79 232.689 212.426 231.939z"/>
<path style="stroke:none; fill:#404040" d="M 212.555 231.693L 212.791 230.58L 198.29 232.219L 198.5 233.615L 212.555 231.693z"/>
<path style="stroke:none; fill:#666768" d="M 212.491 229.123L 212.151 228.547L 198.026 230.289L 198.181 231.253L 212.491 229.123z"/>
<path style="stroke:none; fill:#787979" d="M 212.62 229.55L 212.354 228.939L 198.067 230.647L 198.222 231.612L 212.62 229.55z"/>
</g>
<path style="stroke:none; fill:#888a8b" d="M 308.865 66.78L 311.173 73.9326L 278.741 88.1343L 276.167 113.33L 316.098 88.726L 318.352 95.1429L 278.606 123.353L 212.852 223.687L 211.467 217.428L 273.991 82.0743L 308.865 66.78z"/>
<path style="stroke:none; fill:#2c2c2b" d="M 201.922 211.596C 208.18 211.596 213.284 219.825 213.284 229.914C 213.284 240.004 208.18 248.233 201.922 248.233C 195.663 248.233 190.558 240.004 190.558 229.914C 190.558 219.825 195.663 211.596 201.922 211.596zM 201.923 209.787C 208.838 209.787 214.475 218.832 214.475 229.923C 214.475 241.014 208.838 250.06 201.923 250.06C 195.011 250.06 189.372 241.014 189.372 229.923C 189.372 218.832 195.011 209.787 201.923 209.787z"/>
<g>
<path style="stroke:none; fill:#888a8b" d="M 354.192 40.2598L 351.086 37.4608L 311.558 56.6843L 313.342 60.1243L 354.192 40.2598z"/>
<path style="stroke:none; fill:#5c5d5d" d="M 354.026 40.019L 353.542 38.9971L 312.549 58.295L 313.251 59.5306L 354.026 40.019z"/>
<path style="stroke:none; fill:#b1b4b6" d="M 352.546 38.651L 351.373 37.7421L 311.648 56.5576L 312.167 57.3959L 352.546 38.651z"/>
<path style="stroke:none; fill:#d9dbdc" d="M 352.415 38.6626L 352.233 38.3958L 311.791 56.8893L 312.311 57.7285L 352.415 38.6626z"/>
</g>
<g>
<path style="stroke:none; fill:#888a8b" d="M 301.589 45.5483L 310.013 42.9089L 341.353 136.72L 332.93 139.36L 301.589 45.5483z"/>
<path style="stroke:none; fill:#5c5d5d" d="M 302.243 45.4275L 304.673 44.5738L 337.166 137.715L 334.045 138.569L 302.243 45.4275z"/>
<path style="stroke:none; fill:#b1b4b6" d="M 307.424 43.7964L 308.929 43.2415L 341.422 136.384L 339.237 136.897L 307.424 43.7964z"/>
<path style="stroke:none; fill:#d9dbdc" d="M 306.653 44.0952L 308.159 43.5402L 340.653 136.683L 338.467 137.196L 306.653 44.0952z"/>
</g>
<path style="stroke:none; fill:#ef8020" d="M 372.443 128.78C 432.726 128.78 481.89 179.227 481.89 241.081C 481.89 302.934 432.726 353.382 372.443 353.382C 312.16 353.382 262.996 302.934 262.996 241.081C 262.996 179.227 312.16 128.78 372.443 128.78zM 372.46 146.226C 423.669 146.226 465.433 188.859 465.433 241.13C 465.433 293.4 423.669 336.032 372.46 336.032C 321.251 336.032 279.487 293.4 279.487 241.13C 279.487 188.859 321.251 146.226 372.46 146.226z"/>
<path style="stroke:none; fill:#b1b4b6" d="M 285.382 227.957C 291.704 186.874 325.499 154.892 366.861 152.321C 377.127 164.769 382.392 178.899 382.392 193.387C 382.392 205.452 378.773 217.877 371.389 229.915C 358.314 221.95 341.99 217.674 325.83 217.674C 311.596 217.674 297.355 220.97 285.382 227.957zM 385.127 152.922C 425.376 159.374 456.708 193.87 459.226 236.089C 447.031 246.569 433.188 251.943 418.995 251.943C 407.173 251.943 395.002 248.249 383.208 240.711C 391.012 227.366 395.201 210.703 395.201 194.208C 395.201 179.679 391.972 165.143 385.127 152.922zM 458.635 254.738C 452.313 295.821 418.519 327.803 377.156 330.374C 366.889 317.925 361.625 303.795 361.625 289.308C 361.625 277.242 365.243 264.818 372.628 252.78C 385.703 260.745 402.027 265.021 418.187 265.021C 432.421 265.021 446.662 261.724 458.635 254.738zM 358.89 329.771C 318.642 323.318 287.31 288.822 284.791 246.602C 296.987 236.122 310.83 230.749 325.023 230.749C 336.845 230.749 349.016 234.443 360.809 241.98C 353.006 255.326 348.817 271.989 348.817 288.484C 348.817 303.013 352.046 317.549 358.89 329.771zM 280.736 234.609L 282.7 223.44L 283.563 219.526L 284.584 215.673L 285.763 211.888L 287.093 208.173L 288.572 204.535L 290.195 200.975L 291.959 197.497L 293.859 194.107L 295.893 190.807L 298.055 187.601L 300.342 184.493L 302.751 181.487L 305.278 178.587L 307.921 175.797L 310.672 173.119L 313.53 170.559L 316.493 168.119L 319.554 165.805L 322.709 163.619L 325.957 161.565L 329.293 159.648L 332.713 157.872L 336.214 156.239L 339.792 154.754L 343.442 153.422L 347.161 152.245L 350.945 151.228L 354.79 150.374L 358.693 149.688L 362.648 149.173L 368.36 148.69C 369.72 150.371 371.064 152.043 372.359 153.776C 374.441 156.684 376.303 159.63 378.02 162.777C 379.388 165.416 380.59 168.06 381.671 170.836C 382.671 173.581 383.499 176.306 384.189 179.149C 384.81 181.98 385.258 184.765 385.553 187.65C 385.739 189.973 385.825 192.256 385.803 194.585C 385.688 198.682 385.239 202.624 384.453 206.642C 383.746 209.94 382.853 213.111 381.752 216.294C 380.548 219.589 379.178 222.736 377.608 225.863C 376.035 228.88 374.305 231.74 372.549 234.651C 370.39 233.364 368.25 232.069 366.047 230.869C 362.687 229.12 359.302 227.635 355.757 226.326C 352.564 225.21 349.374 224.275 346.091 223.485C 341.786 222.523 337.519 221.862 333.131 221.466C 329.829 221.222 326.568 221.132 323.259 221.203C 318.964 221.359 314.769 221.788 310.533 222.523C 307.196 223.156 303.958 223.956 300.713 224.965C 297.129 226.145 293.718 227.532 290.334 229.214C 287.079 230.908 283.923 232.791 280.736 234.609zM 365.405 334.513L 354.467 332.508L 350.631 331.628L 346.857 330.585L 343.148 329.382L 339.509 328.023L 335.945 326.514L 332.457 324.858L 329.051 323.058L 325.729 321.118L 322.496 319.043L 319.356 316.835L 316.311 314.5L 313.366 312.041L 310.524 309.461L 307.79 306.765L 305.167 303.956L 302.66 301.038L 300.269 298.015L 298.002 294.891L 295.861 291.67L 293.849 288.354L 291.97 284.949L 290.23 281.458L 288.63 277.885L 287.175 274.234L 285.87 270.508L 284.717 266.712L 283.72 262.849L 282.884 258.923L 282.212 254.94L 281.708 250.902L 281.234 245.072C 282.881 243.684 284.519 242.312 286.217 240.991C 289.065 238.865 291.952 236.966 295.034 235.212C 297.62 233.815 300.211 232.589 302.93 231.486C 305.62 230.465 308.288 229.62 311.075 228.916C 313.847 228.283 316.576 227.824 319.403 227.522C 321.676 227.334 323.915 227.246 326.198 227.268C 330.21 227.385 334.073 227.843 338.009 228.645C 340.826 229.275 343.551 230.047 346.286 230.979C 349.933 232.294 353.398 233.833 356.841 235.632C 359.793 237.237 362.595 239.002 365.448 240.796C 364.189 242.999 362.921 245.183 361.745 247.433C 360.033 250.862 358.577 254.318 357.294 257.938C 356.041 261.669 355.027 265.395 354.201 269.25C 353.425 273.166 352.876 277.05 352.532 281.033C 352.292 284.401 352.204 287.73 352.274 291.108C 352.428 295.492 352.849 299.771 353.568 304.097C 354.266 307.928 355.172 311.63 356.346 315.34C 357.29 318.162 358.352 320.878 359.583 323.584C 361.363 327.314 363.422 330.89 365.405 334.513zM 463.282 248.088L 461.317 259.254L 460.454 263.168L 459.432 267.02L 458.254 270.806L 456.923 274.52L 455.446 278.159L 453.822 281.719L 452.058 285.197L 450.158 288.587L 448.126 291.887L 445.962 295.092L 443.675 298.201L 441.265 301.206L 438.738 304.107L 436.097 306.897L 433.345 309.575L 430.487 312.135L 427.526 314.574L 424.465 316.888L 421.308 319.074L 418.06 321.128L 414.724 323.045L 411.305 324.822L 407.803 326.455L 404.227 327.939L 400.576 329.273L 396.858 330.449L 393.073 331.466L 389.227 332.32L 385.325 333.005L 381.369 333.521L 375.656 334.005C 374.296 332.323 372.952 330.65 371.659 328.918C 369.576 326.01 367.715 323.063 365.999 319.917C 364.857 317.716 363.827 315.513 362.878 313.221C 361.637 310.035 360.638 306.873 359.83 303.545C 359.52 302.137 359.246 300.735 359.002 299.314C 358.32 294.748 358.089 290.316 358.305 285.705C 358.518 282.432 358.936 279.267 359.565 276.052C 360.271 272.753 361.166 269.583 362.268 266.401C 363.47 263.107 364.84 259.958 366.41 256.831C 367.982 253.816 369.711 250.955 371.467 248.044C 373.624 249.329 375.765 250.624 377.971 251.825C 381.329 253.573 384.716 255.058 388.262 256.368C 391.917 257.646 395.569 258.682 399.344 259.525C 403.181 260.317 406.986 260.877 410.887 261.229C 413.756 261.441 416.596 261.54 419.473 261.519C 424.205 261.416 428.817 260.979 433.484 260.171C 437.237 259.459 440.864 258.534 444.498 257.336C 447.262 256.373 449.924 255.287 452.574 254.031C 456.229 252.213 459.732 250.112 463.282 248.088zM 378.609 148.179L 389.552 150.184L 393.387 151.064L 397.161 152.108L 400.87 153.31L 404.509 154.668L 408.073 156.177L 411.561 157.833L 414.968 159.633L 418.289 161.573L 421.523 163.649L 424.664 165.856L 427.707 168.192L 430.653 170.65L 433.494 173.231L 436.228 175.926L 438.851 178.736L 441.359 181.653L 443.749 184.676L 446.016 187.8L 448.158 191.022L 450.169 194.337L 452.047 197.742L 453.788 201.233L 455.389 204.807L 456.842 208.458L 458.148 212.184L 459.3 215.98L 460.298 219.843L 461.133 223.768L 461.806 227.751L 462.31 231.789L 462.784 237.621C 461.137 239.007 459.498 240.38 457.801 241.701C 454.953 243.826 452.064 245.726 448.982 247.479C 446.828 248.644 444.668 249.695 442.423 250.663C 439.301 251.93 436.203 252.951 432.944 253.776C 431.564 254.091 430.191 254.371 428.8 254.621C 424.326 255.316 419.983 255.553 415.467 255.332C 412.261 255.114 409.158 254.687 406.009 254.045C 402.777 253.324 399.671 252.412 396.553 251.287C 393.326 250.06 390.241 248.66 387.179 247.059C 384.224 245.453 381.421 243.689 378.569 241.897C 379.829 239.694 381.098 237.508 382.275 235.258C 383.986 231.83 385.44 228.374 386.724 224.753C 387.819 221.496 388.734 218.242 389.508 214.888C 390.449 210.495 391.099 206.14 391.486 201.66C 391.725 198.29 391.814 194.961 391.744 191.583C 391.591 187.2 391.172 182.919 390.451 178.594C 389.83 175.189 389.047 171.883 388.058 168.569C 386.903 164.912 385.543 161.431 383.895 157.975C 382.236 154.655 380.391 151.432 378.609 148.179z"/>
<path style="stroke:none; fill:#2c2c2b" d="M 372.46 145.183C 424.232 145.183 466.455 188.284 466.455 241.13C 466.455 293.975 424.232 337.076 372.46 337.076C 320.688 337.076 278.465 293.975 278.465 241.13C 278.465 188.284 320.688 145.183 372.46 145.183zM 372.443 143.079C 425.071 143.079 467.992 187.104 467.992 241.081C 467.992 295.057 425.071 339.081 372.443 339.081C 319.815 339.081 276.894 295.057 276.894 241.081C 276.894 187.104 319.815 143.079 372.443 143.079z"/>
<path style="stroke:none; fill:#a35b39" d="M 475.253 248.042C 479.985 180.456 425.104 146.885 426.592 147.038C 428.082 147.19 485.295 180.296 481.568 247.507C 477.842 314.718 425.091 337.037 423.601 336.884C 422.112 336.733 470.521 315.629 475.253 248.042z"/>
<path style="stroke:none; fill:#2c2c2b" d="M 372.443 137.191C 428.181 137.191 473.638 183.86 473.638 241.081C 473.638 298.301 428.181 344.97 372.443 344.97C 316.705 344.97 271.247 298.301 271.247 241.081C 271.247 183.86 316.705 137.191 372.443 137.191zM 372.443 134.668C 429.377 134.668 475.81 182.47 475.81 241.081C 475.81 299.691 429.377 347.493 372.443 347.493C 315.509 347.493 269.076 299.691 269.076 241.081C 269.076 182.47 315.509 134.668 372.443 134.668z"/>
<path style="stroke:none; fill:#c5c7c9" d="M 372.443 221.204C 383.116 221.204 391.822 230.133 391.822 241.081C 391.822 252.029 383.116 260.957 372.443 260.957C 361.77 260.957 353.064 252.029 353.064 241.081C 353.064 230.133 361.77 221.204 372.443 221.204zM 372.446 219.241C 384.236 219.241 393.851 229.056 393.851 241.091C 393.851 253.125 384.236 262.939 372.446 262.939C 360.657 262.939 351.042 253.125 351.042 241.091C 351.042 229.056 360.657 219.241 372.446 219.241z"/>
<path style="stroke:none; fill:#888a8b" d="M 365.573 241.708C 350.351 204.496 337.356 167.284 327.053 130.071C 326.775 125.078 331.806 120.298 338.365 126.411C 349.329 163.623 361.986 200.835 376.886 238.047C 378.237 242.93 370.34 248.823 365.573 241.708z"/>
<path style="stroke:none; fill:#454545" d="M 360.499 225.006C 354.218 210.791 332.088 150.766 327.044 130.527C 326.632 124.835 332.334 120.225 338.296 127.086C 334.856 126.516 330.659 126.104 330.782 131.308C 331.222 149.899 354.294 201.165 360.499 225.006z"/>
<path style="stroke:none; fill:#d9dbdc" d="M 342.541 145.753C 344.141 153.754 369.735 225.199 376.489 237.56C 377.675 241.867 371.659 246.73 367.233 242.222C 370.016 242.648 377.225 242.337 374.717 239.021C 372.834 236.531 341.277 149.656 342.541 145.753z"/>
<path style="stroke:none; fill:#454545" d="M 359.759 221.637C 362.471 227.643 360.271 226.626 366.309 241.801C 368.655 245.637 376.452 244.881 376.227 238.663C 374.592 240.886 372.136 243.911 368.627 241.598C 366.468 240.175 361.564 225.429 359.759 221.637z"/>
<path style="stroke:none; fill:#ef8020" d="M 174.604 101.576C 179.786 101.074 184.968 100.573 190.151 100.071C 191.147 102.9 192.145 105.73 193.144 108.56C 223.934 110.595 250.569 118.893 275.566 129.658C 276.573 130.092 276.708 131.193 277.709 131.634C 278.24 131.868 279.638 131.439 280.167 131.675C 281.429 132.237 282.688 132.806 283.942 133.379C 280.791 136.955 277.64 140.532 274.489 144.107C 245.654 133.964 216.245 132.72 186.653 134.322C 182.636 123.406 178.62 112.491 174.604 101.576z"/>
<path style="stroke:none; fill:#d16c2a" d="M 183.354 100.819L 189.949 100.058L 193.247 108.574L 187.123 109.334L 183.354 100.819z"/>
<path style="stroke:none; fill:#f8a92a" d="M 283.825 133.384C 283.808 131.028 280.662 129.946 279.983 131.278C 279.445 132.013 277.297 131.028 275.048 128.728C 265.284 124.299 251.41 119.711 236.884 115.746C 222.384 111.789 206.894 109.606 193.247 108.574C 191.205 108.827 189.164 109.081 187.123 109.334C 202.992 111.144 218.543 112.896 234.654 116.746C 248.68 120.097 264.49 127.425 277.461 132.899C 280.788 133.734 281.668 133.967 283.825 133.384z"/>
<path style="stroke:none; fill:#af5d2b" d="M 277.056 132.703C 279.976 133.59 282.252 133.888 283.922 133.363L 276.862 143.505C 275.764 144.359 274.434 144.12 273.336 143.777C 274.525 140.061 275.868 136.419 277.056 132.703z"/>
<path style="stroke:none; fill:#8e2f2d" d="M 190.875 118.002C 195.279 111.998 205.409 116.31 210.725 119.202C 217.238 121.552 211.236 126.473 210.139 127.554C 204.041 129.824 193.795 116.782 195.182 129.182C 194.148 125.582 191.908 121.601 190.875 118.002z"/>
<path style="stroke:none; fill:#2c2c2b" d="M 191.27 119.078C 195.676 113.074 205.805 117.387 211.121 120.279C 217.633 122.628 211.632 127.549 210.535 128.63C 204.436 130.9 194.19 117.858 195.579 130.258C 194.543 126.659 192.304 122.677 191.27 119.078z"/>
<path style="stroke:none; fill:#ef8020" d="M 141.301 37.6783C 139.186 32.6382 141.12 29.4922 151.968 30.5112C 163.874 30.3343 175.828 32.179 191.48 31.2973C 183.212 35.5571 179.978 35.9207 162.374 38.5543C 152.668 39.0745 143.967 38.7825 141.301 37.6783z"/>
<path style="stroke:none; fill:#d16c2a" d="M 141.301 37.6783C 139.186 32.6382 141.12 29.4922 151.968 30.5112C 136.871 34.1475 142.114 41.3387 166.395 37.7431C 157.702 39.4409 145.189 40.2037 141.301 37.6783z"/>
<path style="stroke:none; fill:#f59a2c" d="M 145.112 37.6407C 143.193 36.1053 144.8 35.6403 154.171 35.4507C 158.233 35.1955 162.92 35.6731 167.77 35.1066C 174.86 34.2761 182.489 32.3163 190.6 31.7004C 183.554 33.4794 178.425 35.8636 163.298 37.5633C 154.939 38.1966 147.434 37.8708 145.112 37.6407z"/>
<path style="stroke:none; fill:#2c2c2b" d="M 146.322 212.299L 165.633 142.722L 165.655 142.654C 167.68 137.032 170.875 133.765 173.851 132.715C 175.113 132.268 176.349 132.206 177.467 132.517C 178.606 132.833 179.603 133.524 180.363 134.576C 182 136.845 182.531 140.888 180.871 146.527L 178.983 146.007C 180.462 140.984 180.084 137.515 178.752 135.67C 178.256 134.984 177.63 134.539 176.93 134.345C 176.207 134.144 175.382 134.193 174.518 134.499C 172.043 135.371 169.334 138.231 167.522 143.232L 148.218 212.79L 146.322 212.299z"/>
<path style="stroke:#2c2c2b; stroke-width:0.216027; fill:#2c2c2b" d="M 146.601 211.541C 147.907 211.541 148.972 212.542 148.972 213.77C 148.972 214.999 147.907 216.001 146.601 216.001C 145.295 216.001 144.23 214.999 144.23 213.77C 144.23 212.542 145.295 211.541 146.601 211.541z"/>
<g>
<path style="stroke:none; fill:#525253" d="M 201.927 230.298L 197.954 230.4L 198.908 286.443L 202.883 286.341L 201.927 230.298z"/>
<path style="stroke:none; fill:#404040" d="M 201.632 230.351L 200.472 230.331L 200.836 286.222L 202.29 286.117L 201.632 230.351z"/>
<path style="stroke:none; fill:#666768" d="M 199.188 230.409L 198.464 230.383L 198.828 286.275L 199.834 286.157L 199.188 230.409z"/>
<path style="stroke:none; fill:#787979" d="M 199.559 230.431L 198.835 230.404L 199.2 286.296L 200.205 286.178L 199.559 230.431z"/>
</g>
<g>
<g>
<path style="stroke:none; fill:#525253" d="M 201.234 285.348C 202.104 283.967 201.88 282.709 200.338 281.597L 180.401 286.821L 181.296 290.571C 187.942 288.829 194.588 287.088 201.234 285.348z"/>
<path style="stroke:none; fill:#404040" d="M 201.409 285.072L 201.709 283.897L 180.897 288.626L 181.249 289.993L 201.409 285.072z"/>
<path style="stroke:none; fill:#666768" d="M 201.221 282.489L 200.712 281.978L 180.444 286.733L 180.703 287.674L 201.221 282.489z"/>
<path style="stroke:none; fill:#787979" d="M 201.423 282.892L 201.018 282.332L 180.517 287.086L 180.776 288.028L 201.423 282.892z"/>
</g>
<path style="stroke:none; fill:#454545" d="M 180.722 286.585C 181.287 286.483 181.921 287.292 182.133 288.387C 182.345 289.482 182.056 290.458 181.49 290.562C 180.925 290.663 180.291 289.854 180.079 288.759C 179.868 287.664 180.156 286.687 180.722 286.585z"/>
</g>
<path style="stroke:none; fill:#9e9fa1" d="M 250.301 138.47L 236.931 170.501L 253.933 143.695L 236.785 177.521L 264.376 142.559L 215.819 212.753L 250.301 138.47z"/>
<path style="stroke:#2c2c2b; stroke-width:0.283286; fill:#2c2c2b" d="M 215.222 225.178C 216.142 226.335 217.062 227.494 217.982 228.653C 217.663 236.542 220.318 235.148 224.567 234.338C 222.322 235.893 219.429 237.373 215.222 236.315C 215.222 232.603 215.222 228.89 215.222 225.178z"/>
<path style="stroke:none; fill:#737476" d="M 216.119 224.815L 225.314 224.091L 225.464 227.132L 218.735 227.783L 216.119 224.815z"/>
</g>
</g>
</g>
<g>
</g>
</svg>