<?xml version="1.0" encoding="UTF-8" standalone="no"?>
<!-- Created with Inkscape (http://www.inkscape.org/) -->
<svg xmlns:dc="http://purl.org/dc/elements/1.1/" xmlns:cc="http://creativecommons.org/ns#" xmlns:rdf="http://www.w3.org/1999/02/22-rdf-syntax-ns#" xmlns:svg="http://www.w3.org/2000/svg" xmlns="http://www.w3.org/2000/svg" xmlns:xlink="http://www.w3.org/1999/xlink" xmlns:sodipodi="http://sodipodi.sourceforge.net/DTD/sodipodi-0.dtd" xmlns:inkscape="http://www.inkscape.org/namespaces/inkscape" version="1.0" width="512" height="512" id="svg3314" inkscape:version="0.48.3.1 r9886" sodipodi:docname="colomba.svg">
  <metadata id="metadata80">
    <rdf:RDF>
      <cc:Work rdf:about="">
        <dc:format>image/svg+xml</dc:format>
        <dc:type rdf:resource="http://purl.org/dc/dcmitype/StillImage"/>
        <dc:title/>
      </cc:Work>
    </rdf:RDF>
  </metadata>
  <sodipodi:namedview pagecolor="#ffffff" bordercolor="#666666" borderopacity="1" objecttolerance="10" gridtolerance="10" guidetolerance="10" inkscape:pageopacity="0" inkscape:pageshadow="2" inkscape:window-width="1280" inkscape:window-height="973" id="namedview78" showgrid="false" inkscape:zoom="1.4882812" inkscape:cx="140.89263" inkscape:cy="229.87417" inkscape:window-x="-4" inkscape:window-y="-4" inkscape:window-maximized="1" inkscape:current-layer="svg3314"/>
  <defs id="defs3316">
    <linearGradient id="linearGradient9111">
      <stop offset="0" style="stop-color:#ffffff;stop-opacity:1" id="stop9113"/>
      <stop offset="1" style="stop-color:#ffffff;stop-opacity:0" id="stop9115"/>
    </linearGradient>
    <linearGradient id="linearGradient10381">
      <stop offset="0" style="stop-color:#3465a4;stop-opacity:1" id="stop10383"/>
      <stop offset="1" style="stop-color:#3465a4;stop-opacity:0" id="stop10385"/>
    </linearGradient>
    <linearGradient id="linearGradient5537">
      <stop offset="0" style="stop-color:#73a0d0;stop-opacity:1" id="stop5539"/>
      <stop offset="1" style="stop-color:#ffffff;stop-opacity:1" id="stop5541"/>
    </linearGradient>
    <clipPath id="clipPath3613">
      <rect style="fill:#ffffff;fill-opacity:1;fill-rule:nonzero;stroke:none" id="rect3615" y="6" x="6" ry="6" rx="6" height="84" width="84"/>
    </clipPath>
    <linearGradient gradientUnits="userSpaceOnUse" xlink:href="#linearGradient3737" id="linearGradient3613" y2="138.66119" x2="48" y1="20.220806" x1="48"/>
    <filter id="filter3794" color-interpolation-filters="sRGB" height="1.3839999" width="1.3839999" y="-0.192" x="-0.192">
      <feGaussianBlur stdDeviation="5.28" id="feGaussianBlur3796"/>
    </filter>
    <filter id="filter3174" color-interpolation-filters="sRGB">
      <feGaussianBlur stdDeviation="1.71" id="feGaussianBlur3176"/>
    </filter>
    <linearGradient id="linearGradient3737">
      <stop offset="0" style="stop-color:#ffffff;stop-opacity:1" id="stop3739"/>
      <stop offset="1" style="stop-color:#ffffff;stop-opacity:0" id="stop3741"/>
    </linearGradient>
    <linearGradient gradientTransform="scale(1.0058652,0.994169)" gradientUnits="userSpaceOnUse" id="ButtonShadow" y2="7.0165396" x2="45.447727" y1="92.539597" x1="45.447727">
      <stop offset="0" style="stop-color:#000000;stop-opacity:1" id="stop3750"/>
      <stop offset="1" style="stop-color:#000000;stop-opacity:0.58823532" id="stop3752"/>
    </linearGradient>
    <linearGradient id="linearGradient4180">
      <stop offset="0" style="stop-color:#ffffff;stop-opacity:1" id="stop4182"/>
      <stop offset="1" style="stop-color:#ffffff;stop-opacity:0" id="stop4184"/>
    </linearGradient>
    <linearGradient id="linearGradient4365">
      <stop offset="0" style="stop-color:#afc9e4;stop-opacity:1" id="stop4367"/>
      <stop offset="0.6079039" style="stop-color:#d7e4f1;stop-opacity:1" id="stop4373"/>
      <stop offset="1" style="stop-color:#ffffff;stop-opacity:0" id="stop4369"/>
    </linearGradient>
    <linearGradient id="linearGradient4386">
      <stop offset="0" style="stop-color:#ffffff;stop-opacity:1" id="stop4388"/>
      <stop offset="1" style="stop-color:#ffffff;stop-opacity:0" id="stop4390"/>
    </linearGradient>
    <linearGradient id="linearGradient4689">
      <stop offset="0" style="stop-color:#333333;stop-opacity:1" id="stop4691"/>
      <stop offset="1" style="stop-color:#8e8e8e;stop-opacity:1" id="stop4693"/>
    </linearGradient>
    <linearGradient inkscape:collect="always" xlink:href="#linearGradient5537" id="linearGradient6275" gradientUnits="userSpaceOnUse" gradientTransform="matrix(-0.29383141,-0.94082615,0.6431198,-0.26546663,66.561115,108.93405)" x1="70.450516" y1="14.61886" x2="64.943352" y2="14.321467"/>
    <linearGradient inkscape:collect="always" xlink:href="#linearGradient5537" id="linearGradient6277" gradientUnits="userSpaceOnUse" gradientTransform="matrix(-0.13821423,-0.97590346,0.67752051,-0.15824529,54.736265,107.6126)" x1="70.450516" y1="14.61886" x2="64.943352" y2="14.321467"/>
    <linearGradient inkscape:collect="always" xlink:href="#linearGradient5537" id="linearGradient6279" gradientUnits="userSpaceOnUse" gradientTransform="matrix(-0.06358192,-0.98826118,0.83700708,-0.06966826,47.383263,104.46669)" x1="70.450516" y1="14.61886" x2="64.943352" y2="14.321467"/>
    <linearGradient inkscape:collect="always" xlink:href="#linearGradient5537" id="linearGradient6281" gradientUnits="userSpaceOnUse" gradientTransform="matrix(0.10499196,-0.89862864,0.87344451,0.06349783,35.225246,94.387093)" x1="70.450516" y1="14.61886" x2="64.943352" y2="14.321467"/>
    <linearGradient inkscape:collect="always" xlink:href="#linearGradient5537" id="linearGradient6283" gradientUnits="userSpaceOnUse" gradientTransform="matrix(0.23668605,-0.87323334,0.85446016,0.19192478,26.534834,88.557073)" x1="70.450516" y1="14.61886" x2="64.943352" y2="14.321467"/>
    <linearGradient inkscape:collect="always" xlink:href="#linearGradient5537" id="linearGradient6285" gradientUnits="userSpaceOnUse" gradientTransform="matrix(0.374028,-0.92497843,0.89400056,0.32486048,17.313482,87.354912)" x1="70.450516" y1="14.61886" x2="64.943352" y2="14.321467"/>
    <linearGradient inkscape:collect="always" xlink:href="#linearGradient5537" id="linearGradient6287" gradientUnits="userSpaceOnUse" gradientTransform="matrix(0.50829293,-0.85855712,0.83528935,0.45504179,9.3342172,78.272335)" x1="70.450516" y1="14.61886" x2="64.943352" y2="14.321467"/>
    <linearGradient inkscape:collect="always" xlink:href="#linearGradient5537" id="linearGradient6289" gradientUnits="userSpaceOnUse" gradientTransform="matrix(0.69014104,-0.72054658,0.70999205,0.63299496,-0.92238406,63.731906)" x1="70.450516" y1="14.61886" x2="64.943352" y2="14.321467"/>
    <linearGradient inkscape:collect="always" xlink:href="#linearGradient5537" id="linearGradient6291" gradientUnits="userSpaceOnUse" gradientTransform="matrix(0.91103499,-0.72798836,0.70757166,0.85539799,-13.727445,58.02313)" x1="70.450516" y1="14.61886" x2="64.943352" y2="14.321467"/>
    <linearGradient inkscape:collect="always" xlink:href="#linearGradient5537" id="linearGradient6293" gradientUnits="userSpaceOnUse" gradientTransform="matrix(1.0380999,-0.53131947,0.52242877,0.97950577,-18.519181,38.866598)" x1="70.450516" y1="14.61886" x2="64.943352" y2="14.321467"/>
    <linearGradient inkscape:collect="always" xlink:href="#linearGradient5537" id="linearGradient6295" gradientUnits="userSpaceOnUse" gradientTransform="matrix(1.1068791,-0.36711106,0.36724302,1.0476144,-18.821626,24.457059)" x1="70.450516" y1="14.61886" x2="64.943352" y2="14.321467"/>
    <linearGradient inkscape:collect="always" xlink:href="#linearGradient5537" id="linearGradient6297" gradientUnits="userSpaceOnUse" gradientTransform="matrix(1.1518065,-0.18246538,0.19222095,1.0933501,-16.198551,10.821161)" x1="70.450516" y1="14.61886" x2="64.943352" y2="14.321467"/>
    <linearGradient inkscape:collect="always" xlink:href="#linearGradient5537" id="linearGradient6299" gradientUnits="userSpaceOnUse" x1="70.450516" y1="14.61886" x2="64.943352" y2="14.321467"/>
    <radialGradient inkscape:collect="always" xlink:href="#linearGradient10381" id="radialGradient6301" gradientUnits="userSpaceOnUse" gradientTransform="matrix(1.1538694,0.19867533,-0.36501712,2.1199515,2.864079,-49.797812)" cx="63.151211" cy="35.269764" fx="63.151211" fy="35.269764" r="6.4435077"/>
    <radialGradient inkscape:collect="always" xlink:href="#linearGradient5537" id="radialGradient6303" gradientUnits="userSpaceOnUse" gradientTransform="matrix(1.4047818,0.3764101,-0.60647532,2.2633969,-5.3234846,-67.027583)" cx="67.607269" cy="36.345589" fx="67.607269" fy="36.345589" r="6.4435077"/>
    <linearGradient inkscape:collect="always" xlink:href="#linearGradient10381" id="linearGradient6305" gradientUnits="userSpaceOnUse" gradientTransform="matrix(-0.29383141,-0.94082615,0.6431198,-0.26546663,66.561115,108.93405)" x1="61.917023" y1="13.494572" x2="80.082893" y2="16.305988"/>
    <linearGradient inkscape:collect="always" xlink:href="#linearGradient5537" id="linearGradient6307" gradientUnits="userSpaceOnUse" x1="9.1014318" y1="69.384567" x2="44.035625" y2="65.869286"/>
    <linearGradient inkscape:collect="always" xlink:href="#linearGradient10381" id="linearGradient6309" gradientUnits="userSpaceOnUse" x1="37.048386" y1="71.500641" x2="35.17712" y2="69.033035"/>
    <linearGradient inkscape:collect="always" xlink:href="#linearGradient5537" id="linearGradient6311" gradientUnits="userSpaceOnUse" x1="75.813263" y1="55.174763" x2="61.811275" y2="44.605495"/>
    <linearGradient inkscape:collect="always" xlink:href="#linearGradient5537" id="linearGradient6313" gradientUnits="userSpaceOnUse" x1="9.1014318" y1="69.384567" x2="44.035625" y2="65.869286"/>
    <linearGradient inkscape:collect="always" xlink:href="#linearGradient10381" id="linearGradient6315" gradientUnits="userSpaceOnUse" x1="35.887863" y1="70.860985" x2="34.263149" y2="68.751816"/>
    <linearGradient inkscape:collect="always" xlink:href="#linearGradient5537" id="linearGradient6317" gradientUnits="userSpaceOnUse" x1="9.1014318" y1="69.384567" x2="44.035625" y2="65.869286"/>
    <linearGradient inkscape:collect="always" xlink:href="#linearGradient10381" id="linearGradient6319" gradientUnits="userSpaceOnUse" x1="36.133625" y1="71.200294" x2="34.322426" y2="68.860443"/>
    <linearGradient inkscape:collect="always" xlink:href="#linearGradient5537" id="linearGradient6321" gradientUnits="userSpaceOnUse" x1="9.1014318" y1="69.384567" x2="44.035625" y2="65.869286"/>
    <linearGradient inkscape:collect="always" xlink:href="#linearGradient10381" id="linearGradient6323" gradientUnits="userSpaceOnUse" x1="36.864983" y1="71.45224" x2="34.860695" y2="68.835716"/>
    <linearGradient inkscape:collect="always" xlink:href="#linearGradient5537" id="linearGradient6325" gradientUnits="userSpaceOnUse" x1="9.1014318" y1="69.384567" x2="44.035625" y2="65.869286"/>
    <linearGradient inkscape:collect="always" xlink:href="#linearGradient10381" id="linearGradient6327" gradientUnits="userSpaceOnUse" x1="37.048386" y1="71.500641" x2="35.17712" y2="69.033035"/>
    <linearGradient inkscape:collect="always" xlink:href="#linearGradient5537" id="linearGradient6329" gradientUnits="userSpaceOnUse" x1="9.1014318" y1="69.384567" x2="44.035625" y2="65.869286"/>
    <linearGradient inkscape:collect="always" xlink:href="#linearGradient10381" id="linearGradient6331" gradientUnits="userSpaceOnUse" x1="37.048386" y1="71.500641" x2="35.17712" y2="69.033035"/>
    <radialGradient inkscape:collect="always" xlink:href="#linearGradient4180" id="radialGradient6333" gradientUnits="userSpaceOnUse" gradientTransform="matrix(1,0,0,0.39018089,0,31.939506)" cx="61.482243" cy="52.375378" fx="61.482243" fy="52.375378" r="13.604133"/>
    <radialGradient inkscape:collect="always" xlink:href="#linearGradient4180" id="radialGradient6335" gradientUnits="userSpaceOnUse" gradientTransform="matrix(1,0,0,0.39018089,0,31.939506)" cx="61.482243" cy="52.375378" fx="61.482243" fy="52.375378" r="13.604133"/>
    <linearGradient inkscape:collect="always" xlink:href="#linearGradient9111" id="linearGradient6337" gradientUnits="userSpaceOnUse" x1="185.18442" y1="178.86754" x2="185.18442" y2="162.24416"/>
    <radialGradient inkscape:collect="always" xlink:href="#linearGradient9111" id="radialGradient6339" gradientUnits="userSpaceOnUse" gradientTransform="matrix(1.765929,0,0,3.004776,-141.8381,-325.2632)" cx="185.18442" cy="162.24416" fx="185.18442" fy="162.24416" r="8.3116884"/>
    <linearGradient inkscape:collect="always" xlink:href="#linearGradient10381" id="linearGradient6341" gradientUnits="userSpaceOnUse" gradientTransform="translate(2.0817487,-0.09913089)" x1="54.918514" y1="46.038033" x2="56.407074" y2="43.359901"/>
    <linearGradient inkscape:collect="always" xlink:href="#linearGradient4689" id="linearGradient6343" gradientUnits="userSpaceOnUse" x1="79.549545" y1="37.402405" x2="80.237526" y2="36.210793"/>
    <linearGradient inkscape:collect="always" xlink:href="#linearGradient10381" id="linearGradient6345" gradientUnits="userSpaceOnUse" gradientTransform="matrix(1.0583702,0,0,1.0583702,106.48472,88.129329)" x1="65.102982" y1="43.973858" x2="61.658012" y2="48.192196"/>
    <linearGradient inkscape:collect="always" xlink:href="#linearGradient5537" id="linearGradient6347" gradientUnits="userSpaceOnUse" gradientTransform="matrix(1.0583702,0,0,1.0583702,106.48472,88.129329)" x1="84.465385" y1="48.5914" x2="65.205391" y2="43.941429"/>
    <radialGradient inkscape:collect="always" xlink:href="#linearGradient4365" id="radialGradient6349" gradientUnits="userSpaceOnUse" gradientTransform="matrix(-0.85465586,1.4803075,-1.2931063,-0.74657518,156.59149,10.981939)" cx="49.604916" cy="49.674488" fx="49.604916" fy="49.674488" r="7.2365556"/>
    <linearGradient inkscape:collect="always" xlink:href="#linearGradient5537" id="linearGradient6351" gradientUnits="userSpaceOnUse" gradientTransform="matrix(-0.27887968,-0.30701103,0.48235674,-0.18419861,41.614451,61.197743)" x1="20.933344" y1="25.305296" x2="26.542828" y2="21.170889"/>
    <linearGradient inkscape:collect="always" xlink:href="#linearGradient5537" id="linearGradient6353" gradientUnits="userSpaceOnUse" gradientTransform="matrix(-0.14252191,-0.62767204,0.45739439,0.00942642,37.194199,63.407624)" x1="21.773262" y1="25.738026" x2="25.605629" y2="21.656607"/>
    <linearGradient inkscape:collect="always" xlink:href="#linearGradient5537" id="linearGradient6355" gradientUnits="userSpaceOnUse" gradientTransform="matrix(-0.07073452,-0.63975098,0.45340459,0.06101447,33.054412,62.593215)" x1="23.039406" y1="25.915821" x2="26.253416" y2="22.725372"/>
    <linearGradient inkscape:collect="always" xlink:href="#linearGradient5537" id="linearGradient6357" gradientUnits="userSpaceOnUse" gradientTransform="matrix(-0.09287088,-0.69074079,0.59529747,0.06587748,28.356167,62.824443)" x1="23.039406" y1="25.915821" x2="26.253416" y2="22.725372"/>
    <linearGradient inkscape:collect="always" xlink:href="#linearGradient5537" id="linearGradient6359" gradientUnits="userSpaceOnUse" gradientTransform="matrix(-0.0413458,-0.75679984,0.64741958,0.12423436,23.070088,62.77083)" x1="22.780287" y1="26.208443" x2="26.077471" y2="22.997927"/>
    <linearGradient inkscape:collect="always" xlink:href="#linearGradient5537" id="linearGradient6361" gradientUnits="userSpaceOnUse" gradientTransform="matrix(0.05521067,-0.75591485,0.62637009,0.20554026,19.138274,59.639206)" x1="22.780287" y1="26.208443" x2="25.829515" y2="23.096273"/>
    <linearGradient inkscape:collect="always" xlink:href="#linearGradient5537" id="linearGradient6363" gradientUnits="userSpaceOnUse" gradientTransform="matrix(0.16129127,-0.71515223,0.70286535,0.26188884,13.608699,55.777953)" x1="22.780287" y1="26.208443" x2="25.573374" y2="23.118851"/>
    <linearGradient inkscape:collect="always" xlink:href="#linearGradient5537" id="linearGradient6365" gradientUnits="userSpaceOnUse" gradientTransform="matrix(0.24118273,-0.69230664,0.66871494,0.33974373,10.672584,51.416745)" x1="22.780287" y1="26.208443" x2="25.573374" y2="23.118851"/>
    <linearGradient inkscape:collect="always" xlink:href="#linearGradient5537" id="linearGradient6367" gradientUnits="userSpaceOnUse" gradientTransform="matrix(0.36940784,-0.63324201,0.59119618,0.46161949,7.4087989,46.027865)" x1="22.780287" y1="26.208443" x2="25.573374" y2="23.118851"/>
    <linearGradient inkscape:collect="always" xlink:href="#linearGradient5537" id="linearGradient6369" gradientUnits="userSpaceOnUse" gradientTransform="matrix(0.4566873,-0.57349307,0.51861549,0.54188878,5.3598326,40.666557)" x1="22.780287" y1="26.208443" x2="25.573374" y2="23.118851"/>
    <linearGradient inkscape:collect="always" xlink:href="#linearGradient5537" id="linearGradient6371" gradientUnits="userSpaceOnUse" gradientTransform="matrix(0.70482264,-0.48371334,0.53049681,0.62504582,-1.609593,34.187183)" x1="21.88559" y1="27.665836" x2="25.080116" y2="23.700602"/>
    <linearGradient inkscape:collect="always" xlink:href="#linearGradient5537" id="linearGradient6373" gradientUnits="userSpaceOnUse" gradientTransform="matrix(0.82531775,-0.37795789,0.38749599,0.79637534,-2.8354874,25.102925)" x1="21.88559" y1="27.665836" x2="25.080116" y2="23.700602"/>
    <linearGradient inkscape:collect="always" xlink:href="#linearGradient5537" id="linearGradient6375" gradientUnits="userSpaceOnUse" gradientTransform="matrix(0.86950912,-0.26068262,0.27411613,0.84215627,-2.8826283,17.907295)" x1="21.88559" y1="27.665836" x2="25.080116" y2="23.700602"/>
    <linearGradient inkscape:collect="always" xlink:href="#linearGradient5537" id="linearGradient6377" gradientUnits="userSpaceOnUse" gradientTransform="matrix(0.98577292,-0.16808257,0.16808257,0.98577292,-3.5363877,9.2268989)" x1="21.88559" y1="27.665836" x2="25.080116" y2="23.700602"/>
    <linearGradient inkscape:collect="always" xlink:href="#linearGradient5537" id="linearGradient6379" gradientUnits="userSpaceOnUse" x1="21.88559" y1="27.665836" x2="25.080116" y2="23.700602"/>
    <linearGradient inkscape:collect="always" xlink:href="#linearGradient5537" id="linearGradient6381" gradientUnits="userSpaceOnUse" x1="23.580414" y1="25.360611" x2="27.459255" y2="22.287554"/>
    <linearGradient inkscape:collect="always" xlink:href="#linearGradient5537" id="linearGradient6383" gradientUnits="userSpaceOnUse" x1="11.00353" y1="45.351547" x2="62.591721" y2="38.610649"/>
    <linearGradient inkscape:collect="always" xlink:href="#linearGradient4386" id="linearGradient6385" gradientUnits="userSpaceOnUse" x1="49.875217" y1="37.607822" x2="45.741295" y2="41.672188"/>
  </defs>
  <g id="layer2" style="display:none" transform="translate(69.230684,360.18165)">
    <rect width="86" height="85" rx="6" ry="6" x="5" y="7" id="rect3745" style="opacity:0.9;fill:url(#ButtonShadow);fill-opacity:1;fill-rule:nonzero;stroke:none;filter:url(#filter3174)"/>
  </g>
  <g id="layer5" style="display:none" transform="translate(69.230684,360.18165)">
    <rect width="66" height="66" rx="12" ry="12" x="15" y="15" clip-path="url(#clipPath3613)" id="rect3171" style="opacity:0.1;fill:url(#linearGradient3613);fill-opacity:1;fill-rule:nonzero;stroke:#ffffff;stroke-width:0.5;stroke-linecap:round;stroke-linejoin:miter;stroke-miterlimit:4;stroke-opacity:1;stroke-dasharray:none;stroke-dashoffset:0;filter:url(#filter3794)"/>
  </g>
  <g id="g6199" transform="matrix(6.5782937,0,0,6.5782937,-504.63257,-635.08519)">
    <g transform="translate(65.871104,94.774826)" id="g4584">
      <path d="m 63.212585,39.351952 c -0.318769,0.131575 -8.054915,2.261889 -12.677501,3.653686 -2.712774,0.81682 -1.022297,4.14792 1.296354,3.724862 2.493339,-0.45493 11.910942,-5.912625 11.910942,-5.912625 l -0.529795,-1.465923 z" inkscape:connector-curvature="0" id="path4643" style="fill:url(#linearGradient6275);fill-opacity:1;stroke:none"/>
      <path d="m 62.65619,38.401649 c -0.335819,0.07843 -8.314296,0.932891 -13.100857,1.56077 -2.80901,0.368512 -1.678027,3.928683 0.678502,3.885198 2.53407,-0.04676 12.708737,-3.91378 12.708737,-3.91378 L 62.65619,38.401649 z" inkscape:connector-curvature="0" id="path4639" style="fill:url(#linearGradient6277);fill-opacity:1;stroke:none"/>
      <path d="m 64.327837,36.672813 c -0.41487,0.03453 -10.164201,-0.148378 -16.025411,-0.143504 -3.439675,0.0029 -2.448979,3.689265 0.408388,3.950994 3.072639,0.281449 15.80084,-2.246921 15.80084,-2.246921 l -0.183817,-1.560569 z" inkscape:connector-curvature="0" id="path4635" style="fill:url(#linearGradient6279);fill-opacity:1;stroke:none"/>
      <path d="m 64.355536,35.953668 c -0.432929,-0.03147 -10.435192,-1.665649 -16.468266,-2.544791 -3.540534,-0.515927 -3.156664,2.949715 -0.261058,3.615892 3.113758,0.716367 16.64938,0.360503 16.64938,0.360503 l 0.07994,-1.431604 z" inkscape:connector-curvature="0" id="path4631" style="fill:url(#linearGradient6281);fill-opacity:1;stroke:none"/>
      <path d="m 63.983484,35.072144 c -0.423519,-0.09513 -10.074293,-3.190022 -15.91111,-4.951396 -3.42536,-1.033669 -3.558047,2.450642 -0.792741,3.537568 2.973642,1.168815 16.413146,2.817884 16.413146,2.817884 l 0.290705,-1.404056 z" inkscape:connector-curvature="0" id="path4627" style="fill:url(#linearGradient6283);fill-opacity:1;stroke:none"/>
      <path d="M 64.939677,33.778564 C 64.49656,33.617547 54.183461,29.609683 48.480212,26.220042 c -3.38696,-2.012988 -4.166075,2.207788 -1.336353,3.769469 3.042911,1.679337 17.291195,5.288359 17.291195,5.288359 l 0.504623,-1.499306 z" inkscape:connector-curvature="0" id="path4623" style="fill:url(#linearGradient6285);fill-opacity:1;stroke:none"/>
      <path d="M 64.44467,32.430024 C 64.030653,32.204482 54.433812,26.697793 49.30231,22.49251 c -3.047419,-2.49737 -4.449654,1.559194 -1.885626,3.526918 2.757199,2.11597 16.304586,7.817456 16.304586,7.817456 l 0.7234,-1.40686 z" inkscape:connector-curvature="0" id="path4619" style="fill:url(#linearGradient6287);fill-opacity:1;stroke:none"/>
      <path d="m 63.165621,31.616378 c -0.351913,-0.313745 -7.9204,-8.30667 -12.487158,-13.119303 -3.001737,-3.163349 -4.079437,0.954295 -2.63795,3.005987 1.998029,2.843828 14.100859,11.318919 14.100859,11.318919 l 1.024249,-1.205603 z" inkscape:connector-curvature="0" id="path4615" style="fill:url(#linearGradient6289);fill-opacity:1;stroke:none"/>
      <path d="m 65.058132,31.041559 c -0.350713,-0.423981 -7.685297,-10.99617 -12.112629,-17.363395 -2.910092,-4.1851859 -4.832834,0.445032 -3.524364,3.076588 1.813655,3.647569 14.262146,15.52626 14.262146,15.52626 l 1.374847,-1.239453 z" inkscape:connector-curvature="0" id="path4611" style="fill:url(#linearGradient6291);fill-opacity:1;stroke:none"/>
      <path d="M 64.06838,28.167673 C 63.809435,27.682177 58.778122,15.839018 55.668541,8.7345571 54.539638,6.1553523 51.02739,6.0860068 51.562892,10.733878 c 0.834551,7.24345 10.910752,18.373616 10.910752,18.373616 l 1.594736,-0.939821 z" inkscape:connector-curvature="0" id="path4607" style="fill:url(#linearGradient6293);fill-opacity:1;stroke:none"/>
      <path d="M 64.432108,26.454078 C 64.250081,25.934823 61.080133,13.463819 59.088212,5.9688144 58.365064,3.2478262 54.533468,2.4229307 55.06527,7.0712261 55.895427,14.327334 62.712898,27.140201 62.712898,27.140201 l 1.71921,-0.686123 z" inkscape:connector-curvature="0" id="path4603" style="fill:url(#linearGradient6295);fill-opacity:1;stroke:none"/>
      <path d="M 65.625471,26.31315 C 65.530195,25.771225 63.947595,12.982503 63.679599,5.2319535 63.622133,3.570006 59.643669,-0.73385137 59.531024,5.6663504 59.398395,12.968589 63.817652,26.710941 63.817652,26.710941 l 1.807819,-0.397791 z" inkscape:connector-curvature="0" id="path4599" style="fill:url(#linearGradient6297);fill-opacity:1;stroke:none"/>
      <path d="m 66.81422,25.319676 c 0,-0.495655 0.562363,-12.098627 1.486964,-19.0331321 C 68.499446,4.7995805 66.320033,0.77147275 64.732472,6.0882822 62.84896,12.396241 65.228126,25.418806 65.228126,25.418806 l 1.586094,-0.09913 z" inkscape:connector-curvature="0" id="path4589" style="fill:url(#linearGradient6299);fill-opacity:1;stroke:none"/>
      <path inkscape:connector-curvature="0" d="m 66.71875,19.28125 -0.5,4.65625 -1,-3.1875 -0.1875,3.78125 -1.5,-3.375 0.3125,3.5625 -2,-2.875 0.8125,3.46875 -2.28125,-1.1875 1.46875,2.1875 -2.65625,-0.6875 2.28125,1.78125 -3.5625,-0.59375 2.875,1.875 -2.59375,0.09375 2.1875,1.09375 -3.0625,0.3125 2.46875,0.875 -3.28125,0.40625 2.28125,1 -2.96875,0.28125 2.96875,0.8125 -2.5625,0.59375 2.65625,0.59375 -3.375,0.875 2.78125,0.5 -3.375,1 3.28125,0.375 -3.375,1.09375 2.96875,0.3125 -2.65625,1.1875 2.65625,0 -2.0625,1.1875 2.375,-0.1875 -1.875,1.5625 2.5625,-0.78125 -1.1875,1.96875 7.03125,-1.1875 c 0,0 0.318086,-8.303182 3.09375,-13.65625 -0.793047,-3.172189 -1,-9.71875 -1,-9.71875 z" transform="matrix(1.1567439,0,0,1.1130042,-10.614504,-4.9545266)" id="path4568" style="opacity:0.4;fill:url(#radialGradient6301);fill-opacity:1;stroke:none"/>
      <path d="m 64.633341,42.66758 c 0.198262,-7.533948 3.073058,-11.300921 3.073057,-13.680062 -0.793047,-3.172189 -0.991309,-9.714827 -0.991309,-9.714827 l -0.495654,4.659151 -0.991309,-3.172188 -0.198262,3.766974 -1.486963,-3.37045 0.297393,3.568712 -1.982618,-2.874796 0.793046,3.469581 -2.28001,-1.189571 1.486964,2.18088 -2.676534,-0.693916 2.280011,1.784356 -3.568713,-0.594785 2.874796,1.883486 -2.577403,0.09913 2.180879,1.09044 -3.073057,0.297393 2.478272,0.892178 -3.271319,0.396523 2.28001,0.991309 -2.973927,0.297393 2.973927,0.793047 -2.577403,0.594785 2.676534,0.594786 -3.37045,0.892178 2.775665,0.495654 -3.370451,0.991309 3.27132,0.396524 -3.37045,1.090439 2.973926,0.297393 -2.676534,1.189571 2.676534,0 -2.081748,1.18957 2.379141,-0.198261 -1.883487,1.586094 2.577403,-0.793047 -1.189571,1.982618 7.038294,-1.189571 z" inkscape:connector-curvature="0" id="path4546" style="fill:url(#radialGradient6303);fill-opacity:1;stroke:none"/>
      <path d="m 67.625,28.5625 c 0,0 -4.097061,8.545526 -4.592715,12.510762 L 64.65625,41.71875 C 65.0589,34.822802 67.718751,31.275463 67.71875,29 67.686443,28.87077 67.65536,28.702247 67.625,28.5625 z" inkscape:connector-curvature="0" id="path4579" style="opacity:0.1;fill:#000000;stroke:none"/>
      <path d="M 60.875,2.28125 C 60.156129,2.3746 59.573492,3.2561743 59.53125,5.65625 59.51783,6.3952534 59.55448,7.2124978 59.625,8.0625 59.449546,7.3957955 59.255847,6.5786723 59.09375,5.96875 58.370602,3.2477618 54.530698,2.4142046 55.0625,7.0625 c 0.03154,0.2756651 0.07688,0.5843021 0.125,0.875 -1.410571,-1.7373042 -4.09825,-1.3263062 -3.625,2.78125 0.06654,0.577519 0.200757,1.193177 0.375,1.8125 -2.318612,-1.94131 -3.681272,1.905859 -2.53125,4.21875 0.200498,0.403236 0.570749,0.922747 1,1.5 -2.790875,-2.632496 -3.771441,1.262423 -2.375,3.25 0.08561,0.121854 0.22278,0.264828 0.34375,0.40625 -2.239511,-0.982683 -3.151212,2.001836 -1.3125,3.8125 -2.092525,-0.202863 -2.27459,2.875083 0,4.21875 -2.206481,-0.09859 -2.251242,2.293264 -0.34375,3.4375 -2.01005,0.31465 -1.696514,2.583795 0.25,3.4375 -1.650203,0.818987 -0.724107,3.239267 1.46875,3.625 -1.051737,0.89602 -0.434302,2.756256 0.96875,3.28125 -0.916938,1.255021 0.570986,3.340562 2.4375,3 1.221938,-0.222952 4.09424,-1.636449 6.71875,-3.03125 l 6.0625,-1.03125 c 0.0086,-0.328314 0.0129,-0.623296 0.03125,-0.9375 0.0082,-0.140094 0.02125,-0.268903 0.03125,-0.40625 0.03195,-0.442023 0.07621,-0.898164 0.125,-1.3125 0.04879,-0.414336 0.124575,-0.799689 0.1875,-1.1875 0.0088,-0.05415 0.02222,-0.102601 0.03125,-0.15625 0.08288,-0.484086 0.149979,-0.962022 0.25,-1.40625 0.03425,-0.152128 0.08917,-0.289863 0.125,-0.4375 0.122427,-0.509738 0.239857,-1.010061 0.375,-1.46875 0.116878,-0.393464 0.25479,-0.735142 0.375,-1.09375 0.04459,-0.134435 0.0805,-0.27648 0.125,-0.40625 0.370257,-1.068516 0.698695,-1.988928 0.96875,-2.78125 0.01145,-0.03382 0.02014,-0.06036 0.03125,-0.09375 0.124366,-0.369859 0.239297,-0.710637 0.3125,-1.03125 0.0024,-0.01043 -0.0023,-0.02087 0,-0.03125 0.03676,-0.164118 0.07417,-0.31609 0.09375,-0.46875 0.0211,-0.16012 0.03125,-0.288804 0.03125,-0.4375 -0.03231,-0.12923 -0.06339,-0.297753 -0.09375,-0.4375 -0.05198,-0.23928 -0.109763,-0.485216 -0.15625,-0.75 0.08309,-0.16648 0.162762,-0.338117 0.25,-0.5 -0.338161,-1.301498 -0.605371,-3.105921 -0.78125,-4.875 0.217565,-3.964954 0.713902,-11.198019 1.375,-16.15625 C 68.510762,4.7942866 66.306311,0.77694055 64.71875,6.09375 64.301969,7.489565 64.102556,9.2229817 64.03125,11.0625 63.869089,8.9990566 63.747975,6.9677122 63.6875,5.21875 63.651584,4.1800328 62.073118,2.1256661 60.875,2.28125 z" inkscape:connector-curvature="0" id="path4647" style="opacity:0.3;fill:url(#linearGradient6305);fill-opacity:1;stroke:none"/>
    </g>
    <g transform="translate(65.871104,94.774826)" id="g4505">
      <g transform="matrix(0.58696835,0.0394247,-0.07865319,1.210239,26.635975,-11.587985)" id="g4140">
        <path d="m 43.167636,60.56598 c -3.775731,3.127771 -7.236255,5.584507 -10.405228,8.506977 -0.570598,0.526213 -0.479778,2.752203 1.124889,2.038862 4.399219,-1.955635 6.150727,-5.384489 9.983395,-9.913089 0.558385,-0.659776 -0.460255,-0.833883 -0.703056,-0.63275 z" inkscape:connector-curvature="0" id="path4142" style="fill:url(#linearGradient6307);fill-opacity:1;stroke:none"/>
        <path d="m 35.928119,63.805674 c -3.775731,3.127771 0.0033,2.344813 -3.165711,5.267283 -0.570598,0.526213 -0.479778,2.752203 1.124889,2.038862 4.399219,-1.955635 6.150727,-5.384489 9.983395,-9.913089 0.558385,-0.659776 -7.699772,2.405811 -7.942573,2.606944 z" inkscape:connector-curvature="0" id="path4144" style="fill:url(#linearGradient6309);fill-opacity:1;stroke:none"/>
      </g>
      <path d="M 74.297393,32.198262 C 70.132716,32.198262 68.316298,35.884599 65,38 59.996451,41.191665 54.647138,44.750354 50.504346,49 44.231142,55.435006 41.337581,63.088544 41.337581,63.088544 l 5.055675,3.766974 c 6.046985,-3.172188 10.000873,-1.937419 17.248776,-7.633078 5.307627,-4.170921 6.899077,-11.6091 10.111351,-17.546168 2.021341,-3.735933 4.947396,-3.640817 5.353068,-5.154806 0,0 -0.338266,-4.323204 -4.809058,-4.323204 z" inkscape:connector-curvature="0" id="path4038" style="fill:url(#linearGradient6311);fill-opacity:1;stroke:none"/>
      <path d="m 78,33.84375 c 0.02142,0.05009 0.702663,1.594206 0.625,1.90625 -0.08187,0.328947 -0.534315,0.05783 -0.90625,0.71875 -0.161083,0.286242 0.24628,0.620968 -0.03125,1.0625 -0.252581,0.401835 -1.273184,1.137086 -1.46875,1.28125 1.386389,-1.017292 2.621455,-1.335007 2.875,-2.28125 0,0 -0.111068,-1.461773 -1.09375,-2.6875 z" inkscape:connector-curvature="0" id="path4703" style="fill:#729fcf;fill-opacity:1;stroke:none"/>
      <path d="m 78.96875,35.84375 c -0.714782,1.197598 -3.353552,1.396407 -5.21875,4.84375 -3.212274,5.937068 -4.786123,13.360329 -10.09375,17.53125 -10.111351,7.137424 -12.491717,4.858026 -17.25,8.625 6.046985,-3.172188 10.002097,-1.929341 17.25,-7.625 5.307627,-4.170921 6.881476,-11.594182 10.09375,-17.53125 2.021341,-3.735933 4.938078,-3.642261 5.34375,-5.15625 0,0 -0.02343,-0.2822 -0.125,-0.6875 z" inkscape:connector-curvature="0" id="path4535" style="opacity:0.2;fill:#000000;fill-opacity:1;stroke:none"/>
      <path d="m 78.526112,34.679419 c 0.984278,1.195196 3.199222,1.760492 3.058611,4.221188 0,0 -1.879268,-1.214881 -4.972715,-0.441519 0,0 0.188024,-0.06565 0.451384,-0.206962 0.26336,-0.141314 0.602058,-0.358295 0.903405,-0.660961 0.301348,-0.302665 -0.481759,-1.339224 0.679306,-1.524105 0.491101,-0.0782 -0.0705,-0.801886 -0.119991,-1.387641 z" inkscape:connector-curvature="0" id="path4040" style="fill:#222222;fill-opacity:1;stroke:none"/>
      <g id="g4094">
        <path d="m 43.167636,60.56598 c -3.775731,3.127771 -7.236255,5.584507 -10.405228,8.506977 -0.570598,0.526213 -0.479778,2.752203 1.124889,2.038862 4.399219,-1.955635 6.150727,-5.384489 9.983395,-9.913089 0.558385,-0.659776 -0.460255,-0.833883 -0.703056,-0.63275 z" inkscape:connector-curvature="0" id="path4042" style="fill:url(#linearGradient6313);fill-opacity:1;stroke:none"/>
        <path d="m 43.167636,60.56598 c -3.775731,3.127771 -7.236255,5.584507 -10.405228,8.506977 -0.570598,0.526213 -0.479778,2.752203 1.124889,2.038862 4.399219,-1.955635 6.150727,-5.384489 9.983395,-9.913089 0.558385,-0.659776 -0.460255,-0.833883 -0.703056,-0.63275 z" inkscape:connector-curvature="0" id="path4090" style="fill:url(#linearGradient6315);fill-opacity:1;stroke:none"/>
      </g>
      <g transform="matrix(1.1516157,0,0,1.2220664,-6.2546568,-12.02605)" id="g4098">
        <path d="m 43.167636,60.56598 c -3.775731,3.127771 -7.236255,5.584507 -10.405228,8.506977 -0.570598,0.526213 -0.479778,2.752203 1.124889,2.038862 4.399219,-1.955635 6.150727,-5.384489 9.983395,-9.913089 0.558385,-0.659776 -0.460255,-0.833883 -0.703056,-0.63275 z" inkscape:connector-curvature="0" id="path4100" style="fill:url(#linearGradient6317);fill-opacity:1;stroke:none"/>
        <path d="m 43.167636,60.56598 c -3.775731,3.127771 -7.236255,5.584507 -10.405228,8.506977 -0.570598,0.526213 -0.479778,2.752203 1.124889,2.038862 4.399219,-1.955635 6.150727,-5.384489 9.983395,-9.913089 0.558385,-0.659776 -0.460255,-0.833883 -0.703056,-0.63275 z" inkscape:connector-curvature="0" id="path4102" style="fill:url(#linearGradient6319);fill-opacity:1;stroke:none"/>
      </g>
      <g transform="matrix(0.85173129,0.16786212,-0.29694741,1.5123222,25.080454,-35.598039)" id="g4108">
        <path d="m 43.167636,60.56598 c -3.775731,3.127771 -7.236255,5.584507 -10.405228,8.506977 -0.570598,0.526213 -0.479778,2.752203 1.124889,2.038862 4.399219,-1.955635 6.150727,-5.384489 9.983395,-9.913089 0.558385,-0.659776 -0.460255,-0.833883 -0.703056,-0.63275 z" inkscape:connector-curvature="0" id="path4110" style="fill:url(#linearGradient6321);fill-opacity:1;stroke:none"/>
        <path d="m 43.167636,60.56598 c -3.775731,3.127771 -7.236255,5.584507 -10.405228,8.506977 -0.570598,0.526213 -0.479778,2.752203 1.124889,2.038862 4.399219,-1.955635 6.150727,-5.384489 9.983395,-9.913089 0.558385,-0.659776 -0.460255,-0.833883 -0.703056,-0.63275 z" inkscape:connector-curvature="0" id="path4112" style="fill:url(#linearGradient6323);fill-opacity:1;stroke:none"/>
      </g>
      <g transform="matrix(0.73376746,0.14309462,-0.29171766,1.5133356,30.368793,-33.577015)" id="g4118">
        <path d="m 43.167636,60.56598 c -3.775731,3.127771 -7.236255,5.584507 -10.405228,8.506977 -0.570598,0.526213 -0.479778,2.752203 1.124889,2.038862 4.399219,-1.955635 6.150727,-5.384489 9.983395,-9.913089 0.558385,-0.659776 -0.460255,-0.833883 -0.703056,-0.63275 z" inkscape:connector-curvature="0" id="path4120" style="fill:url(#linearGradient6325);fill-opacity:1;stroke:none"/>
        <path d="m 43.167636,60.56598 c -3.775731,3.127771 -7.236255,5.584507 -10.405228,8.506977 -0.570598,0.526213 -0.479778,2.752203 1.124889,2.038862 4.399219,-1.955635 6.150727,-5.384489 9.983395,-9.913089 0.558385,-0.659776 -0.460255,-0.833883 -0.703056,-0.63275 z" inkscape:connector-curvature="0" id="path4122" style="fill:url(#linearGradient6327);fill-opacity:1;stroke:none"/>
      </g>
      <g transform="matrix(0.73881613,0.11419936,-0.23212617,1.5236145,28.67133,-34.269805)" id="g4130">
        <path d="m 43.167636,60.56598 c -3.775731,3.127771 -7.236255,5.584507 -10.405228,8.506977 -0.570598,0.526213 -0.479778,2.752203 1.124889,2.038862 4.399219,-1.955635 6.150727,-5.384489 9.983395,-9.913089 0.558385,-0.659776 -0.460255,-0.833883 -0.703056,-0.63275 z" inkscape:connector-curvature="0" id="path4132" style="fill:url(#linearGradient6329);fill-opacity:1;stroke:none"/>
        <path d="m 35.928119,63.805674 c -3.775731,3.127771 0.0033,2.344813 -3.165711,5.267283 -0.570598,0.526213 -0.479778,2.752203 1.124889,2.038862 4.399219,-1.955635 6.150727,-5.384489 9.983395,-9.913089 0.558385,-0.659776 -7.699772,2.405811 -7.942573,2.606944 z" inkscape:connector-curvature="0" id="path4134" style="fill:url(#linearGradient6331);fill-opacity:1;stroke:none"/>
      </g>
      <path inkscape:connector-curvature="0" d="m 75.086375,52.375378 a 13.604133,5.3080726 0 1 1 -27.208265,0 13.604133,5.3080726 0 1 1 27.208265,0 z" transform="matrix(0.87061822,-0.77390095,0.79968927,0.83942061,-35.904176,54.299218)" id="path4170" style="color:#000000;fill:url(#radialGradient6333);fill-opacity:1;fill-rule:nonzero;stroke:none;stroke-width:1;marker:none;visibility:visible;display:inline;overflow:visible;enable-background:accumulate"/>
      <path inkscape:connector-curvature="0" d="m 75.086375,52.375378 a 13.604133,5.3080726 0 1 1 -27.208265,0 13.604133,5.3080726 0 1 1 27.208265,0 z" transform="matrix(0.41850329,-0.32158362,0.38440797,0.3488094,24.198838,39.8264)" id="path4188" style="color:#000000;fill:url(#radialGradient6335);fill-opacity:1;fill-rule:nonzero;stroke:none;stroke-width:1.5780617;marker:none;visibility:visible;display:inline;overflow:visible;enable-background:accumulate"/>
      <path d="m 73.439232,33.6656 c 0,0 2.763695,-1.214322 3.554615,1.737432 -2.799232,0.750052 -0.703185,-2.501469 -3.554615,-1.737432 z" inkscape:connector-curvature="0" id="path6450" style="fill:#729fcf;fill-opacity:1;fill-rule:evenodd;stroke:none;display:inline"/>
      <g transform="matrix(0.09477601,0.02539516,-0.02539516,0.09477601,61.818411,13.790879)" id="g9129" style="display:inline">
        <path inkscape:connector-curvature="0" d="m 193.49611,170.55585 a 8.31169,8.31169 0 1 1 -16.62338,0 8.31169,8.31169 0 1 1 16.62338,0 z" transform="matrix(1.396026,0,0,1.396026,-71.55557,-66.82562)" id="path7337" style="fill:#000000;fill-opacity:1;stroke:none"/>
        <path inkscape:connector-curvature="0" d="m 193.49611,170.55585 a 8.31169,8.31169 0 1 1 -16.62338,0 8.31169,8.31169 0 1 1 16.62338,0 z" transform="matrix(0.550417,0,0,0.256292,85.03803,134.2209)" id="path8224" style="fill:url(#linearGradient6337);fill-opacity:1;stroke:none"/>
        <path inkscape:connector-curvature="0" d="m 193.49611,170.55585 a 8.31169,8.31169 0 1 1 -16.62338,0 8.31169,8.31169 0 1 1 16.62338,0 z" transform="matrix(0.869052,0,0,0.489141,26.03174,83.32977)" id="path9119" style="fill:url(#radialGradient6339);fill-opacity:1;stroke:none"/>
      </g>
      <path d="m 58,42.6875 c -0.673689,0.485938 -1.343681,0.994436 -2,1.5 l -0.1875,0.25 7.9375,2 -5.75,-3.75 z" inkscape:connector-curvature="0" id="path4394" style="opacity:0.8;fill:url(#linearGradient6341);fill-opacity:1;stroke:none;display:inline"/>
      <path d="m 78.53125,34.6875 c 0.04949,0.585755 0.616101,1.2968 0.125,1.375 -0.656585,0.104551 -0.726672,0.481219 -0.6875,0.84375 1.798766,0.222316 3.222837,0.981375 3.59375,1.96875 0.01038,0.0087 0.02109,0.02232 0.03125,0.03125 0.140611,-2.460696 -2.078222,-3.023554 -3.0625,-4.21875 z" inkscape:connector-curvature="0" id="path4684" style="fill:url(#linearGradient6343);fill-opacity:1;stroke:none"/>
      <path d="m 81.595154,38.890964 c -0.378456,-1.715668 -3.607953,-2.283352 -3.607953,-2.283352 l 0.06308,0.643376 c 0,0 1.81659,-10e-7 3.544873,1.639976 z" inkscape:connector-curvature="0" id="path4701" style="opacity:0.5;fill:#000000;stroke:none"/>
    </g>
    <g transform="translate(-41.490814,0.67191601)" id="g6191">
      <path style="opacity:0.4;fill:url(#linearGradient6345);fill-opacity:1;stroke:none" id="path4225" inkscape:connector-curvature="0" d="m 173.40235,131.86858 -5.375,3.6875 1.84375,-0.65625 -1.25,2 2,-1.03125 -1.125,2 2.46875,-1.03125 -0.65625,1.5625 1.78125,-0.90625 -0.46875,2.25 1.5,-1.28125 -0.53125,2.15625 1.4375,-1.25 -0.6875,2.53125 1.78125,-2.46875 -0.125,1.9375 1.5625,-1.875 0.21875,1.8125 0.5,-1.9375 0.8125,-2.6875 -5.6875,-4.8125 z"/>
      <path style="fill:url(#linearGradient6347);fill-opacity:1;stroke:none" id="path4237" inkscape:connector-curvature="0" d="m 178.02393,128.31432 -8.93,6.18485 1.85214,-0.66148 -1.25681,2.01752 1.98444,-1.05837 -1.09144,2.01752 2.44748,-1.05837 -0.66148,1.58755 1.786,-0.893 -0.46304,2.21597 1.48834,-1.25682 -0.52919,2.14982 1.42219,-1.25682 -0.66149,2.51363 1.786,-2.44748 -0.16537,1.95137 1.58756,-1.88522 0.19844,1.786 c 0.60013,-2.2414 0.47496,-3.93905 1.95137,-5.62638 l -2.74514,-6.28029 z"/>
    </g>
    <g transform="translate(65.871104,94.774826)" id="g4345">
      <path d="m 44.906293,52.679801 c 1.982618,2.874797 2.99871,-2.602187 6.939163,-0.421306 2.398232,1.327323 5.055675,3.09784 5.055675,3.09784 L 59.379404,48.11978 48.475006,42.865843 c 0,0 -2.478273,4.064366 -3.568713,9.813958 z" inkscape:connector-curvature="0" id="path4343" style="fill:url(#radialGradient6349);fill-opacity:1;stroke:none"/>
      <path d="m 47.054891,43.051577 c 0,0 -3.008527,7.337926 -3.593378,9.16057 -0.660196,2.057451 0.732639,2.183745 2.10546,0.261758 1.823871,-2.553471 2.144652,-9.550142 2.144652,-9.550142 l -0.656734,0.127814 z" inkscape:connector-curvature="0" id="path4339" style="fill:url(#linearGradient6351);fill-opacity:1;stroke:none"/>
      <path d="m 47.091034,39.334822 c 0,0 -4.677718,9.254137 -5.703869,11.649252 -1.158347,2.703667 -0.03166,3.721279 1.68225,1.644861 2.277029,-2.758642 4.608108,-13.096232 4.608108,-13.096232 l -0.586489,-0.197881 z" inkscape:connector-curvature="0" id="path4335" style="fill:url(#linearGradient6353);fill-opacity:1;stroke:none"/>
      <path d="m 45.606217,39.791913 c 0,0 -5.692765,8.666749 -6.982806,10.930674 -1.456233,2.555576 -0.451657,3.693903 1.485755,1.824298 2.573968,-2.48388 6.057445,-12.492131 6.057445,-12.492131 l -0.560394,-0.262841 z" inkscape:connector-curvature="0" id="path4331" style="fill:url(#linearGradient6355);fill-opacity:1;stroke:none"/>
      <path d="m 44.836056,38.205818 c 0,0 -7.474315,9.357512 -9.168074,11.801877 -1.91196,2.759262 -0.593002,3.988317 1.950722,1.9697 3.37949,-2.681852 7.953121,-13.487787 7.953121,-13.487787 l -0.735769,-0.28379 z" inkscape:connector-curvature="0" id="path4327" style="fill:url(#linearGradient6357);fill-opacity:1;stroke:none"/>
      <path d="m 43.311109,37.554494 c 0,0 -8.707622,9.775262 -11.094422,11.975872 -1.447642,1.333531 0.58576,3.575585 1.967762,2.307725 3.483089,-3.195408 9.909108,-13.91074 9.909108,-13.91074 l -0.782448,-0.372857 z" inkscape:connector-curvature="0" id="path4323" style="fill:url(#linearGradient6359);fill-opacity:1;stroke:none"/>
      <path d="m 42.421082,37.200993 c 0,0 -9.808383,8.693714 -12.527021,10.468117 -2.200226,1.436046 0.02727,3.42278 1.658385,2.539182 4.156146,-2.251441 11.597328,-12.537986 11.597328,-12.537986 l -0.728692,-0.469313 z" inkscape:connector-curvature="0" id="path4319" style="fill:url(#linearGradient6361);fill-opacity:1;stroke:none"/>
      <path d="m 43.59512,36.825276 c 0,0 -12.701789,6.955792 -15.927899,8.666968 -1.916119,1.016337 0.376357,3.169481 1.604881,2.596111 C 34.092009,45.838833 44.38326,37.349497 44.38326,37.349497 l -0.78814,-0.524221 z" inkscape:connector-curvature="0" id="path4315" style="fill:url(#linearGradient6363);fill-opacity:1;stroke:none"/>
      <path d="m 42.6111,35.979107 c 0,0 -13.333186,5.680596 -16.806353,6.808877 -2.106097,0.683266 -0.707835,3.408669 1.300793,2.761045 5.062384,-1.632214 16.229316,-8.959881 16.229316,-8.959881 L 42.6111,35.979107 z" inkscape:connector-curvature="0" id="path4311" style="fill:url(#linearGradient6365);fill-opacity:1;stroke:none"/>
      <path d="m 41.714122,36.998233 c 0,0 -14.174792,3.01965 -17.799824,3.461296 -2.198011,0.266914 -1.348063,3.209795 0.747455,2.95918 5.281373,-0.631625 17.645777,-5.683021 17.645777,-5.683021 l -0.593408,-0.737455 z" inkscape:connector-curvature="0" id="path4307" style="fill:url(#linearGradient6367);fill-opacity:1;stroke:none"/>
      <path d="m 40.607483,36.66748 c 0,0 -14.461793,0.948453 -18.112649,0.863856 -2.213544,-0.05216 -1.795926,2.9824 0.313846,3.035941 5.317296,0.134944 18.279914,-3.084626 18.279914,-3.084626 L 40.607483,36.66748 z" inkscape:connector-curvature="0" id="path4303" style="fill:url(#linearGradient6369);fill-opacity:1;stroke:none"/>
      <path d="m 43.681371,36.483086 c 0,0 -18.755106,-1.375366 -23.00414,-2.35217 -2.717736,-0.624777 -2.498338,1.982511 -0.291541,3.043603 5.79629,2.787024 23.717132,0.195958 23.717132,0.195958 l -0.42145,-0.887391 z" inkscape:connector-curvature="0" id="path4299" style="fill:url(#linearGradient6371);fill-opacity:1;stroke:none"/>
      <path d="m 42.312156,37.290065 c 0,0 -18.595433,-5.510733 -22.651127,-7.48611 -2.594073,-1.263477 -2.98875,1.632495 -1.013204,3.263566 5.188896,4.284114 23.879838,5.282291 23.879838,5.282291 l -0.215506,-1.059747 z" inkscape:connector-curvature="0" id="path4295" style="fill:url(#linearGradient6373);fill-opacity:1;stroke:none"/>
      <path d="m 40.156167,36.196585 c 0,0 -17.659201,-8.019409 -21.404169,-10.534561 -2.395327,-1.608724 -3.185113,1.205288 -1.453047,3.092911 4.549382,4.957964 22.924707,8.520979 22.924707,8.520979 l -0.06749,-1.079329 z" inkscape:connector-curvature="0" id="path4291" style="fill:url(#linearGradient6375);fill-opacity:1;stroke:none"/>
      <path d="m 40.442152,35.961023 c 0,0 -17.965265,-11.54817 -21.64941,-14.912489 -2.356425,-2.151861 -3.649651,0.897078 -2.057531,3.267113 4.181805,6.225049 23.613721,12.868008 23.613721,12.868008 l 0.09322,-1.222632 z" inkscape:connector-curvature="0" id="path4287" style="fill:url(#linearGradient6377);fill-opacity:1;stroke:none"/>
      <path d="m 38.859309,33.745801 c 0,0 -17.056207,-13.677893 -18.834869,-18.339215 -1.096134,-2.872626 -3.54204,0.187532 -2.577403,2.874796 2.876042,8.01202 21.114879,16.653989 21.114879,16.653989 l 0.297393,-1.18957 z" inkscape:connector-curvature="0" id="path4257" style="fill:url(#linearGradient6379);fill-opacity:1;stroke:none"/>
      <path d="M 39.454094,33.349277 C 28.847089,26.310984 24.287068,14.71267 24.287068,14.71267 c -0.892178,-1.387832 -4.56002,-2.577403 -3.172188,0.693916 0,0 0.198261,6.046984 17.447036,18.636607 l 0.892178,-0.693916 z" inkscape:connector-curvature="0" id="path4255" style="fill:url(#linearGradient6381);fill-opacity:1;stroke:none"/>
      <path d="M 62.452462,46.236293 C 51.448933,42.667581 45.005424,36.124942 45.005424,36.124942 39.156701,33.151015 31.821016,27.500555 31.821016,27.500555 l 6.146115,5.65046 -5.947853,-3.172188 4.361759,3.37045 -4.46089,-1.09044 4.659152,2.379142 c 0,0 -4.46089,0.09913 -4.064367,0 0.396524,-0.09913 4.064367,1.090439 4.064367,1.090439 l -3.073058,0.693917 3.271319,0.198261 -2.28001,1.189571 2.676534,-0.297392 -2.775665,1.784356 3.271319,-0.892178 -2.775664,2.676534 3.568712,-1.486964 -2.577404,2.973927 3.866105,-2.379141 -2.081749,2.180879 3.370451,-1.784356 -2.081749,2.676534 2.775665,-1.586094 -1.982618,2.478272 2.676534,-1.685225 -1.586094,2.478272 2.973927,-2.379141 -2.081749,3.37045 2.478272,-1.982618 -1.288701,2.280011 2.478272,-1.784356 -1.586094,2.577403 2.379141,-1.685225 -1.189571,2.28001 2.379142,-1.784356 -0.892178,2.081749 2.28001,-1.883487 -0.892178,2.379141 1.883487,-1.486963 -0.594785,1.387833 1.982618,-1.189571 -0.892178,1.486963 1.982617,-1.09044 -0.297392,0.892178 1.387832,-0.892178 c 0,0 1.824892,-1.023055 4.560021,1.387833 1.765282,1.556014 5.460677,0.96879 4.560022,-2.676534 z" inkscape:connector-curvature="0" id="path4253" style="fill:url(#linearGradient6383);fill-opacity:1;stroke:none"/>
      <path d="M 37.78125,31.75 39.75,38.5 51.160596,45.844785 59.71875,45.25 C 50.39204,41.585007 45,36.125 45,36.125 42.634776,34.922344 40.049339,33.277385 37.78125,31.75 z" inkscape:connector-curvature="0" id="path4381" style="fill:url(#linearGradient6385);fill-opacity:1;stroke:none"/>
    </g>
  </g>
</svg>