<?xml version="1.0" encoding="UTF-8" standalone="no"?>
<!-- Created with Inkscape (http://www.inkscape.org/) -->
<svg xmlns:dc="http://purl.org/dc/elements/1.1/" xmlns:cc="http://creativecommons.org/ns#" xmlns:rdf="http://www.w3.org/1999/02/22-rdf-syntax-ns#" xmlns:svg="http://www.w3.org/2000/svg" xmlns="http://www.w3.org/2000/svg" xmlns:xlink="http://www.w3.org/1999/xlink" xmlns:sodipodi="http://sodipodi.sourceforge.net/DTD/sodipodi-0.dtd" xmlns:inkscape="http://www.inkscape.org/namespaces/inkscape" width="500" height="500" id="svg9294" version="1.1" inkscape:version="0.48.1 r9760" sodipodi:docname="Neues Dokument 3">
  <defs id="defs9296">
    <radialGradient inkscape:collect="always" xlink:href="#linearGradient25853" id="radialGradient25859" cx="281.96014" cy="536.66968" fx="281.96014" fy="536.66968" r="211.59398" gradientTransform="matrix(1,0,0,0.12177986,0,471.31412)" gradientUnits="userSpaceOnUse"/>
    <linearGradient inkscape:collect="always" id="linearGradient25853">
      <stop style="stop-color:#000000;stop-opacity:1;" offset="0" id="stop25855"/>
      <stop id="stop25861" offset="0.04449643" style="stop-color:#000000;stop-opacity:0.95294118;"/>
      <stop style="stop-color:#000000;stop-opacity:0;" offset="1" id="stop25857"/>
    </linearGradient>
    <linearGradient inkscape:collect="always" xlink:href="#linearGradient25320" id="linearGradient25326" x1="245.23064" y1="104.37212" x2="282.75824" y2="184.40121" gradientUnits="userSpaceOnUse" gradientTransform="matrix(23.050035,0,0,-23.050035,-3855.9923,5277.1813)"/>
    <linearGradient inkscape:collect="always" id="linearGradient25320">
      <stop style="stop-color:#cccccc;stop-opacity:1;" offset="0" id="stop25322"/>
      <stop style="stop-color:#808080;stop-opacity:1" offset="1" id="stop25324"/>
    </linearGradient>
    <filter inkscape:collect="always" id="filter25705" color-interpolation-filters="sRGB">
      <feGaussianBlur inkscape:collect="always" stdDeviation="2.1290943" id="feGaussianBlur25707"/>
    </filter>
    <filter inkscape:collect="always" id="filter25682" color-interpolation-filters="sRGB">
      <feGaussianBlur inkscape:collect="always" stdDeviation="3.0817451" id="feGaussianBlur25684"/>
    </filter>
    <filter inkscape:collect="always" id="filter25678" color-interpolation-filters="sRGB">
      <feGaussianBlur inkscape:collect="always" stdDeviation="3.0817451" id="feGaussianBlur25680"/>
    </filter>
    <filter inkscape:collect="always" id="filter25670" color-interpolation-filters="sRGB">
      <feGaussianBlur inkscape:collect="always" stdDeviation="3.0817451" id="feGaussianBlur25672"/>
    </filter>
    <filter inkscape:collect="always" id="filter25666" color-interpolation-filters="sRGB">
      <feGaussianBlur inkscape:collect="always" stdDeviation="3.0817451" id="feGaussianBlur25668"/>
    </filter>
    <filter inkscape:collect="always" id="filter25622" color-interpolation-filters="sRGB">
      <feGaussianBlur inkscape:collect="always" stdDeviation="1.9852151" id="feGaussianBlur25624"/>
    </filter>
    <filter inkscape:collect="always" id="filter25586" color-interpolation-filters="sRGB">
      <feGaussianBlur inkscape:collect="always" stdDeviation="1.8150568" id="feGaussianBlur25588"/>
    </filter>
    <filter inkscape:collect="always" id="filter25598" color-interpolation-filters="sRGB">
      <feGaussianBlur inkscape:collect="always" stdDeviation="2.2142605" id="feGaussianBlur25600"/>
    </filter>
    <filter inkscape:collect="always" id="filter25500" color-interpolation-filters="sRGB">
      <feGaussianBlur inkscape:collect="always" stdDeviation="1.7075197" id="feGaussianBlur25502"/>
    </filter>
    <filter inkscape:collect="always" id="filter25488" color-interpolation-filters="sRGB">
      <feGaussianBlur inkscape:collect="always" stdDeviation="1.9756463" id="feGaussianBlur25490"/>
    </filter>
    <filter inkscape:collect="always" id="filter25610" color-interpolation-filters="sRGB">
      <feGaussianBlur inkscape:collect="always" stdDeviation="2.1878655" id="feGaussianBlur25612"/>
    </filter>
    <filter inkscape:collect="always" id="filter25476" color-interpolation-filters="sRGB">
      <feGaussianBlur inkscape:collect="always" stdDeviation="1.8703984" id="feGaussianBlur25478"/>
    </filter>
    <filter inkscape:collect="always" id="filter25674" color-interpolation-filters="sRGB">
      <feGaussianBlur inkscape:collect="always" stdDeviation="3.0817451" id="feGaussianBlur25676"/>
    </filter>
    <filter inkscape:collect="always" id="filter25452" color-interpolation-filters="sRGB">
      <feGaussianBlur inkscape:collect="always" stdDeviation="1.6152692" id="feGaussianBlur25454"/>
    </filter>
    <filter inkscape:collect="always" id="filter25464" color-interpolation-filters="sRGB">
      <feGaussianBlur inkscape:collect="always" stdDeviation="2.1878655" id="feGaussianBlur25466"/>
    </filter>
    <filter inkscape:collect="always" id="filter25799" color-interpolation-filters="sRGB">
      <feGaussianBlur inkscape:collect="always" stdDeviation="2.6187566" id="feGaussianBlur25801"/>
    </filter>
    <filter inkscape:collect="always" id="filter25748" color-interpolation-filters="sRGB">
      <feGaussianBlur inkscape:collect="always" stdDeviation="2.7954182" id="feGaussianBlur25750"/>
    </filter>
    <filter inkscape:collect="always" id="filter25772" color-interpolation-filters="sRGB">
      <feGaussianBlur inkscape:collect="always" stdDeviation="2.0032066" id="feGaussianBlur25774"/>
    </filter>
    <filter color-interpolation-filters="sRGB" inkscape:collect="always" id="filter25847">
      <feGaussianBlur inkscape:collect="always" stdDeviation="2.1838664" id="feGaussianBlur25849"/>
    </filter>
    <linearGradient inkscape:collect="always" xlink:href="#linearGradient25288" id="linearGradient25294" x1="180.59375" y1="135.46519" x2="317.5" y2="135.46519" gradientUnits="userSpaceOnUse" gradientTransform="matrix(23.050035,0,0,-23.050035,-3855.9923,5277.1813)"/>
    <linearGradient id="linearGradient25288">
      <stop style="stop-color:#cccccc;stop-opacity:1;" offset="0" id="stop25290"/>
      <stop id="stop25296" offset="0.5" style="stop-color:#ffffff;stop-opacity:0.98431373;"/>
      <stop style="stop-color:#cccccc;stop-opacity:0.99043059;" offset="1" id="stop25292"/>
    </linearGradient>
    <linearGradient inkscape:collect="always" xlink:href="#linearGradient24510" id="linearGradient24516" x1="202.17433" y1="125.07004" x2="212.58952" y2="118.13253" gradientUnits="userSpaceOnUse" gradientTransform="matrix(23.050035,0,0,-23.050035,-3855.9923,5277.1813)"/>
    <linearGradient inkscape:collect="always" id="linearGradient24510">
      <stop style="stop-color:#cccccc;stop-opacity:1;" offset="0" id="stop24512"/>
      <stop style="stop-color:#999999;stop-opacity:1" offset="1" id="stop24514"/>
    </linearGradient>
    <linearGradient inkscape:collect="always" xlink:href="#linearGradient24500" id="linearGradient24506" x1="195.52156" y1="198.67604" x2="216.19498" y2="173.79785" gradientUnits="userSpaceOnUse" gradientTransform="matrix(23.050035,0,0,-23.050035,-3832.9423,5254.1311)"/>
    <linearGradient inkscape:collect="always" id="linearGradient24500">
      <stop style="stop-color:#800000;stop-opacity:1" offset="0" id="stop24502"/>
      <stop style="stop-color:#aa0000;stop-opacity:1" offset="1" id="stop24504"/>
    </linearGradient>
    <linearGradient inkscape:collect="always" xlink:href="#linearGradient25302" id="linearGradient25308" x1="1711.125" y1="1605.1718" x2="2427.75" y2="1605.1718" gradientUnits="userSpaceOnUse"/>
    <linearGradient id="linearGradient25302">
      <stop style="stop-color:#800000;stop-opacity:1;" offset="0" id="stop25304"/>
      <stop id="stop25310" offset="0.5" style="stop-color:#800000;stop-opacity:0;"/>
      <stop style="stop-color:#800000;stop-opacity:0.9952153;" offset="1" id="stop25306"/>
    </linearGradient>
    <linearGradient y2="1605.1718" x2="2427.75" y1="1605.1718" x1="1711.125" gradientUnits="userSpaceOnUse" id="linearGradient9292" xlink:href="#linearGradient25302" inkscape:collect="always"/>
  </defs>
  <sodipodi:namedview id="base" pagecolor="#ffffff" bordercolor="#666666" borderopacity="1.0" inkscape:pageopacity="0.0" inkscape:pageshadow="2" inkscape:zoom="0.54414063" inkscape:cx="350" inkscape:cy="520" inkscape:document-units="px" inkscape:current-layer="layer1" showgrid="false" borderlayer="true" inkscape:showpageshadow="false" inkscape:window-width="1280" inkscape:window-height="969" inkscape:window-x="0" inkscape:window-y="26" inkscape:window-maximized="1"/>
  <metadata id="metadata9299">
    <rdf:RDF>
      <cc:Work rdf:about="">
        <dc:format>image/svg+xml</dc:format>
        <dc:type rdf:resource="http://purl.org/dc/dcmitype/StillImage"/>
        <dc:title/>
      </cc:Work>
    </rdf:RDF>
  </metadata>
  <g inkscape:label="Ebene 1" inkscape:groupmode="layer" id="layer1" transform="translate(0,-552.36218)">
    <g transform="matrix(0.125,0,0,-0.125,3.5005863e-7,1052.3622)" id="g8890">
      <path transform="matrix(7.2696254,-0.05506131,-0.12844776,-8.9211679,63.54996,5200.103)" d="m 493.55412,536.66968 c 0,14.23121 -94.73385,25.76788 -211.59398,25.76788 -116.86012,0 -211.593975,-11.53667 -211.593975,-25.76788 0,-14.23121 94.733855,-25.76789 211.593975,-25.76789 116.86013,0 211.59398,11.53668 211.59398,25.76789 z" sodipodi:ry="25.767885" sodipodi:rx="211.59398" sodipodi:cy="536.66968" sodipodi:cx="281.96014" id="path25851" style="opacity:0.5;fill:url(#radialGradient25859);fill-opacity:1;stroke:none" sodipodi:type="arc"/>
      <path style="fill:#890000;fill-opacity:1;stroke:none" d="m 780.01309,2761.1091 428.06311,-1292.2662 1744.5595,0 428.5531,1291.3705 c 0,0 -373.0783,401.3935 -622.3934,485.4956 -433.6979,146.3004 -940.7698,134.3341 -1373.0325,-16.1535 -241.0599,-83.9222 -605.74981,-468.4464 -605.74981,-468.4464 z" id="path25318" inkscape:connector-curvature="0" sodipodi:nodetypes="ccccaac"/>
      <path sodipodi:nodetypes="ccccaac" inkscape:connector-curvature="0" id="path25316" d="m 780.01305,2738.0589 428.06315,-1292.266 1744.5593,0 428.5533,1291.3704 c 0,0 -373.0785,401.3936 -622.3932,485.4956 -433.6979,146.3005 -940.7698,134.3344 -1373.0327,-16.1532 -241.0599,-83.9224 -605.74985,-468.4468 -605.74985,-468.4468 z" style="fill:url(#linearGradient25326);stroke:none"/>
      <g transform="matrix(2.8812544,0,0,2.8812544,-3855.9923,-3222.5192)" style="opacity:0.5;fill:#000000;filter:url(#filter25705)" id="g25697">
        <path inkscape:connector-curvature="0" id="path25699" d="m 2084.3346,2393.9127 -15.4174,-710.6053 47.654,-7.0079 15.4174,728.8259 z" style="fill:#000000;fill-opacity:1;stroke:none"/>
        <path sodipodi:nodetypes="ccccc" transform="matrix(8,0,0,-8,0,2950)" inkscape:connector-curvature="0" id="path25701" d="m 260.8706,69.510918 -4.20476,-1.751985 -2.10238,93.906407 4.37996,-3.15357 z" style="fill:#000000;fill-opacity:1;stroke:none"/>
        <path sodipodi:nodetypes="ccccc" transform="matrix(8,0,0,-8,0,2950)" inkscape:connector-curvature="0" id="path25703" d="m 256.53444,67.846532 4.42376,1.795785 5.47496,-1.445388 -3.54777,-1.05119 z" style="fill:#000000;fill-opacity:1;stroke:none"/>
      </g>
      <g transform="matrix(2.8812544,0,0,2.8812544,-3855.9923,-3222.5192)" id="g25692">
        <path style="fill:#f7d333;fill-opacity:1;stroke:none" d="m 2084.3346,2393.9127 -15.4174,-710.6053 47.654,-7.0079 15.4174,728.8259 z" id="path25686" inkscape:connector-curvature="0"/>
        <path style="fill:#efb319;fill-opacity:1;stroke:none" d="m 260.8706,69.510918 -4.20476,-1.751985 -2.10238,93.906407 4.37996,-3.15357 z" id="path25688" inkscape:connector-curvature="0" transform="matrix(8,0,0,-8,0,2950)" sodipodi:nodetypes="ccccc"/>
        <path style="fill:#fcec3d;fill-opacity:1;stroke:none" d="m 256.53444,67.846532 4.42376,1.795785 5.47496,-1.445388 -3.54777,-1.05119 z" id="path25690" inkscape:connector-curvature="0" transform="matrix(8,0,0,-8,0,2950)" sodipodi:nodetypes="ccccc"/>
      </g>
      <g style="opacity:0.5;fill:#000000;filter:url(#filter25682)" id="g25658" transform="matrix(2.8783248,-0.12989481,0.12989481,2.8783248,-4108.7315,-2956.8284)">
        <path sodipodi:nodetypes="ccccc" transform="matrix(8,0,0,-8,0,2950)" inkscape:connector-curvature="0" id="path25660" d="m 251.48465,75.144765 4.21206,-1.734377 -0.99107,92.169742 -5.19068,1.13621 z" style="fill:#000000;fill-opacity:1;stroke:none"/>
        <path sodipodi:nodetypes="ccccc" transform="matrix(8,0,0,-8,0,2950)" inkscape:connector-curvature="0" id="path25662" d="m 244.92754,74.416477 6.53731,0.598165 -1.21904,91.804328 -5.94643,-6.68974 z" style="fill:#000000;fill-opacity:1;stroke:none"/>
        <path sodipodi:nodetypes="ccccc" transform="matrix(8,0,0,-8,0,2950)" inkscape:connector-curvature="0" id="path25664" d="m 244.92754,74.460277 6.70134,0.700794 4.20477,-1.708186 -5.82535,-0.481796 z" style="fill:#000000;fill-opacity:1;stroke:none"/>
      </g>
      <g transform="matrix(2.8783248,-0.12989481,0.12989481,2.8783248,-4108.7315,-2956.8284)" id="g25558">
        <path style="fill:#efb319;fill-opacity:1;stroke:none" d="m 251.48465,75.144765 4.21206,-1.734377 -0.99107,92.169742 -5.19068,1.13621 z" id="path25554" inkscape:connector-curvature="0" transform="matrix(8,0,0,-8,0,2950)" sodipodi:nodetypes="ccccc"/>
        <path style="fill:#f7d333;fill-opacity:1;stroke:none" d="m 244.92754,74.416477 6.53731,0.598165 -1.21904,91.804328 -5.94643,-6.68974 z" id="path25552" inkscape:connector-curvature="0" transform="matrix(8,0,0,-8,0,2950)" sodipodi:nodetypes="ccccc"/>
        <path style="fill:#fcec3d;fill-opacity:1;stroke:none" d="m 244.92754,74.460277 6.70134,0.700794 4.20477,-1.708186 -5.82535,-0.481796 z" id="path25556" inkscape:connector-curvature="0" transform="matrix(8,0,0,-8,0,2950)" sodipodi:nodetypes="ccccc"/>
      </g>
      <g style="opacity:0.5;fill:#000000;filter:url(#filter25678)" transform="matrix(2.8672385,-0.28384897,0.28384897,2.8672385,-4325.2019,-2706.2521)" id="g25650">
        <path style="fill:#000000;fill-opacity:1;stroke:none" d="m 229.68527,77.219654 10.16151,80.416126 7.00794,1.57678 -11.0375,-82.693701 -6.83275,-2.102382 z" id="path25652" inkscape:connector-curvature="0" transform="matrix(8,0,0,-8,0,2950)"/>
        <path style="fill:#000000;fill-opacity:1;stroke:none" d="m 235.64202,76.518859 3.15357,-2.27758 11.9135,87.073671 -4.91801,-1.60685 z" id="path25654" inkscape:connector-curvature="0" transform="matrix(8,0,0,-8,0,2950)" sodipodi:nodetypes="ccccc"/>
        <path style="fill:#000000;fill-opacity:1;stroke:none" d="m 228.9119,74.550989 6.76017,2.008557 3.09916,-2.161211 -5.55194,-1.999219 z" id="path25656" inkscape:connector-curvature="0" transform="matrix(8,0,0,-8,0,2950)" sodipodi:nodetypes="ccccc"/>
      </g>
      <g id="g25512" transform="matrix(2.8672385,-0.28384897,0.28384897,2.8672385,-4325.2019,-2706.2521)">
        <path transform="matrix(8,0,0,-8,0,2950)" inkscape:connector-curvature="0" id="path25514" d="m 229.68527,77.219654 10.16151,80.416126 7.00794,1.57678 -11.0375,-82.693701 -6.83275,-2.102382 z" style="fill:#f7d333;fill-opacity:1;stroke:none"/>
        <path sodipodi:nodetypes="ccccc" transform="matrix(8,0,0,-8,0,2950)" inkscape:connector-curvature="0" id="path25516" d="m 235.64202,76.518859 3.15357,-2.27758 11.9135,87.073671 -4.91801,-1.60685 z" style="fill:#efb319;fill-opacity:1;stroke:none"/>
        <path sodipodi:nodetypes="ccccc" transform="matrix(8,0,0,-8,0,2950)" inkscape:connector-curvature="0" id="path25518" d="m 228.9119,74.550989 6.76017,2.008557 3.09916,-2.161211 -5.55194,-1.999219 z" style="fill:#fcec3d;fill-opacity:1;stroke:none"/>
      </g>
      <g style="opacity:0.5;fill:#000000;filter:url(#filter25670)" id="g25634" transform="matrix(2.7480991,-0.86578182,0.86578182,2.7480991,-5259.8351,-1255.3213)">
        <path style="fill:#000000;fill-opacity:1;stroke:none" d="m 213.57613,131.88367 -15.36163,-39.147368 6.44198,-5.450899 28.7411,64.419717 z" id="path25636" inkscape:connector-curvature="0" transform="matrix(8,0,0,-8,0,2950)"/>
        <path style="fill:#000000;fill-opacity:1;stroke:none" d="m 1633.2875,2247.7525 15.8571,19.8214 238.3968,-573.3208 -79.8251,36.1595 z" id="path25638" inkscape:connector-curvature="0" sodipodi:nodetypes="ccccc"/>
        <path style="fill:#000000;fill-opacity:1;stroke:none" d="m 198.23324,92.945491 2.19387,-4.863529 5.95278,-2.776518 -1.72208,3.662489 z" id="path25640" inkscape:connector-curvature="0" transform="matrix(8,0,0,-8,0,2950)" sodipodi:nodetypes="ccccc"/>
      </g>
      <g transform="matrix(2.7480991,-0.86578182,0.86578182,2.7480991,-5259.8351,-1255.3213)" id="g25367">
        <path transform="matrix(8,0,0,-8,0,2950)" inkscape:connector-curvature="0" id="path25369" d="m 213.57613,131.88367 -15.36163,-39.147368 6.44198,-5.450899 28.7411,64.419717 z" style="fill:#f7d333;fill-opacity:1;stroke:none"/>
        <path sodipodi:nodetypes="ccccc" inkscape:connector-curvature="0" id="path25371" d="m 1633.2875,2247.7525 15.8571,19.8214 238.3968,-573.3208 -79.8251,36.1595 z" style="fill:#efb319;fill-opacity:1;stroke:none"/>
        <path sodipodi:nodetypes="ccccc" transform="matrix(8,0,0,-8,0,2950)" inkscape:connector-curvature="0" id="path25373" d="m 198.23324,92.945491 2.19387,-4.863529 5.95278,-2.776518 -1.72208,3.662489 z" style="fill:#fcec3d;fill-opacity:1;stroke:none"/>
      </g>
      <g transform="matrix(2.8812544,0,0,2.8812544,-3855.9923,-3222.5192)" style="opacity:0.5;fill:#000000;filter:url(#filter25666)" id="g25626">
        <path transform="matrix(8,0,0,-8,0,2950)" inkscape:connector-curvature="0" id="path25628" d="m 213.57613,131.88367 -15.36163,-39.147368 6.44198,-5.450899 28.7411,64.419717 z" style="fill:#000000;fill-opacity:1;stroke:none"/>
        <path sodipodi:nodetypes="ccccc" inkscape:connector-curvature="0" id="path25630" d="m 1633.2875,2247.7525 15.8571,19.8214 238.3968,-573.3208 -79.8251,36.1595 z" style="fill:#000000;fill-opacity:1;stroke:none"/>
        <path transform="matrix(8,0,0,-8,0,2950)" inkscape:connector-curvature="0" id="path25632" d="m 198.67513,92.286727 1.75198,-4.204765 5.25596,-2.102382 -1.05119,4.555162 z" style="fill:#000000;fill-opacity:1;stroke:none"/>
      </g>
      <g transform="matrix(2.8812544,0,0,2.8812544,-3855.9923,-3222.5192)" id="g25338">
        <path style="fill:#f7d333;fill-opacity:1;stroke:none" d="m 213.57613,131.88367 -15.36163,-39.147368 6.44198,-5.450899 28.7411,64.419717 z" id="path25332" inkscape:connector-curvature="0" transform="matrix(8,0,0,-8,0,2950)"/>
        <path style="fill:#efb319;fill-opacity:1;stroke:none" d="m 1633.2875,2247.7525 15.8571,19.8214 238.3968,-573.3208 -79.8251,36.1595 z" id="path25334" inkscape:connector-curvature="0" sodipodi:nodetypes="ccccc"/>
        <path style="fill:#fcec3d;fill-opacity:1;stroke:none" d="m 198.67513,92.286727 1.75198,-4.204765 5.25596,-2.102382 -1.05119,4.555162 z" id="path25336" inkscape:connector-curvature="0" transform="matrix(8,0,0,-8,0,2950)"/>
      </g>
      <g style="opacity:0.5;fill:#000000;filter:url(#filter25622)" id="g25614" transform="matrix(2.8800242,0.08418841,-0.08418841,2.8800242,-3681.5408,-3359.1064)">
        <path transform="matrix(8,0,0,-8,0,2950)" inkscape:connector-curvature="0" id="path25616" d="m 266.82735,74.241279 6.65755,79.890531 5.08076,-0.876 -6.65755,-77.262546 z" style="fill:#000000;fill-opacity:1;stroke:none"/>
        <path sodipodi:nodetypes="ccccc" transform="matrix(8,0,0,-8,0,2950)" inkscape:connector-curvature="0" id="path25618" d="m 271.73291,76.168462 4.90556,-2.102382 6.48235,79.18973 -4.73036,0.5256 z" style="fill:#000000;fill-opacity:1;stroke:none"/>
        <path sodipodi:nodetypes="ccccc" transform="matrix(8,0,0,-8,0,2950)" inkscape:connector-curvature="0" id="path25620" d="m 266.82735,74.416478 5.25596,1.751984 4.73036,-1.927183 -5.60635,-0.875993 z" style="fill:#000000;fill-opacity:1;stroke:none"/>
      </g>
      <g transform="matrix(2.8800242,0.08418841,-0.08418841,2.8800242,-3681.5408,-3359.1064)" id="g25569">
        <path style="fill:#f7d333;fill-opacity:1;stroke:none" d="m 266.82735,74.241279 6.65755,79.890531 5.08076,-0.876 -6.65755,-77.262546 z" id="path25563" inkscape:connector-curvature="0" transform="matrix(8,0,0,-8,0,2950)"/>
        <path style="fill:#efb319;fill-opacity:1;stroke:none" d="m 271.73291,76.168462 4.90556,-2.102382 6.48235,79.18973 -4.73036,0.5256 z" id="path25565" inkscape:connector-curvature="0" transform="matrix(8,0,0,-8,0,2950)" sodipodi:nodetypes="ccccc"/>
        <path style="fill:#fcec3d;fill-opacity:1;stroke:none" d="m 266.82735,74.416478 5.25596,1.751984 4.73036,-1.927183 -5.60635,-0.875993 z" id="path25567" inkscape:connector-curvature="0" transform="matrix(8,0,0,-8,0,2950)" sodipodi:nodetypes="ccccc"/>
      </g>
      <g transform="matrix(2.8812544,0,0,2.8812544,-3855.9923,-3222.5192)" style="opacity:0.5;fill:#000000;filter:url(#filter25586)" id="g25574">
        <path transform="matrix(8,0,0,-8,0,2950)" inkscape:connector-curvature="0" id="path25576" d="m 283.99681,78.446043 -6.83274,1.576787 1.92718,71.3058 7.18314,-4.90556 z" style="fill:#000000;fill-opacity:1;stroke:none"/>
        <path transform="matrix(8,0,0,-8,0,2950)" inkscape:connector-curvature="0" id="path25578" d="m 277.16407,79.847631 -3.85437,-1.576786 2.45278,75.860965 3.50397,-1.92719 z" style="fill:#000000;fill-opacity:1;stroke:none"/>
        <path sodipodi:nodetypes="ccccc" transform="matrix(8,0,0,-8,0,2950)" inkscape:connector-curvature="0" id="path25580" d="m 273.1345,78.533642 6.30715,-2.014783 4.81796,2.189982 -6.92034,1.313989 z" style="fill:#000000;fill-opacity:1;stroke:none"/>
      </g>
      <g transform="matrix(2.8812544,0,0,2.8812544,-3855.9923,-3222.5192)" id="g25528">
        <path style="fill:#f7d333;fill-opacity:1;stroke:none" d="m 283.99681,78.446043 -6.83274,1.576787 1.92718,71.3058 7.18314,-4.90556 z" id="path25522" inkscape:connector-curvature="0" transform="matrix(8,0,0,-8,0,2950)"/>
        <path style="fill:#efb319;fill-opacity:1;stroke:none" d="m 277.16407,79.847631 -3.85437,-1.576786 2.45278,75.860965 3.50397,-1.92719 z" id="path25524" inkscape:connector-curvature="0" transform="matrix(8,0,0,-8,0,2950)"/>
        <path style="fill:#fcec3d;fill-opacity:1;stroke:none" d="m 273.1345,78.533642 6.30715,-2.014783 4.81796,2.189982 -6.92034,1.313989 z" id="path25526" inkscape:connector-curvature="0" transform="matrix(8,0,0,-8,0,2950)" sodipodi:nodetypes="ccccc"/>
      </g>
      <g style="opacity:0.5;fill:#000000;filter:url(#filter25598)" transform="matrix(-2.8812544,0,0,2.8812544,8301.7293,-3182.5417)" id="g25590">
        <path style="fill:#000000;fill-opacity:1;stroke:none" d="m 229.68527,77.219654 10.16151,80.416126 7.00794,1.57678 -11.0375,-82.693701 -6.83275,-2.102382 z" id="path25592" inkscape:connector-curvature="0" transform="matrix(8,0,0,-8,0,2950)"/>
        <path style="fill:#000000;fill-opacity:1;stroke:none" d="m 235.64202,76.518859 3.15357,-2.27758 11.9135,87.073671 -4.91801,-1.60685 z" id="path25594" inkscape:connector-curvature="0" transform="matrix(8,0,0,-8,0,2950)" sodipodi:nodetypes="ccccc"/>
        <path style="fill:#000000;fill-opacity:1;stroke:none" d="m 228.9119,74.550989 6.76017,2.008557 3.09916,-2.161211 -5.55194,-1.999219 z" id="path25596" inkscape:connector-curvature="0" transform="matrix(8,0,0,-8,0,2950)" sodipodi:nodetypes="ccccc"/>
      </g>
      <g id="g25504" transform="matrix(-2.8812544,0,0,2.8812544,8301.7293,-3182.5417)">
        <path transform="matrix(8,0,0,-8,0,2950)" inkscape:connector-curvature="0" id="path25506" d="m 229.68527,77.219654 10.16151,80.416126 7.00794,1.57678 -11.0375,-82.693701 -6.83275,-2.102382 z" style="fill:#f7d333;fill-opacity:1;stroke:none"/>
        <path sodipodi:nodetypes="ccccc" transform="matrix(8,0,0,-8,0,2950)" inkscape:connector-curvature="0" id="path25508" d="m 235.64202,76.518859 3.15357,-2.27758 11.9135,87.073671 -4.91801,-1.60685 z" style="fill:#efb319;fill-opacity:1;stroke:none"/>
        <path sodipodi:nodetypes="ccccc" transform="matrix(8,0,0,-8,0,2950)" inkscape:connector-curvature="0" id="path25510" d="m 228.9119,74.550989 6.76017,2.008557 3.09916,-2.161211 -5.55194,-1.999219 z" style="fill:#fcec3d;fill-opacity:1;stroke:none"/>
      </g>
      <g style="opacity:0.5;fill:#000000;filter:url(#filter25500)" transform="matrix(2.8714177,0.23787939,-0.23787939,2.8714177,-1981.7529,-3591.039)" id="g25492">
        <path style="fill:#000000;fill-opacity:1;stroke:none" d="m 1803.8234,2277.4847 45.5893,-25.7679 19.8215,-483.6434 -61.4465,57.4822 z" id="path25494" inkscape:connector-curvature="0"/>
        <path style="fill:#000000;fill-opacity:1;stroke:none" d="m 1849.3413,2251.7168 29.7322,13.875 13.875,-525.2684 -33.6965,39.6428 z" id="path25496" inkscape:connector-curvature="0"/>
        <path style="fill:#000000;fill-opacity:1;stroke:none" d="m 1802.761,2275.4311 47.5714,-23.7858 30.7233,13.8751 -20.8126,23.7857 -28.7411,6.9375 z" id="path25498" inkscape:connector-curvature="0"/>
      </g>
      <g id="g25421" transform="matrix(2.8714177,0.23787939,-0.23787939,2.8714177,-1981.7529,-3591.039)">
        <path inkscape:connector-curvature="0" id="path25423" d="m 1803.8234,2277.4847 45.5893,-25.7679 19.8215,-483.6434 -61.4465,57.4822 z" style="fill:#efb319;fill-opacity:1;stroke:none"/>
        <path inkscape:connector-curvature="0" id="path25425" d="m 1849.3413,2251.7168 29.7322,13.875 13.875,-525.2684 -33.6965,39.6428 z" style="fill:#f7d333;fill-opacity:1;stroke:none"/>
        <path inkscape:connector-curvature="0" id="path25427" d="m 1802.761,2275.4311 47.5714,-23.7858 30.7233,13.8751 -20.8126,23.7857 -28.7411,6.9375 z" style="fill:#fcec3d;fill-opacity:1;stroke:none"/>
      </g>
      <g style="opacity:0.5;fill:#000000;filter:url(#filter25488)" transform="matrix(-2.7652776,-0.90539679,-0.80923832,3.0938642,9369.0863,-2031.1711)" id="g25480">
        <path transform="matrix(8,0,0,-8,0,2950)" inkscape:connector-curvature="0" id="path25482" d="m 213.57613,131.88367 -15.36163,-39.147368 6.44198,-5.450899 28.7411,64.419717 z" style="fill:#000000;fill-opacity:1;stroke:none"/>
        <path sodipodi:nodetypes="ccccc" inkscape:connector-curvature="0" id="path25484" d="m 1633.2875,2247.7525 15.8571,19.8214 238.3968,-573.3208 -79.8251,36.1595 z" style="fill:#000000;fill-opacity:1;stroke:none"/>
        <path transform="matrix(8,0,0,-8,0,2950)" inkscape:connector-curvature="0" id="path25486" d="m 198.67513,92.286727 1.75198,-4.204765 5.25596,-2.102382 -1.05119,4.555162 z" style="fill:#000000;fill-opacity:1;stroke:none"/>
      </g>
      <g id="g25351" transform="matrix(-2.7652776,-0.90539679,-0.80923832,3.0938642,9369.0863,-2031.1711)">
        <path style="fill:#f7d333;fill-opacity:1;stroke:none" d="m 213.57613,131.88367 -15.36163,-39.147368 6.44198,-5.450899 28.7411,64.419717 z" id="path25353" inkscape:connector-curvature="0" transform="matrix(8,0,0,-8,0,2950)"/>
        <path style="fill:#efb319;fill-opacity:1;stroke:none" d="m 1633.2875,2247.7525 15.8571,19.8214 238.3968,-573.3208 -79.8251,36.1595 z" id="path25355" inkscape:connector-curvature="0" sodipodi:nodetypes="ccccc"/>
        <path style="fill:#fcec3d;fill-opacity:1;stroke:none" d="m 198.67513,92.286727 1.75198,-4.204765 5.25596,-2.102382 -1.05119,4.555162 z" id="path25357" inkscape:connector-curvature="0" transform="matrix(8,0,0,-8,0,2950)"/>
      </g>
      <g style="opacity:0.5;fill:#000000;filter:url(#filter25610)" id="g25602" transform="matrix(-2.8812544,0,0,2.8812544,8087.3962,-3216.8081)">
        <path style="fill:#000000;fill-opacity:1;stroke:none" d="m 213.57613,131.88367 -15.36163,-39.147368 6.44198,-5.450899 28.7411,64.419717 z" id="path25604" inkscape:connector-curvature="0" transform="matrix(8,0,0,-8,0,2950)"/>
        <path style="fill:#000000;fill-opacity:1;stroke:none" d="m 1633.2875,2247.7525 15.8571,19.8214 238.3968,-573.3208 -79.8251,36.1595 z" id="path25606" inkscape:connector-curvature="0" sodipodi:nodetypes="ccccc"/>
        <path style="fill:#000000;fill-opacity:1;stroke:none" d="m 198.67513,92.286727 1.75198,-4.204765 5.25596,-2.102382 -1.05119,4.555162 z" id="path25608" inkscape:connector-curvature="0" transform="matrix(8,0,0,-8,0,2950)"/>
      </g>
      <g transform="matrix(-2.8812544,0,0,2.8812544,8087.3962,-3216.8081)" id="g25343">
        <path transform="matrix(8,0,0,-8,0,2950)" inkscape:connector-curvature="0" id="path25345" d="m 213.57613,131.88367 -15.36163,-39.147368 6.44198,-5.450899 28.7411,64.419717 z" style="fill:#f7d333;fill-opacity:1;stroke:none"/>
        <path sodipodi:nodetypes="ccccc" inkscape:connector-curvature="0" id="path25347" d="m 1633.2875,2247.7525 15.8571,19.8214 238.3968,-573.3208 -79.8251,36.1595 z" style="fill:#efb319;fill-opacity:1;stroke:none"/>
        <path transform="matrix(8,0,0,-8,0,2950)" inkscape:connector-curvature="0" id="path25349" d="m 198.67513,92.286727 1.75198,-4.204765 5.25596,-2.102382 -1.05119,4.555162 z" style="fill:#fcec3d;fill-opacity:1;stroke:none"/>
      </g>
      <g style="opacity:0.5;fill:#000000;filter:url(#filter25476)" id="g25468" transform="matrix(-2.6917288,-1.1050338,-1.0331421,3.0264632,9616.0258,-2215.1149)">
        <path style="fill:#000000;fill-opacity:1;stroke:none" d="m 213.57613,131.88367 -15.36163,-39.147368 6.44198,-5.450899 28.7411,64.419717 z" id="path25470" inkscape:connector-curvature="0" transform="matrix(8,0,0,-8,0,2950)"/>
        <path style="fill:#000000;fill-opacity:1;stroke:none" d="m 1633.2875,2247.7525 15.8571,19.8214 238.3968,-573.3208 -79.8251,36.1595 z" id="path25472" inkscape:connector-curvature="0" sodipodi:nodetypes="ccccc"/>
        <path style="fill:#000000;fill-opacity:1;stroke:none" d="m 198.67513,92.286727 1.75198,-4.204765 5.25596,-2.102382 -1.05119,4.555162 z" id="path25474" inkscape:connector-curvature="0" transform="matrix(8,0,0,-8,0,2950)"/>
      </g>
      <g transform="matrix(-2.6917288,-1.1050338,-1.0331421,3.0264632,9616.0258,-2215.1149)" id="g25375">
        <path transform="matrix(8,0,0,-8,0,2950)" inkscape:connector-curvature="0" id="path25377" d="m 213.57613,131.88367 -15.36163,-39.147368 6.44198,-5.450899 28.7411,64.419717 z" style="fill:#f7d333;fill-opacity:1;stroke:none"/>
        <path sodipodi:nodetypes="ccccc" inkscape:connector-curvature="0" id="path25379" d="m 1633.2875,2247.7525 15.8571,19.8214 238.3968,-573.3208 -79.8251,36.1595 z" style="fill:#efb319;fill-opacity:1;stroke:none"/>
        <path transform="matrix(8,0,0,-8,0,2950)" inkscape:connector-curvature="0" id="path25381" d="m 198.67513,92.286727 1.75198,-4.204765 5.25596,-2.102382 -1.05119,4.555162 z" style="fill:#fcec3d;fill-opacity:1;stroke:none"/>
      </g>
      <g style="opacity:0.5;fill:#000000;filter:url(#filter25674)" id="g25642" transform="matrix(2.8812544,0,0,2.8812544,-3902.0924,-3222.5192)">
        <path transform="matrix(8,0,0,-8,0,2950)" inkscape:connector-curvature="0" id="path25644" d="m 229.68527,77.219654 10.16151,80.416126 7.00794,1.57678 -11.0375,-82.693701 -6.83275,-2.102382 z" style="fill:#000000;fill-opacity:1;stroke:none"/>
        <path sodipodi:nodetypes="ccccc" transform="matrix(8,0,0,-8,0,2950)" inkscape:connector-curvature="0" id="path25646" d="m 235.64202,76.518859 3.15357,-2.27758 11.9135,87.073671 -4.91801,-1.60685 z" style="fill:#000000;fill-opacity:1;stroke:none"/>
        <path sodipodi:nodetypes="ccccc" transform="matrix(8,0,0,-8,0,2950)" inkscape:connector-curvature="0" id="path25648" d="m 228.9119,74.550989 6.76017,2.008557 3.09916,-2.161211 -5.55194,-1.999219 z" style="fill:#000000;fill-opacity:1;stroke:none"/>
      </g>
      <g transform="matrix(2.8812544,0,0,2.8812544,-3902.0924,-3222.5192)" id="g25435">
        <path style="fill:#f7d333;fill-opacity:1;stroke:none" d="m 229.68527,77.219654 10.16151,80.416126 7.00794,1.57678 -11.0375,-82.693701 -6.83275,-2.102382 z" id="path25429" inkscape:connector-curvature="0" transform="matrix(8,0,0,-8,0,2950)"/>
        <path style="fill:#efb319;fill-opacity:1;stroke:none" d="m 235.64202,76.518859 3.15357,-2.27758 11.9135,87.073671 -4.91801,-1.60685 z" id="path25431" inkscape:connector-curvature="0" transform="matrix(8,0,0,-8,0,2950)" sodipodi:nodetypes="ccccc"/>
        <path style="fill:#fcec3d;fill-opacity:1;stroke:none" d="m 228.9119,74.550989 6.76017,2.008557 3.09916,-2.161211 -5.55194,-1.999219 z" id="path25433" inkscape:connector-curvature="0" transform="matrix(8,0,0,-8,0,2950)" sodipodi:nodetypes="ccccc"/>
      </g>
      <g style="opacity:0.5;fill:#000000;filter:url(#filter25452)" id="g25440" transform="matrix(2.8812544,0,0,2.8812544,-3902.0924,-3176.419)">
        <path inkscape:connector-curvature="0" id="path25442" d="m 1803.8234,2277.4847 45.5893,-25.7679 19.8215,-483.6434 -61.4465,57.4822 z" style="fill:#000000;fill-opacity:1;stroke:none"/>
        <path inkscape:connector-curvature="0" id="path25444" d="m 1849.3413,2251.7168 29.7322,13.875 13.875,-525.2684 -33.6965,39.6428 z" style="fill:#000000;fill-opacity:1;stroke:none"/>
        <path inkscape:connector-curvature="0" id="path25446" d="m 1802.761,2275.4311 47.5714,-23.7858 30.7233,13.8751 -20.8126,23.7857 -28.7411,6.9375 z" style="fill:#000000;fill-opacity:1;stroke:none"/>
      </g>
      <g transform="matrix(2.8812544,0,0,2.8812544,-3902.0924,-3176.419)" id="g25397">
        <path style="fill:#efb319;fill-opacity:1;stroke:none" d="m 1803.8234,2277.4847 45.5893,-25.7679 19.8215,-483.6434 -61.4465,57.4822 z" id="path25391" inkscape:connector-curvature="0"/>
        <path style="fill:#f7d333;fill-opacity:1;stroke:none" d="m 1849.3413,2251.7168 29.7322,13.875 13.875,-525.2684 -33.6965,39.6428 z" id="path25393" inkscape:connector-curvature="0"/>
        <path style="fill:#fcec3d;fill-opacity:1;stroke:none" d="m 1802.761,2275.4311 47.5714,-23.7858 30.7233,13.8751 -20.8126,23.7857 -28.7411,6.9375 z" id="path25395" inkscape:connector-curvature="0"/>
      </g>
      <g style="opacity:0.5;fill:#000000;filter:url(#filter25464)" id="g25456" transform="matrix(2.8812544,0,0,2.8812544,-3576.1502,-3388.1401)">
        <path style="fill:#000000;fill-opacity:1;stroke:none" d="m 213.57613,131.88367 -15.36163,-39.147368 6.44198,-5.450899 28.7411,64.419717 z" id="path25458" inkscape:connector-curvature="0" transform="matrix(8,0,0,-8,0,2950)"/>
        <path style="fill:#000000;fill-opacity:1;stroke:none" d="m 1633.2875,2247.7525 15.8571,19.8214 238.3968,-573.3208 -79.8251,36.1595 z" id="path25460" inkscape:connector-curvature="0" sodipodi:nodetypes="ccccc"/>
        <path style="fill:#000000;fill-opacity:1;stroke:none" d="m 198.67513,92.286727 1.75198,-4.204765 5.25596,-2.102382 -1.05119,4.555162 z" id="path25462" inkscape:connector-curvature="0" transform="matrix(8,0,0,-8,0,2950)"/>
      </g>
      <g transform="matrix(1.5849544,0,0,1.5849544,-531.32083,-88.13865)" style="opacity:0.5;fill:#000000;filter:url(#filter25799)" id="g25787">
        <path transform="matrix(8,0,0,-8,0,2950)" inkscape:connector-curvature="0" id="path25789" d="m 176.90645,152.69619 11.89287,4.45983 8.42411,94.64742 -16.84823,-5.94643 z" style="fill:#000000;fill-opacity:1;stroke:none"/>
        <path transform="matrix(8,0,0,-8,0,2950)" inkscape:connector-curvature="0" id="path25791" d="m 188.79932,156.66048 6.9375,-2.47768 9.41519,96.62957 -7.92858,1.98214 z" style="fill:#000000;fill-opacity:1;stroke:none"/>
        <path sodipodi:nodetypes="ccccc" transform="matrix(8,0,0,-8,0,2950)" inkscape:connector-curvature="0" id="path25793" d="m 176.95051,152.73022 11.5631,4.73036 7.53354,-3.67917 -9.98632,-3.67917 z" style="fill:#000000;fill-opacity:1;stroke:none"/>
      </g>
      <g transform="matrix(1.5849544,0,0,1.5849544,-531.32083,-88.13865)" id="g25782">
        <path style="fill:#f7d333;fill-opacity:1;stroke:none" d="m 176.90645,152.69619 11.89287,4.45983 8.42411,94.64742 -16.84823,-5.94643 z" id="path25776" inkscape:connector-curvature="0" transform="matrix(8,0,0,-8,0,2950)"/>
        <path style="fill:#efb319;fill-opacity:1;stroke:none" d="m 188.79932,156.66048 6.9375,-2.47768 9.41519,96.62957 -7.92858,1.98214 z" id="path25778" inkscape:connector-curvature="0" transform="matrix(8,0,0,-8,0,2950)"/>
        <path style="fill:#fcec3d;fill-opacity:1;stroke:none" d="m 176.95051,152.73022 11.5631,4.73036 7.53354,-3.67917 -9.98632,-3.67917 z" id="path25780" inkscape:connector-curvature="0" transform="matrix(8,0,0,-8,0,2950)" sodipodi:nodetypes="ccccc"/>
      </g>
      <g transform="matrix(2.8812544,0,0,2.8812544,-3576.1502,-3388.1401)" id="g25383">
        <path transform="matrix(8,0,0,-8,0,2950)" inkscape:connector-curvature="0" id="path25385" d="m 213.57613,131.88367 -15.36163,-39.147368 6.44198,-5.450899 28.7411,64.419717 z" style="fill:#f7d333;fill-opacity:1;stroke:none"/>
        <path sodipodi:nodetypes="ccccc" inkscape:connector-curvature="0" id="path25387" d="m 1633.2875,2247.7525 15.8571,19.8214 238.3968,-573.3208 -79.8251,36.1595 z" style="fill:#efb319;fill-opacity:1;stroke:none"/>
        <path transform="matrix(8,0,0,-8,0,2950)" inkscape:connector-curvature="0" id="path25389" d="m 198.67513,92.286727 1.75198,-4.204765 5.25596,-2.102382 -1.05119,4.555162 z" style="fill:#fcec3d;fill-opacity:1;stroke:none"/>
      </g>
      <g transform="matrix(1.5849544,0,0,1.5849544,-531.32083,-88.13865)" style="opacity:0.5;fill:#000000;filter:url(#filter25748)" id="g25740">
        <path inkscape:connector-curvature="0" id="path25742" d="m 1724.4662,2029.7166 3.9643,-947.4654 83.2501,15.8571 -19.8215,911.7867 z" style="fill:#000000;fill-opacity:1;stroke:none"/>
        <path sodipodi:nodetypes="ccccc" inkscape:connector-curvature="0" id="path25744" d="m 1789.877,2011.8772 48.0523,20.6426 23.3049,-886.84 -48.9807,-49.6378 z" style="fill:#000000;fill-opacity:1;stroke:none"/>
        <path inkscape:connector-curvature="0" id="path25746" d="m 1723.9535,2032.3029 67.2763,-22.4254 50.4571,22.4254 -44.8508,30.8349 z" style="fill:#000000;fill-opacity:1;stroke:none"/>
      </g>
      <g transform="matrix(1.5849544,0,0,1.5849544,-531.32083,-88.13865)" id="g25735">
        <path style="fill:#efb319;fill-opacity:1;stroke:none" d="m 1724.4662,2029.7166 3.9643,-947.4654 83.2501,15.8571 -19.8215,911.7867 z" id="path25709" inkscape:connector-curvature="0"/>
        <path style="fill:#f7d333;fill-opacity:1;stroke:none" d="m 1789.877,2011.8772 48.0523,20.6426 23.3049,-886.84 -48.9807,-49.6378 z" id="path25711" inkscape:connector-curvature="0" sodipodi:nodetypes="ccccc"/>
        <path style="fill:#fcec3d;fill-opacity:1;stroke:none" d="m 1723.9535,2032.3029 67.2763,-22.4254 50.4571,22.4254 -44.8508,30.8349 z" id="path25713" inkscape:connector-curvature="0"/>
      </g>
      <g style="opacity:0.5;fill:#000000;filter:url(#filter25772)" transform="matrix(-2.7832119,-0.84866657,-0.74580971,3.1097637,8744.1687,-2709.5255)" id="g25760">
        <path transform="matrix(8,0,0,-8,0,2950)" inkscape:connector-curvature="0" id="path25762" d="m 213.57613,131.88367 -15.36163,-39.147368 6.44198,-5.450899 28.7411,64.419717 z" style="fill:#000000;fill-opacity:1;stroke:none"/>
        <path sodipodi:nodetypes="ccccc" inkscape:connector-curvature="0" id="path25764" d="m 1633.2875,2247.7525 15.8571,19.8214 238.3968,-573.3208 -79.8251,36.1595 z" style="fill:#000000;fill-opacity:1;stroke:none"/>
        <path transform="matrix(8,0,0,-8,0,2950)" inkscape:connector-curvature="0" id="path25766" d="m 198.67513,92.286727 1.75198,-4.204765 5.25596,-2.102382 -1.05119,4.555162 z" style="fill:#000000;fill-opacity:1;stroke:none"/>
      </g>
      <g style="opacity:0.5;fill:#000000;filter:url(#filter25847)" transform="matrix(2.8783248,-0.12989481,0.12989481,2.8783248,-3934.9346,-3887.483)" id="g25835">
        <path style="fill:#000000;fill-opacity:1;stroke:none" d="m 251.48465,75.144765 4.21206,-1.734377 -0.99107,92.169742 -5.19068,1.13621 z" id="path25837" inkscape:connector-curvature="0" transform="matrix(8,0,0,-8,0,2950)" sodipodi:nodetypes="ccccc"/>
        <path style="fill:#000000;fill-opacity:1;stroke:none" d="m 244.92754,74.416477 6.53731,0.598165 -1.21904,91.804328 -5.94643,-6.68974 z" id="path25839" inkscape:connector-curvature="0" transform="matrix(8,0,0,-8,0,2950)" sodipodi:nodetypes="ccccc"/>
        <path style="fill:#000000;fill-opacity:1;stroke:none" d="m 244.92754,74.460277 6.70134,0.700794 4.20477,-1.708186 -5.82535,-0.481796 z" id="path25841" inkscape:connector-curvature="0" transform="matrix(8,0,0,-8,0,2950)" sodipodi:nodetypes="ccccc"/>
      </g>
      <g id="g25827" transform="matrix(2.8783248,-0.12989481,0.12989481,2.8783248,-3934.9346,-3887.483)">
        <path sodipodi:nodetypes="ccccc" transform="matrix(8,0,0,-8,0,2950)" inkscape:connector-curvature="0" id="path25829" d="m 251.48465,75.144765 4.21206,-1.734377 -0.99107,92.169742 -5.19068,1.13621 z" style="fill:#efb319;fill-opacity:1;stroke:none"/>
        <path sodipodi:nodetypes="ccccc" transform="matrix(8,0,0,-8,0,2950)" inkscape:connector-curvature="0" id="path25831" d="m 244.92754,74.416477 6.53731,0.598165 -1.21904,91.804328 -5.94643,-6.68974 z" style="fill:#f7d333;fill-opacity:1;stroke:none"/>
        <path sodipodi:nodetypes="ccccc" transform="matrix(8,0,0,-8,0,2950)" inkscape:connector-curvature="0" id="path25833" d="m 244.92754,74.460277 6.70134,0.700794 4.20477,-1.708186 -5.82535,-0.481796 z" style="fill:#fcec3d;fill-opacity:1;stroke:none"/>
      </g>
      <g id="g25752" transform="matrix(-2.7832119,-0.84866657,-0.74580971,3.1097637,8744.1687,-2709.5255)">
        <path style="fill:#f7d333;fill-opacity:1;stroke:none" d="m 213.57613,131.88367 -15.36163,-39.147368 6.44198,-5.450899 28.7411,64.419717 z" id="path25754" inkscape:connector-curvature="0" transform="matrix(8,0,0,-8,0,2950)"/>
        <path style="fill:#efb319;fill-opacity:1;stroke:none" d="m 1633.2875,2247.7525 15.8571,19.8214 238.3968,-573.3208 -79.8251,36.1595 z" id="path25756" inkscape:connector-curvature="0" sodipodi:nodetypes="ccccc"/>
        <path style="fill:#fcec3d;fill-opacity:1;stroke:none" d="m 198.67513,92.286727 1.75198,-4.204765 5.25596,-2.102382 -1.05119,4.555162 z" id="path25758" inkscape:connector-curvature="0" transform="matrix(8,0,0,-8,0,2950)"/>
      </g>
      <path inkscape:connector-curvature="0" id="path24481" d="m 3185.7934,2658.1209 c 0,0 -142.0731,-20.0072 -157.7488,-65.5484 -65.3735,-189.924 -150.3446,-392.2791 -296.7691,-533.7525 -183.4833,-177.2792 -409.2049,-314.0298 -681.4167,-348.6316 -267.8908,-34.0528 -554.8888,150.7011 -705.187,399.0536 -74.1503,122.5256 -69.0311,273.4689 -134.6986,399.0538 C 1185.977,2554.1868 998.201,2609.86 998.201,2609.86 l 62.6673,-434.3491 -39.6173,296.0489 c 0,0 113.5836,-26.8607 137.58,-72.7517 65.6674,-125.5849 83.1355,-311.0519 185.8408,-427.8663 191.6784,-218.0093 398.9351,-309.8146 636.037,-319.0989 267.7082,-10.4829 541.0153,128.6125 744.8042,302.5316 148.08,126.3756 237.1581,309.9737 302.5316,499.8977 14.2808,41.4885 128.6603,60.8174 149.8253,64.1079 l 7.9235,139.7408 z" style="fill:url(#linearGradient25294);fill-opacity:1;stroke:none"/>
      <path sodipodi:nodetypes="ccccc" inkscape:connector-curvature="0" id="path24508" d="m 781.39167,2748.3984 45.68863,-254.1424 205.5982,-85.666 -34.2664,199.8872 z" style="fill:url(#linearGradient24516);fill-opacity:1;stroke:none"/>
      <path sodipodi:nodetypes="ccccc" inkscape:connector-curvature="0" id="path24490" d="M 1045.3631,2448.4792 1315.9314,280.73376 1166.513,397.00649 803.06313,2618.0891 z" style="fill:url(#linearGradient24506);fill-opacity:1;stroke:none"/>
      <path inkscape:connector-curvature="0" id="path25314" d="m 3182.8207,2661.3306 -6.0576,-145.3799 189.8015,109.0352 16.1535,123.169 z" style="fill:#a7a7a7;fill-opacity:1;stroke:none"/>
      <path sodipodi:nodetypes="cacccsaasscc" inkscape:connector-curvature="0" id="path24479" d="m 1312.2197,290.82997 c 0,0 519.1285,121.34113 783.4363,122.3297 277.6159,1.03955 823.8199,-122.3297 823.8199,-122.3297 l 145.3799,177.68637 121.1501,2051.47266 c 0,0 -142.5119,-20.0517 -158.1876,-65.5932 -65.3737,-189.9238 -154.1023,-373.3975 -302.1823,-499.773 -203.7887,-173.9193 -476.8986,-313.0709 -744.6069,-302.588 -237.1019,9.2842 -444.8244,100.7318 -636.5028,318.741 -102.7055,116.8145 -120.0956,302.4784 -185.7631,428.0634 -23.9963,45.8909 -137.3033,72.69 -137.3033,72.69 z" style="fill:#c41c23;fill-opacity:1;stroke:none"/>
      <path sodipodi:nodetypes="cccc" inkscape:connector-curvature="0" id="path25312" d="M 3065.7089,468.51634 3364.5455,2624.9856 3178.7822,2517.9699 z" style="fill:#aa0000;fill-opacity:1;stroke:none"/>
      <path transform="matrix(2.8812544,0,0,2.8812544,-3855.9923,-3222.5192)" d="m 2345.6875,1236.1875 c -24.5133,5.5037 -186.6675,41.1935 -280.0937,40.8437 -82.9567,-0.3103 -220.5487,-30.4364 -258.9688,-39.1874 l -95.5,716.0937 c 8.3979,-3.995 15.7167,-9.6659 15.875,-9.9687 20.4527,-39.1148 26.1764,-105.6641 66.5312,-151.5626 68.7299,-78.1713 145.9088,-112.4199 231.75,-115.7812 98.5704,-3.8598 196.0937,46.5425 268.875,108.6562 54.6361,46.6279 86.2888,112.9922 109.375,180.0626 -0.8334,-2.4215 -0.2174,-0.296 3.625,1.75 3.8425,2.0459 9.7481,4.2218 15.6563,5.9062 1.809,0.5157 3.1814,0.7204 4.9375,1.1562 l -40.5938,-687.2812 -41.4687,-50.6875 z" id="path25300" style="opacity:0.48160538;fill:url(#linearGradient9292);fill-opacity:1;stroke:none" inkscape:original="M 1793.75 1219.375 L 1692.8125 1976.25 C 1692.8125 1976.25 1732.1403 1966.9274 1740.4688 1951 C 1763.26 1907.4131 1769.2914 1842.9804 1804.9375 1802.4375 C 1871.4635 1726.7728 1943.5838 1695.0348 2025.875 1691.8125 C 2118.7888 1688.1742 2213.552 1736.4814 2284.2812 1796.8438 C 2335.6756 1840.7051 2366.4669 1904.3641 2389.1562 1970.2812 C 2394.5968 1986.0874 2444.0625 1993.0625 2444.0625 1993.0625 L 2402.0312 1281.0625 L 2351.5625 1219.375 C 2351.5625 1219.375 2162.0087 1262.2045 2065.6562 1261.8438 C 1973.9226 1261.5006 1793.75 1219.375 1793.75 1219.375 z " inkscape:radius="-15.190393" sodipodi:type="inkscape:offset"/>
    </g>
  </g>
</svg>