<?xml version="1.0" encoding="UTF-8" standalone="no"?>
<!-- Created with Inkscape (http://www.inkscape.org/) -->
<svg xmlns:dc="http://purl.org/dc/elements/1.1/" xmlns:cc="http://creativecommons.org/ns#" xmlns:rdf="http://www.w3.org/1999/02/22-rdf-syntax-ns#" xmlns:svg="http://www.w3.org/2000/svg" xmlns="http://www.w3.org/2000/svg" xmlns:xlink="http://www.w3.org/1999/xlink" xmlns:sodipodi="http://sodipodi.sourceforge.net/DTD/sodipodi-0.dtd" xmlns:inkscape="http://www.inkscape.org/namespaces/inkscape" id="svg2" version="1.1" inkscape:version="0.48.1 r9760" width="200" height="210" sodipodi:docname="citron.svg">
  <metadata id="metadata8">
    <rdf:RDF>
      <cc:Work rdf:about="">
        <dc:format>image/svg+xml</dc:format>
        <dc:type rdf:resource="http://purl.org/dc/dcmitype/StillImage"/>
        <dc:title/>
      </cc:Work>
    </rdf:RDF>
  </metadata>
  <defs id="defs6">
    <linearGradient inkscape:collect="always" id="linearGradient4482">
      <stop style="stop-color:#ffffff;stop-opacity:1;" offset="0" id="stop4484"/>
      <stop style="stop-color:#ffffff;stop-opacity:0;" offset="1" id="stop4486"/>
    </linearGradient>
    <linearGradient id="linearGradient4095">
      <stop id="stop4097" offset="0" style="stop-color:#d7970b;stop-opacity:1;"/>
      <stop style="stop-color:#b06e00;stop-opacity:1" offset="0.47034362" id="stop4099"/>
      <stop id="stop4101" offset="1" style="stop-color:#ffd634;stop-opacity:1"/>
    </linearGradient>
    <linearGradient inkscape:collect="always" id="linearGradient4077">
      <stop style="stop-color:#ffffff;stop-opacity:1;" offset="0" id="stop4079"/>
      <stop style="stop-color:#ffffff;stop-opacity:0;" offset="1" id="stop4081"/>
    </linearGradient>
    <linearGradient inkscape:collect="always" id="linearGradient4067">
      <stop style="stop-color:#f9f6d4;stop-opacity:1;" offset="0" id="stop4069"/>
      <stop style="stop-color:#f9f6d4;stop-opacity:0;" offset="1" id="stop4071"/>
    </linearGradient>
    <linearGradient inkscape:collect="always" id="linearGradient4008">
      <stop style="stop-color:#edd074;stop-opacity:1;" offset="0" id="stop4010"/>
      <stop style="stop-color:#f0db8c;stop-opacity:1" offset="1" id="stop4012"/>
    </linearGradient>
    <linearGradient inkscape:collect="always" id="linearGradient3870">
      <stop style="stop-color:#ffffff;stop-opacity:1;" offset="0" id="stop3872"/>
      <stop style="stop-color:#ffffff;stop-opacity:0;" offset="1" id="stop3874"/>
    </linearGradient>
    <linearGradient inkscape:collect="always" id="linearGradient3860">
      <stop style="stop-color:#c17f05;stop-opacity:1;" offset="0" id="stop3862"/>
      <stop style="stop-color:#c17f05;stop-opacity:0;" offset="1" id="stop3864"/>
    </linearGradient>
    <linearGradient id="linearGradient3002">
      <stop style="stop-color:#8e5406;stop-opacity:1;" offset="0" id="stop3004"/>
      <stop style="stop-color:#8e5406;stop-opacity:0;" offset="1" id="stop3006"/>
    </linearGradient>
    <linearGradient id="linearGradient2989">
      <stop style="stop-color:#d7970b;stop-opacity:1;" offset="0" id="stop2991"/>
      <stop id="stop3914" offset="0.31510779" style="stop-color:#b06e00;stop-opacity:1"/>
      <stop style="stop-color:#ffd634;stop-opacity:1" offset="1" id="stop2993"/>
    </linearGradient>
    <linearGradient inkscape:collect="always" xlink:href="#linearGradient2989" id="linearGradient2995" x1="129.77638" y1="172.67564" x2="145.0838" y2="-20.821455" gradientUnits="userSpaceOnUse" gradientTransform="translate(5.7408296,162.65684)"/>
    <filter inkscape:collect="always" id="filter3856" x="-0.16958594" width="1.3391719" y="-0.22445419" height="1.4489084" color-interpolation-filters="sRGB">
      <feGaussianBlur inkscape:collect="always" stdDeviation="4.5976228" id="feGaussianBlur3858"/>
    </filter>
    <radialGradient inkscape:collect="always" xlink:href="#linearGradient3860" id="radialGradient3866" cx="68.951447" cy="55.398026" fx="68.951447" fy="55.398026" r="43.567341" gradientTransform="matrix(1,0,0,0.81746038,5.7408296,172.76917)" gradientUnits="userSpaceOnUse"/>
    <radialGradient inkscape:collect="always" xlink:href="#linearGradient3870" id="radialGradient3876" cx="136.01587" cy="157.82816" fx="136.01587" fy="157.82816" r="32.820526" gradientTransform="matrix(1,0,0,0.86171672,2.9158176,30.901978)" gradientUnits="userSpaceOnUse"/>
    <filter inkscape:collect="always" id="filter3910" x="-0.1005327" width="1.2010654" y="-0.11666561" height="1.2333312" color-interpolation-filters="sRGB">
      <feGaussianBlur inkscape:collect="always" stdDeviation="2.7496137" id="feGaussianBlur3912"/>
    </filter>
    <filter inkscape:collect="always" id="filter3983" x="-0.38796261" width="1.7759252" y="-0.070976861" height="1.1419537" color-interpolation-filters="sRGB">
      <feGaussianBlur inkscape:collect="always" stdDeviation="0.70145101" id="feGaussianBlur3985"/>
    </filter>
    <linearGradient inkscape:collect="always" xlink:href="#linearGradient4008" id="linearGradient4014" x1="383.20038" y1="297.18451" x2="256.6629" y2="228.29456" gradientUnits="userSpaceOnUse"/>
    <radialGradient inkscape:collect="always" xlink:href="#linearGradient4067" id="radialGradient4073" cx="290.78125" cy="235.91917" fx="290.78125" fy="235.91917" r="45.6875" gradientTransform="matrix(1,0,0,0.93125855,0,16.438873)" gradientUnits="userSpaceOnUse"/>
    <linearGradient inkscape:collect="always" xlink:href="#linearGradient4077" id="linearGradient4083" x1="219.03448" y1="202.56523" x2="389.34213" y2="282.39969" gradientUnits="userSpaceOnUse"/>
    <linearGradient inkscape:collect="always" xlink:href="#linearGradient4095" id="linearGradient4093" x1="-149.41826" y1="307.55466" x2="-109.77981" y2="197.27484" gradientUnits="userSpaceOnUse" gradientTransform="translate(391.29002,67.93315)"/>
    <linearGradient inkscape:collect="always" xlink:href="#linearGradient4095" id="linearGradient4127" gradientUnits="userSpaceOnUse" gradientTransform="translate(391.29002,67.93315)" x1="-149.41826" y1="307.55466" x2="-109.77981" y2="197.27484"/>
    <linearGradient inkscape:collect="always" xlink:href="#linearGradient4008" id="linearGradient4129" gradientUnits="userSpaceOnUse" x1="383.20038" y1="297.18451" x2="256.6629" y2="228.29456"/>
    <radialGradient inkscape:collect="always" xlink:href="#linearGradient4067" id="radialGradient4131" gradientUnits="userSpaceOnUse" gradientTransform="matrix(1,0,0,0.93125855,0,16.438873)" cx="290.78125" cy="235.91917" fx="290.78125" fy="235.91917" r="45.6875"/>
    <radialGradient inkscape:collect="always" xlink:href="#linearGradient4067" id="radialGradient4134" gradientUnits="userSpaceOnUse" gradientTransform="matrix(1,0,0,0.93125855,0,16.438873)" cx="290.78125" cy="235.91917" fx="290.78125" fy="235.91917" r="45.6875"/>
    <linearGradient inkscape:collect="always" xlink:href="#linearGradient4008" id="linearGradient4137" gradientUnits="userSpaceOnUse" x1="383.20038" y1="297.18451" x2="256.6629" y2="228.29456"/>
    <linearGradient inkscape:collect="always" xlink:href="#linearGradient4095" id="linearGradient4142" gradientUnits="userSpaceOnUse" gradientTransform="translate(390.29002,66.93315)" x1="-149.41826" y1="307.55466" x2="-109.77981" y2="197.27484"/>
    <linearGradient inkscape:collect="always" xlink:href="#linearGradient4095" id="linearGradient4151" gradientUnits="userSpaceOnUse" gradientTransform="translate(390.29002,66.93315)" x1="-149.41826" y1="307.55466" x2="-109.77981" y2="197.27484"/>
    <linearGradient inkscape:collect="always" xlink:href="#linearGradient4008" id="linearGradient4153" gradientUnits="userSpaceOnUse" x1="383.20038" y1="297.18451" x2="256.6629" y2="228.29456"/>
    <radialGradient inkscape:collect="always" xlink:href="#linearGradient4067" id="radialGradient4155" gradientUnits="userSpaceOnUse" gradientTransform="matrix(1,0,0,0.93125855,0,16.438873)" cx="290.78125" cy="235.91917" fx="290.78125" fy="235.91917" r="45.6875"/>
    <linearGradient inkscape:collect="always" xlink:href="#linearGradient4095" id="linearGradient4221" gradientUnits="userSpaceOnUse" gradientTransform="translate(390.29002,66.93315)" x1="-149.41826" y1="307.55466" x2="-109.77981" y2="197.27484"/>
    <linearGradient inkscape:collect="always" xlink:href="#linearGradient4008" id="linearGradient4223" gradientUnits="userSpaceOnUse" x1="383.20038" y1="297.18451" x2="256.6629" y2="228.29456"/>
    <radialGradient inkscape:collect="always" xlink:href="#linearGradient4067" id="radialGradient4225" gradientUnits="userSpaceOnUse" gradientTransform="matrix(1,0,0,0.93125855,0,16.438873)" cx="290.78125" cy="235.91917" fx="290.78125" fy="235.91917" r="45.6875"/>
    <linearGradient inkscape:collect="always" xlink:href="#linearGradient4095" id="linearGradient4231" gradientUnits="userSpaceOnUse" gradientTransform="translate(390.49785,63.022219)" x1="-149.41826" y1="307.55466" x2="-109.77981" y2="197.27484"/>
    <filter inkscape:collect="always" id="filter4234" color-interpolation-filters="sRGB">
      <feGaussianBlur inkscape:collect="always" stdDeviation="1.86537" id="feGaussianBlur4236"/>
    </filter>
    <linearGradient inkscape:collect="always" xlink:href="#linearGradient4095" id="linearGradient4270" gradientUnits="userSpaceOnUse" gradientTransform="translate(390.29002,66.93315)" x1="-149.41826" y1="307.55466" x2="-109.77981" y2="197.27484"/>
    <linearGradient inkscape:collect="always" xlink:href="#linearGradient4008" id="linearGradient4272" gradientUnits="userSpaceOnUse" x1="383.20038" y1="297.18451" x2="256.6629" y2="228.29456"/>
    <radialGradient inkscape:collect="always" xlink:href="#linearGradient4067" id="radialGradient4274" gradientUnits="userSpaceOnUse" gradientTransform="matrix(1,0,0,0.93125855,0,16.438873)" cx="290.78125" cy="235.91917" fx="290.78125" fy="235.91917" r="45.6875"/>
    <linearGradient inkscape:collect="always" xlink:href="#linearGradient4095" id="linearGradient4276" gradientUnits="userSpaceOnUse" gradientTransform="translate(390.29002,66.93315)" x1="-149.41826" y1="307.55466" x2="-109.77981" y2="197.27484"/>
    <linearGradient inkscape:collect="always" xlink:href="#linearGradient4008" id="linearGradient4278" gradientUnits="userSpaceOnUse" x1="383.20038" y1="297.18451" x2="256.6629" y2="228.29456"/>
    <radialGradient inkscape:collect="always" xlink:href="#linearGradient4067" id="radialGradient4280" gradientUnits="userSpaceOnUse" gradientTransform="matrix(1,0,0,0.93125855,0,16.438873)" cx="290.78125" cy="235.91917" fx="290.78125" fy="235.91917" r="45.6875"/>
    <linearGradient inkscape:collect="always" xlink:href="#linearGradient4095" id="linearGradient4282" gradientUnits="userSpaceOnUse" gradientTransform="translate(390.29002,66.93315)" x1="-149.41826" y1="307.55466" x2="-109.77981" y2="197.27484"/>
    <linearGradient inkscape:collect="always" xlink:href="#linearGradient4008" id="linearGradient4284" gradientUnits="userSpaceOnUse" x1="383.20038" y1="297.18451" x2="256.6629" y2="228.29456"/>
    <radialGradient inkscape:collect="always" xlink:href="#linearGradient4067" id="radialGradient4286" gradientUnits="userSpaceOnUse" gradientTransform="matrix(1,0,0,0.93125855,0,16.438873)" cx="290.78125" cy="235.91917" fx="290.78125" fy="235.91917" r="45.6875"/>
    <linearGradient inkscape:collect="always" xlink:href="#linearGradient2989" id="linearGradient4288" gradientUnits="userSpaceOnUse" gradientTransform="translate(5.7408296,162.65684)" x1="129.77638" y1="172.67564" x2="145.0838" y2="-20.821455"/>
    <radialGradient inkscape:collect="always" xlink:href="#linearGradient3860" id="radialGradient4290" gradientUnits="userSpaceOnUse" gradientTransform="matrix(1,0,0,0.81746038,5.7408296,172.76917)" cx="68.951447" cy="55.398026" fx="68.951447" fy="55.398026" r="43.567341"/>
    <radialGradient inkscape:collect="always" xlink:href="#linearGradient3870" id="radialGradient4292" gradientUnits="userSpaceOnUse" gradientTransform="matrix(1,0,0,0.86171672,2.9158176,30.901978)" cx="136.01587" cy="157.82816" fx="136.01587" fy="157.82816" r="32.820526"/>
    <filter inkscape:collect="always" id="filter4324" x="-0.072153106" width="1.1443062" y="-0.14339148" height="1.2867829" color-interpolation-filters="sRGB">
      <feGaussianBlur inkscape:collect="always" stdDeviation="2.2753727" id="feGaussianBlur4326"/>
    </filter>
    <linearGradient inkscape:collect="always" xlink:href="#linearGradient2989" id="linearGradient4340" gradientUnits="userSpaceOnUse" gradientTransform="translate(5.7408296,162.65684)" x1="129.77638" y1="172.67564" x2="145.0838" y2="-20.821455"/>
    <radialGradient inkscape:collect="always" xlink:href="#linearGradient3860" id="radialGradient4342" gradientUnits="userSpaceOnUse" gradientTransform="matrix(1,0,0,0.81746038,5.7408296,172.76917)" cx="68.951447" cy="55.398026" fx="68.951447" fy="55.398026" r="43.567341"/>
    <radialGradient inkscape:collect="always" xlink:href="#linearGradient3870" id="radialGradient4344" gradientUnits="userSpaceOnUse" gradientTransform="matrix(1,0,0,0.86171672,2.9158176,30.901978)" cx="136.01587" cy="157.82816" fx="136.01587" fy="157.82816" r="32.820526"/>
    <radialGradient inkscape:collect="always" xlink:href="#linearGradient3870" id="radialGradient4348" gradientUnits="userSpaceOnUse" gradientTransform="matrix(1,0,0,0.86171672,341.19744,-34.724657)" cx="136.01587" cy="157.82816" fx="136.01587" fy="157.82816" r="32.820526"/>
    <radialGradient inkscape:collect="always" xlink:href="#linearGradient3860" id="radialGradient4351" gradientUnits="userSpaceOnUse" gradientTransform="matrix(1,0,0,0.81746038,344.02245,107.14254)" cx="68.951447" cy="55.398026" fx="68.951447" fy="55.398026" r="43.567341"/>
    <linearGradient inkscape:collect="always" xlink:href="#linearGradient2989" id="linearGradient4354" gradientUnits="userSpaceOnUse" gradientTransform="translate(344.02245,97.030205)" x1="129.77638" y1="172.67564" x2="145.0838" y2="-20.821455"/>
    <filter inkscape:collect="always" id="filter4358" color-interpolation-filters="sRGB">
      <feGaussianBlur inkscape:collect="always" stdDeviation="2.3403001" id="feGaussianBlur4360"/>
    </filter>
    <linearGradient inkscape:collect="always" xlink:href="#linearGradient2989" id="linearGradient4392" gradientUnits="userSpaceOnUse" gradientTransform="translate(5.7408296,162.65684)" x1="129.77638" y1="172.67564" x2="145.0838" y2="-20.821455"/>
    <radialGradient inkscape:collect="always" xlink:href="#linearGradient3860" id="radialGradient4394" gradientUnits="userSpaceOnUse" gradientTransform="matrix(1,0,0,0.81746038,5.7408296,172.76917)" cx="68.951447" cy="55.398026" fx="68.951447" fy="55.398026" r="43.567341"/>
    <radialGradient inkscape:collect="always" xlink:href="#linearGradient3870" id="radialGradient4396" gradientUnits="userSpaceOnUse" gradientTransform="matrix(1,0,0,0.86171672,2.9158176,30.901978)" cx="136.01587" cy="157.82816" fx="136.01587" fy="157.82816" r="32.820526"/>
    <linearGradient inkscape:collect="always" xlink:href="#linearGradient4095" id="linearGradient4398" gradientUnits="userSpaceOnUse" gradientTransform="translate(390.29002,66.93315)" x1="-149.41826" y1="307.55466" x2="-109.77981" y2="197.27484"/>
    <linearGradient inkscape:collect="always" xlink:href="#linearGradient4008" id="linearGradient4400" gradientUnits="userSpaceOnUse" x1="383.20038" y1="297.18451" x2="256.6629" y2="228.29456"/>
    <radialGradient inkscape:collect="always" xlink:href="#linearGradient4067" id="radialGradient4402" gradientUnits="userSpaceOnUse" gradientTransform="matrix(1,0,0,0.93125855,0,16.438873)" cx="290.78125" cy="235.91917" fx="290.78125" fy="235.91917" r="45.6875"/>
    <linearGradient inkscape:collect="always" xlink:href="#linearGradient4095" id="linearGradient4404" gradientUnits="userSpaceOnUse" gradientTransform="translate(390.29002,66.93315)" x1="-149.41826" y1="307.55466" x2="-109.77981" y2="197.27484"/>
    <linearGradient inkscape:collect="always" xlink:href="#linearGradient4008" id="linearGradient4406" gradientUnits="userSpaceOnUse" x1="383.20038" y1="297.18451" x2="256.6629" y2="228.29456"/>
    <radialGradient inkscape:collect="always" xlink:href="#linearGradient4067" id="radialGradient4408" gradientUnits="userSpaceOnUse" gradientTransform="matrix(1,0,0,0.93125855,0,16.438873)" cx="290.78125" cy="235.91917" fx="290.78125" fy="235.91917" r="45.6875"/>
    <linearGradient inkscape:collect="always" xlink:href="#linearGradient4095" id="linearGradient4410" gradientUnits="userSpaceOnUse" gradientTransform="translate(390.29002,66.93315)" x1="-149.41826" y1="307.55466" x2="-109.77981" y2="197.27484"/>
    <linearGradient inkscape:collect="always" xlink:href="#linearGradient4008" id="linearGradient4412" gradientUnits="userSpaceOnUse" x1="383.20038" y1="297.18451" x2="256.6629" y2="228.29456"/>
    <radialGradient inkscape:collect="always" xlink:href="#linearGradient4067" id="radialGradient4414" gradientUnits="userSpaceOnUse" gradientTransform="matrix(1,0,0,0.93125855,0,16.438873)" cx="290.78125" cy="235.91917" fx="290.78125" fy="235.91917" r="45.6875"/>
    <linearGradient inkscape:collect="always" xlink:href="#linearGradient4095" id="linearGradient4444" gradientUnits="userSpaceOnUse" gradientTransform="translate(390.29002,66.93315)" x1="-149.41826" y1="307.55466" x2="-109.77981" y2="197.27484"/>
    <linearGradient inkscape:collect="always" xlink:href="#linearGradient4008" id="linearGradient4446" gradientUnits="userSpaceOnUse" x1="383.20038" y1="297.18451" x2="256.6629" y2="228.29456"/>
    <radialGradient inkscape:collect="always" xlink:href="#linearGradient4067" id="radialGradient4448" gradientUnits="userSpaceOnUse" gradientTransform="matrix(1,0,0,0.93125855,0,16.438873)" cx="290.78125" cy="235.91917" fx="290.78125" fy="235.91917" r="45.6875"/>
    <linearGradient inkscape:collect="always" xlink:href="#linearGradient4095" id="linearGradient4450" gradientUnits="userSpaceOnUse" gradientTransform="translate(390.29002,66.93315)" x1="-149.41826" y1="307.55466" x2="-109.77981" y2="197.27484"/>
    <linearGradient inkscape:collect="always" xlink:href="#linearGradient4008" id="linearGradient4452" gradientUnits="userSpaceOnUse" x1="383.20038" y1="297.18451" x2="256.6629" y2="228.29456"/>
    <radialGradient inkscape:collect="always" xlink:href="#linearGradient4067" id="radialGradient4454" gradientUnits="userSpaceOnUse" gradientTransform="matrix(1,0,0,0.93125855,0,16.438873)" cx="290.78125" cy="235.91917" fx="290.78125" fy="235.91917" r="45.6875"/>
    <linearGradient inkscape:collect="always" xlink:href="#linearGradient4095" id="linearGradient4456" gradientUnits="userSpaceOnUse" gradientTransform="translate(390.29002,66.93315)" x1="-149.41826" y1="307.55466" x2="-109.77981" y2="197.27484"/>
    <linearGradient inkscape:collect="always" xlink:href="#linearGradient4008" id="linearGradient4458" gradientUnits="userSpaceOnUse" x1="383.20038" y1="297.18451" x2="256.6629" y2="228.29456"/>
    <radialGradient inkscape:collect="always" xlink:href="#linearGradient4067" id="radialGradient4460" gradientUnits="userSpaceOnUse" gradientTransform="matrix(1,0,0,0.93125855,0,16.438873)" cx="290.78125" cy="235.91917" fx="290.78125" fy="235.91917" r="45.6875"/>
    <radialGradient inkscape:collect="always" xlink:href="#linearGradient4482" id="radialGradient4488" cx="124.36958" cy="90.98658" fx="124.36958" fy="90.98658" r="43.303305" gradientTransform="matrix(1.7620665,0,0,1.5126515,-94.777903,-38.204322)" gradientUnits="userSpaceOnUse"/>
  </defs>
  <sodipodi:namedview pagecolor="#ffffff" bordercolor="#666666" borderopacity="1" objecttolerance="10" gridtolerance="10" guidetolerance="10" inkscape:pageopacity="0" inkscape:pageshadow="2" inkscape:window-width="1280" inkscape:window-height="969" id="namedview4" showgrid="false" inkscape:zoom="1.4780584" inkscape:cx="183.45176" inkscape:cy="134.5765" inkscape:window-x="0" inkscape:window-y="26" inkscape:window-maximized="1" inkscape:current-layer="svg2">
    <inkscape:grid type="xygrid" id="grid3989" empspacing="5" visible="true" enabled="true" snapvisiblegridlinesonly="true"/>
  </sodipodi:namedview>
  <path style="opacity:0.5;fill:#000000;fill-opacity:1;stroke:none;filter:url(#filter4358)" d="m 104.14097,8.711237 c -3.00667,-0.01115 -5.9902,0.118558 -8.96875,0.40625 -12.39712,1.19741 -25.09605,3.34223 -36.375,8.625 -10.10884,4.73473 -19.69291,11.47041 -26.78125,20.09375 -6.06896,7.383215 -7.18197,17.861055 -12.4375,25.843755 -2.67274,4.05966 -7.61081,6.54858 -9.5625,11 -1.15968,2.64503 -1.76038,5.81628 -0.96875,8.59375 0.77824,2.7305 2.99261,4.96545 5.25,6.6875 2.6138,1.99393 6.98729,1.31976 9.09375,3.84375 1.88411,2.25753 0.87719,5.88239 1.9375,8.624998 0.92721,2.39834 2.34312,4.57736 3.8125,6.6875 4.39872,6.31687 9.03647,12.63506 14.84375,17.6875 6.80989,5.92475 14.41374,11.40469 22.9375,14.375 12.1229,4.22452 25.45269,4.77021 38.28125,4.28125 13.62621,-0.51936 27.808,-1.93863 40.1875,-7.65625 9.47345,-4.37543 17.18827,-12.05774 24.40625,-19.59375 4.65505,-4.86016 10.27226,-9.76876 11.96875,-16.28125 0.64819,-2.488298 -0.18643,-5.206808 -0.96875,-7.656248 -0.59071,-1.84951 -2.12831,-3.31628 -2.9375,-5.0625 0.31914,0.006 0.64609,-0.0175 1.03125,-0.125 2.26086,-0.631 3.18859,-5.52464 3.75,-7.96875 0.56141,-2.44411 1.81094,-3.99115 0.8125,-4.90625 -0.99844,-0.9151 -1.9953,0.72836 -3.21875,0.1875 -0.63673,-0.28148 -1.41173,-1.26534 -2.03125,-2.15625 0.0838,-0.66019 0.13477,-1.31185 0.1875,-1.96875 0.25647,-3.19498 1.49955,-6.4015 0.96875,-9.5625 -0.75622,-4.5034 -3.54505,-8.43866 -5.75,-12.4375 -3.39588,-6.15866 -6.66789,-12.579415 -11.46875,-17.718755 -5.44289,-5.82664 -12.07346,-10.62212 -19.125,-14.34375 -7.44798,-3.93085 -15.6578,-6.58532 -23.9375,-8.125 -4.90329,-0.911806 -9.92638,-1.356414 -14.9375,-1.375 z" id="path4330" inkscape:connector-curvature="0"/>
  <g id="g3991" transform="translate(-8.93209,-118.12165)">
    <path sodipodi:nodetypes="cczzzzc" inkscape:connector-curvature="0" id="path3935" d="m 186.80856,188.08129 -1.69141,15.39182 c 0,0 1.12196,1.66069 3.38282,1.02969 2.26086,-0.631 3.17453,-5.52036 3.73594,-7.96447 0.56141,-2.44411 1.8293,-3.98998 0.83086,-4.90508 -0.99844,-0.9151 -1.99023,0.71 -3.21368,0.16914 -1.22345,-0.54086 -3.04453,-3.7211 -3.04453,-3.7211 z" style="fill:#b69220;fill-opacity:1;stroke:none"/>
    <path sodipodi:nodetypes="aaaaaaaaaaaaaaaaaaaaaaaaa" inkscape:connector-curvature="0" id="path2987" d="m 18.657697,198.69438 c -0.791629,-2.77747 -0.202881,-5.96622 0.956804,-8.61124 1.951693,-4.45143 6.895311,-6.9436 9.56805,-11.00326 5.255532,-7.9827 6.369503,-18.45052 12.438464,-25.83373 7.088337,-8.62334 16.681692,-15.35818 26.790538,-20.09291 11.278943,-5.28277 23.961472,-7.41383 36.358587,-8.61124 7.94279,-0.76718 16.07486,-0.50209 23.92012,0.9568 8.2797,1.53968 16.47215,4.20199 23.92013,8.13284 7.05154,3.72163 13.69321,8.52544 19.1361,14.35208 4.80086,5.13934 8.08577,11.54223 11.48165,17.70089 2.20495,3.99884 4.98461,7.93506 5.74083,12.43846 0.5308,3.161 -0.70033,6.37307 -0.9568,9.56805 -0.42184,5.25518 -2.09037,10.6385 -0.95681,15.78728 0.50625,2.29944 2.63247,3.97635 3.34882,6.21924 0.78232,2.44944 1.605,5.16614 0.95681,7.65444 -1.69649,6.51249 -7.30502,11.40552 -11.96007,16.26568 -7.21798,7.53601 -14.92507,15.23907 -24.39852,19.6145 -12.3795,5.71762 -26.5596,7.13508 -40.18581,7.65444 -12.82856,0.48896 -26.1493,-0.0811 -38.272195,-4.30562 -8.523768,-2.97031 -16.15342,-8.42733 -22.963318,-14.35208 -5.807274,-5.05244 -10.431756,-11.38402 -14.830477,-17.70089 -1.469383,-2.11014 -2.900005,-4.29929 -3.82722,-6.69763 -1.060312,-2.74261 -0.02953,-6.35372 -1.913609,-8.61125 -2.106461,-2.52399 -6.475852,-1.83329 -9.089647,-3.82722 -2.25739,-1.72205 -4.484186,-3.96713 -5.262427,-6.69763 z" style="fill:url(#linearGradient4392);fill-opacity:1;stroke:none"/>
    <path sodipodi:nodetypes="aaaaaaaaaa" inkscape:connector-curvature="0" id="path3022" d="m 82.869041,195.25961 c -7.65996,-2.72813 -16.228091,-1.57736 -24.356277,-1.35313 -4.082808,0.11263 -9.041127,-1.26243 -12.178139,1.35313 -3.616782,3.01558 -4.535316,8.84636 -4.059379,13.53126 0.673077,6.62546 4.989459,12.66545 9.471885,17.59065 6.567615,7.21636 14.609592,16.69748 24.356277,16.23751 9.288135,-0.43833 14.745013,-11.36309 21.650025,-17.59064 3.315757,-2.99045 9.471887,-5.0068 9.471887,-9.47189 0,-4.46509 -6.0773,-6.57123 -9.471887,-9.47188 -4.664015,-3.98537 -9.105153,-8.76671 -14.884392,-10.82501 z" style="fill:url(#radialGradient4394);fill-opacity:1;stroke:none;filter:url(#filter3856)"/>
    <path sodipodi:nodetypes="aaaaaaaaaaa" inkscape:connector-curvature="0" id="path3868" d="m 158.52537,152.63612 c -7.34968,-4.21855 -14.83917,-8.55271 -23.00315,-10.82501 -6.33424,-1.76303 -13.7013,-4.89251 -19.62034,-2.02969 -5.29415,2.56058 -8.43166,9.09625 -9.47188,14.88439 -1.14229,6.35611 0.91777,13.3015 4.05938,18.94377 3.95717,7.10699 10.3589,13.18978 17.59064,16.91408 6.52766,3.3617 14.53311,5.86514 21.65003,4.05938 4.50644,-1.14341 7.3725,-5.68155 10.82501,-8.79532 3.5526,-3.20405 8.51103,-5.65337 10.14845,-10.14845 1.78204,-4.8921 1.26828,-11.06246 -1.35313,-15.56096 -2.20466,-3.78333 -7.0273,-5.26239 -10.82501,-7.44219 z" style="fill:url(#radialGradient4396);stroke:none;filter:url(#filter3910)"/>
    <path sodipodi:nodetypes="csssccssscc" inkscape:connector-curvature="0" id="path3937" d="m 29.20958,180.71934 c 0,0 -1.15903,2.47222 -2.8125,4.125 -2.544998,2.54393 -5.754661,5.05737 -5.625,7 0.149473,2.23946 0.0064,6.34865 0.8125,8.9375 0.806057,2.58885 7.5625,5.65625 7.5625,5.65625 l 2.9375,1.65625 c 0,0 -0.765637,-6.03443 -1.5625,-8.59375 -0.796863,-2.55932 -1.61352,-5.67395 -1.75,-7.71875 -0.116669,-1.74798 0.238001,-4.47576 0.625,-6.75 0.386999,-2.27424 0.78125,-4.09375 0.78125,-4.09375 z" style="font-size:medium;font-style:normal;font-variant:normal;font-weight:normal;font-stretch:normal;text-indent:0;text-align:start;text-decoration:none;line-height:normal;letter-spacing:normal;word-spacing:normal;text-transform:none;direction:ltr;block-progression:tb;writing-mode:lr-tb;text-anchor:start;baseline-shift:baseline;opacity:0.8795987;color:#000000;fill:#b87905;fill-opacity:1;stroke:none;stroke-width:1px;marker:none;visibility:visible;display:inline;overflow:visible;filter:url(#filter3983);enable-background:accumulate;font-family:Sans;-inkscape-font-specification:Sans"/>
  </g>
  <g transform="translate(-157.56817,-111.20757)" id="g4250">
    <g id="g4144">
      <path sodipodi:nodetypes="caaaaaaaaaacc" inkscape:connector-curvature="0" id="path4085" d="m 346.31341,276.45721 c 0,0 -6.08077,9.60824 -9.81017,13.86954 -4.46417,5.10086 -9.19414,10.17931 -14.89923,13.83986 -5.23374,3.35811 -11.13838,5.92141 -17.23752,7.1336 -8.73719,1.73649 -18.01353,1.86476 -26.72425,0 -9.42662,-2.01802 -18.68343,-6.04292 -26.38597,-11.83985 -6.13711,-4.61879 -11.03993,-10.94103 -14.88439,-17.59065 -3.65982,-6.33025 -6.34944,-13.40523 -7.4422,-20.63518 -1.09652,-7.25484 0.25499,-14.69052 1.01485,-21.9883 0.50875,-4.88612 0.93703,-9.8466 2.36797,-14.54611 1.73428,-5.69575 3.75753,-11.56072 7.4422,-16.23752 1.24246,-1.577 4.73594,-3.7211 4.73594,-3.7211 z" style="fill:url(#linearGradient4444);fill-opacity:1;stroke:none"/>
      <path sodipodi:nodetypes="aaaaaaaaaaaaa" inkscape:connector-curvature="0" id="path3998" d="m 251.1613,197.64878 c -4.64749,3.19189 -9.37157,6.95136 -11.96007,11.96006 -3.49054,6.75413 -4.81719,14.94688 -3.82722,22.48492 1.0964,8.34844 5.9407,15.90046 10.52486,22.96332 5.78242,8.90902 12.45545,17.67947 21.0497,23.92013 8.14976,5.91788 17.96603,9.55884 27.74735,11.96006 10.40508,2.55435 21.96959,6.01362 32.05296,2.39201 9.97783,-3.58371 18.47276,-12.40261 22.96332,-22.00652 2.97886,-6.37084 2.65561,-14.12355 1.43521,-21.04971 -2.1185,-12.02316 -7.21842,-23.94348 -14.83048,-33.48817 -8.80949,-11.04615 -20.82909,-20.1562 -33.96657,-25.35533 -9.25166,-3.66133 -19.82724,-4.86421 -29.66096,-3.34882 -7.76125,1.19602 -15.05489,5.12226 -21.5281,9.56805 z" style="fill:#d7a916;fill-opacity:1;stroke:none"/>
      <path transform="translate(354.31291,178.28915)" d="m -74.8125,10.28125 c -2.478141,0.04243 -4.916807,0.251005 -7.34375,0.625 -7.574892,1.167302 -14.764858,5.026439 -21.1875,9.4375 -4.61406,3.16893 -9.23821,6.887703 -11.71875,11.6875 -3.40679,6.592073 -4.71826,14.627241 -3.75,22 1.0647,8.1071 5.85492,15.564579 10.4375,22.625 5.76005,8.874552 12.347867,17.540971 20.8125,23.6875 8.028537,5.82985 17.749611,9.45779 27.46875,11.84375 10.434903,2.56167 21.848366,5.93772 31.59375,2.4375 9.718628,-3.49061 18.125337,-12.20213 22.53125,-21.625 2.8637625,-6.124695 2.581834,-13.71332 1.375,-20.5625 -2.0959142,-11.895006 -7.169638,-23.698419 -14.6875,-33.125 -8.721399,-10.935689 -20.629836,-19.950944 -33.625,-25.09375 -6.835649,-2.705197 -14.456973,-4.065032 -21.90625,-3.9375 z" id="path4002" style="fill:#f9f6d4;fill-opacity:1;stroke:none" inkscape:original="M -74.8125 9.46875 C -77.331384 9.5118734 -79.82282 9.7461526 -82.28125 10.125 C -90.0425 11.32102 -97.339291 15.24171 -103.8125 19.6875 C -108.45999 22.87939 -113.19275 26.64755 -115.78125 31.65625 C -119.27179 38.41038 -120.58372 46.58696 -119.59375 54.125 C -118.49735 62.47344 -113.64666 70.03089 -109.0625 77.09375 C -103.28008 86.00277 -96.625506 94.759347 -88.03125 101 C -79.88149 106.91788 -70.062564 110.56753 -60.28125 112.96875 C -49.876165 115.5231 -38.302122 118.99661 -28.21875 115.375 C -18.24092 111.79129 -9.740559 102.94765 -5.25 93.34375 C -2.2711461 86.97291 -2.592102 79.23866 -3.8125 72.3125 C -5.930995 60.28934 -11.044194 48.35719 -18.65625 38.8125 C -27.465744 27.76635 -39.487513 18.66788 -52.625 13.46875 C -59.563744 10.722753 -67.255848 9.3393799 -74.8125 9.46875 z " inkscape:radius="-0.803684" sodipodi:type="inkscape:offset"/>
      <path inkscape:connector-curvature="0" id="path4004" d="m 247.62156,220.06541 -1.01484,-6.08907 5.75079,-7.4422 6.08907,-5.75078 5.07422,5.07422 -1.69141,-6.76563 4.39766,-2.70626 8.11876,-1.35312 5.41251,-0.67657 5.07422,0.33829 2.36797,6.76563 2.70626,-6.76563 9.47188,2.36797 8.71254,2.97854 6.69763,4.06642 5.50163,4.54482 -0.4784,3.58802 -2.15281,2.15281 5.74083,-0.2392 3.58801,0 2.87042,3.58802 3.82722,5.02322 4.78402,8.13285 3.34882,8.37204 0.2392,3.34882 -5.98003,0.7176 -4.30562,-0.2392 8.13284,3.10961 2.15281,1.91361 1.43521,2.63122 1.19601,5.98003 -0.71761,5.74083 -2.15281,6.69763 -3.82722,3.82722 -3.34882,1.91361 -3.82722,-1.67441 -1.196,-1.4352 1.196,5.02322 -2.39201,2.63123 -5.74083,3.82721 -5.02322,1.91361 -6.93684,0 -7.89364,-0.4784 -2.87041,-1.67441 0,-5.26243 -1.91361,5.26243 -6.21924,-0.7176 -5.02322,-0.9568 -4.78403,-2.63122 -5.26243,-2.15282 -6.69763,-4.30562 -5.02323,-5.74083 -2.15281,-3.82722 1.19601,-3.34882 1.91361,-1.67441 -3.82722,1.67441 -3.82722,-0.2392 -5.50163,-6.69763 -3.10961,-4.30563 -2.15282,-6.21923 -2.15281,-5.50163 0,-5.26242 1.19601,-6.69764 2.87041,0 2.15281,-0.7176 -4.30562,-1.19601 z" style="fill:url(#linearGradient4446);fill-opacity:1;stroke:none"/>
      <path id="path4006" d="m 286.8125,196.59375 -0.96875,0.1875 6.15625,35.28125 -0.21875,-0.0312 -0.53125,0.4375 -28.15625,-28.53125 -0.71875,0.71875 28.09375,28.46875 -0.65625,0.5625 c -7.36172,-2.20935 -0.88005,-1.53531 -40.5,-10.53125 l -0.21875,1 c 34.28347,7.78426 33.91734,8.26415 37.96875,9.6875 l -0.53125,0.0312 1.5,2.53125 1.875,0.53125 -0.34375,1.5 0.15625,0.125 -27.5,20.96875 0.59375,0.78125 27.71875,-21.125 0.5625,0.4375 1.34375,1.53125 0.28125,-0.0312 6.75,40.5625 0.96875,-0.15625 -6.75,-40.59375 1.625,-0.28125 0.0937,-0.0625 36.25,34.90625 0.6875,-0.71875 -36.0625,-34.71875 0.71875,-0.4375 0.6875,-1.6875 1.5,-0.0625 41.09375,7.375 0.1875,-0.96875 -41.875,-7.53125 -1.0625,-0.5 -1.875,-1.875 0.375,-1.15625 26.96875,-21.0625 -0.625,-0.78125 -26.71875,20.875 -0.6875,-0.90625 -1.6875,1 -0.1875,-0.0312 -6.28125,-35.71875 z" style="fill:url(#radialGradient4448);fill-opacity:1;stroke:none" inkscape:connector-curvature="0"/>
    </g>
    <g id="g4185">
      <path style="fill:url(#linearGradient4450);fill-opacity:1;stroke:none" d="m 346.31341,276.45721 c 0,0 -6.08077,9.60824 -9.81017,13.86954 -4.46417,5.10086 -9.19414,10.17931 -14.89923,13.83986 -5.23374,3.35811 -11.13838,5.92141 -17.23752,7.1336 -8.73719,1.73649 -18.01353,1.86476 -26.72425,0 -9.42662,-2.01802 -18.68343,-6.04292 -26.38597,-11.83985 -6.13711,-4.61879 -11.03993,-10.94103 -14.88439,-17.59065 -3.65982,-6.33025 -6.34944,-13.40523 -7.4422,-20.63518 -1.09652,-7.25484 0.25499,-14.69052 1.01485,-21.9883 0.50875,-4.88612 0.93703,-9.8466 2.36797,-14.54611 1.73428,-5.69575 3.75753,-11.56072 7.4422,-16.23752 1.24246,-1.577 4.73594,-3.7211 4.73594,-3.7211 z" id="path4187" inkscape:connector-curvature="0" sodipodi:nodetypes="caaaaaaaaaacc"/>
      <path style="fill:#d7a916;fill-opacity:1;stroke:none" d="m 251.1613,197.64878 c -4.64749,3.19189 -9.37157,6.95136 -11.96007,11.96006 -3.49054,6.75413 -4.81719,14.94688 -3.82722,22.48492 1.0964,8.34844 5.9407,15.90046 10.52486,22.96332 5.78242,8.90902 12.45545,17.67947 21.0497,23.92013 8.14976,5.91788 17.96603,9.55884 27.74735,11.96006 10.40508,2.55435 21.96959,6.01362 32.05296,2.39201 9.97783,-3.58371 18.47276,-12.40261 22.96332,-22.00652 2.97886,-6.37084 2.65561,-14.12355 1.43521,-21.04971 -2.1185,-12.02316 -7.21842,-23.94348 -14.83048,-33.48817 -8.80949,-11.04615 -20.82909,-20.1562 -33.96657,-25.35533 -9.25166,-3.66133 -19.82724,-4.86421 -29.66096,-3.34882 -7.76125,1.19602 -15.05489,5.12226 -21.5281,9.56805 z" id="path4189" inkscape:connector-curvature="0" sodipodi:nodetypes="aaaaaaaaaaaaa"/>
      <path sodipodi:type="inkscape:offset" inkscape:radius="-0.803684" inkscape:original="M -74.8125 9.46875 C -77.331384 9.5118734 -79.82282 9.7461526 -82.28125 10.125 C -90.0425 11.32102 -97.339291 15.24171 -103.8125 19.6875 C -108.45999 22.87939 -113.19275 26.64755 -115.78125 31.65625 C -119.27179 38.41038 -120.58372 46.58696 -119.59375 54.125 C -118.49735 62.47344 -113.64666 70.03089 -109.0625 77.09375 C -103.28008 86.00277 -96.625506 94.759347 -88.03125 101 C -79.88149 106.91788 -70.062564 110.56753 -60.28125 112.96875 C -49.876165 115.5231 -38.302122 118.99661 -28.21875 115.375 C -18.24092 111.79129 -9.740559 102.94765 -5.25 93.34375 C -2.2711461 86.97291 -2.592102 79.23866 -3.8125 72.3125 C -5.930995 60.28934 -11.044194 48.35719 -18.65625 38.8125 C -27.465744 27.76635 -39.487513 18.66788 -52.625 13.46875 C -59.563744 10.722753 -67.255848 9.3393799 -74.8125 9.46875 z " style="fill:#f9f6d4;fill-opacity:1;stroke:none" id="path4191" d="m -74.8125,10.28125 c -2.478141,0.04243 -4.916807,0.251005 -7.34375,0.625 -7.574892,1.167302 -14.764858,5.026439 -21.1875,9.4375 -4.61406,3.16893 -9.23821,6.887703 -11.71875,11.6875 -3.40679,6.592073 -4.71826,14.627241 -3.75,22 1.0647,8.1071 5.85492,15.564579 10.4375,22.625 5.76005,8.874552 12.347867,17.540971 20.8125,23.6875 8.028537,5.82985 17.749611,9.45779 27.46875,11.84375 10.434903,2.56167 21.848366,5.93772 31.59375,2.4375 9.718628,-3.49061 18.125337,-12.20213 22.53125,-21.625 2.8637625,-6.124695 2.581834,-13.71332 1.375,-20.5625 -2.0959142,-11.895006 -7.169638,-23.698419 -14.6875,-33.125 -8.721399,-10.935689 -20.629836,-19.950944 -33.625,-25.09375 -6.835649,-2.705197 -14.456973,-4.065032 -21.90625,-3.9375 z" transform="translate(354.31291,178.28915)"/>
      <path style="fill:url(#linearGradient4452);fill-opacity:1;stroke:none" d="m 247.62156,220.06541 -1.01484,-6.08907 5.75079,-7.4422 6.08907,-5.75078 5.07422,5.07422 -1.69141,-6.76563 4.39766,-2.70626 8.11876,-1.35312 5.41251,-0.67657 5.07422,0.33829 2.36797,6.76563 2.70626,-6.76563 9.47188,2.36797 8.71254,2.97854 6.69763,4.06642 5.50163,4.54482 -0.4784,3.58802 -2.15281,2.15281 5.74083,-0.2392 3.58801,0 2.87042,3.58802 3.82722,5.02322 4.78402,8.13285 3.34882,8.37204 0.2392,3.34882 -5.98003,0.7176 -4.30562,-0.2392 8.13284,3.10961 2.15281,1.91361 1.43521,2.63122 1.19601,5.98003 -0.71761,5.74083 -2.15281,6.69763 -3.82722,3.82722 -3.34882,1.91361 -3.82722,-1.67441 -1.196,-1.4352 1.196,5.02322 -2.39201,2.63123 -5.74083,3.82721 -5.02322,1.91361 -6.93684,0 -7.89364,-0.4784 -2.87041,-1.67441 0,-5.26243 -1.91361,5.26243 -6.21924,-0.7176 -5.02322,-0.9568 -4.78403,-2.63122 -5.26243,-2.15282 -6.69763,-4.30562 -5.02323,-5.74083 -2.15281,-3.82722 1.19601,-3.34882 1.91361,-1.67441 -3.82722,1.67441 -3.82722,-0.2392 -5.50163,-6.69763 -3.10961,-4.30563 -2.15282,-6.21923 -2.15281,-5.50163 0,-5.26242 1.19601,-6.69764 2.87041,0 2.15281,-0.7176 -4.30562,-1.19601 z" id="path4193" inkscape:connector-curvature="0"/>
      <path inkscape:connector-curvature="0" style="fill:url(#radialGradient4454);fill-opacity:1;stroke:none" d="m 286.8125,196.59375 -0.96875,0.1875 6.15625,35.28125 -0.21875,-0.0312 -0.53125,0.4375 -28.15625,-28.53125 -0.71875,0.71875 28.09375,28.46875 -0.65625,0.5625 c -7.36172,-2.20935 -0.88005,-1.53531 -40.5,-10.53125 l -0.21875,1 c 34.28347,7.78426 33.91734,8.26415 37.96875,9.6875 l -0.53125,0.0312 1.5,2.53125 1.875,0.53125 -0.34375,1.5 0.15625,0.125 -27.5,20.96875 0.59375,0.78125 27.71875,-21.125 0.5625,0.4375 1.34375,1.53125 0.28125,-0.0312 6.75,40.5625 0.96875,-0.15625 -6.75,-40.59375 1.625,-0.28125 0.0937,-0.0625 36.25,34.90625 0.6875,-0.71875 -36.0625,-34.71875 0.71875,-0.4375 0.6875,-1.6875 1.5,-0.0625 41.09375,7.375 0.1875,-0.96875 -41.875,-7.53125 -1.0625,-0.5 -1.875,-1.875 0.375,-1.15625 26.96875,-21.0625 -0.625,-0.78125 -26.71875,20.875 -0.6875,-0.90625 -1.6875,1 -0.1875,-0.0312 -6.28125,-35.71875 z" id="path4195"/>
    </g>
    <path style="opacity:0.5;fill:#000000;fill-opacity:1;stroke:none;filter:url(#filter4234)" d="m 278.16717,188.44218 c -2.51888,0.0431 -5.01032,0.24615 -7.46875,0.625 -7.76125,1.19602 -15.05804,5.14796 -21.53125,9.59375 -4.20368,2.88709 -8.46426,6.24228 -11.15625,10.5625 -0.0768,0.0855 -0.18479,0.16723 -0.25,0.25 -3.68467,4.6768 -5.70322,10.523 -7.4375,16.21875 -1.43094,4.69951 -1.86625,9.67638 -2.375,14.5625 -0.75986,7.29778 -2.12777,14.71391 -1.03125,21.96875 1.09276,7.22995 3.80893,14.326 7.46875,20.65625 3.84446,6.64962 8.73789,12.97496 14.875,17.59375 7.70254,5.79693 16.94838,9.79448 26.375,11.8125 8.71072,1.86476 17.98156,1.73649 26.71875,0 6.09914,-1.21219 12.01626,-3.76689 17.25,-7.125 5.70509,-3.66055 10.44208,-8.74289 14.90625,-13.84375 1.76176,-2.01302 4.0152,-5.20836 5.9375,-8.03125 2.96049,-3.33371 5.43331,-7.08342 7.25,-10.96875 2.97886,-6.37084 2.6579,-14.10509 1.4375,-21.03125 -2.1185,-12.02316 -7.20044,-23.95531 -14.8125,-33.5 -8.80949,-11.04615 -20.83127,-20.14462 -33.96875,-25.34375 -6.93875,-2.746 -14.63085,-4.12937 -22.1875,-4 z" id="path4227" inkscape:connector-curvature="0"/>
    <path sodipodi:nodetypes="caaaaaaaaaacc" inkscape:connector-curvature="0" id="path4199" d="m 346.31341,276.45721 c 0,0 -6.08077,9.60824 -9.81017,13.86954 -4.46417,5.10086 -9.19414,10.17931 -14.89923,13.83986 -5.23374,3.35811 -11.13838,5.92141 -17.23752,7.1336 -8.73719,1.73649 -18.01353,1.86476 -26.72425,0 -9.42662,-2.01802 -18.68343,-6.04292 -26.38597,-11.83985 -6.13711,-4.61879 -11.03993,-10.94103 -14.88439,-17.59065 -3.65982,-6.33025 -6.34944,-13.40523 -7.4422,-20.63518 -1.09652,-7.25484 0.25499,-14.69052 1.01485,-21.9883 0.50875,-4.88612 0.93703,-9.8466 2.36797,-14.54611 1.73428,-5.69575 3.75753,-11.56072 7.4422,-16.23752 1.24246,-1.577 4.73594,-3.7211 4.73594,-3.7211 z" style="fill:url(#linearGradient4456);fill-opacity:1;stroke:none"/>
    <path sodipodi:nodetypes="aaaaaaaaaaaaa" inkscape:connector-curvature="0" id="path4201" d="m 251.1613,197.64878 c -4.64749,3.19189 -9.37157,6.95136 -11.96007,11.96006 -3.49054,6.75413 -4.81719,14.94688 -3.82722,22.48492 1.0964,8.34844 5.9407,15.90046 10.52486,22.96332 5.78242,8.90902 12.45545,17.67947 21.0497,23.92013 8.14976,5.91788 17.96603,9.55884 27.74735,11.96006 10.40508,2.55435 21.96959,6.01362 32.05296,2.39201 9.97783,-3.58371 18.47276,-12.40261 22.96332,-22.00652 2.97886,-6.37084 2.65561,-14.12355 1.43521,-21.04971 -2.1185,-12.02316 -7.21842,-23.94348 -14.83048,-33.48817 -8.80949,-11.04615 -20.82909,-20.1562 -33.96657,-25.35533 -9.25166,-3.66133 -19.82724,-4.86421 -29.66096,-3.34882 -7.76125,1.19602 -15.05489,5.12226 -21.5281,9.56805 z" style="fill:#d7a916;fill-opacity:1;stroke:none"/>
    <path transform="translate(354.31291,178.28915)" d="m -74.8125,10.28125 c -2.478141,0.04243 -4.916807,0.251005 -7.34375,0.625 -7.574892,1.167302 -14.764858,5.026439 -21.1875,9.4375 -4.61406,3.16893 -9.23821,6.887703 -11.71875,11.6875 -3.40679,6.592073 -4.71826,14.627241 -3.75,22 1.0647,8.1071 5.85492,15.564579 10.4375,22.625 5.76005,8.874552 12.347867,17.540971 20.8125,23.6875 8.028537,5.82985 17.749611,9.45779 27.46875,11.84375 10.434903,2.56167 21.848366,5.93772 31.59375,2.4375 9.718628,-3.49061 18.125337,-12.20213 22.53125,-21.625 2.8637625,-6.124695 2.581834,-13.71332 1.375,-20.5625 -2.0959142,-11.895006 -7.169638,-23.698419 -14.6875,-33.125 -8.721399,-10.935689 -20.629836,-19.950944 -33.625,-25.09375 -6.835649,-2.705197 -14.456973,-4.065032 -21.90625,-3.9375 z" id="path4203" style="fill:#f9f6d4;fill-opacity:1;stroke:none" inkscape:original="M -74.8125 9.46875 C -77.331384 9.5118734 -79.82282 9.7461526 -82.28125 10.125 C -90.0425 11.32102 -97.339291 15.24171 -103.8125 19.6875 C -108.45999 22.87939 -113.19275 26.64755 -115.78125 31.65625 C -119.27179 38.41038 -120.58372 46.58696 -119.59375 54.125 C -118.49735 62.47344 -113.64666 70.03089 -109.0625 77.09375 C -103.28008 86.00277 -96.625506 94.759347 -88.03125 101 C -79.88149 106.91788 -70.062564 110.56753 -60.28125 112.96875 C -49.876165 115.5231 -38.302122 118.99661 -28.21875 115.375 C -18.24092 111.79129 -9.740559 102.94765 -5.25 93.34375 C -2.2711461 86.97291 -2.592102 79.23866 -3.8125 72.3125 C -5.930995 60.28934 -11.044194 48.35719 -18.65625 38.8125 C -27.465744 27.76635 -39.487513 18.66788 -52.625 13.46875 C -59.563744 10.722753 -67.255848 9.3393799 -74.8125 9.46875 z " inkscape:radius="-0.803684" sodipodi:type="inkscape:offset"/>
    <path inkscape:connector-curvature="0" id="path4205" d="m 247.62156,220.06541 -1.01484,-6.08907 5.75079,-7.4422 6.08907,-5.75078 5.07422,5.07422 -1.69141,-6.76563 4.39766,-2.70626 8.11876,-1.35312 5.41251,-0.67657 5.07422,0.33829 2.36797,6.76563 2.70626,-6.76563 9.47188,2.36797 8.71254,2.97854 6.69763,4.06642 5.50163,4.54482 -0.4784,3.58802 -2.15281,2.15281 5.74083,-0.2392 3.58801,0 2.87042,3.58802 3.82722,5.02322 4.78402,8.13285 3.34882,8.37204 0.2392,3.34882 -5.98003,0.7176 -4.30562,-0.2392 8.13284,3.10961 2.15281,1.91361 1.43521,2.63122 1.19601,5.98003 -0.71761,5.74083 -2.15281,6.69763 -3.82722,3.82722 -3.34882,1.91361 -3.82722,-1.67441 -1.196,-1.4352 1.196,5.02322 -2.39201,2.63123 -5.74083,3.82721 -5.02322,1.91361 -6.93684,0 -7.89364,-0.4784 -2.87041,-1.67441 0,-5.26243 -1.91361,5.26243 -6.21924,-0.7176 -5.02322,-0.9568 -4.78403,-2.63122 -5.26243,-2.15282 -6.69763,-4.30562 -5.02323,-5.74083 -2.15281,-3.82722 1.19601,-3.34882 1.91361,-1.67441 -3.82722,1.67441 -3.82722,-0.2392 -5.50163,-6.69763 -3.10961,-4.30563 -2.15282,-6.21923 -2.15281,-5.50163 0,-5.26242 1.19601,-6.69764 2.87041,0 2.15281,-0.7176 -4.30562,-1.19601 z" style="fill:url(#linearGradient4458);fill-opacity:1;stroke:none"/>
    <path id="path4207" d="m 286.8125,196.59375 -0.96875,0.1875 6.15625,35.28125 -0.21875,-0.0312 -0.53125,0.4375 -28.15625,-28.53125 -0.71875,0.71875 28.09375,28.46875 -0.65625,0.5625 c -7.36172,-2.20935 -0.88005,-1.53531 -40.5,-10.53125 l -0.21875,1 c 34.28347,7.78426 33.91734,8.26415 37.96875,9.6875 l -0.53125,0.0312 1.5,2.53125 1.875,0.53125 -0.34375,1.5 0.15625,0.125 -27.5,20.96875 0.59375,0.78125 27.71875,-21.125 0.5625,0.4375 1.34375,1.53125 0.28125,-0.0312 6.75,40.5625 0.96875,-0.15625 -6.75,-40.59375 1.625,-0.28125 0.0937,-0.0625 36.25,34.90625 0.6875,-0.71875 -36.0625,-34.71875 0.71875,-0.4375 0.6875,-1.6875 1.5,-0.0625 41.09375,7.375 0.1875,-0.96875 -41.875,-7.53125 -1.0625,-0.5 -1.875,-1.875 0.375,-1.15625 26.96875,-21.0625 -0.625,-0.78125 -26.71875,20.875 -0.6875,-0.90625 -1.6875,1 -0.1875,-0.0312 -6.28125,-35.71875 z" style="fill:url(#radialGradient4460);fill-opacity:1;stroke:none" inkscape:connector-curvature="0"/>
  </g>
  <path sodipodi:nodetypes="aaaaaaaaaaaaa" inkscape:connector-curvature="0" id="path4294" d="m 169.34233,122.52431 c -5.52513,4.55965 -12.22742,-7.65684 -18.94377,-10.14845 -6.82284,-2.53112 -14.06975,-5.45094 -21.31174,-4.73594 -4.17011,0.41172 -7.96471,2.82702 -11.50158,5.07422 -3.9126,2.48592 -7.06309,6.0084 -10.48673,9.13361 -2.65063,2.41958 -4.44286,8.76151 -7.78047,7.44219 -7.66663,-3.03053 -4.59163,-17.11343 -1.35313,-24.69455 2.04197,-4.780128 7.16141,-7.883198 11.83986,-10.148448 4.75704,-2.30331 10.27719,-2.91567 15.56095,-3.04454 6.26523,-0.15281 12.67458,0.68123 18.60549,2.70625 4.77826,1.63146 9.32905,4.19204 13.19298,7.442198 3.67933,3.09488 6.8568,6.92868 9.13361,11.16329 1.62142,3.01566 5.68531,7.63085 3.04453,9.81017 z" style="opacity:0.52849497999999995;fill:url(#radialGradient4488);stroke:none;filter:url(#filter4324)"/>
</svg>