<?xml version="1.0" encoding="UTF-8" standalone="no"?>
<!-- Created with Inkscape (http://www.inkscape.org/) -->
<svg
   xmlns:dc="http://purl.org/dc/elements/1.1/"
   xmlns:cc="http://creativecommons.org/ns#"
   xmlns:rdf="http://www.w3.org/1999/02/22-rdf-syntax-ns#"
   xmlns:svg="http://www.w3.org/2000/svg"
   xmlns="http://www.w3.org/2000/svg"
   xmlns:xlink="http://www.w3.org/1999/xlink"
   xmlns:sodipodi="http://sodipodi.sourceforge.net/DTD/sodipodi-0.dtd"
   xmlns:inkscape="http://www.inkscape.org/namespaces/inkscape"
   width="48px"
   height="48px"
   id="svg2385"
   sodipodi:version="0.32"
   inkscape:version="0.46"
   sodipodi:docname="Birne.svg"
   inkscape:output_extension="org.inkscape.output.svg.inkscape"
   inkscape:export-filename="C:\Dokumente und Einstellungen\Michael\Desktop\Birne.png"
   inkscape:export-xdpi="937.5"
   inkscape:export-ydpi="937.5">
  <defs
     id="defs2387">
    <linearGradient
       id="linearGradient3348">
      <stop
         style="stop-color:#fffff6;stop-opacity:1;"
         offset="0"
         id="stop3350" />
      <stop
         style="stop-color:#ffd814;stop-opacity:1;"
         offset="1"
         id="stop3352" />
    </linearGradient>
    <linearGradient
       id="linearGradient3323">
      <stop
         id="stop3325"
         offset="0"
         style="stop-color:#fbecb3;stop-opacity:0.78431374;" />
      <stop
         id="stop3327"
         offset="1"
         style="stop-color:#9bc7f0;stop-opacity:0.78431374;" />
    </linearGradient>
    <linearGradient
       id="linearGradient3303">
      <stop
         id="stop3305"
         offset="0"
         style="stop-color:#ffffff;stop-opacity:1;" />
      <stop
         id="stop3307"
         offset="1"
         style="stop-color:#ffffff;stop-opacity:0" />
    </linearGradient>
    <linearGradient
       id="linearGradient3258">
      <stop
         style="stop-color:#f3f3f3;stop-opacity:1;"
         offset="0"
         id="stop3260" />
      <stop
         style="stop-color:#626262;stop-opacity:1;"
         offset="1"
         id="stop3262" />
    </linearGradient>
    <linearGradient
       id="linearGradient3248">
      <stop
         id="stop3250"
         offset="0"
         style="stop-color:#ffffff;stop-opacity:1;" />
      <stop
         id="stop3252"
         offset="1"
         style="stop-color:#9bc7f0;stop-opacity:0;" />
    </linearGradient>
    <linearGradient
       id="linearGradient3230">
      <stop
         style="stop-color:#ecf4fc;stop-opacity:1;"
         offset="0"
         id="stop3232" />
      <stop
         style="stop-color:#9bc7f0;stop-opacity:1;"
         offset="1"
         id="stop3234" />
    </linearGradient>
    <linearGradient
       id="linearGradient3186">
      <stop
         style="stop-color:#4380ea;stop-opacity:1;"
         offset="0"
         id="stop3188" />
      <stop
         style="stop-color:#82bfe9;stop-opacity:1;"
         offset="1"
         id="stop3190" />
    </linearGradient>
    <inkscape:perspective
       sodipodi:type="inkscape:persp3d"
       inkscape:vp_x="0 : 24 : 1"
       inkscape:vp_y="0 : 1000 : 0"
       inkscape:vp_z="48 : 24 : 1"
       inkscape:persp3d-origin="24 : 16 : 1"
       id="perspective2393" />
    <linearGradient
       inkscape:collect="always"
       xlink:href="#linearGradient3186"
       id="linearGradient3192"
       x1="11.75"
       y1="2.6991005"
       x2="37.69643"
       y2="36.0741"
       gradientUnits="userSpaceOnUse"
       gradientTransform="matrix(0.8546806,0,0,0.8546806,2.2499656,0.4974239)" />
    <radialGradient
       inkscape:collect="always"
       xlink:href="#linearGradient3323"
       id="radialGradient3236"
       cx="25.449381"
       cy="21.658401"
       fx="25.449381"
       fy="21.658401"
       r="14.535715"
       gradientTransform="matrix(0.8546806,0,0,1.0874074,2.2499656,-4.0725395)"
       gradientUnits="userSpaceOnUse" />
    <linearGradient
       inkscape:collect="always"
       xlink:href="#linearGradient3248"
       id="linearGradient3246"
       x1="11.548399"
       y1="4.1848769"
       x2="59.289055"
       y2="39.735836"
       gradientUnits="userSpaceOnUse"
       gradientTransform="translate(-0.7133883,-1.2311553)" />
    <linearGradient
       inkscape:collect="always"
       xlink:href="#linearGradient3258"
       id="linearGradient3283"
       gradientUnits="userSpaceOnUse"
       gradientTransform="translate(8.5526967,-4.1261431)"
       x1="15.118242"
       y1="22.161686"
       x2="15.118242"
       y2="28.250725" />
    <linearGradient
       inkscape:collect="always"
       xlink:href="#linearGradient3303"
       id="linearGradient3315"
       x1="23.780907"
       y1="28.828825"
       x2="25.529215"
       y2="28.828825"
       gradientUnits="userSpaceOnUse"
       spreadMethod="reflect"
       gradientTransform="translate(-0.7133883,-1.2311553)" />
    <linearGradient
       inkscape:collect="always"
       xlink:href="#linearGradient3348"
       id="linearGradient3354"
       x1="22.807396"
       y1="35.941059"
       x2="31.669453"
       y2="35.941059"
       gradientUnits="userSpaceOnUse"
       spreadMethod="reflect"
       gradientTransform="matrix(0.9279352,0,0,1.002481,0.9621522,-1.8216862)" />
    <filter
       inkscape:collect="always"
       id="filter3416"
       x="-0.22292641"
       width="1.4458528"
       y="-0.83854625"
       height="2.6770925">
      <feGaussianBlur
         inkscape:collect="always"
         stdDeviation="2.8388284"
         id="feGaussianBlur3418" />
    </filter>
  </defs>
  <sodipodi:namedview
     id="base"
     pagecolor="#ffffff"
     bordercolor="#666666"
     borderopacity="1.0"
     inkscape:pageopacity="0.0"
     inkscape:pageshadow="2"
     inkscape:zoom="11.313709"
     inkscape:cx="16.688986"
     inkscape:cy="23.107557"
     inkscape:current-layer="layer1"
     showgrid="false"
     inkscape:grid-bbox="true"
     inkscape:document-units="px"
     inkscape:snap-global="false"
     inkscape:window-width="1680"
     inkscape:window-height="1003"
     inkscape:window-x="-4"
     inkscape:window-y="-4">
    <inkscape:grid
       type="xygrid"
       id="grid2395"
       visible="true"
       enabled="true" />
  </sodipodi:namedview>
  <metadata
     id="metadata2390">
    <rdf:RDF>
      <cc:Work
         rdf:about="">
        <dc:format>image/svg+xml</dc:format>
        <dc:type
           rdf:resource="http://purl.org/dc/dcmitype/StillImage" />
      </cc:Work>
    </rdf:RDF>
  </metadata>
  <g
     id="layer1"
     inkscape:label="Layer 1"
     inkscape:groupmode="layer"
     style="display:inline">
    <path
       sodipodi:type="arc"
       style="opacity:1;fill:#2f2f2f;fill-opacity:0.4592275;stroke:none;stroke-width:1;stroke-linecap:butt;stroke-linejoin:miter;stroke-miterlimit:0;stroke-dasharray:none;stroke-opacity:1;filter:url(#filter3416)"
       id="path3390"
       sodipodi:cx="23.46875"
       sodipodi:cy="41.0625"
       sodipodi:rx="15.28125"
       sodipodi:ry="4.0625"
       d="M 38.75,41.0625 A 15.28125,4.0625 0 1 1 38.669316,40.645585"
       sodipodi:start="0"
       sodipodi:end="6.180379"
       sodipodi:open="true"
       transform="matrix(0.8065231,0,0,0.6559391,4.3910722,15.792756)" />
    <path
       sodipodi:type="arc"
       style="opacity:1;fill:#2f2f2f;fill-opacity:1;stroke:none;stroke-width:1;stroke-linecap:butt;stroke-linejoin:miter;stroke-miterlimit:0;stroke-dasharray:none;stroke-opacity:1"
       id="path3366"
       sodipodi:cx="23.97534"
       sodipodi:cy="43.094448"
       sodipodi:rx="2.2318058"
       sodipodi:ry="1.2374369"
       d="M 26.207146,43.094448 A 2.2318058,1.2374369 0 1 1 26.148226,42.81199 L 23.97534,43.094448 z"
       sodipodi:start="0"
       sodipodi:end="6.0528948"
       transform="matrix(1.1188118,0,0,1,-3.4994435,-2.0695436)" />
    <path
       style="fill:none;fill-opacity:0.39914162;stroke:#e9b636;stroke-width:0.86900383;stroke-linecap:round;stroke-linejoin:round;stroke-miterlimit:4;stroke-dasharray:none;stroke-opacity:1"
       d="M 18.07606,30.008143 C 21.510336,28.156381 25.500093,28.280415 28.68615,29.96384 C 28.68615,29.96384 29.629162,34.024349 27.207253,34.171801 C 29.759075,35.142954 28.890568,37.146114 27.323244,37.492519 C 32.973959,42.571246 12.763021,41.782132 19.64195,36.646675 C 17.554096,35.863487 17.287633,34.574124 19.844936,33.325957 C 17.293115,32.981354 18.07606,30.008143 18.07606,30.008143 z"
       id="rect3332"
       sodipodi:nodetypes="ccccccc" />
    <path
       style="fill:url(#linearGradient3354);fill-opacity:1;stroke:none;stroke-width:0.90100002;stroke-linecap:round;stroke-linejoin:round;stroke-miterlimit:4;stroke-dasharray:none;stroke-opacity:1;display:inline"
       d="M 18.424035,30.290091 C 21.795811,28.594579 24.730242,28.687285 28.338174,30.214459 C 28.338174,30.214459 29.229947,34.300923 26.808038,34.448373 C 29.359859,35.419527 28.390706,36.748951 26.895032,37.612454 C 32.385451,42.010722 13.315208,41.123707 20.101414,36.844891 C 17.667836,35.044682 18.052841,34.960227 20.286523,33.414488 C 17.734701,33.069885 18.424035,30.290091 18.424035,30.290091 z"
       id="path3338"
       sodipodi:nodetypes="ccccccc" />
    <path
       style="fill:#e9b636;fill-opacity:1;fill-rule:evenodd;stroke:none;stroke-width:1px;stroke-linecap:square;stroke-linejoin:miter;stroke-opacity:1"
       d="M 20.538699,33.443069 C 22.295362,34.517182 25.230133,35.007859 26.551917,34.398549 C 26.551917,34.398549 24.306596,34.295498 23.49767,34.174916 C 22.540737,34.033942 20.538699,33.443069 20.538699,33.443069 z"
       id="path3357"
       sodipodi:nodetypes="cccc" />
    <path
       style="fill:#e9b636;fill-opacity:1;fill-rule:evenodd;stroke:none;stroke-width:1px;stroke-linecap:square;stroke-linejoin:miter;stroke-opacity:1;display:inline"
       d="M 20.242521,36.858802 C 21.999183,37.932913 24.964544,38.386049 26.544396,37.548731 C 26.544396,37.548731 24.69794,37.621759 23.672847,37.504065 C 22.605324,37.403595 20.242521,36.858802 20.242521,36.858802 z"
       id="path3363"
       sodipodi:nodetypes="cccc" />
    <path
       id="path2397"
       style="opacity:1;fill:url(#radialGradient3236);fill-opacity:1;fill-rule:evenodd;stroke:url(#linearGradient3192);stroke-width:1;stroke-linecap:butt;stroke-linejoin:miter;stroke-miterlimit:4;stroke-dasharray:none;stroke-opacity:1"
       d="M 33.355336,20.921413 C 30.919055,23.833326 29.653256,25.831079 29.518628,28.215582 C 29.419039,29.979467 28.518689,31.462999 27.468259,31.914626 C 25.674785,32.685721 21.603796,32.775634 19.450883,31.920897 C 18.627469,31.59399 17.573551,30.32759 17.219494,28.196933 C 16.731609,25.260923 15.976671,23.202705 14.026093,21.080417 C 12.404927,18.924313 11.651452,16.481994 11.651452,13.897594 C 11.651452,7.2757732 17.025684,1.9015414 23.647505,1.9015414 C 30.269326,1.9015414 35.643558,7.2757732 35.643558,13.897594 C 35.643558,16.411909 34.679155,18.980958 33.355336,20.921413 z"
       sodipodi:nodetypes="csssscsscc" />
    <path
       id="path3238"
       style="opacity:0.75;fill:none;fill-opacity:1;fill-rule:evenodd;stroke:url(#linearGradient3246);stroke-width:1;stroke-linecap:butt;stroke-linejoin:miter;stroke-miterlimit:4;stroke-dasharray:none;stroke-opacity:1"
       d="M 32.423734,20.385582 C 30.294433,23.189599 28.699864,25.099884 28.617604,27.354177 C 28.552906,29.127183 27.962083,30.497809 27.106779,30.938153 C 25.501482,31.764622 21.151974,31.578599 19.812817,30.952988 C 19.069233,30.605609 18.371247,29.352385 18.015345,27.070982 C 17.58231,24.295136 16.638096,22.495083 14.847762,20.490366 C 13.359779,18.453705 12.664201,16.254597 12.664201,13.813369 C 12.664201,7.5583813 17.632181,2.9455405 23.553755,2.9142905 C 29.631495,2.8823847 34.630809,7.7811339 34.630809,14.036121 C 34.630809,16.411148 33.638797,18.552625 32.423734,20.385582 z"
       sodipodi:nodetypes="csssscsscc" />
    <path
       id="path3254"
       style="fill:none;fill-rule:evenodd;stroke:url(#linearGradient3283);stroke-width:1px;stroke-linecap:round;stroke-linejoin:round;stroke-opacity:1"
       d="M 25.37251,23.997129 L 27.439335,17.784228 L 25.829105,18.061009 L 24.793117,17.359881 L 23.516069,18.031584 L 22.488552,17.423589 L 21.195873,17.97634 L 19.663267,17.682147 L 21.746405,23.983608"
       sodipodi:nodetypes="ccccccccc" />
    <path
       style="opacity:0.51672866;fill:url(#linearGradient3315);fill-opacity:1;fill-rule:evenodd;stroke:#bebebe;stroke-width:1;stroke-linecap:round;stroke-linejoin:round;stroke-miterlimit:4;stroke-dasharray:none;stroke-opacity:0.93562233"
       d="M 20.93533,31.263117 L 20.93533,24.909374 C 22.393053,23.47119 24.979675,23.674702 26.074709,25.077449 L 26.074709,31.27182"
       id="path3285"
       sodipodi:nodetypes="cccc" />
    <path
       style="opacity:0.51672866;fill:#ffffff;fill-opacity:0.39914162;stroke:none;stroke-width:1;stroke-linecap:round;stroke-linejoin:round;stroke-miterlimit:4;stroke-opacity:0.93562233"
       d="M 26.036611,8.5733577 C 26.036611,11.187349 20.416111,15.768844 17.880361,15.768844 C 15.344611,15.768844 15.588388,13.866059 15.588388,11.252068 C 15.588388,8.6380757 18.411553,6.1643098 20.947303,6.1643098 C 23.483053,6.1643098 26.036611,5.9593659 26.036611,8.5733577 z"
       id="path3329"
       sodipodi:nodetypes="csssc" />
  </g>
</svg>
