<?xml version="1.0" encoding="UTF-8" standalone="no"?>
<!-- Created with Inkscape (http://www.inkscape.org/) -->
<svg xmlns:dc="http://purl.org/dc/elements/1.1/" xmlns:cc="http://creativecommons.org/ns#" xmlns:rdf="http://www.w3.org/1999/02/22-rdf-syntax-ns#" xmlns:svg="http://www.w3.org/2000/svg" xmlns="http://www.w3.org/2000/svg" xmlns:xlink="http://www.w3.org/1999/xlink" xmlns:sodipodi="http://sodipodi.sourceforge.net/DTD/sodipodi-0.dtd" xmlns:inkscape="http://www.inkscape.org/namespaces/inkscape" width="626.71912" height="227.53712" id="svg2" sodipodi:version="0.32" inkscape:version="0.46+devel" version="1.0" sodipodi:docname="animals.svg" inkscape:output_extension="org.inkscape.output.svg.inkscape">
  <defs id="defs4">
    <linearGradient inkscape:collect="always" id="linearGradient3652">
      <stop style="stop-color:#73d216;stop-opacity:1;" offset="0" id="stop3654"/>
      <stop style="stop-color:#4e9a06;stop-opacity:1" offset="1" id="stop3656"/>
    </linearGradient>
    <linearGradient inkscape:collect="always" id="linearGradient3498">
      <stop style="stop-color:#ff6fa9;stop-opacity:1;" offset="0" id="stop3500"/>
      <stop style="stop-color:#ff6fa9;stop-opacity:0;" offset="1" id="stop3502"/>
    </linearGradient>
    <linearGradient inkscape:collect="always" id="linearGradient2602">
      <stop style="stop-color:#ce5c00;stop-opacity:1;" offset="0" id="stop2604"/>
      <stop style="stop-color:#fcaf3e;stop-opacity:1" offset="1" id="stop2606"/>
    </linearGradient>
    <inkscape:perspective sodipodi:type="inkscape:persp3d" inkscape:vp_x="0 : 526.18109 : 1" inkscape:vp_y="0 : 1000 : 0" inkscape:vp_z="744.09448 : 526.18109 : 1" inkscape:persp3d-origin="372.04724 : 350.78739 : 1" id="perspective10"/>
    <inkscape:perspective id="perspective2530" inkscape:persp3d-origin="372.04724 : 350.78739 : 1" inkscape:vp_z="744.09448 : 526.18109 : 1" inkscape:vp_y="0 : 1000 : 0" inkscape:vp_x="0 : 526.18109 : 1" sodipodi:type="inkscape:persp3d"/>
    <linearGradient inkscape:collect="always" xlink:href="#linearGradient2602" id="linearGradient2608" x1="423.5" y1="113.68526" x2="423.5" y2="485.82812" gradientUnits="userSpaceOnUse"/>
    <inkscape:perspective id="perspective3582" inkscape:persp3d-origin="372.04724 : 350.78739 : 1" inkscape:vp_z="744.09448 : 526.18109 : 1" inkscape:vp_y="0 : 1000 : 0" inkscape:vp_x="0 : 526.18109 : 1" sodipodi:type="inkscape:persp3d"/>
    <linearGradient inkscape:collect="always" xlink:href="#linearGradient3652" id="linearGradient3658" x1="500.69785" y1="286.01682" x2="500.69785" y2="515.35327" gradientUnits="userSpaceOnUse"/>
    <linearGradient inkscape:collect="always" xlink:href="#linearGradient3498" id="linearGradient3682" gradientUnits="userSpaceOnUse" gradientTransform="translate(-4.5900061,2.3371899)" x1="691.85254" y1="446.65082" x2="691.18945" y2="414.79318"/>
    <linearGradient inkscape:collect="always" xlink:href="#linearGradient3498" id="linearGradient3684" gradientUnits="userSpaceOnUse" gradientTransform="translate(-4.5900061,2.3371899)" x1="691.85254" y1="446.65082" x2="691.18945" y2="414.79318"/>
    <linearGradient inkscape:collect="always" xlink:href="#linearGradient3498" id="linearGradient3686" gradientUnits="userSpaceOnUse" x1="462.45294" y1="217.10376" x2="462.45294" y2="96.08297"/>
    <linearGradient inkscape:collect="always" xlink:href="#linearGradient3498" id="linearGradient3688" gradientUnits="userSpaceOnUse" x1="462.45294" y1="217.10376" x2="462.45294" y2="96.08297"/>
    <linearGradient inkscape:collect="always" xlink:href="#linearGradient2602" id="linearGradient3704" gradientUnits="userSpaceOnUse" x1="423.5" y1="113.68526" x2="423.5" y2="485.82812"/>
  </defs>
  <sodipodi:namedview id="base" pagecolor="#ffffff" bordercolor="#666666" borderopacity="1.0" gridtolerance="10000" guidetolerance="10" objecttolerance="10" inkscape:pageopacity="0.0" inkscape:pageshadow="2" inkscape:zoom="0.35" inkscape:cx="787.73265" inkscape:cy="125.48654" inkscape:document-units="px" inkscape:current-layer="g2532" showgrid="false" showguides="true" inkscape:guide-bbox="true"/>
  <metadata id="metadata7">
    <rdf:RDF>
      <cc:Work rdf:about="">
        <dc:format>image/svg+xml</dc:format>
        <dc:type rdf:resource="http://purl.org/dc/dcmitype/StillImage"/>
      </cc:Work>
    </rdf:RDF>
  </metadata>
  <g inkscape:label="Layer 1" inkscape:groupmode="layer" id="layer1" transform="translate(-35.058994,-65.795524)">
    <g transform="translate(-148.35273,-14.180212)" id="g2532" inkscape:label="Layer 1">
      <g id="g3690" transform="matrix(0.7687065,0,0,0.7687065,-30.056095,-25.424549)">
        <path id="path2600" d="m 395,142.11382 c -11.04,0 -20,23.072 -20,51.5 0,7.84963 0.6848,15.27757 1.90625,21.9375 -15.70683,7.80532 -26.46875,23.98845 -26.46875,42.78125 l 0,3.9375 -48.5625,-21.5 c -6.33273,-2.80218 -13.69783,0.04228 -16.5,6.375 l -1.59375,3.65625 c -2.80218,6.33273 0.01103,13.66657 6.34375,16.46875 l 60.3125,26.6875 0,48.9375 c 0,10.2232 3.19639,19.68538 8.625,27.4375 -0.04252,0.42123 -0.0625,0.84844 -0.0625,1.28125 l 0,44 c 0,6.925 5.575,12.5 12.5,12.5 6.925,0 12.5,-5.575 12.5,-12.5 l 0,-27.09375 c 4.48393,1.38574 9.26791,2.15625 14.21875,2.15625 l 53.5625,0 c 5.32064,0 10.4465,-0.87739 15.21875,-2.46875 l 0,27.40625 c 0,6.925 5.575,12.5 12.5,12.5 6.925,0 12.5,-5.575 12.5,-12.5 l 0,-44 c 0,-0.86563 -0.08403,-1.71606 -0.25,-2.53125 4.91724,-7.51183 7.8125,-16.50125 7.8125,-26.1875 l 0,-50.25 57.3125,-25.375 c 6.33274,-2.80219 9.14593,-10.13602 6.34375,-16.46875 l -1.59375,-3.65625 c -2.80217,-6.33273 -10.16727,-9.17718 -16.5,-6.375 l -45.5625,20.15625 0,-2.59375 c 0,-18.79279 -10.76192,-34.97593 -26.46875,-42.78125 1.22145,-6.65993 1.90625,-14.08787 1.90625,-21.9375 0,-28.428 -8.96,-51.5 -20,-51.5 -11.04,0 -20,23.072 -20,51.5 0,5.93832 0.40577,11.62807 1.125,16.9375 l -22.25,0 c 0.71923,-5.30943 1.125,-10.99918 1.125,-16.9375 0,-28.428 -8.96,-51.5 -20,-51.5 z" style="fill:url(#linearGradient3704);fill-opacity:1;stroke:#ff8620;stroke-width:10;stroke-miterlimit:4;stroke-opacity:0.25531915;stroke-dasharray:none"/>
        <g transform="translate(173,5.0200724)" style="stroke:#2e3436;stroke-width:1.10000002;stroke-miterlimit:4;stroke-opacity:0.6914896;stroke-dasharray:none" id="g3227">
          <path transform="translate(-52,0)" sodipodi:type="arc" style="fill:#000000;fill-opacity:1;stroke:#2e3436;stroke-width:1.10000002;stroke-miterlimit:4;stroke-opacity:0.6914896;stroke-dasharray:none" id="path3215" sodipodi:cx="276.5" sodipodi:cy="259.41006" sodipodi:rx="17.5" sodipodi:ry="28.315596" d="m 294,259.41006 c 0,15.63021 -7.84,28.3156 -17.5,28.3156 -9.66,0 -17.5,-12.68539 -17.5,-28.3156 0,-15.6302 7.84,-28.31559 17.5,-28.31559 9.66,0 17.5,12.68539 17.5,28.31559 z"/>
          <path transform="translate(-52,-4)" sodipodi:type="arc" style="fill:#ffffff;fill-opacity:1;stroke:#2e3436;stroke-width:1.10000002;stroke-miterlimit:4;stroke-opacity:0.6914896;stroke-dasharray:none" id="path3217" sodipodi:cx="276" sodipodi:cy="249.09448" sodipodi:rx="11" sodipodi:ry="8" d="m 287,249.09448 c 0,4.416 -4.928,8 -11,8 -6.072,0 -11,-3.584 -11,-8 0,-4.416 4.928,-8 11,-8 6.072,0 11,3.584 11,8 z"/>
          <path d="m 294,259.41006 c 0,15.63021 -7.84,28.3156 -17.5,28.3156 -9.66,0 -17.5,-12.68539 -17.5,-28.3156 0,-15.6302 7.84,-28.31559 17.5,-28.31559 9.66,0 17.5,12.68539 17.5,28.31559 z" sodipodi:ry="28.315596" sodipodi:rx="17.5" sodipodi:cy="259.41006" sodipodi:cx="276.5" id="path3219" style="fill:#000000;fill-opacity:1;stroke:#5c696d;stroke-width:4.5999999;stroke-miterlimit:4;stroke-opacity:0.6914896;stroke-dasharray:none" sodipodi:type="arc" transform="translate(-52,0)"/>
          <path d="m 287,249.09448 c 0,4.416 -4.928,8 -11,8 -6.072,0 -11,-3.584 -11,-8 0,-4.416 4.928,-8 11,-8 6.072,0 11,3.584 11,8 z" sodipodi:ry="8" sodipodi:rx="11" sodipodi:cy="249.09448" sodipodi:cx="276" id="path3221" style="fill:#ffffff;fill-opacity:1;stroke:#2e3436;stroke-width:1.10000002;stroke-miterlimit:4;stroke-opacity:0.6914896;stroke-dasharray:none" sodipodi:type="arc" transform="translate(-52,-4)"/>
        </g>
        <path sodipodi:type="arc" style="opacity:1;fill:#aa0000;fill-opacity:1;stroke:#a40000;stroke-width:9.19999981;stroke-miterlimit:4;stroke-opacity:0.6914896;stroke-dasharray:none" id="path3243" sodipodi:cx="242.5" sodipodi:cy="326.09448" sodipodi:rx="50.5" sodipodi:ry="20" d="m 293,326.09448 c 0,11.04 -22.624,20 -50.5,20 -27.876,0 -50.5,-8.96 -50.5,-20 0,-11.04 22.624,-20 50.5,-20 27.876,0 50.5,8.96 50.5,20 z" transform="translate(181,5.0200724)"/>
        <g id="g3396" style="stroke:#2e3436;stroke-width:1.10000002;stroke-miterlimit:4;stroke-opacity:0.6914896;stroke-dasharray:none" transform="translate(224.42857,5.0200724)">
          <path d="m 294,259.41006 c 0,15.63021 -7.84,28.3156 -17.5,28.3156 -9.66,0 -17.5,-12.68539 -17.5,-28.3156 0,-15.6302 7.84,-28.31559 17.5,-28.31559 9.66,0 17.5,12.68539 17.5,28.31559 z" sodipodi:ry="28.315596" sodipodi:rx="17.5" sodipodi:cy="259.41006" sodipodi:cx="276.5" id="path3398" style="fill:#000000;fill-opacity:1;stroke:#2e3436;stroke-width:1.10000002;stroke-miterlimit:4;stroke-opacity:0.6914896;stroke-dasharray:none" sodipodi:type="arc" transform="translate(-52,0)"/>
          <path d="m 287,249.09448 c 0,4.416 -4.928,8 -11,8 -6.072,0 -11,-3.584 -11,-8 0,-4.416 4.928,-8 11,-8 6.072,0 11,3.584 11,8 z" sodipodi:ry="8" sodipodi:rx="11" sodipodi:cy="249.09448" sodipodi:cx="276" id="path3400" style="fill:#ffffff;fill-opacity:1;stroke:#2e3436;stroke-width:1.10000002;stroke-miterlimit:4;stroke-opacity:0.6914896;stroke-dasharray:none" sodipodi:type="arc" transform="translate(-52,-4)"/>
          <path transform="translate(-52,0)" sodipodi:type="arc" style="fill:#000000;fill-opacity:1;stroke:#5c696d;stroke-width:4.5999999;stroke-miterlimit:4;stroke-opacity:0.6914896;stroke-dasharray:none" id="path3402" sodipodi:cx="276.5" sodipodi:cy="259.41006" sodipodi:rx="17.5" sodipodi:ry="28.315596" d="m 294,259.41006 c 0,15.63021 -7.84,28.3156 -17.5,28.3156 -9.66,0 -17.5,-12.68539 -17.5,-28.3156 0,-15.6302 7.84,-28.31559 17.5,-28.31559 9.66,0 17.5,12.68539 17.5,28.31559 z"/>
          <path transform="translate(-52,-4)" sodipodi:type="arc" style="fill:#ffffff;fill-opacity:1;stroke:#2e3436;stroke-width:1.10000002;stroke-miterlimit:4;stroke-opacity:0.6914896;stroke-dasharray:none" id="path3404" sodipodi:cx="276" sodipodi:cy="249.09448" sodipodi:rx="11" sodipodi:ry="8" d="m 287,249.09448 c 0,4.416 -4.928,8 -11,8 -6.072,0 -11,-3.584 -11,-8 0,-4.416 4.928,-8 11,-8 6.072,0 11,3.584 11,8 z"/>
        </g>
      </g>
      <g id="g3660" transform="matrix(0.7687065,0,0,0.7687065,191.77063,-27.950105)">
        <g transform="matrix(-1,0,0,1,1313.9143,-345.47217)" id="g3519">
          <rect style="fill:#aa0044;fill-opacity:1;stroke:#ff237b;stroke-width:4;stroke-miterlimit:4;stroke-opacity:0.69411765;stroke-dasharray:none" id="rect3521" width="88" height="47" x="656.35663" y="405.26718" ry="7.5" transform="matrix(0.9628104,0.2701779,-0.2701779,0.9628104,0,0)"/>
          <rect transform="matrix(0.9628104,0.2701779,-0.2701779,0.9628104,0,0)" ry="5.8816838" y="412.67508" x="661.26068" height="36.858551" width="69.011757" id="rect3523" style="opacity:0.57522122;fill:url(#linearGradient3682);fill-opacity:1;stroke:none"/>
        </g>
        <g transform="translate(74.751288,-345.47217)" id="g3515">
          <rect transform="matrix(0.9628104,0.2701779,-0.2701779,0.9628104,0,0)" ry="7.5" y="405.26718" x="656.35663" height="47" width="88" id="rect3451" style="fill:#aa0044;fill-opacity:1;stroke:#ff237b;stroke-width:4;stroke-miterlimit:4;stroke-opacity:0.69411765;stroke-dasharray:none"/>
          <rect style="opacity:0.57522122;fill:url(#linearGradient3684);fill-opacity:1;stroke:none" id="rect3511" width="69.011757" height="36.858551" x="661.26068" y="412.67508" ry="5.8816838" transform="matrix(0.9628104,0.2701779,-0.2701779,0.9628104,0,0)"/>
        </g>
        <path transform="translate(229.71848,143.97574)" sodipodi:type="arc" style="fill:#aa0044;fill-opacity:1;stroke:#ff237b;stroke-width:9;stroke-miterlimit:4;stroke-opacity:0.69411765;stroke-dasharray:none" id="path3401" sodipodi:cx="463.5" sodipodi:cy="156.59448" sodipodi:rx="71.5" sodipodi:ry="60.5" d="m 535,156.59448 c 0,33.396 -32.032,60.5 -71.5,60.5 -39.468,0 -71.5,-27.104 -71.5,-60.5 0,-33.396 32.032,-60.499998 71.5,-60.499998 39.468,0 71.5,27.103998 71.5,60.499998 z"/>
        <path sodipodi:type="arc" style="fill:#aa0044;fill-opacity:1;stroke:#ff237b;stroke-width:4.9000001;stroke-miterlimit:4;stroke-opacity:0.69411765;stroke-dasharray:none" id="path3403" sodipodi:cx="437" sodipodi:cy="67.594482" sodipodi:rx="41" sodipodi:ry="51.5" d="m 478,67.594482 c 0,28.428 -18.368,51.499998 -41,51.499998 -22.632,0 -41,-23.071998 -41,-51.499998 0,-28.428 18.368,-51.5 41,-51.5 22.632,0 41,23.072 41,51.5 z" transform="translate(256.21848,143.97574)"/>
        <rect style="fill:#ff6600;fill-opacity:1;stroke:none" id="rect3407" width="38" height="38" x="310.61661" y="631.74243" ry="7.5" transform="matrix(0.7071068,-0.7071068,0.7071068,0.7071068,0,0)"/>
        <g transform="matrix(0.4324871,0,0,0.4452411,584.88046,70.385779)" id="g3411" style="stroke:none">
          <path d="m 294,259.41006 c 0,15.63021 -7.84,28.3156 -17.5,28.3156 -9.66,0 -17.5,-12.68539 -17.5,-28.3156 0,-15.6302 7.84,-28.31559 17.5,-28.31559 9.66,0 17.5,12.68539 17.5,28.31559 z" sodipodi:ry="28.315596" sodipodi:rx="17.5" sodipodi:cy="259.41006" sodipodi:cx="276.5" id="path3413" style="fill:#000000;fill-opacity:1;stroke:none" sodipodi:type="arc"/>
          <path transform="translate(0,-4)" d="m 287,249.09448 c 0,4.416 -4.928,8 -11,8 -6.072,0 -11,-3.584 -11,-8 0,-4.416 4.928,-8 11,-8 6.072,0 11,3.584 11,8 z" sodipodi:ry="8" sodipodi:rx="11" sodipodi:cy="249.09448" sodipodi:cx="276" id="path3415" style="fill:#ffffff;fill-opacity:1;stroke:none" sodipodi:type="arc"/>
        </g>
        <g transform="matrix(0.4324871,0,0,0.4452411,584.88046,70.385779)" id="g3417" style="stroke:none">
          <path transform="translate(-52,0)" sodipodi:type="arc" style="fill:#000000;fill-opacity:1;stroke:none" id="path3419" sodipodi:cx="276.5" sodipodi:cy="259.41006" sodipodi:rx="17.5" sodipodi:ry="28.315596" d="m 294,259.41006 c 0,15.63021 -7.84,28.3156 -17.5,28.3156 -9.66,0 -17.5,-12.68539 -17.5,-28.3156 0,-15.6302 7.84,-28.31559 17.5,-28.31559 9.66,0 17.5,12.68539 17.5,28.31559 z"/>
          <path transform="translate(-52,-4)" sodipodi:type="arc" style="fill:#ffffff;fill-opacity:1;stroke:none" id="path3421" sodipodi:cx="276" sodipodi:cy="249.09448" sodipodi:rx="11" sodipodi:ry="8" d="m 287,249.09448 c 0,4.416 -4.928,8 -11,8 -6.072,0 -11,-3.584 -11,-8 0,-4.416 4.928,-8 11,-8 6.072,0 11,3.584 11,8 z"/>
          <path d="m 294,259.41006 c 0,15.63021 -7.84,28.3156 -17.5,28.3156 -9.66,0 -17.5,-12.68539 -17.5,-28.3156 0,-15.6302 7.84,-28.31559 17.5,-28.31559 9.66,0 17.5,12.68539 17.5,28.31559 z" sodipodi:ry="28.315596" sodipodi:rx="17.5" sodipodi:cy="259.41006" sodipodi:cx="276.5" id="path3423" style="fill:#000000;fill-opacity:1;stroke:none" sodipodi:type="arc" transform="translate(-52,0)"/>
          <path d="m 287,249.09448 c 0,4.416 -4.928,8 -11,8 -6.072,0 -11,-3.584 -11,-8 0,-4.416 4.928,-8 11,-8 6.072,0 11,3.584 11,8 z" sodipodi:ry="8" sodipodi:rx="11" sodipodi:cy="249.09448" sodipodi:cx="276" id="path3425" style="fill:#ffffff;fill-opacity:1;stroke:none" sodipodi:type="arc" transform="translate(-52,-4)"/>
        </g>
        <path d="m 535,156.59448 c 0,33.396 -32.032,60.5 -71.5,60.5 -39.468,0 -71.5,-27.104 -71.5,-60.5 0,-33.396 32.032,-60.499998 71.5,-60.499998 39.468,0 71.5,27.103998 71.5,60.499998 z" sodipodi:ry="60.5" sodipodi:rx="71.5" sodipodi:cy="156.59448" sodipodi:cx="463.5" id="path3496" style="opacity:0.39380529;fill:url(#linearGradient3686);fill-opacity:1;stroke:none" sodipodi:type="arc" transform="matrix(0.7915307,0,0,0.5529187,326.34403,237.01665)"/>
        <path sodipodi:nodetypes="ccccccccccccccccccccccccc" id="rect3473" d="m 672.21886,358.10334 c -4.155,0 -7.50001,3.34502 -7.5,7.5 l 0,23 c 0,2.25857 0.99292,4.25227 2.5625,5.625 l -9.75,0 c -5.71312,0 -10.31251,4.5994 -10.3125,10.3125 l 0,1.375 c 0,5.71312 4.59937,10.31252 10.3125,10.3125 l 69.375,0 c 5.71312,0 10.31249,-4.59935 10.3125,-10.3125 l 0,-1.375 c 0,-5.71312 -4.59938,-10.31248 -10.3125,-10.3125 l -9.75,0 c 1.56287,-1.37253 2.5625,-3.37197 2.5625,-5.625 l 0,-23 c 0,-4.155 -3.34501,-7.49998 -7.5,-7.5 l -10,0 c -4.155,0 -7.50001,3.34502 -7.5,7.5 l 0,23 c 0,2.25857 0.99292,4.25227 2.5625,5.625 l -10.125,0 c 1.56287,-1.37253 2.5625,-3.37197 2.5625,-5.625 l 0,-23 c 0,-4.155 -3.34501,-7.49998 -7.5,-7.5 z" style="fill:#f57900;fill-opacity:1;stroke:#ffb723;stroke-width:5.9000001;stroke-miterlimit:4;stroke-opacity:0.69411759;stroke-dasharray:none"/>
        <path transform="matrix(0.4242025,0,0,0.3191644,495.5905,193.81923)" sodipodi:type="arc" style="opacity:0.39380529;fill:url(#linearGradient3688);fill-opacity:1;stroke:none" id="path3507" sodipodi:cx="463.5" sodipodi:cy="156.59448" sodipodi:rx="71.5" sodipodi:ry="60.5" d="m 535,156.59448 c 0,33.396 -32.032,60.5 -71.5,60.5 -39.468,0 -71.5,-27.104 -71.5,-60.5 0,-33.396 32.032,-60.499998 71.5,-60.499998 39.468,0 71.5,27.103998 71.5,60.499998 z"/>
      </g>
      <g transform="matrix(0.7687065,0,0,0.7687065,-114.21068,227.43664)" id="g3584" inkscape:label="Layer 1">
        <g transform="translate(322.84475,-426.33435)" id="g3590">
          <path style="fill:url(#linearGradient3658);fill-opacity:1;stroke:#4e9a06;stroke-width:6.4000001;stroke-miterlimit:4;stroke-opacity:0.46808514;stroke-dasharray:none" d="m 461.5,267.09375 c -9.384,0 -17,8.064 -17,18 0,7.08146 3.87998,13.18694 9.5,16.125 l 0,31.875 -15.9375,0 -56,-19.65625 c -1.37214,-0.48175 -2.76338,-0.67733 -4.125,-0.59375 -4.08485,0.25075 -7.80477,2.91483 -9.25,7.03125 -1.92698,5.48856 0.94894,11.44802 6.4375,13.375 l 48.875,17.15625 0,62.1875 c 0,5.61615 3.67011,10.35082 8.75,11.9375 l 10.21875,62.875 c 1.11177,6.83518 7.50859,11.45553 14.34375,10.34375 l 2.96875,-0.5 c 6.83515,-1.11177 11.45553,-7.50859 10.34375,-14.34375 l -9.40625,-57.8125 80.5625,0 -9.40625,57.8125 c -1.11179,6.83517 3.50857,13.23197 10.34375,14.34375 l 2.96875,0.5 c 6.83517,1.11179 13.23199,-3.50859 14.34375,-10.34375 l 10.21875,-62.875 c 5.07989,-1.58668 8.75,-6.32135 8.75,-11.9375 l 0,-62.1875 48.875,-17.15625 c 5.48856,-1.92698 8.36448,-7.9177 6.4375,-13.40625 -1.92698,-5.48856 -7.88645,-8.33324 -13.375,-6.40625 l -56,19.65625 -15.9375,0 0,-31.875 c 5.62002,-2.93806 9.5,-9.04354 9.5,-16.125 0,-9.936 -7.616,-18 -17,-18 -6.27978,0 -11.74382,3.63306 -14.6875,9 l -50.625,0 c -2.94368,-5.36694 -8.40772,-9 -14.6875,-9 z" id="path3245"/>
          <g transform="matrix(0.5934066,0,0,0.6041641,352.85165,147.68381)" id="g3381" style="stroke:none">
            <g id="g3383" style="stroke:none">
              <path d="m 294,259.41006 c 0,15.63021 -7.84,28.3156 -17.5,28.3156 -9.66,0 -17.5,-12.68539 -17.5,-28.3156 0,-15.6302 7.84,-28.31559 17.5,-28.31559 9.66,0 17.5,12.68539 17.5,28.31559 z" sodipodi:ry="28.315596" sodipodi:rx="17.5" sodipodi:cy="259.41006" sodipodi:cx="276.5" id="path3385" style="fill:#000000;fill-opacity:1;stroke:none" sodipodi:type="arc"/>
              <path transform="translate(0,-4)" d="m 287,249.09448 c 0,4.416 -4.928,8 -11,8 -6.072,0 -11,-3.584 -11,-8 0,-4.416 4.928,-8 11,-8 6.072,0 11,3.584 11,8 z" sodipodi:ry="8" sodipodi:rx="11" sodipodi:cy="249.09448" sodipodi:cx="276" id="path3387" style="fill:#ffffff;fill-opacity:1;stroke:none" sodipodi:type="arc"/>
            </g>
            <g id="g3389" style="stroke:none">
              <path transform="translate(-52,0)" sodipodi:type="arc" style="fill:#000000;fill-opacity:1;stroke:none" id="path3391" sodipodi:cx="276.5" sodipodi:cy="259.41006" sodipodi:rx="17.5" sodipodi:ry="28.315596" d="m 294,259.41006 c 0,15.63021 -7.84,28.3156 -17.5,28.3156 -9.66,0 -17.5,-12.68539 -17.5,-28.3156 0,-15.6302 7.84,-28.31559 17.5,-28.31559 9.66,0 17.5,12.68539 17.5,28.31559 z"/>
              <path transform="translate(-52,-4)" sodipodi:type="arc" style="fill:#ffffff;fill-opacity:1;stroke:none" id="path3393" sodipodi:cx="276" sodipodi:cy="249.09448" sodipodi:rx="11" sodipodi:ry="8" d="m 287,249.09448 c 0,4.416 -4.928,8 -11,8 -6.072,0 -11,-3.584 -11,-8 0,-4.416 4.928,-8 11,-8 6.072,0 11,3.584 11,8 z"/>
              <path d="m 294,259.41006 c 0,15.63021 -7.84,28.3156 -17.5,28.3156 -9.66,0 -17.5,-12.68539 -17.5,-28.3156 0,-15.6302 7.84,-28.31559 17.5,-28.31559 9.66,0 17.5,12.68539 17.5,28.31559 z" sodipodi:ry="28.315596" sodipodi:rx="17.5" sodipodi:cy="259.41006" sodipodi:cx="276.5" id="path3395" style="fill:#000000;fill-opacity:1;stroke:none" sodipodi:type="arc" transform="translate(-52,0)"/>
              <path d="m 287,249.09448 c 0,4.416 -4.928,8 -11,8 -6.072,0 -11,-3.584 -11,-8 0,-4.416 4.928,-8 11,-8 6.072,0 11,3.584 11,8 z" sodipodi:ry="8" sodipodi:rx="11" sodipodi:cy="249.09448" sodipodi:cx="276" id="path3397" style="fill:#ffffff;fill-opacity:1;stroke:none" sodipodi:type="arc" transform="translate(-52,-4)"/>
            </g>
          </g>
          <path sodipodi:type="arc" style="fill:#ff0066;fill-opacity:1;stroke:#4e9a06;stroke-width:4.0999999;stroke-miterlimit:4;stroke-opacity:0.46808514;stroke-dasharray:none" id="path3399" sodipodi:cx="447.5" sodipodi:cy="162.59448" sodipodi:rx="33.5" sodipodi:ry="12.5" d="m 481,162.59448 c 0,6.9 -15.008,12.5 -33.5,12.5 -18.492,0 -33.5,-5.6 -33.5,-12.5 0,-6.9 15.008,-12.5 33.5,-12.5 18.492,0 33.5,5.6 33.5,12.5 z" transform="translate(54,180)"/>
        </g>
      </g>
    </g>
  </g>
</svg>