<?xml version="1.0" encoding="UTF-8" standalone="no"?>
<!-- Generator: Adobe Illustrator 11.0, SVG Export Plug-In  -->
<svg xmlns:dc="http://purl.org/dc/elements/1.1/" xmlns:cc="http://creativecommons.org/ns#" xmlns:rdf="http://www.w3.org/1999/02/22-rdf-syntax-ns#" xmlns:svg="http://www.w3.org/2000/svg" xmlns="http://www.w3.org/2000/svg" xmlns:sodipodi="http://sodipodi.sourceforge.net/DTD/sodipodi-0.dtd" xmlns:inkscape="http://www.inkscape.org/namespaces/inkscape" width="196.2683" height="215.9706" viewBox="-0.384 -0.242 511 453" xml:space="preserve" id="svg2" sodipodi:version="0.32" inkscape:version="0.46dev+devel" sodipodi:docname="ryanlerch_Skiier_Sign_frag.svg" inkscape:output_extension="org.inkscape.output.svg.inkscape" inkscape:export-filename="C:\joanna\Gfx\drawings_vector\admin\thumbs\ryanlerch_Skiier_Sign.png" inkscape:export-xdpi="25.420137" inkscape:export-ydpi="25.420137" version="1.0"><metadata id="metadata19"><rdf:RDF><cc:Work rdf:about=""><dc:format>image/svg+xml</dc:format><dc:type rdf:resource="http://purl.org/dc/dcmitype/StillImage"/></cc:Work></rdf:RDF></metadata><sodipodi:namedview inkscape:window-height="643" inkscape:window-width="640" inkscape:pageshadow="2" inkscape:pageopacity="0.0" guidetolerance="10.0" gridtolerance="10.0" objecttolerance="10.0" borderopacity="1.0" bordercolor="#666666" pagecolor="#ffffff" id="base" showgrid="false" inkscape:zoom="2.0002723" inkscape:cx="98.134148" inkscape:cy="107.18041" inkscape:window-x="132" inkscape:window-y="123" inkscape:current-layer="svg2"/>
	<defs id="defs4">
	
		
		
		
		
		
	</defs>
	<path d="M 103.82752,-52.30649 L 100.12018,-51.984112 L 95.445697,-51.178168 L 89.481708,-49.727468 L 85.613174,-48.437956 L 82.631179,-47.470823 L 76.344812,-44.730612 L 72.073306,-42.473967 L 68.930123,-40.620295 L 64.980995,-37.477111 L 63.852672,-27.080427 L 63.691483,-23.373082 L 63.691483,-20.552276 C 59.049243,-17.581243 55.000848,-13.886793 51.844099,-9.4302423 L 49.426266,-6.2870587 L 63.852672,-6.2870587 L 74.088167,10.637776 L 74.088167,15.473443 C 73.716788,21.78689 75.967011,27.892725 80.052157,32.720655 C 81.351984,34.206172 82.813619,35.531171 84.484852,36.830972 C 86.527437,38.1308 88.921389,38.660144 91.33538,38.845834 L 94.720347,39.007023 C 97.320001,40.492539 98.830664,43.531273 98.830664,46.502306 L 98.830664,46.663495 L 98.830664,50.532029 L 98.427692,51.09619 L 90.287652,59.478012 C 87.130929,63.191804 83.548666,66.532283 79.649185,69.874696 C 75.006944,73.774178 70.926931,78.400944 67.398828,83.414564 C 64.799173,87.314046 63.674049,92.126502 64.416833,96.954432 L 70.219634,136.52631 L 74.088167,172.55203 L 74.49114,178.67721 L 70.219634,187.62319 L 60.387111,213.97757 L 53.455988,239.04245 C 52.156161,242.57055 51.626816,246.26498 51.441127,250.16448 L 51.279938,253.14648 C 51.837007,257.60303 52.720296,261.87582 54.020149,265.961 C 55.134287,269.11772 57.013131,271.70445 59.984139,273.37569 C 64.06931,275.78965 69.284738,276.55371 73.926979,275.06817 C 77.82646,273.95403 80.213346,270.6103 80.213346,266.52516 C 80.213346,266.15378 80.213346,265.74374 80.213346,265.55802 L 80.052157,264.4297 L 94.881536,236.22164 L 116.07788,194.7961 L 143.15761,143.61862 L 154.11846,148.05131 C 148.54777,157.3358 143.58119,166.81306 140.98156,171.82668 C 134.48243,184.82495 127.98326,197.79166 117.77036,217.84611 L 117.93155,217.84611 C 115.33189,223.04542 112.8818,228.2331 110.83924,233.80381 C 108.98234,238.44605 107.13512,242.88715 105.27822,247.34368 C 104.16408,250.12902 103.06348,252.91566 102.13504,255.88669 C 101.39228,258.11496 101.36066,260.56506 101.73206,262.979 C 102.8462,268.54969 105.30337,273.78639 109.38854,278.61432 C 123.31526,296.25484 136.27031,314.44659 148.15447,333.01558 C 157.06757,346.9423 163.0264,362.1231 166.36881,377.90669 C 166.92588,380.32065 167.33592,382.72175 167.33595,385.32138 C 167.33595,392.0062 165.27856,398.5292 161.93612,404.09988 C 159.15077,408.74212 155.79289,413.18318 152.26478,417.63975 C 149.29375,421.16785 148.19313,425.83653 149.1216,430.29308 L 149.84695,432.30794 C 135.73454,439.73553 122.16243,447.95162 108.4214,457.05044 L 91.33538,468.33366 C 87.064519,471.3047 82.623442,473.70579 77.795512,475.74835 C 69.996548,479.27645 61.619239,481.14818 52.891827,481.14818 C 46.39269,481.14818 39.701417,480.07206 33.38797,477.84381 C 29.859865,476.72967 26.53357,474.64069 24.119606,472.04101 L 19.525723,467.20534 C 19.154343,466.46258 18.414834,465.96483 17.67205,465.59345 C 14.701016,464.10793 11.18194,463.56118 7.8395273,464.30394 C 5.054183,464.86101 3.1966679,467.40196 3.5680214,470.18733 C 4.8678487,482.07147 12.084624,492.50233 22.668905,498.07301 C 39.752352,507.35749 60.51926,506.81074 77.231351,496.7835 L 88.595169,489.85238 L 116.23907,475.023 L 160.08245,451.65061 L 203.52286,429.16476 L 299.91384,381.04987 C 299.54246,383.64953 299.13242,386.48519 298.9467,389.27051 C 298.76101,392.24154 297.68492,395.18232 295.64233,397.41054 C 294.15681,399.45313 292.61453,401.6543 291.12904,403.69691 C 288.52939,407.96777 286.48938,412.24766 285.00386,417.07559 C 284.07541,420.04662 284.13153,423.23623 285.24565,426.02157 L 286.53516,429.16476 C 284.49257,430.83596 282.64537,432.48334 280.97414,433.59745 C 273.73225,438.42538 266.67284,443.4764 259.61659,449.23278 C 251.44625,455.36053 243.24754,461.51215 234.14875,468.01128 C 229.87789,470.98232 225.62959,473.89857 221.17304,476.31251 C 216.34511,479.09786 210.97878,480.58402 205.7795,480.58402 C 205.22243,480.58402 204.78075,480.58402 204.40939,480.58402 C 200.88129,480.58402 197.37962,480.44021 193.85152,479.69748 C 189.20928,478.58334 184.7998,476.89731 180.71463,474.29765 C 178.30066,472.81213 176.26065,470.96491 174.58945,468.73663 C 173.28962,467.25112 171.74734,465.95776 170.07616,465.02929 C 167.84788,463.91515 165.42234,463.00734 162.82266,462.45027 C 160.40869,461.8932 157.68522,461.86872 155.08559,462.61146 C 153.97145,462.98283 152.83926,463.34392 151.53943,463.90097 C 150.61099,464.27235 149.84695,465.20469 149.84695,466.3188 C 149.66126,467.99001 149.87854,469.64448 150.24992,471.31566 C 153.59234,482.82841 161.40162,492.30954 172.17161,497.50885 C 179.41351,501.03695 187.1564,502.91575 195.14103,503.47284 C 208.32499,504.40129 221.49351,500.65786 231.8921,492.67319 L 458.28193,325.03673 L 446.59574,312.22221 L 351.49428,382.17819 C 348.15187,377.35026 344.84299,372.74093 341.50057,367.91298 C 338.52954,363.45642 334.78606,359.15915 330.70092,355.25965 C 325.6873,350.24603 321.95091,343.91584 320.46542,337.0453 C 317.3087,322.7472 311.43758,309.41363 302.89583,297.71521 C 296.76807,289.35918 288.37336,282.83616 278.7175,278.9367 C 276.8606,278.19394 275.01337,277.09332 273.15648,275.79352 C 272.04234,274.86507 270.94174,273.54719 270.0133,272.24736 C 266.2995,266.11961 264.21047,259.09889 264.21049,251.85697 C 264.21049,249.62869 264.40325,247.23474 264.77466,245.00644 L 267.59546,226.79209 C 269.82374,209.33727 272.07713,191.85665 271.70578,195.19907 C 272.26285,189.99976 272.80957,184.84362 272.99529,179.64434 C 272.99529,178.90158 272.99526,178.10595 272.99529,177.54888 C 272.99529,169.74992 271.29187,161.92643 268.32081,154.49887 C 267.94943,153.38473 267.42718,152.33316 266.87011,151.03331 C 265.75597,148.06228 264.26984,145.25114 262.59861,142.65149 C 261.11306,140.42321 259.37805,137.97314 257.52113,135.55917 C 255.84992,133.3309 254.00272,131.5327 251.96012,129.67578 L 249.54229,127.58032 C 256.96986,128.69446 264.6006,129.49012 272.02816,129.67578 L 274.2848,129.67578 L 280.97414,156.75551 L 283.55316,166.82982 L 286.69635,178.51602 L 288.95299,187.62319 L 290.96785,196.64977 C 292.82475,201.84908 293.78866,207.43973 293.78866,213.01044 C 293.78866,215.23872 294.14972,217.65722 295.07817,219.69978 C 296.378,223.59926 298.19365,227.1325 300.23621,230.66063 C 301.72173,232.8889 303.43224,234.92893 305.47485,236.7858 C 306.4033,237.71425 307.34274,238.42926 308.45685,238.80067 C 309.19961,238.98636 309.72893,239.3648 310.47171,239.36483 C 311.77154,239.55052 312.90373,239.41383 314.01787,239.04245 C 317.73166,237.74262 321.02638,234.93855 322.88325,231.22479 L 323.85039,229.37112 L 472.95012,306.98357 C 470.53616,311.44012 469.7895,316.63812 470.53229,321.65176 C 470.90367,324.25142 472.06036,326.64537 473.91726,328.50229 C 475.21708,329.80212 477.0011,330.40496 478.67233,330.03358 C 484.80009,328.73376 490.23991,325.15859 493.5823,319.95928 L 494.30765,318.66977 L 509.70119,320.20106 L 500.8358,308.43427 C 502.87839,304.16341 503.97899,299.56112 503.97899,294.73321 C 503.97899,293.80477 504.00346,292.88983 503.8178,291.59003 C 503.63211,289.73313 502.69976,287.83693 501.39996,286.35139 C 499.91445,284.86587 497.63972,284.18241 495.59716,284.7395 C 490.39785,285.66795 485.74661,288.4159 482.21848,292.31538 L 479.80065,294.8944 L 326.26822,214.86411 C 326.26822,214.49273 326.2682,213.94601 326.26822,213.5746 C 326.26822,209.86081 325.11156,206.31017 322.88325,203.33911 C 321.39774,201.48221 320.15336,199.49827 318.85353,197.45571 C 317.36802,195.04175 316.37958,192.4479 316.19392,189.47686 L 314.74322,177.71007 L 311.76122,152.16163 C 310.64708,146.03387 309.77086,139.83329 309.58517,133.7055 L 309.34339,128.70865 C 309.34339,128.33727 309.34336,128.19351 309.34339,127.82211 C 309.34339,123.73694 308.4601,119.98639 306.60318,116.45829 C 303.07507,109.40208 298.06274,103.28206 291.93499,98.082754 L 284.27851,91.796387 L 273.15648,82.286242 L 263.32396,74.146202 C 255.15359,68.204134 246.81113,62.262711 236.96955,55.206507 C 233.99852,52.978232 231.20477,51.067821 227.86238,48.839546 C 220.99186,44.197305 213.76413,40.720164 205.7795,38.120484 C 194.82381,34.592381 183.44261,32.198378 171.92983,31.269955 C 163.94518,30.712886 156.53178,28.077126 149.84695,24.177644 C 146.69023,22.320748 143.87912,20.249174 141.46513,17.649493 C 135.70875,12.264494 132.23868,5.0335602 131.31023,-2.579714 C 130.75316,-7.4076439 130.00653,-12.017002 128.89239,-16.844932 C 126.84981,-27.057861 122.91358,-36.704023 117.52858,-45.617151 L 113.49885,-52.30649 L 103.82752,-52.30649 z M 121.80008,132.65777 C 121.74623,132.79237 121.69259,132.92612 121.63889,133.06075 L 132.43855,137.49344 L 103.42455,194.63491 L 78.359673,244.76466 L 77.795512,237.51115 L 79.810373,234.77094 C 83.152787,230.12873 86.012922,225.30206 87.869819,220.10275 C 91.95499,209.8898 96.396067,200.18045 101.40969,190.52459 C 103.63799,185.88232 105.64638,180.73333 107.13189,175.53402 C 111.36146,160.8224 116.13624,146.85648 121.63889,133.06075 L 121.4777,132.98015 L 121.80008,132.65777 z M 203.68404,201.72722 L 203.52286,205.59575 C 203.70854,230.10676 208.19862,254.4289 216.74035,277.08303 C 219.52569,284.3249 224.72371,290.43076 231.40854,294.33024 C 240.13597,299.71527 248.48166,306.24533 255.90924,313.67291 C 258.69456,316.64394 261.8036,319.43058 264.77466,322.21592 C 277.7729,333.72865 288.35143,347.85785 295.96471,363.64147 L 216.74035,398.53887 L 214.88667,393.30023 C 211.17288,382.90161 205.03545,373.67258 197.23649,366.0593 C 195.56528,364.57381 194.59428,362.67756 193.85152,360.82066 L 192.56201,355.66262 C 190.14804,346.56383 188.10804,337.46439 186.43683,328.17991 C 184.7656,319.4525 182.70112,311.47816 180.47284,303.6792 C 178.24454,296.25161 175.51403,289.35337 172.17161,282.48286 C 166.78662,272.08427 158.98765,263.16727 148.96041,256.85382 L 151.70062,254.59718 C 170.64096,238.25649 187.90043,220.66756 203.68404,201.72722 z" id="path12"/>
</svg>