<?xml version="1.0" encoding="UTF-8" standalone="no"?>
<!-- Generator: Adobe Illustrator 11.0, SVG Export Plug-In  -->
<svg xmlns:dc="http://purl.org/dc/elements/1.1/" xmlns:cc="http://creativecommons.org/ns#" xmlns:rdf="http://www.w3.org/1999/02/22-rdf-syntax-ns#" xmlns:svg="http://www.w3.org/2000/svg" xmlns="http://www.w3.org/2000/svg" xmlns:sodipodi="http://sodipodi.sourceforge.net/DTD/sodipodi-0.dtd" xmlns:inkscape="http://www.inkscape.org/namespaces/inkscape" width="212.472" height="205.416" viewBox="-0.736 -0.44 512 454" xml:space="preserve" id="svg2" sodipodi:version="0.32" inkscape:version="0.46dev+devel" sodipodi:docname="ryanlerch_Horserider_roadsign_frag.svg" inkscape:output_extension="org.inkscape.output.svg.inkscape" inkscape:export-filename="C:\joanna\Gfx\drawings_vector\admin\thumbs\ryanlerch_Horserider_roadsign.png" inkscape:export-xdpi="25.377131" inkscape:export-ydpi="25.377131" version="1.0"><metadata id="metadata15"><rdf:RDF><cc:Work rdf:about=""><dc:format>image/svg+xml</dc:format><dc:type rdf:resource="http://purl.org/dc/dcmitype/StillImage"/></cc:Work></rdf:RDF></metadata><sodipodi:namedview inkscape:window-height="643" inkscape:window-width="921" inkscape:pageshadow="2" inkscape:pageopacity="0.0" guidetolerance="10.0" gridtolerance="10.0" objecttolerance="10.0" borderopacity="1.0" bordercolor="#666666" pagecolor="#ffffff" id="base" showgrid="false" inkscape:zoom="2.1030494" inkscape:cx="106.236" inkscape:cy="72.288882" inkscape:window-x="22" inkscape:window-y="29" inkscape:current-layer="svg2"/>
	<defs id="defs4">
	
		
		
		
	</defs>
	<path id="path12" d="M 113.47089,92.281132 C 100.72977,86.08275 86.611235,82.811381 72.148343,82.811381 C 62.850769,82.811381 53.553195,84.188799 44.599976,86.943636 C 34.613693,84.705331 24.283056,83.50009 13.952417,83.50009 C 9.8201624,83.50009 5.6879075,83.672267 1.5556525,84.016622 C 9.4758078,90.042827 16.535077,95.896855 23.42217,101.92306 C 24.283056,110.01539 24.971765,118.2799 25.31612,126.71659 C 24.971765,133.4315 24.799588,140.3186 24.799588,147.20569 C 24.799588,151.16577 24.799588,154.95367 24.971765,158.91374 C 24.971765,159.43028 24.971765,160.11898 24.971765,160.97987 C 24.971765,175.95929 25.832652,190.93872 27.898779,205.74597 C 28.070956,207.12338 28.415311,208.5008 28.931843,209.70604 C 32.203211,216.42096 38.918126,220.55321 46.321749,220.55321 C 49.937472,220.55321 53.381018,219.69233 56.480209,217.79838 C 58.546337,216.76531 60.956819,215.90443 63.367301,215.73225 C 63.711655,215.56007 64.05601,215.56007 64.400364,215.38789 C 66.466492,214.01048 67.84391,211.59999 68.016088,209.01733 C 67.671733,206.43468 67.671733,203.67984 68.188265,200.75282 C 68.188265,194.38226 69.73786,188.18388 72.492697,182.50203 C 74.731002,176.47583 76.624952,170.6218 77.830193,164.42342 C 82.306803,162.52947 86.26688,160.63552 90.226958,158.56939 C 99.008,172.17139 103.65679,188.01171 103.82896,204.19637 L 104.17332,222.96369 C 104.3455,230.88385 104.51767,238.80401 104.51767,246.72416 C 104.51767,245.86327 104.51767,246.37981 104.51767,247.06852 C 105.37856,257.91568 108.30557,268.4185 113.29871,277.88825 C 94.703568,280.98744 76.624952,286.66929 59.751578,294.9338 C 59.5794,294.9338 59.5794,294.9338 59.5794,294.9338 C 53.381018,297.68864 47.52699,301.30436 42.533849,305.60879 C 41.328608,306.64186 40.295544,307.67492 39.434657,308.88016 C 39.434657,309.05234 39.434657,309.05234 39.434657,309.22452 C 37.885062,311.80718 37.024175,314.73419 37.024175,317.6612 C 37.024175,319.2108 37.196353,320.58822 37.540707,321.96564 C 42.361671,342.28256 48.387877,361.73859 55.619323,380.67809 L 57.68545,386.18777 C 59.235046,390.4922 60.784641,394.2801 62.678592,398.068 C 63.022946,399.10106 63.711655,400.13413 64.228187,400.99501 C 73.697938,414.42484 88.505185,423.20588 104.86203,424.5833 L 104.86203,395.48534 L 92.809617,395.65752 C 90.399135,389.63131 85.405994,384.98252 79.379789,383.08857 C 78.863257,382.9164 78.518902,382.74422 78.174548,382.57204 C 76.797129,381.53898 75.936243,379.98938 75.591888,378.43979 L 75.591888,378.26761 C 74.042293,365.00996 71.803988,350.89142 68.876974,336.77288 L 68.360442,334.70676 C 67.84391,331.77974 69.73786,329.02491 72.664874,328.50837 C 81.101562,327.47531 89.021717,325.92571 97.11405,323.85959 C 108.1334,323.51523 119.15274,321.4491 129.82773,317.83338 C 133.27128,316.80032 136.54265,315.4229 139.81402,314.04548 C 142.2245,313.01242 144.4628,311.635 146.87329,310.0854 C 149.45595,312.49589 152.38296,314.38984 155.30997,316.11161 C 155.48215,316.28379 155.82651,316.45596 156.17086,316.80032 C 158.58134,319.38298 160.64747,322.30999 162.19707,325.58136 L 162.19707,325.40918 C 165.46843,331.95192 168.7398,337.97812 172.18335,343.83215 L 172.18335,343.65998 C 189.2289,370.34746 203.17526,398.75671 213.67807,428.3712 L 213.67807,428.3712 C 214.53896,430.09297 214.88332,432.1591 214.88332,434.05305 C 214.88332,436.98007 214.02243,439.90708 212.47283,442.31756 C 212.30066,442.66192 212.12848,442.83409 211.9563,443.00627 C 204.3805,451.27078 198.52647,461.08489 194.91075,471.5877 L 227.1079,471.93206 L 227.62444,466.07803 C 227.62444,465.21714 227.79661,464.52843 227.79661,463.66755 C 227.79661,458.84658 229.51839,454.1978 232.61758,450.40989 C 233.30629,449.54901 234.16717,448.8603 235.02806,448.34377 C 238.4716,446.10546 240.36555,442.14538 240.36555,438.01313 C 240.36555,436.46353 240.19337,434.91394 239.50466,433.53652 C 239.50466,433.36434 239.50466,433.19217 239.33248,433.19217 C 236.92201,428.3712 234.51153,423.37806 231.92887,418.04056 L 231.92887,417.86839 C 228.31314,410.12041 225.90266,401.51154 224.8696,392.7305 C 224.69742,391.86962 224.52524,391.18091 224.52524,390.32002 C 223.14783,383.77728 221.42605,377.23455 219.5321,370.69181 C 218.49904,366.38738 217.12162,361.56641 215.7442,356.74545 C 213.85025,348.30876 212.12848,340.04425 210.57888,331.77974 C 209.37364,323.85959 207.99622,316.45596 206.44663,309.22452 C 220.90952,311.46282 235.37241,312.49589 249.8353,312.49589 C 266.5365,312.49589 283.06552,311.11847 299.42236,308.01928 C 304.75985,307.15839 309.92517,306.12533 315.26267,304.92008 C 318.18968,318.86645 320.77234,329.19708 323.52718,339.52772 L 323.18282,338.32248 C 325.93766,348.13658 329.03685,357.43416 332.82475,366.55955 C 333.51346,367.7648 333.68564,369.48657 333.68564,371.03616 C 333.68564,372.58576 333.51346,374.13536 332.82475,375.68495 L 332.82475,375.68495 C 330.06992,382.57204 326.62637,389.45913 322.66629,395.82969 C 316.81226,404.43856 310.61388,413.04742 303.89897,421.48411 C 297.87276,428.71556 292.70744,436.11918 288.05866,444.21151 C 287.88648,444.55587 287.7143,444.72804 287.54213,444.90022 C 280.99939,452.99255 275.48971,462.11795 271.35746,471.93206 L 305.27639,472.44859 L 306.30945,460.05182 L 306.6538,456.95263 C 306.82598,456.60828 306.82598,456.4361 306.99816,456.26392 C 307.34251,455.91957 307.68687,455.57521 308.03122,455.40304 C 308.2034,455.40304 308.37558,455.40304 308.54775,455.40304 L 308.71993,455.23086 C 309.40864,455.05868 310.09735,454.71433 310.78606,454.36997 C 313.36872,452.47602 315.43485,450.06554 316.46791,446.96635 C 316.81226,446.10546 316.98444,445.58893 317.15662,445.0724 C 320.94452,435.947 325.76548,427.16596 331.44733,418.90145 C 341.95015,404.43856 354.69127,391.86962 368.98198,381.3668 C 368.98198,381.3668 368.98198,381.3668 369.15416,381.19462 C 371.909,379.30067 373.63077,376.02931 373.63077,372.58576 C 373.63077,371.89705 373.63077,371.38052 373.45859,370.69181 C 372.59771,365.69867 371.56464,360.01682 370.53158,354.33497 L 370.3594,353.99061 C 370.01505,351.92449 369.67069,349.85836 369.32634,347.62005 C 368.1211,332.64063 374.83601,318.34991 387.0606,309.56887 C 391.02068,315.4229 395.32511,320.58822 400.14607,325.58136 L 399.9739,325.58136 C 403.58962,329.19708 407.37752,332.64063 411.50977,335.912 C 418.22469,340.56078 424.42307,345.38175 430.62145,350.54707 C 434.92589,354.33497 439.23032,358.29504 443.36257,362.4273 L 443.36257,362.4273 C 445.94523,364.83778 448.18354,367.24826 450.24966,369.48657 C 450.24966,369.48657 450.42184,369.65875 450.59402,369.83092 C 453.34886,373.44665 455.75934,377.40672 457.48111,381.3668 L 458.16982,382.9164 C 459.71941,386.01559 460.92466,388.9426 462.1299,391.86962 C 463.85167,397.03494 465.40127,402.20025 466.95086,407.1934 L 468.32828,411.84218 C 470.91094,419.59016 473.14924,427.51032 475.21537,435.43047 C 475.38755,436.11918 475.55973,437.4966 475.55973,439.04619 C 475.55973,442.48974 474.69884,445.76111 472.80489,448.68812 L 472.80489,448.68812 C 467.46739,455.57521 463.16296,463.32319 460.23595,471.5877 L 491.91657,471.93206 L 492.08875,457.81352 C 492.08875,457.64134 492.08875,457.64134 492.08875,457.64134 C 492.08875,457.46916 492.08875,457.29699 492.08875,457.12481 C 492.08875,456.26392 492.4331,455.23086 493.29399,454.71433 L 493.29399,454.71433 C 495.53229,453.50909 497.42624,451.78731 498.97584,449.89336 L 498.97584,449.72119 C 500.0089,448.17159 500.52543,446.27764 500.52543,444.38369 C 500.52543,443.35063 500.35326,442.31756 500.18108,441.11232 C 495.87665,427.33814 490.8835,410.80912 486.23472,393.93574 L 485.54601,391.69744 L 481.0694,376.20148 L 480.89722,376.20148 C 478.65892,368.79786 477.97021,360.8777 479.00327,352.95755 C 479.00327,352.44102 479.17545,351.75231 479.17545,351.0636 C 479.17545,347.96441 478.14238,345.20957 476.07626,342.79909 C 472.28836,338.1503 468.32828,333.15716 464.54038,328.16402 C 463.85167,327.30313 463.67949,326.95878 463.50732,326.7866 C 456.44805,316.62814 451.79926,304.74791 450.07749,292.52332 C 449.2166,284.08663 448.87225,275.47777 449.38878,266.8689 C 449.56095,263.59754 449.56095,260.32617 449.56095,257.22698 C 449.56095,248.79029 448.87225,240.52578 447.667,232.26127 C 447.15047,230.02296 446.63394,227.78466 446.11741,225.71853 C 441.98515,212.11653 434.75371,199.89194 425.28396,189.38912 C 431.99887,188.87259 438.71379,190.59436 444.56781,194.21009 C 445.4287,194.72662 446.11741,195.24315 446.80612,195.93186 C 448.70007,197.48146 450.24966,199.37541 451.4549,201.44153 C 457.13676,211.94435 460.92466,223.30805 462.81861,235.18828 C 465.9178,258.08786 467.46739,280.64309 467.46739,303.19831 C 467.46739,305.60879 467.46739,307.8471 467.46739,310.25758 L 509.65083,309.74105 C 508.78994,288.56324 506.72382,267.21326 503.96898,245.86327 C 502.59156,229.33425 496.90971,213.8383 487.26778,200.75282 C 482.27464,193.3492 475.90408,187.323 467.98392,183.01856 C 458.68635,178.36978 448.35571,175.95929 437.68072,175.95929 C 430.79363,175.95929 423.73436,177.16454 416.84727,179.23066 C 407.37752,176.13147 396.18599,172.8601 384.82229,169.58874 C 375.35254,166.66172 366.22715,165.45648 356.7574,165.45648 C 348.83724,165.45648 340.74491,166.31737 332.99693,168.38349 C 321.80541,170.79398 310.61388,172.68793 299.078,174.06534 C 296.49534,163.39035 293.22398,150.47706 289.95261,137.90811 C 288.23083,132.39844 287.19777,129.6436 285.99253,126.71659 C 283.75422,121.72345 282.20463,116.55813 281.34374,111.04846 C 280.65503,105.88314 279.96632,100.37346 279.62197,95.035969 C 278.76108,88.837586 277.21149,82.811381 275.31754,76.957353 C 272.73488,67.65978 269.29133,58.70656 264.9869,50.269873 C 261.199,44.415844 259.99376,37.356576 261.54335,30.986016 C 263.95384,23.75457 265.15908,16.523123 265.33125,8.9473227 C 265.15908,3.0932949 263.95384,-2.9329093 261.54335,-8.6147599 C 260.33811,-10.680887 258.96069,-12.574838 257.23892,-14.124433 C 252.93449,-17.223624 247.76917,-18.77322 242.60385,-18.77322 C 241.22643,-18.77322 239.84902,-18.601043 238.4716,-18.428865 C 234.85588,-17.912334 231.24016,-17.051447 227.79661,-15.846206 C 221.77041,-14.29661 217.63815,-8.9591145 217.63815,-2.760732 C 217.63815,-2.5885548 217.63815,-2.4163775 217.63815,-2.4163775 C 217.63815,-1.8998456 217.63815,-1.555491 217.63815,-1.2111364 C 217.63815,1.0271683 217.98251,3.2654721 218.67122,5.5037769 C 218.84339,7.2255498 219.01557,8.7751454 219.35993,10.496918 C 218.67122,12.563046 218.32686,14.801351 218.32686,17.211833 C 218.32686,18.589251 218.49904,19.966669 218.67122,21.344088 C 219.01557,26.681584 220.39299,32.01908 222.80347,36.840044 C 224.00871,38.561817 225.90266,39.59488 227.96879,39.767058 C 229.69056,39.939235 231.41234,40.111412 233.13411,40.111412 C 233.65064,40.111412 234.16717,40.111412 234.6837,40.111412 C 234.85588,41.48883 235.02806,42.694072 235.02806,44.07149 C 235.02806,47.687213 234.16717,51.475114 232.78975,54.746483 C 225.04178,60.944865 219.70428,69.725907 217.81033,79.367835 C 214.53896,98.996046 211.61195,120.17385 209.718,141.35166 C 199.21518,146.51698 189.2289,152.02665 180.1035,158.39721 C 169.08416,149.09964 159.44223,138.25247 151.69425,126.37224 C 147.04546,119.48514 141.70797,113.28676 136.02612,107.77709 C 129.13903,101.75088 121.56322,96.757742 113.64307,92.453309 L 113.47089,92.281132 z"/>
</svg>