<?xml version="1.0" encoding="UTF-8" standalone="no"?>
<!-- Generator: Adobe Illustrator 11.0, SVG Export Plug-In  -->
<svg xmlns:dc="http://purl.org/dc/elements/1.1/" xmlns:cc="http://creativecommons.org/ns#" xmlns:rdf="http://www.w3.org/1999/02/22-rdf-syntax-ns#" xmlns:svg="http://www.w3.org/2000/svg" xmlns="http://www.w3.org/2000/svg" xmlns:sodipodi="http://sodipodi.sourceforge.net/DTD/sodipodi-0.dtd" xmlns:inkscape="http://www.inkscape.org/namespaces/inkscape" width="359.875" height="208.21875" viewBox="-0.44 -0.04 512 512" xml:space="preserve" id="svg2" sodipodi:version="0.32" inkscape:version="0.46dev+devel" sodipodi:docname="ryanlerch_No_Bicycles_roadsign_frag.svg" inkscape:output_extension="org.inkscape.output.svg.inkscape" inkscape:export-filename="C:\joanna\Gfx\drawings_vector\admin\thumbs\ryanlerch_No_Bicycles_roadsign.png" inkscape:export-xdpi="22.528866" inkscape:export-ydpi="22.528866" version="1.0"><metadata id="metadata27"><rdf:RDF><cc:Work rdf:about=""><dc:format>image/svg+xml</dc:format><dc:type rdf:resource="http://purl.org/dc/dcmitype/StillImage"/></cc:Work></rdf:RDF></metadata><sodipodi:namedview inkscape:window-height="744" inkscape:window-width="1280" inkscape:pageshadow="2" inkscape:pageopacity="0.0" guidetolerance="10.0" gridtolerance="10.0" objecttolerance="10.0" borderopacity="1.0" bordercolor="#666666" pagecolor="#ffffff" id="base" showgrid="false" inkscape:zoom="2.5598079" inkscape:cx="179.9375" inkscape:cy="95.92654" inkscape:window-x="-4" inkscape:window-y="-4" inkscape:current-layer="svg2"/>
	<defs id="defs4">
	
		
		
		
		
		
		
		
		
		
	
	</defs>
	<path style="opacity:1;fill:#000000;fill-opacity:1;fill-rule:nonzero;stroke:none;stroke-width:3;stroke-linecap:round;stroke-linejoin:miter;marker:none;marker-start:none;marker-mid:none;marker-end:none;stroke-miterlimit:4;stroke-dasharray:none;stroke-dashoffset:0;stroke-opacity:1;visibility:visible;display:inline;overflow:visible;enable-background:accumulate" d="M 160.96067,1.8812008 C 129.4615,1.8812252 102.99038,27.572046 102.99038,59.775117 L 102.99038,60.615266 C 103.32906,69.526468 105.03182,75.059159 107.49664,78.563907 L 71.599353,164.71739 L 71.522976,164.64101 L 66.023818,178.15977 L 53.879844,207.41224 C 29.138153,194.29494 2.8171584,186.98001 -25.246928,186.103 L -25.246928,195.95566 C -26.126793,195.95568 -26.811133,195.95566 -27.690998,195.95566 C -114.44574,195.95568 -184.87527,266.33205 -184.87527,352.9108 C -184.87527,440.54536 -114.44572,510.78246 -27.690998,510.78246 C 22.813241,510.78249 69.737583,486.79391 99.47703,446.32011 L 107.03837,452.20115 C 128.50709,423.16557 139.26955,388.45736 139.26955,352.9108 C 139.26957,303.46234 116.90508,255.46205 78.015038,224.13885 L 83.66695,211.30748 L 249.17634,357.49343 C 248.14875,361.19031 247.56369,364.97852 247.41966,369.17914 C 247.22027,370.93777 247.11415,372.71388 247.11415,374.52554 C 247.11415,387.70255 252.51435,399.57893 261.24393,408.13151 L 241.53862,452.20115 L 230.08204,452.20115 L 230.08204,475.19069 L 287.97595,475.19069 L 287.97595,452.20115 L 273.92255,452.20115 L 287.74682,421.11563 C 289.87045,421.40895 292.03502,421.65027 294.23888,421.65027 C 317.15292,421.65027 336.16332,405.22695 340.37071,383.53805 L 367.79012,381.39949 C 381.87564,455.03276 446.93692,510.78246 525.12716,510.78246 C 533.95555,510.78246 542.57667,510.01019 551.01903,508.6439 L 551.55367,509.17854 C 606.92437,500.32993 652.19469,463.18591 672.84065,413.47791 C 673.57119,411.71906 674.31125,409.92118 674.97922,408.13151 C 675.55321,406.63444 676.1301,405.14354 676.65951,403.62526 C 676.68598,403.54937 676.70954,403.47206 676.73589,403.39612 C 676.76168,403.31963 676.78661,403.24354 676.81227,403.16699 C 681.13588,390.64414 683.86339,377.38897 684.90825,363.67998 L 693.76801,364.52013 C 694.6479,360.2968 694.68453,357.13415 694.68453,352.9108 C 694.68453,261.40478 619.32957,186.103 527.6476,186.103 C 503.53929,186.103 479.5764,191.90583 457.22782,201.76033 L 416.82428,130.65316 L 432.48161,95.977908 L 473.11428,76.959986 C 480.50517,74.496363 484.57086,67.813664 484.57086,61.302661 C 484.57088,53.031902 478.92445,46.388944 471.3576,44.805186 L 465.55294,44.805186 C 432.47003,44.805186 396.2336,43.928376 360.68704,43.048511 L 353.27846,43.048511 L 349.00133,43.048511 C 343.1942,43.928376 338.30853,48.811017 338.30853,55.497994 C 338.30855,60.425239 341.66973,64.643705 345.71711,67.107328 C 364.7222,76.961819 383.00202,86.103253 402.00711,94.373987 L 387.9537,124.16109 L 248.41256,124.16109 L 166.53621,124.16109 L 118.57133,124.16109 L 132.62473,90.325996 C 132.66628,90.364979 132.73621,90.362657 132.77749,90.402373 L 134.15228,86.583513 L 137.20737,79.327679 L 136.90186,79.174925 L 137.66563,77.189118 C 123.76376,58.184027 137.02834,30.904536 160.96067,30.904536 C 163.4243,30.904536 165.82926,30.888039 168.29288,31.591931 L 212.97355,43.201265 L 219.54198,15.018079 L 175.70147,3.4087447 L 175.01408,3.4087447 C 170.7907,2.7048525 165.88792,1.8812008 160.96067,1.8812008 z M 107.11475,151.88602 L 194.94853,151.88602 L 195.40679,152.34428 L 375.42784,152.34428 C 375.42784,152.34428 342.85076,224.54593 325.01889,265.84079 L 299.35616,265.84079 L 299.35616,290.81614 L 314.24971,290.81614 C 309.07111,302.7037 303.52994,315.20368 298.2105,327.17168 C 286.41617,325.63148 276.86509,329.98664 266.97222,336.18419 L 93.977872,183.4298 L 107.11475,151.88602 z M 402.00711,163.03709 L 432.48161,215.81373 C 396.93503,240.62593 372.28171,278.62206 363.13112,320.67962 L 367.17911,324.72761 C 365.68715,333.45546 364.88779,342.3892 364.88779,351.53601 C 364.88779,352.33199 364.95244,353.11048 364.96417,353.9037 L 337.54475,356.04226 C 334.72659,349.45268 330.42334,343.65708 325.09527,339.01015 L 345.94625,290.81614 L 357.70833,290.81614 L 357.70833,265.84079 L 356.71543,265.84079 L 366.8736,242.39299 L 402.00711,163.03709 z M 526.50194,236.05369 C 588.83456,235.63685 645.03935,285.85406 645.03935,352.9108 C 645.03935,383.51361 633.41572,411.23607 614.4121,432.03757 C 613.14519,433.42434 611.84793,434.76137 610.51686,436.08556 C 609.77171,436.81089 608.98946,437.5184 608.22555,438.22413 C 607.61448,438.8008 607.01576,439.41725 606.39249,439.9808 C 605.36163,440.89332 604.32337,441.77722 603.26103,442.654 C 582.72993,459.59884 556.41394,469.76791 527.72398,469.76791 C 471.43457,469.76793 424.25186,430.61361 412.01252,378.0389 L 471.05209,373.45626 L 509.31707,371.01219 C 514.42032,375.23557 520.96063,378.57354 527.6476,378.57354 C 540.84558,378.57354 552.47019,366.98864 552.47019,352.9108 C 552.47017,340.59266 543.34953,330.58849 530.85544,329.00473 L 482.96694,244.83706 C 497.38573,238.93097 512.11749,236.14989 526.50194,236.05369 z M -27.538244,236.43557 C -5.1896648,236.43555 16.238722,242.21885 35.243807,254.53697 L 8.8936793,318.92294 C 2.2067029,332.1209 -11.916357,340.42465 -26.698095,339.54479 L -27.538244,339.54479 C -34.929112,339.54481 -41.591648,346.20732 -41.591648,353.59819 C -41.591648,361.86893 -34.929112,368.41537 -27.538244,368.41537 L -26.698095,368.41537 C 0.57773008,368.41534 25.40948,351.88429 36.847729,327.24806 L 58.538853,273.55489 C 78.247811,295.02363 89.853503,323.89846 89.853503,352.75804 C 89.853503,418.04407 37.747757,470.14979 -27.538244,470.14979 C -91.944385,470.14979 -144.01347,418.04405 -144.01347,352.75804 C -144.01349,288.5279 -91.944385,236.43557 -27.538244,236.43557 z M 457.22782,259.65424 L 505.26908,342.21799 L 410.10309,348.71005 C 411.86282,313.16349 429.07211,280.24309 457.22782,259.65424 z" id="path2496"/><path style="fill:none" id="path22" d="M 90.2845,133.07525 L 90.2845,133.07525 M 71.0605,96.21125 C 69.0445,95.92325 66.9565,95.56325 64.9405,95.56325 C 63.9325,95.56325 62.9245,95.56325 61.5565,95.92325"/>
</svg>