<?xml version="1.0" encoding="UTF-8" standalone="no"?>
<!-- Generator: Adobe Illustrator 11.0, SVG Export Plug-In  -->
<svg xmlns:dc="http://purl.org/dc/elements/1.1/" xmlns:cc="http://creativecommons.org/ns#" xmlns:rdf="http://www.w3.org/1999/02/22-rdf-syntax-ns#" xmlns:svg="http://www.w3.org/2000/svg" xmlns="http://www.w3.org/2000/svg" xmlns:sodipodi="http://sodipodi.sourceforge.net/DTD/sodipodi-0.dtd" xmlns:inkscape="http://www.inkscape.org/namespaces/inkscape" width="170.35201" height="229.104" viewBox="-0.808 -0.455 512 454" xml:space="preserve" id="svg2" sodipodi:version="0.32" inkscape:version="0.46dev+devel" sodipodi:docname="ryanlerch_pedestrian_crossing_sign_frag.svg" inkscape:output_extension="org.inkscape.output.svg.inkscape" inkscape:export-filename="C:\joanna\Gfx\drawings_vector\admin\thumbs\ryanlerch_pedestrian_crossing_sign.png" inkscape:export-xdpi="25.384289" inkscape:export-ydpi="25.384289" version="1.0"><metadata id="metadata23"><rdf:RDF><cc:Work rdf:about=""><dc:format>image/svg+xml</dc:format><dc:type rdf:resource="http://purl.org/dc/dcmitype/StillImage"/></cc:Work></rdf:RDF></metadata><sodipodi:namedview inkscape:window-height="643" inkscape:window-width="640" inkscape:pageshadow="2" inkscape:pageopacity="0.0" guidetolerance="10.0" gridtolerance="10.0" objecttolerance="10.0" borderopacity="1.0" bordercolor="#666666" pagecolor="#ffffff" id="base" showgrid="false" inkscape:zoom="1.8856065" inkscape:cx="85.176003" inkscape:cy="132.72122" inkscape:window-x="132" inkscape:window-y="123" inkscape:current-layer="svg2"/>
	<defs id="defs4">
	
		
		
		
		
		
		
		
	</defs>
	<path id="path12" d="M 190.5513,128.63261 L 112.88918,191.06265 L 111.8165,191.70625 C 107.74031,195.13883 105.16588,200.07316 105.16588,205.43657 C 105.16588,215.09069 113.10372,222.81399 122.75785,222.81399 C 126.40496,222.81399 129.83753,221.74132 132.84106,219.59596 L 151.07664,206.72378 L 156.65458,211.65812 L 216.29564,167.03459 L 229.81142,144.29376 L 235.38936,226.24658 L 53.248115,516.51407 L 18.493248,509.00531 L 1.544888,524.45192 L 84.355867,569.50452 L 275.50764,319.14076 L 339.43941,436.063 L 445.84937,533.2479 L 442.63133,546.3346 L 422.89399,551.0544 L 415.38522,567.35915 L 465.80124,567.35915 L 509.13755,501.71108 L 434.04987,425.55073 L 398.43686,378.13822 L 343.94466,262.93227 C 346.94816,254.99444 348.44993,246.41299 348.44993,237.83154 C 348.44993,223.24307 344.1592,208.86915 336.00682,196.85512 C 334.076,192.99347 333.21786,188.48821 333.43239,184.19748 L 331.50156,103.53188 L 361.75117,149.01355 L 376.76871,245.76938 C 378.05592,254.35083 385.35015,260.57238 394.14613,260.57238 C 403.58574,260.57238 411.52357,252.63454 411.52357,242.98041 C 411.52357,242.55133 411.52357,242.12227 411.52357,241.6932 L 409.80727,220.66864 L 414.74162,219.59596 L 404.01479,119.62207 L 361.3221,42.174511 C 358.9622,37.454715 355.52962,33.163991 351.66797,29.516875 C 346.73363,25.440687 341.37023,22.222644 335.36321,19.862745 C 326.13816,15.786557 316.69856,11.281296 307.4735,6.5615 C 302.1101,4.4161379 297.81941,0.55448602 295.67404,-4.5943831 C 293.31415,-11.459543 292.456,-18.753773 292.88508,-26.048004 C 294.38682,-34.200381 296.53219,-42.352757 299.10662,-50.290597 C 300.39383,-55.868538 301.03745,-61.661016 301.03745,-67.453494 C 301.03745,-72.387826 300.60837,-77.322159 299.75024,-82.041965 C 296.96126,-94.914138 287.52167,-105.4264 274.86402,-109.07353 C 268.64247,-111.64796 261.99184,-113.14972 255.34122,-113.14972 C 245.04349,-113.14972 235.17482,-109.93167 226.80791,-103.92466 C 218.87007,-96.844964 214.15028,-86.547225 214.15028,-76.034941 C 214.15028,-72.8169 214.57935,-69.813392 215.22295,-66.809885 C 215.86656,-64.235451 216.08111,-61.875552 216.08111,-59.515654 C 216.08111,-58.0139 216.08111,-56.726683 215.86656,-55.439466 C 214.79389,-51.79235 214.36482,-47.930698 214.36482,-44.069046 C 214.36482,-32.698627 218.65554,-21.75728 226.37884,-13.390367 C 229.81142,-11.245006 234.10214,-10.172325 238.39286,-10.172325 L 238.6074,-10.172325 C 243.3272,-10.601397 247.61793,-7.5978901 249.11968,-3.0926296 C 249.11968,-2.4490209 249.11968,-2.0199486 249.11968,-1.3763399 C 249.11968,0.7690223 248.47607,2.9143844 246.97432,4.630674 C 239.03647,11.495832 230.8841,18.360991 222.73172,24.582543 C 217.15378,28.873267 212.64853,32.949455 208.78687,37.669252 C 205.56883,42.81812 203.63799,48.396062 202.77986,54.188539 L 190.5513,128.63261 z"/>
</svg>