<?xml version="1.0" encoding="UTF-8" standalone="no"?>
<!-- Created with Inkscape (http://www.inkscape.org/) -->
<svg xmlns:dc="http://purl.org/dc/elements/1.1/" xmlns:cc="http://creativecommons.org/ns#" xmlns:rdf="http://www.w3.org/1999/02/22-rdf-syntax-ns#" xmlns:svg="http://www.w3.org/2000/svg" xmlns="http://www.w3.org/2000/svg" xmlns:xlink="http://www.w3.org/1999/xlink" xmlns:sodipodi="http://sodipodi.sourceforge.net/DTD/sodipodi-0.dtd" xmlns:inkscape="http://www.inkscape.org/namespaces/inkscape" height="128.00000pt" id="svg1665" inkscape:version="0.46" sodipodi:docbase="/home/andy/Desktop/etiquette-icons-0.4/scalable/apps" sodipodi:docname="gaim.svg" sodipodi:version="0.32" width="128.00000pt" inkscape:output_extension="org.inkscape.output.svg.inkscape" inkscape:export-filename="C:\Documents and Settings\HP_Owner.WINXPMAIN\Desktop\Gaim.png" inkscape:export-xdpi="90" inkscape:export-ydpi="90">
  <metadata id="metadata3">
    <rdf:RDF>
      <cc:Work rdf:about="">
        <dc:title>Etiquette Icons</dc:title>
        <dc:description/>
        <dc:subject>
          <rdf:Bag>
            <rdf:li>hash</rdf:li>
            <rdf:li/>
            <rdf:li>application</rdf:li>
            <rdf:li>computer</rdf:li>
            <rdf:li>icons</rdf:li>
          </rdf:Bag>
        </dc:subject>
        <dc:publisher>
          <cc:Agent rdf:about="http://www.openclipart.org">
            <dc:title>Andy Fitzsimon</dc:title>
          </cc:Agent>
        </dc:publisher>
        <dc:creator>
          <cc:Agent>
            <dc:title>Andy Fitzsimon</dc:title>
          </cc:Agent>
        </dc:creator>
        <dc:rights>
          <cc:Agent>
            <dc:title>Andy Fitzsimon</dc:title>
          </cc:Agent>
        </dc:rights>
        <dc:date/>
        <dc:format>image/svg+xml</dc:format>
        <dc:type rdf:resource="http://purl.org/dc/dcmitype/StillImage"/>
        <cc:license rdf:resource="http://web.resource.org/cc/PublicDomain"/>
        <dc:language>en</dc:language>
      </cc:Work>
      <cc:License rdf:about="http://web.resource.org/cc/PublicDomain">
        <cc:permits rdf:resource="http://web.resource.org/cc/Reproduction"/>
        <cc:permits rdf:resource="http://web.resource.org/cc/Distribution"/>
        <cc:permits rdf:resource="http://web.resource.org/cc/DerivativeWorks"/>
      </cc:License>
    </rdf:RDF>
  </metadata>
  <defs id="defs1667">
    <inkscape:perspective sodipodi:type="inkscape:persp3d" inkscape:vp_x="0 : 80 : 1" inkscape:vp_y="0 : 1000 : 0" inkscape:vp_z="160 : 80 : 1" inkscape:persp3d-origin="80 : 53.333333 : 1" id="perspective66"/>
    <radialGradient cx="0.49032259" cy="0.50649351" fx="0.49027237" fy="0.095238097" id="radialGradient1502" r="0.46014288" xlink:href="#linearGradient1806"/>
    <linearGradient id="linearGradient1806">
      <stop id="stop1807" offset="0.0000000" style="stop-color:#000000;stop-opacity:0.40677965;"/>
      <stop id="stop3276" offset="0.64777780" style="stop-color:#000000;stop-opacity:0.073446326;"/>
      <stop id="stop1808" offset="1.0000000" style="stop-color:#000000;stop-opacity:0.0000000;"/>
    </linearGradient>
    <radialGradient cx="0.49032259" cy="0.50649351" fx="0.50977784" fy="0.15800871" id="radialGradient1505" r="0.46014288" xlink:href="#linearGradient1806"/>
    <linearGradient id="linearGradient1630">
      <stop id="stop1631" offset="0.0000000" style="stop-color:#000000;stop-opacity:1.0000000;"/>
      <stop id="stop1632" offset="1.0000000" style="stop-color:#000000;stop-opacity:0.0000000;"/>
    </linearGradient>
    <linearGradient id="linearGradient1610">
      <stop id="stop1611" offset="0.0000000" style="stop-color:#ffffff;stop-opacity:1.0000000;"/>
      <stop id="stop1612" offset="1.0000000" style="stop-color:#ffffff;stop-opacity:0.0000000;"/>
    </linearGradient>
    <linearGradient id="linearGradient2256">
      <stop id="stop2257" offset="0.0000000" style="stop-color:#ffffff;stop-opacity:1.0000000;"/>
      <stop id="stop2258" offset="1.0000000" style="stop-color:#d5d0c4;stop-opacity:1.0000000;"/>
    </linearGradient>
    <radialGradient cx="0.43578830" cy="0.16460779" fx="0.43578830" fy="0.16460779" id="radialGradient2259" r="0.76341456" xlink:href="#linearGradient2256"/>
    <radialGradient cx="0.49571922" cy="0.26600543" fx="0.49571922" fy="0.26600543" id="radialGradient2260" r="0.68776125" xlink:href="#linearGradient2256"/>
    <linearGradient id="linearGradient2261" x1="0.57198441" x2="1.2256809" xlink:href="#linearGradient1630" y1="0.58333331" y2="-0.041666668"/>
    <linearGradient gradientTransform="scale(0.938077,1.066011)" id="linearGradient1618" x1="1.5773774" x2="1.5688047" xlink:href="#linearGradient1610" y1="-5.0687113" y2="0.69029289"/>
    <linearGradient id="linearGradient1639" x1="0.45485944" x2="0.44739175" xlink:href="#linearGradient1610" y1="-4.3833332" y2="0.63333333"/>
    <linearGradient id="linearGradient1642" x1="0.74125874" x2="0.68531471" xlink:href="#linearGradient1610" y1="0.046875000" y2="0.77343750"/>
    <linearGradient id="linearGradient1644" x1="0.55244756" x2="0.51048952" xlink:href="#linearGradient1610" y1="1.3593750" y2="0.40625000"/>
    <linearGradient id="linearGradient1648" x1="1.7333333" x2="0.86153847" xlink:href="#linearGradient1630" y1="-0.60156250" y2="0.59375000"/>
    <linearGradient id="linearGradient1654" x1="0.77114427" x2="0.68159205" xlink:href="#linearGradient1610" y1="1.1250000" y2="0.32031250"/>
    <linearGradient gradientTransform="scale(0.939661,1.064214)" id="linearGradient1655" x1="0.48754621" x2="0.56094027" xlink:href="#linearGradient1610" y1="0.88093203" y2="0.33769059"/>
    <linearGradient id="linearGradient1679" x1="0.69827586" x2="0.69649804" xlink:href="#linearGradient2256" y1="-0.19417475" y2="0.94805193"/>
    <linearGradient id="linearGradient1680" x1="0.57976651" x2="0.61089492" xlink:href="#linearGradient1806" y1="1.8333334" y2="0.29166666"/>
    <linearGradient id="linearGradient1700" x1="1.5038168" x2="0.42748091" xlink:href="#linearGradient1610" y1="-0.74218750" y2="1.2421875"/>
    <linearGradient id="linearGradient1702" x1="1.1862069" x2="0.50344825" xlink:href="#linearGradient1610" y1="-0.96875000" y2="0.78906250"/>
    <linearGradient id="linearGradient1734" x1="0.89883268" x2="0.56420231" xlink:href="#linearGradient1630" y1="5.0686274" y2="0.39215687"/>
    <linearGradient id="linearGradient1735" x1="0.57198441" x2="0.52529180" xlink:href="#linearGradient1630" y1="5.2058825" y2="0.28431374"/>
  </defs>
  <sodipodi:namedview bordercolor="#666666" borderopacity="1.0" id="base" inkscape:cx="45.537245" inkscape:cy="-20.980511" inkscape:pageopacity="0.0" inkscape:pageshadow="2" inkscape:window-height="667" inkscape:window-width="573" inkscape:window-x="22" inkscape:window-y="29" inkscape:zoom="4.0830896" pagecolor="#ffffff" showborder="false" showgrid="false" inkscape:current-layer="svg1665"/>
  <path d="M 82.055313 175.83524 A 56.143108 56.143108 0 1 0 -30.230904,175.83524 A 56.143108 56.143108 0 1 0 82.055313 175.83524 z" id="path3277" sodipodi:cx="25.912205" sodipodi:cy="175.83524" sodipodi:rx="56.143108" sodipodi:ry="56.143108" sodipodi:type="arc" style="fill:url(#radialGradient1502);fill-opacity:1;fill-rule:evenodd;stroke-width:1.0000000pt;" transform="matrix(0.789727,0.000000,0.000000,0.372308,69.82453,70.90444)"/>
  <path d="M 82.055313 175.83524 A 56.143108 56.143108 0 1 0 -30.230904,175.83524 A 56.143108 56.143108 0 1 0 82.055313 175.83524 z" id="path1809" sodipodi:cx="25.912205" sodipodi:cy="175.83524" sodipodi:rx="56.143108" sodipodi:ry="56.143108" sodipodi:type="arc" style="fill:url(#radialGradient1505);fill-opacity:1;fill-rule:evenodd;stroke-width:1.0000000pt;" transform="matrix(1.088458,0.000000,0.000000,0.266685,62.96732,82.54079)"/>
  <path d="M 134.37125 77.576401 A 79.653061 79.653061 0 1 0 -24.934872,77.576401 A 79.653061 79.653061 0 1 0 134.37125 77.576401 z" id="path1628" sodipodi:cx="54.718189" sodipodi:cy="77.576401" sodipodi:rx="79.653061" sodipodi:ry="79.653061" sodipodi:type="arc" style="fill:#d7ba4a;fill-rule:evenodd;stroke:#d1940c;stroke-width:1.0000000pt;fill-opacity:1.0000000;" transform="matrix(0.538352,0.000000,0.000000,0.538352,69.83630,40.79528)"/>
  <path d="M 134.37125 77.576401 A 79.653061 79.653061 0 1 0 -24.934872,77.576401 A 79.653061 79.653061 0 1 0 134.37125 77.576401 z" id="path1641" sodipodi:cx="54.718189" sodipodi:cy="77.576401" sodipodi:rx="79.653061" sodipodi:ry="79.653061" sodipodi:type="arc" style="fill:url(#linearGradient1642);fill-rule:evenodd;stroke-width:1.0000000pt;" transform="matrix(0.460919,0.000000,0.000000,0.412983,73.77969,41.05114)"/>
  <path d="M 134.37125 77.576401 A 79.653061 79.653061 0 1 0 -24.934872,77.576401 A 79.653061 79.653061 0 1 0 134.37125 77.576401 z" id="path1643" sodipodi:cx="54.718189" sodipodi:cy="77.576401" sodipodi:rx="79.653061" sodipodi:ry="79.653061" sodipodi:type="arc" style="fill:url(#linearGradient1644);fill-rule:evenodd;stroke-width:1.0000000pt;" transform="matrix(0.460919,0.000000,0.000000,0.412983,75.49153,59.05950)"/>
  <path d="M 106.37342 47.519009 A 17.304768 17.304768 0 1 0 71.763889,47.519009 A 17.304768 17.304768 0 1 0 106.37342 47.519009 z" id="path1669" sodipodi:cx="89.068657" sodipodi:cy="47.519009" sodipodi:rx="17.304768" sodipodi:ry="17.304768" sodipodi:type="arc" style="fill:url(#radialGradient2260);fill-rule:evenodd;stroke:#000000;stroke-width:1.0000000pt;stroke-opacity:0.20496894;" transform="matrix(0.848090,0.000000,0.000000,0.932955,42.90194,25.36382)"/>
  <path d="M 106.37342 47.519009 A 17.304768 17.304768 0 1 0 71.763889,47.519009 A 17.304768 17.304768 0 1 0 106.37342 47.519009 z" id="path1635" sodipodi:cx="89.068657" sodipodi:cy="47.519009" sodipodi:rx="17.304768" sodipodi:ry="17.304768" sodipodi:type="arc" style="fill:url(#radialGradient2259);fill-rule:evenodd;stroke:#000000;stroke-width:1.0000000pt;stroke-opacity:0.27950308;" transform="matrix(0.848090,0.000000,0.000000,0.932955,17.88155,24.42144)"/>
  <path d="M 76.950976,96.656826 C 91.146899,104.19534 123.84647,100.37713 133.93048,94.307153 C 136.37806,98.223275 122.96535,120.44722 103.38476,120.74093 C 84.391598,121.03464 75.090821,104.97857 76.950976,96.656826 z " id="path1629" sodipodi:nodetypes="cczc" style="fill:url(#linearGradient2261);fill-rule:evenodd;stroke-width:1.0000000pt;"/>
  <path d="M 104.90387,73.904833 C 112.53331,81.876914 123.96545,79.409823 130.33132,75.512534 C 132.43903,77.509708 125.91520,85.802322 117.38406,85.411571 C 109.15315,85.034572 102.39471,75.511257 104.90387,73.904833 z " id="path1634" sodipodi:nodetypes="cczc" style="fill:url(#linearGradient1639);fill-opacity:1;fill-rule:evenodd;stroke-width:1.0000000pt;"/>
  <path d="M 80.147805,74.273700 C 84.464529,77.637061 96.568512,79.856416 104.23192,76.232803 C 106.28789,77.734783 99.924191,83.971263 91.602446,83.677398 C 83.573571,83.393874 80.049900,75.481814 80.147805,74.273700 z " id="path1636" sodipodi:nodetypes="cczc" style="fill:url(#linearGradient1618);fill-opacity:1;fill-rule:evenodd;stroke-width:1.0000000pt;"/>
  <g id="g1649" style="" transform="matrix(0.734808,0.000000,0.000000,0.749449,44.56496,33.80855)">
    <path d="M 68.955569,111.88645 C 64.502101,109.37360 70.643904,104.08768 76.089948,102.36782 C 78.970854,101.45803 81.441220,101.12519 84.323477,103.01184 C 86.715968,101.71502 89.520350,102.14793 91.110224,103.25941 C 94.289970,105.48236 98.392132,109.16771 96.080693,110.50118 C 91.132591,113.35576 73.605475,114.51015 68.955569,111.88645 z " id="path1645" sodipodi:nodetypes="czcszz" style="fill:#990000;fill-rule:evenodd;stroke-width:1.0000000pt;fill-opacity:1.0000000;"/>
    <path d="M 70.036696,107.10515 C 70.485649,105.02364 77.872970,100.45248 81.056456,100.98306 C 84.239942,101.51364 89.586567,108.20713 89.137614,110.28864 C 88.688661,112.37015 81.546223,114.00270 78.362737,113.47212 C 75.179251,112.94154 69.587743,109.18666 70.036696,107.10515 z " id="path1647" sodipodi:nodetypes="czzzz" style="fill:url(#linearGradient1648);fill-opacity:1;fill-rule:evenodd;stroke-width:1.0000000pt;"/>
  </g>
  <path d="M 105.33961,72.007247 C 112.96904,65.722727 129.68794,67.934189 130.76706,73.819892 C 132.87475,76.071658 126.35093,85.421388 117.81980,84.980825 C 109.58888,84.555767 102.83044,73.818452 105.33961,72.007247 z " id="path1652" sodipodi:nodetypes="cczc" style="fill:url(#linearGradient1655);fill-opacity:1;fill-rule:evenodd;stroke-width:1.0000000pt;"/>
  <path d="M 80.289827,70.907571 C 89.012183,67.138657 98.766496,65.766575 105.25507,73.257240 C 107.31104,75.509007 100.94734,84.858736 92.625594,84.418173 C 84.596720,83.993115 77.842253,72.718775 80.289827,70.907571 z " id="path1653" sodipodi:nodetypes="cczc" style="fill:url(#linearGradient1654);fill-opacity:1;fill-rule:evenodd;stroke-width:1.0000000pt;"/>
  <g id="g1950" style="" transform="matrix(0.791890,0.000000,0.000000,0.791890,26.38622,8.164875)">
    <path d="M 149.26291 50.909943 A 6.0605588 7.2726703 0 1 0 137.14179,50.909943 A 6.0605588 7.2726703 0 1 0 149.26291 50.909943 z" id="path1638" sodipodi:cx="143.20235" sodipodi:cy="50.909943" sodipodi:rx="6.0605588" sodipodi:ry="7.2726703" sodipodi:type="arc" style="fill-rule:evenodd;stroke-width:1.0000000pt;" transform="matrix(1.223966,0.000000,0.000000,1.300464,-88.30561,4.000870)"/>
    <path d="M 93.852081,78.961672 C 93.852081,78.961672 99.220005,79.134831 99.739481,82.251690 C 101.29791,82.251689 99.912639,75.844813 97.315257,75.844813 C 94.717876,75.844813 93.852081,78.961672 93.852081,78.961672 z " id="path1699" sodipodi:nodetypes="cczc" style="fill:url(#linearGradient1700);fill-rule:evenodd;stroke-width:1.0000000pt;" transform="matrix(1.070970,0.000000,0.000000,1.070970,-15.84809,-18.82436)"/>
  </g>
  <path d="M 37.456816,2.9952212 C 25.394046,2.9952212 15.504302,8.5429884 12.541619,22.256179 C 9.6097912,35.826549 8.4304083,52.290782 26.440206,79.305478 C 21.645561,64.276437 25.394046,56.595107 37.456816,56.595107 L 74.421248,56.595107 C 86.484018,56.595107 96.195195,46.883924 96.195195,34.821155 L 96.195195,24.769174 C 96.195195,12.706404 86.484018,2.9952212 74.421248,2.9952212 L 37.456816,2.9952212 z " id="rect1944" sodipodi:nodetypes="czccccccc" style="fill:url(#linearGradient1679);fill-rule:evenodd;stroke-width:1.4810239;stroke-opacity:0.45962730;"/>
  <g id="g1947" style="" transform="matrix(0.791890,0.000000,0.000000,0.791890,28.77825,9.360885)">
    <path d="M 149.26291 50.909943 A 6.0605588 7.2726703 0 1 0 137.14179,50.909943 A 6.0605588 7.2726703 0 1 0 149.26291 50.909943 z" id="path1637" sodipodi:cx="143.20235" sodipodi:cy="50.909943" sodipodi:rx="6.0605588" sodipodi:ry="7.2726703" sodipodi:type="arc" style="fill-rule:evenodd;stroke-width:1.0000000pt;" transform="matrix(1.223966,0.000000,0.000000,1.300464,-56.77949,3.815442)"/>
    <path d="M 122.44192,78.528774 C 122.44192,78.528774 128.37810,78.701933 128.95258,81.818792 C 130.67599,81.818791 129.14407,75.411915 126.27171,75.411915 C 123.39936,75.411915 122.44192,78.528774 122.44192,78.528774 z " id="path1701" sodipodi:nodetypes="cczc" style="fill:url(#linearGradient1702);fill-rule:evenodd;stroke-width:1.0000000pt;" transform="matrix(1.070970,0.000000,0.000000,1.070970,-15.84809,-18.82436)"/>
  </g>
  <path d="M 23.385963,43.092067 C 34.484790,58.273477 93.705775,54.342591 90.340804,36.965776 C 86.848242,18.930079 12.615154,28.359328 23.385963,43.092067 z " id="path2657" sodipodi:nodetypes="czz" style="fill:url(#linearGradient1680);fill-rule:evenodd;stroke-width:1.4810239;stroke-opacity:0.12422360;"/>
  <path style="font-size:12px;stroke-width:1pt;font-family:helvetica" d="M -0.95690901,172.42615 L -2.084909,172.42615 L -2.084909,181.17415 L -0.95690901,181.17415 L -0.95690901,172.42615 M 0.88321599,174.88615 L 0.88321599,181.17415 L 1.891216,181.17415 L 1.891216,177.70615 C 1.891216,176.42215 2.563217,175.58215 3.595216,175.58215 C 4.3872152,175.58215 4.891216,176.06215 4.891216,176.81815 L 4.891216,181.17415 L 5.887216,181.17415 L 5.887216,176.42215 C 5.887216,175.37815 5.1072148,174.70615 3.895216,174.70615 C 2.9592169,174.70615 2.3592154,175.06615 1.807216,175.94215 L 1.807216,174.88615 L 0.88321599,174.88615 M 11.978903,176.63815 C 11.966904,175.40215 11.150902,174.70615 9.6989035,174.70615 C 8.234905,174.70615 7.2869035,175.46215 7.2869035,176.62615 C 7.2869035,177.61015 7.790905,178.07815 9.2789035,178.43815 L 10.214903,178.66615 C 10.910903,178.83415 11.186903,179.08615 11.186903,179.54215 C 11.186903,180.13015 10.598903,180.52615 9.7229035,180.52615 C 9.182904,180.52615 8.7269032,180.37015 8.4749035,180.10615 C 8.3189036,179.92615 8.2469034,179.74615 8.1869035,179.30215 L 7.1309035,179.30215 C 7.1789034,180.75415 7.9949051,181.45015 9.6389035,181.45015 C 11.222902,181.45015 12.230903,180.67015 12.230903,179.45815 C 12.230903,178.52215 11.702902,178.00615 10.454903,177.70615 L 9.4949035,177.47815 C 8.6789043,177.28615 8.3309035,177.02215 8.3309035,176.57815 C 8.3309035,176.00215 8.8469043,175.63015 9.6629035,175.63015 C 10.466903,175.63015 10.898904,175.97815 10.922903,176.63815 L 11.978903,176.63815 M 15.770903,174.88615 L 14.738903,174.88615 L 14.738903,173.15815 L 13.742903,173.15815 L 13.742903,174.88615 L 12.890903,174.88615 L 12.890903,175.70215 L 13.742903,175.70215 L 13.742903,180.45415 C 13.742903,181.09015 14.174904,181.45015 14.954903,181.45015 C 15.194903,181.45015 15.434904,181.42615 15.770903,181.36615 L 15.770903,180.52615 C 15.638904,180.56215 15.482903,180.57415 15.290903,180.57415 C 14.858904,180.57415 14.738903,180.45415 14.738903,180.01015 L 14.738903,175.70215 L 15.770903,175.70215 L 15.770903,174.88615 M 22.471028,180.58615 C 22.363029,180.61015 22.315028,180.61015 22.255028,180.61015 C 21.907029,180.61015 21.715028,180.43015 21.715028,180.11815 L 21.715028,176.42215 C 21.715028,175.30615 20.899027,174.70615 19.351028,174.70615 C 18.439029,174.70615 17.683028,174.97015 17.263028,175.43815 C 16.975029,175.76215 16.855028,176.12215 16.831028,176.74615 L 17.839028,176.74615 C 17.923028,175.97815 18.379029,175.63015 19.315028,175.63015 C 20.215028,175.63015 20.719028,175.96615 20.719028,176.56615 L 20.719028,176.83015 C 20.719028,177.25015 20.467028,177.43015 19.675028,177.52615 C 18.25903,177.70615 18.043028,177.75415 17.659028,177.91015 C 16.927029,178.21015 16.555028,178.77415 16.555028,179.59015 C 16.555028,180.73015 17.34703,181.45015 18.619028,181.45015 C 19.411028,181.45015 20.047029,181.17415 20.755028,180.52615 C 20.827028,181.16215 21.139029,181.45015 21.787028,181.45015 C 21.991028,181.45015 22.147029,181.42615 22.471028,181.34215 L 22.471028,180.58615 M 20.719028,179.19415 C 20.719028,179.53015 20.623028,179.73415 20.323028,180.01015 C 19.915029,180.38215 19.423028,180.57415 18.835028,180.57415 C 18.055029,180.57415 17.599028,180.20215 17.599028,179.56615 C 17.599028,178.90615 18.04303,178.57015 19.111028,178.41415 C 20.167027,178.27015 20.383029,178.22215 20.719028,178.06615 L 20.719028,179.19415 M 23.570716,174.88615 L 23.570716,181.17415 L 24.578716,181.17415 L 24.578716,177.70615 C 24.578716,176.42215 25.250717,175.58215 26.282716,175.58215 C 27.074715,175.58215 27.578716,176.06215 27.578716,176.81815 L 27.578716,181.17415 L 28.574716,181.17415 L 28.574716,176.42215 C 28.574716,175.37815 27.794715,174.70615 26.582716,174.70615 C 25.646717,174.70615 25.046715,175.06615 24.494716,175.94215 L 24.494716,174.88615 L 23.570716,174.88615 M 32.458403,174.88615 L 31.426403,174.88615 L 31.426403,173.15815 L 30.430403,173.15815 L 30.430403,174.88615 L 29.578403,174.88615 L 29.578403,175.70215 L 30.430403,175.70215 L 30.430403,180.45415 C 30.430403,181.09015 30.862404,181.45015 31.642403,181.45015 C 31.882403,181.45015 32.122404,181.42615 32.458403,181.36615 L 32.458403,180.52615 C 32.326404,180.56215 32.170403,180.57415 31.978403,180.57415 C 31.546404,180.57415 31.426403,180.45415 31.426403,180.01015 L 31.426403,175.70215 L 32.458403,175.70215 L 32.458403,174.88615 M 41.682653,181.17415 L 44.142653,173.84215 L 44.142653,181.17415 L 45.198653,181.17415 L 45.198653,172.42615 L 43.650653,172.42615 L 41.106653,180.04615 L 38.514653,172.42615 L 36.966653,172.42615 L 36.966653,181.17415 L 38.022653,181.17415 L 38.022653,173.84215 L 40.506653,181.17415 L 41.682653,181.17415 M 52.230466,178.36615 C 52.230466,177.40615 52.158466,176.83015 51.978466,176.36215 C 51.570466,175.33015 50.610465,174.70615 49.434466,174.70615 C 47.682468,174.70615 46.554466,176.05015 46.554466,178.11415 C 46.554466,180.17815 47.646468,181.45015 49.410466,181.45015 C 50.850465,181.45015 51.846466,180.63415 52.098466,179.26615 L 51.090466,179.26615 C 50.814466,180.09415 50.250465,180.52615 49.446466,180.52615 C 48.810467,180.52615 48.270466,180.23815 47.934466,179.71015 C 47.694466,179.35015 47.610466,178.99015 47.598466,178.36615 L 52.230466,178.36615 M 47.622466,177.55015 C 47.706466,176.38615 48.414467,175.63015 49.422466,175.63015 C 50.406465,175.63015 51.162466,176.44615 51.162466,177.47815 C 51.162466,177.50215 51.162466,177.52615 51.150466,177.55015 L 47.622466,177.55015 M 58.010153,176.63815 C 57.998154,175.40215 57.182152,174.70615 55.730153,174.70615 C 54.266155,174.70615 53.318153,175.46215 53.318153,176.62615 C 53.318153,177.61015 53.822155,178.07815 55.310153,178.43815 L 56.246153,178.66615 C 56.942153,178.83415 57.218153,179.08615 57.218153,179.54215 C 57.218153,180.13015 56.630153,180.52615 55.754153,180.52615 C 55.214154,180.52615 54.758153,180.37015 54.506153,180.10615 C 54.350154,179.92615 54.278153,179.74615 54.218153,179.30215 L 53.162153,179.30215 C 53.210153,180.75415 54.026155,181.45015 55.670153,181.45015 C 57.254152,181.45015 58.262153,180.67015 58.262153,179.45815 C 58.262153,178.52215 57.734152,178.00615 56.486153,177.70615 L 55.526153,177.47815 C 54.710154,177.28615 54.362153,177.02215 54.362153,176.57815 C 54.362153,176.00215 54.878154,175.63015 55.694153,175.63015 C 56.498153,175.63015 56.930154,175.97815 56.954153,176.63815 L 58.010153,176.63815 M 64.010153,176.63815 C 63.998154,175.40215 63.182152,174.70615 61.730153,174.70615 C 60.266155,174.70615 59.318153,175.46215 59.318153,176.62615 C 59.318153,177.61015 59.822155,178.07815 61.310153,178.43815 L 62.246153,178.66615 C 62.942153,178.83415 63.218153,179.08615 63.218153,179.54215 C 63.218153,180.13015 62.630153,180.52615 61.754153,180.52615 C 61.214154,180.52615 60.758153,180.37015 60.506153,180.10615 C 60.350154,179.92615 60.278153,179.74615 60.218153,179.30215 L 59.162153,179.30215 C 59.210153,180.75415 60.026155,181.45015 61.670153,181.45015 C 63.254152,181.45015 64.262153,180.67015 64.262153,179.45815 C 64.262153,178.52215 63.734152,178.00615 62.486153,177.70615 L 61.526153,177.47815 C 60.710154,177.28615 60.362153,177.02215 60.362153,176.57815 C 60.362153,176.00215 60.878154,175.63015 61.694153,175.63015 C 62.498153,175.63015 62.930154,175.97815 62.954153,176.63815 L 64.010153,176.63815 M 71.174153,180.58615 C 71.066154,180.61015 71.018153,180.61015 70.958153,180.61015 C 70.610154,180.61015 70.418153,180.43015 70.418153,180.11815 L 70.418153,176.42215 C 70.418153,175.30615 69.602152,174.70615 68.054153,174.70615 C 67.142154,174.70615 66.386153,174.97015 65.966153,175.43815 C 65.678154,175.76215 65.558153,176.12215 65.534153,176.74615 L 66.542153,176.74615 C 66.626153,175.97815 67.082154,175.63015 68.018153,175.63015 C 68.918153,175.63015 69.422153,175.96615 69.422153,176.56615 L 69.422153,176.83015 C 69.422153,177.25015 69.170153,177.43015 68.378153,177.52615 C 66.962155,177.70615 66.746153,177.75415 66.362153,177.91015 C 65.630154,178.21015 65.258153,178.77415 65.258153,179.59015 C 65.258153,180.73015 66.050155,181.45015 67.322153,181.45015 C 68.114153,181.45015 68.750154,181.17415 69.458153,180.52615 C 69.530153,181.16215 69.842154,181.45015 70.490153,181.45015 C 70.694153,181.45015 70.850154,181.42615 71.174153,181.34215 L 71.174153,180.58615 M 69.422153,179.19415 C 69.422153,179.53015 69.326153,179.73415 69.026153,180.01015 C 68.618154,180.38215 68.126153,180.57415 67.538153,180.57415 C 66.758154,180.57415 66.302153,180.20215 66.302153,179.56615 C 66.302153,178.90615 66.746155,178.57015 67.814153,178.41415 C 68.870152,178.27015 69.086154,178.22215 69.422153,178.06615 L 69.422153,179.19415 M 76.377841,174.88615 L 76.377841,175.79815 C 75.873841,175.05415 75.26184,174.70615 74.457841,174.70615 C 72.861843,174.70615 71.781841,176.09815 71.781841,178.13815 C 71.781841,179.17015 72.057842,180.01015 72.573841,180.61015 C 73.041841,181.13815 73.713842,181.45015 74.373841,181.45015 C 75.16584,181.45015 75.717842,181.11415 76.281841,180.32215 L 76.281841,180.64615 C 76.281841,181.49815 76.173841,182.01415 75.921841,182.36215 C 75.657841,182.73415 75.14184,182.95015 74.529841,182.95015 C 74.073841,182.95015 73.665841,182.83015 73.389841,182.61415 C 73.161841,182.43415 73.065841,182.26615 73.005841,181.89415 L 71.985841,181.89415 C 72.093841,183.08215 73.017842,183.79015 74.493841,183.79015 C 75.42984,183.79015 76.233841,183.49015 76.641841,182.98615 C 77.121841,182.41015 77.301841,181.61815 77.301841,180.14215 L 77.301841,174.88615 L 76.377841,174.88615 M 74.565841,175.63015 C 75.64584,175.63015 76.281841,176.54215 76.281841,178.11415 C 76.281841,179.61415 75.63384,180.52615 74.577841,180.52615 C 73.485842,180.52615 72.825841,179.60215 72.825841,178.07815 C 72.825841,176.56615 73.497842,175.63015 74.565841,175.63015 M 79.913528,174.88615 L 78.917528,174.88615 L 78.917528,181.17415 L 79.913528,181.17415 L 79.913528,174.88615 M 79.913528,172.42615 L 78.905528,172.42615 L 78.905528,173.68615 L 79.913528,173.68615 L 79.913528,172.42615 M 81.625403,174.88615 L 81.625403,181.17415 L 82.633403,181.17415 L 82.633403,177.70615 C 82.633403,176.42215 83.305405,175.58215 84.337403,175.58215 C 85.129403,175.58215 85.633403,176.06215 85.633403,176.81815 L 85.633403,181.17415 L 86.629403,181.17415 L 86.629403,176.42215 C 86.629403,175.37815 85.849402,174.70615 84.637403,174.70615 C 83.701404,174.70615 83.101403,175.06615 82.549403,175.94215 L 82.549403,174.88615 L 81.625403,174.88615 M 92.409091,174.88615 L 92.409091,175.79815 C 91.905091,175.05415 91.29309,174.70615 90.489091,174.70615 C 88.893093,174.70615 87.813091,176.09815 87.813091,178.13815 C 87.813091,179.17015 88.089092,180.01015 88.605091,180.61015 C 89.073091,181.13815 89.745092,181.45015 90.405091,181.45015 C 91.19709,181.45015 91.749092,181.11415 92.313091,180.32215 L 92.313091,180.64615 C 92.313091,181.49815 92.205091,182.01415 91.953091,182.36215 C 91.689091,182.73415 91.17309,182.95015 90.561091,182.95015 C 90.105091,182.95015 89.697091,182.83015 89.421091,182.61415 C 89.193091,182.43415 89.097091,182.26615 89.037091,181.89415 L 88.017091,181.89415 C 88.125091,183.08215 89.049092,183.79015 90.525091,183.79015 C 91.46109,183.79015 92.265091,183.49015 92.673091,182.98615 C 93.153091,182.41015 93.333091,181.61815 93.333091,180.14215 L 93.333091,174.88615 L 92.409091,174.88615 M 90.597091,175.63015 C 91.67709,175.63015 92.313091,176.54215 92.313091,178.11415 C 92.313091,179.61415 91.66509,180.52615 90.609091,180.52615 C 89.517092,180.52615 88.857091,179.60215 88.857091,178.07815 C 88.857091,176.56615 89.529092,175.63015 90.597091,175.63015" id="text1232"/>
  <path transform="scale(0.246729,0.246729)" style="font-size:12px;stroke-width:1pt;font-family:helvetica" d="M 12.646102,749.67669 C 12.634102,747.96069 11.4581,746.96469 9.4421015,746.96469 C 7.5221034,746.96469 6.3341015,747.94869 6.3341015,749.53269 C 6.3341015,750.60069 6.8981027,751.27269 8.0501015,751.57269 L 10.222102,752.14869 C 11.3261,752.43669 11.830102,752.88069 11.830102,753.56469 C 11.830102,754.03269 11.578101,754.51269 11.206102,754.77669 C 10.858102,755.01669 10.306101,755.14869 9.5981015,755.14869 C 8.6501025,755.14869 8.0021011,754.92069 7.5821015,754.41669 C 7.2581018,754.03269 7.1141015,753.61269 7.1261015,753.07269 L 6.0701015,753.07269 C 6.0821015,753.87669 6.2381019,754.40469 6.5861015,754.88469 C 7.1861009,755.70069 8.1941029,756.13269 9.5261015,756.13269 C 10.5701,756.13269 11.422102,755.89269 11.986102,755.46069 C 12.574101,754.99269 12.946102,754.21269 12.946102,753.45669 C 12.946102,752.37669 12.2741,751.58469 11.086102,751.26069 L 8.8901015,750.67269 C 7.8341026,750.38469 7.4501015,750.04869 7.4501015,749.37669 C 7.4501015,748.48869 8.2301027,747.90069 9.4061015,747.90069 C 10.7981,747.90069 11.578102,748.53669 11.590102,749.67669 L 12.646102,749.67669 M 18.213727,755.85669 L 21.249727,747.10869 L 20.061727,747.10869 L 17.637727,754.51269 L 15.069727,747.10869 L 13.869727,747.10869 L 17.013727,755.85669 L 18.213727,755.85669 M 30.033352,751.23669 L 26.385352,751.23669 L 26.385352,752.22069 L 29.049352,752.22069 L 29.049352,752.46069 C 29.049352,754.02069 27.89735,755.14869 26.301352,755.14869 C 25.413352,755.14869 24.609351,754.82469 24.093352,754.26069 C 23.517352,753.63669 23.169352,752.59269 23.169352,751.51269 C 23.169352,749.36469 24.393353,747.94869 26.241352,747.94869 C 27.57335,747.94869 28.533352,748.63269 28.773352,749.76069 L 29.913352,749.76069 C 29.601352,747.98469 28.25735,746.96469 26.253352,746.96469 C 25.185353,746.96469 24.321351,747.24069 23.637352,747.80469 C 22.629353,748.64469 22.053352,750.00069 22.053352,751.57269 C 22.053352,754.26069 23.697354,756.13269 26.061352,756.13269 C 27.24935,756.13269 28.197352,755.68869 29.049352,754.74069 L 29.325352,755.90469 L 30.033352,755.90469 L 30.033352,751.23669 M 39.837727,747.10869 L 38.709727,747.10869 L 38.709727,755.85669 L 39.837727,755.85669 L 39.837727,747.10869 M 41.677852,749.56869 L 41.677852,755.85669 L 42.685852,755.85669 L 42.685852,751.90869 C 42.685852,750.99669 43.345852,750.26469 44.161852,750.26469 C 44.905851,750.26469 45.325852,750.72069 45.325852,751.52469 L 45.325852,755.85669 L 46.333852,755.85669 L 46.333852,751.90869 C 46.333852,750.99669 46.993852,750.26469 47.809852,750.26469 C 48.541851,750.26469 48.973852,750.73269 48.973852,751.52469 L 48.973852,755.85669 L 49.981852,755.85669 L 49.981852,751.14069 C 49.981852,750.01269 49.33385,749.38869 48.157852,749.38869 C 47.317852,749.38869 46.813851,749.64069 46.225852,750.34869 C 45.853852,749.67669 45.349851,749.38869 44.533852,749.38869 C 43.693852,749.38869 43.141851,749.70069 42.601852,750.45669 L 42.601852,749.56869 L 41.677852,749.56869 M 57.265664,755.26869 C 57.157664,755.29269 57.109664,755.29269 57.049664,755.29269 C 56.701664,755.29269 56.509664,755.11269 56.509664,754.80069 L 56.509664,751.10469 C 56.509664,749.98869 55.693662,749.38869 54.145664,749.38869 C 53.233665,749.38869 52.477664,749.65269 52.057664,750.12069 C 51.769664,750.44469 51.649664,750.80469 51.625664,751.42869 L 52.633664,751.42869 C 52.717664,750.66069 53.173665,750.31269 54.109664,750.31269 C 55.009663,750.31269 55.513664,750.64869 55.513664,751.24869 L 55.513664,751.51269 C 55.513664,751.93269 55.261663,752.11269 54.469664,752.20869 C 53.053665,752.38869 52.837664,752.43669 52.453664,752.59269 C 51.721665,752.89269 51.349664,753.45669 51.349664,754.27269 C 51.349664,755.41269 52.141665,756.13269 53.413664,756.13269 C 54.205663,756.13269 54.841665,755.85669 55.549664,755.20869 C 55.621664,755.84469 55.933665,756.13269 56.581664,756.13269 C 56.785664,756.13269 56.941664,756.10869 57.265664,756.02469 L 57.265664,755.26869 M 55.513664,753.87669 C 55.513664,754.21269 55.417664,754.41669 55.117664,754.69269 C 54.709664,755.06469 54.217663,755.25669 53.629664,755.25669 C 52.849665,755.25669 52.393664,754.88469 52.393664,754.24869 C 52.393664,753.58869 52.837665,753.25269 53.905664,753.09669 C 54.961663,752.95269 55.177664,752.90469 55.513664,752.74869 L 55.513664,753.87669 M 62.469352,749.56869 L 62.469352,750.48069 C 61.965352,749.73669 61.353351,749.38869 60.549352,749.38869 C 58.953353,749.38869 57.873352,750.78069 57.873352,752.82069 C 57.873352,753.85269 58.149352,754.69269 58.665352,755.29269 C 59.133351,755.82069 59.805352,756.13269 60.465352,756.13269 C 61.257351,756.13269 61.809352,755.79669 62.373352,755.00469 L 62.373352,755.32869 C 62.373352,756.18069 62.265351,756.69669 62.013352,757.04469 C 61.749352,757.41669 61.233351,757.63269 60.621352,757.63269 C 60.165352,757.63269 59.757351,757.51269 59.481352,757.29669 C 59.253352,757.11669 59.157351,756.94869 59.097352,756.57669 L 58.077352,756.57669 C 58.185351,757.76469 59.109353,758.47269 60.585352,758.47269 C 61.521351,758.47269 62.325352,758.17269 62.733352,757.66869 C 63.213351,757.09269 63.393352,756.30069 63.393352,754.82469 L 63.393352,749.56869 L 62.469352,749.56869 M 60.657352,750.31269 C 61.73735,750.31269 62.373352,751.22469 62.373352,752.79669 C 62.373352,754.29669 61.72535,755.20869 60.669352,755.20869 C 59.577353,755.20869 58.917352,754.28469 58.917352,752.76069 C 58.917352,751.24869 59.589353,750.31269 60.657352,750.31269 M 70.361039,753.04869 C 70.361039,752.08869 70.289039,751.51269 70.109039,751.04469 C 69.701039,750.01269 68.741038,749.38869 67.565039,749.38869 C 65.813041,749.38869 64.685039,750.73269 64.685039,752.79669 C 64.685039,754.86069 65.777041,756.13269 67.541039,756.13269 C 68.981038,756.13269 69.977039,755.31669 70.229039,753.94869 L 69.221039,753.94869 C 68.945039,754.77669 68.381038,755.20869 67.577039,755.20869 C 66.94104,755.20869 66.401039,754.92069 66.065039,754.39269 C 65.825039,754.03269 65.741039,753.67269 65.729039,753.04869 L 70.361039,753.04869 M 65.753039,752.23269 C 65.837039,751.06869 66.54504,750.31269 67.553039,750.31269 C 68.537038,750.31269 69.293039,751.12869 69.293039,752.16069 C 69.293039,752.18469 69.293039,752.20869 69.281039,752.23269 L 65.753039,752.23269 M 82.156852,749.82069 C 81.808852,747.90069 80.70485,746.96469 78.784852,746.96469 C 77.608853,746.96469 76.660851,747.33669 76.012852,748.05669 C 75.220852,748.92069 74.788852,750.16869 74.788852,751.58469 C 74.788852,753.02469 75.232852,754.26069 76.060852,755.11269 C 76.732851,755.80869 77.596853,756.13269 78.736852,756.13269 C 80.872849,756.13269 82.072852,754.98069 82.336852,752.66469 L 81.184852,752.66469 C 81.088852,753.26469 80.968851,753.67269 80.788852,754.02069 C 80.428852,754.74069 79.684851,755.14869 78.748852,755.14869 C 77.008853,755.14869 75.904852,753.75669 75.904852,751.57269 C 75.904852,749.32869 76.960853,747.94869 78.652852,747.94869 C 79.360851,747.94869 80.020852,748.16469 80.380852,748.50069 C 80.704851,748.80069 80.884852,749.17269 81.016852,749.82069 L 82.156852,749.82069 M 83.712727,749.56869 L 83.712727,755.85669 L 84.720727,755.85669 L 84.720727,752.59269 C 84.720727,751.69269 84.948727,751.10469 85.428727,750.75669 C 85.740726,750.52869 86.040727,750.45669 86.736727,750.44469 L 86.736727,749.42469 C 86.568727,749.40069 86.484726,749.38869 86.352727,749.38869 C 85.704727,749.38869 85.212726,749.77269 84.636727,750.70869 L 84.636727,749.56869 L 83.712727,749.56869 M 93.048539,753.04869 C 93.048539,752.08869 92.976539,751.51269 92.796539,751.04469 C 92.388539,750.01269 91.428538,749.38869 90.252539,749.38869 C 88.500541,749.38869 87.372539,750.73269 87.372539,752.79669 C 87.372539,754.86069 88.464541,756.13269 90.228539,756.13269 C 91.668538,756.13269 92.664539,755.31669 92.916539,753.94869 L 91.908539,753.94869 C 91.632539,754.77669 91.068538,755.20869 90.264539,755.20869 C 89.62854,755.20869 89.088539,754.92069 88.752539,754.39269 C 88.512539,754.03269 88.428539,753.67269 88.416539,753.04869 L 93.048539,753.04869 M 88.440539,752.23269 C 88.524539,751.06869 89.23254,750.31269 90.240539,750.31269 C 91.224538,750.31269 91.980539,751.12869 91.980539,752.16069 C 91.980539,752.18469 91.980539,752.20869 91.968539,752.23269 L 88.440539,752.23269 M 99.992227,755.26869 C 99.884227,755.29269 99.836226,755.29269 99.776227,755.29269 C 99.428227,755.29269 99.236227,755.11269 99.236227,754.80069 L 99.236227,751.10469 C 99.236227,749.98869 98.420225,749.38869 96.872227,749.38869 C 95.960227,749.38869 95.204226,749.65269 94.784227,750.12069 C 94.496227,750.44469 94.376227,750.80469 94.352227,751.42869 L 95.360227,751.42869 C 95.444226,750.66069 95.900227,750.31269 96.836227,750.31269 C 97.736226,750.31269 98.240227,750.64869 98.240227,751.24869 L 98.240227,751.51269 C 98.240227,751.93269 97.988226,752.11269 97.196227,752.20869 C 95.780228,752.38869 95.564226,752.43669 95.180227,752.59269 C 94.448227,752.89269 94.076227,753.45669 94.076227,754.27269 C 94.076227,755.41269 94.868228,756.13269 96.140227,756.13269 C 96.932226,756.13269 97.568227,755.85669 98.276227,755.20869 C 98.348226,755.84469 98.660227,756.13269 99.308227,756.13269 C 99.512226,756.13269 99.668227,756.10869 99.992227,756.02469 L 99.992227,755.26869 M 98.240227,753.87669 C 98.240227,754.21269 98.144226,754.41669 97.844227,754.69269 C 97.436227,755.06469 96.944226,755.25669 96.356227,755.25669 C 95.576227,755.25669 95.120227,754.88469 95.120227,754.24869 C 95.120227,753.58869 95.564228,753.25269 96.632227,753.09669 C 97.688225,752.95269 97.904227,752.90469 98.240227,752.74869 L 98.240227,753.87669 M 103.29991,749.56869 L 102.26791,749.56869 L 102.26791,747.84069 L 101.27191,747.84069 L 101.27191,749.56869 L 100.41991,749.56869 L 100.41991,750.38469 L 101.27191,750.38469 L 101.27191,755.13669 C 101.27191,755.77269 101.70391,756.13269 102.48391,756.13269 C 102.72391,756.13269 102.96391,756.10869 103.29991,756.04869 L 103.29991,755.20869 C 103.16791,755.24469 103.01191,755.25669 102.81991,755.25669 C 102.38791,755.25669 102.26791,755.13669 102.26791,754.69269 L 102.26791,750.38469 L 103.29991,750.38469 L 103.29991,749.56869 M 109.73604,753.04869 C 109.73604,752.08869 109.66404,751.51269 109.48404,751.04469 C 109.07604,750.01269 108.11604,749.38869 106.94004,749.38869 C 105.18804,749.38869 104.06004,750.73269 104.06004,752.79669 C 104.06004,754.86069 105.15204,756.13269 106.91604,756.13269 C 108.35604,756.13269 109.35204,755.31669 109.60404,753.94869 L 108.59604,753.94869 C 108.32004,754.77669 107.75604,755.20869 106.95204,755.20869 C 106.31604,755.20869 105.77604,754.92069 105.44004,754.39269 C 105.20004,754.03269 105.11604,753.67269 105.10404,753.04869 L 109.73604,753.04869 M 105.12804,752.23269 C 105.21204,751.06869 105.92004,750.31269 106.92804,750.31269 C 107.91204,750.31269 108.66804,751.12869 108.66804,752.16069 C 108.66804,752.18469 108.66804,752.20869 108.65604,752.23269 L 105.12804,752.23269 M 116.19973,747.10869 L 115.20373,747.10869 L 115.20373,750.36069 C 114.78373,749.72469 114.11173,749.38869 113.27173,749.38869 C 111.63973,749.38869 110.57173,750.69669 110.57173,752.70069 C 110.57173,754.82469 111.61573,756.13269 113.30773,756.13269 C 114.17173,756.13269 114.77173,755.80869 115.31173,755.02869 L 115.31173,755.85669 L 116.19973,755.85669 L 116.19973,747.10869 M 113.43973,750.32469 C 114.51973,750.32469 115.20373,751.28469 115.20373,752.78469 C 115.20373,754.23669 114.50773,755.19669 113.45173,755.19669 C 112.34773,755.19669 111.61573,754.22469 111.61573,752.76069 C 111.61573,751.29669 112.34773,750.32469 113.43973,750.32469 M 120.91554,747.10869 L 120.91554,755.85669 L 121.81554,755.85669 L 121.81554,755.05269 C 122.29554,755.78469 122.93154,756.13269 123.80754,756.13269 C 125.46354,756.13269 126.54354,754.77669 126.54354,752.68869 C 126.54354,750.64869 125.51154,749.38869 123.85554,749.38869 C 122.99154,749.38869 122.37954,749.71269 121.91154,750.42069 L 121.91154,747.10869 L 120.91554,747.10869 M 123.66354,750.32469 C 124.77954,750.32469 125.49954,751.29669 125.49954,752.79669 C 125.49954,754.22469 124.75554,755.19669 123.66354,755.19669 C 122.60754,755.19669 121.91154,754.23669 121.91154,752.76069 C 121.91154,751.28469 122.60754,750.32469 123.66354,750.32469 M 131.60323,749.56869 L 129.86323,754.46469 L 128.25523,749.56869 L 127.18723,749.56869 L 129.31123,755.88069 L 128.92723,756.87669 C 128.77123,757.32069 128.54323,757.48869 128.12323,757.48869 C 127.97923,757.48869 127.81123,757.46469 127.59523,757.41669 L 127.59523,758.31669 C 127.79923,758.42469 128.00323,758.47269 128.26723,758.47269 C 128.59123,758.47269 128.93923,758.36469 129.20323,758.17269 C 129.51523,757.94469 129.69523,757.68069 129.88723,757.17669 L 132.68323,749.56869 L 131.60323,749.56869 M 141.96335,753.22869 L 142.86335,755.85669 L 144.11135,755.85669 L 141.03935,747.10869 L 139.59935,747.10869 L 136.47935,755.85669 L 137.66735,755.85669 L 138.59135,753.22869 L 141.96335,753.22869 M 141.65135,752.29269 L 138.86735,752.29269 L 140.30735,748.30869 L 141.65135,752.29269 M 145.13098,749.56869 L 145.13098,755.85669 L 146.13898,755.85669 L 146.13898,752.38869 C 146.13898,751.10469 146.81098,750.26469 147.84298,750.26469 C 148.63498,750.26469 149.13898,750.74469 149.13898,751.50069 L 149.13898,755.85669 L 150.13498,755.85669 L 150.13498,751.10469 C 150.13498,750.06069 149.35498,749.38869 148.14298,749.38869 C 147.20698,749.38869 146.60698,749.74869 146.05498,750.62469 L 146.05498,749.56869 L 145.13098,749.56869 M 156.91066,747.10869 L 155.91466,747.10869 L 155.91466,750.36069 C 155.49466,749.72469 154.82266,749.38869 153.98266,749.38869 C 152.35067,749.38869 151.28266,750.69669 151.28266,752.70069 C 151.28266,754.82469 152.32667,756.13269 154.01866,756.13269 C 154.88266,756.13269 155.48266,755.80869 156.02266,755.02869 L 156.02266,755.85669 L 156.91066,755.85669 L 156.91066,747.10869 M 154.15066,750.32469 C 155.23066,750.32469 155.91466,751.28469 155.91466,752.78469 C 155.91466,754.23669 155.21866,755.19669 154.16266,755.19669 C 153.05867,755.19669 152.32666,754.22469 152.32666,752.76069 C 152.32666,751.29669 153.05867,750.32469 154.15066,750.32469 M 158.47835,749.56869 L 158.47835,755.85669 L 159.48635,755.85669 L 159.48635,752.59269 C 159.48635,751.69269 159.71435,751.10469 160.19435,750.75669 C 160.50635,750.52869 160.80635,750.45669 161.50235,750.44469 L 161.50235,749.42469 C 161.33435,749.40069 161.25035,749.38869 161.11835,749.38869 C 160.47035,749.38869 159.97835,749.77269 159.40235,750.70869 L 159.40235,749.56869 L 158.47835,749.56869 M 167.81416,753.04869 C 167.81416,752.08869 167.74216,751.51269 167.56216,751.04469 C 167.15416,750.01269 166.19416,749.38869 165.01816,749.38869 C 163.26617,749.38869 162.13816,750.73269 162.13816,752.79669 C 162.13816,754.86069 163.23017,756.13269 164.99416,756.13269 C 166.43416,756.13269 167.43016,755.31669 167.68216,753.94869 L 166.67416,753.94869 C 166.39816,754.77669 165.83416,755.20869 165.03016,755.20869 C 164.39416,755.20869 163.85416,754.92069 163.51816,754.39269 C 163.27816,754.03269 163.19416,753.67269 163.18216,753.04869 L 167.81416,753.04869 M 163.20616,752.23269 C 163.29016,751.06869 163.99817,750.31269 165.00616,750.31269 C 165.99016,750.31269 166.74616,751.12869 166.74616,752.16069 C 166.74616,752.18469 166.74616,752.20869 166.73416,752.23269 L 163.20616,752.23269 M 174.98585,755.85669 L 176.83385,749.56869 L 175.70585,749.56869 L 174.45785,754.46469 L 173.22185,749.56869 L 171.99785,749.56869 L 170.79785,754.46469 L 169.51385,749.56869 L 168.40985,749.56869 L 170.23385,755.85669 L 171.36185,755.85669 L 172.57385,750.92469 L 173.84585,755.85669 L 174.98585,755.85669 M 182.53385,751.87269 L 186.70985,751.87269 L 186.70985,750.88869 L 182.53385,750.88869 L 182.53385,748.09269 L 187.28585,748.09269 L 187.28585,747.10869 L 181.41785,747.10869 L 181.41785,755.85669 L 182.53385,755.85669 L 182.53385,751.87269 M 189.47379,749.56869 L 188.47779,749.56869 L 188.47779,755.85669 L 189.47379,755.85669 L 189.47379,749.56869 M 189.47379,747.10869 L 188.46579,747.10869 L 188.46579,748.36869 L 189.47379,748.36869 L 189.47379,747.10869 M 193.39366,749.56869 L 192.36166,749.56869 L 192.36166,747.84069 L 191.36566,747.84069 L 191.36566,749.56869 L 190.51366,749.56869 L 190.51366,750.38469 L 191.36566,750.38469 L 191.36566,755.13669 C 191.36566,755.77269 191.79766,756.13269 192.57766,756.13269 C 192.81766,756.13269 193.05766,756.10869 193.39366,756.04869 L 193.39366,755.20869 C 193.26166,755.24469 193.10566,755.25669 192.91366,755.25669 C 192.48166,755.25669 192.36166,755.13669 192.36166,754.69269 L 192.36166,750.38469 L 193.39366,750.38469 L 193.39366,749.56869 M 198.98979,749.56869 L 194.29779,749.56869 L 194.29779,750.44469 L 197.80179,750.44469 L 194.04579,754.95669 L 194.04579,755.85669 L 199.15779,755.85669 L 199.15779,754.98069 L 195.25779,754.98069 L 198.98979,750.45669 L 198.98979,749.56869 M 204.92979,751.32069 C 204.91779,750.08469 204.10179,749.38869 202.64979,749.38869 C 201.18579,749.38869 200.23779,750.14469 200.23779,751.30869 C 200.23779,752.29269 200.74179,752.76069 202.22979,753.12069 L 203.16579,753.34869 C 203.86179,753.51669 204.13779,753.76869 204.13779,754.22469 C 204.13779,754.81269 203.54979,755.20869 202.67379,755.20869 C 202.13379,755.20869 201.67779,755.05269 201.42579,754.78869 C 201.26979,754.60869 201.19779,754.42869 201.13779,753.98469 L 200.08179,753.98469 C 200.12979,755.43669 200.94579,756.13269 202.58979,756.13269 C 204.17379,756.13269 205.18179,755.35269 205.18179,754.14069 C 205.18179,753.20469 204.65379,752.68869 203.40579,752.38869 L 202.44579,752.16069 C 201.62979,751.96869 201.28179,751.70469 201.28179,751.26069 C 201.28179,750.68469 201.79779,750.31269 202.61379,750.31269 C 203.41779,750.31269 203.84979,750.66069 203.87379,751.32069 L 204.92979,751.32069 M 207.47379,749.56869 L 206.47779,749.56869 L 206.47779,755.85669 L 207.47379,755.85669 L 207.47379,749.56869 M 207.47379,747.10869 L 206.46579,747.10869 L 206.46579,748.36869 L 207.47379,748.36869 L 207.47379,747.10869 M 209.18566,749.56869 L 209.18566,755.85669 L 210.19366,755.85669 L 210.19366,751.90869 C 210.19366,750.99669 210.85366,750.26469 211.66966,750.26469 C 212.41366,750.26469 212.83366,750.72069 212.83366,751.52469 L 212.83366,755.85669 L 213.84166,755.85669 L 213.84166,751.90869 C 213.84166,750.99669 214.50166,750.26469 215.31766,750.26469 C 216.04966,750.26469 216.48166,750.73269 216.48166,751.52469 L 216.48166,755.85669 L 217.48966,755.85669 L 217.48966,751.14069 C 217.48966,750.01269 216.84166,749.38869 215.66566,749.38869 C 214.82566,749.38869 214.32166,749.64069 213.73366,750.34869 C 213.36166,749.67669 212.85766,749.38869 212.04166,749.38869 C 211.20166,749.38869 210.64966,749.70069 210.10966,750.45669 L 210.10966,749.56869 L 209.18566,749.56869 M 221.61748,749.38869 C 219.85348,749.38869 218.78548,750.64869 218.78548,752.76069 C 218.78548,754.87269 219.84148,756.13269 221.62948,756.13269 C 223.39347,756.13269 224.47348,754.87269 224.47348,752.80869 C 224.47348,750.63669 223.42947,749.38869 221.61748,749.38869 M 221.62948,750.31269 C 222.75748,750.31269 223.42948,751.23669 223.42948,752.79669 C 223.42948,754.27269 222.73348,755.20869 221.62948,755.20869 C 220.51348,755.20869 219.82948,754.28469 219.82948,752.76069 C 219.82948,751.24869 220.51348,750.31269 221.62948,750.31269 M 225.87316,749.56869 L 225.87316,755.85669 L 226.88116,755.85669 L 226.88116,752.38869 C 226.88116,751.10469 227.55317,750.26469 228.58516,750.26469 C 229.37716,750.26469 229.88116,750.74469 229.88116,751.50069 L 229.88116,755.85669 L 230.87716,755.85669 L 230.87716,751.10469 C 230.87716,750.06069 230.09716,749.38869 228.88516,749.38869 C 227.94916,749.38869 227.34916,749.74869 226.79716,750.62469 L 226.79716,749.56869 L 225.87316,749.56869 M 7.8221015,762.10869 L 6.6941015,762.10869 L 6.6941015,770.85669 L 7.8221015,770.85669 L 7.8221015,762.10869 M 14.474227,766.68069 C 14.426227,766.06869 14.294226,765.67269 14.054227,765.32469 C 13.622227,764.73669 12.866226,764.38869 11.990227,764.38869 C 10.298228,764.38869 9.1942265,765.73269 9.1942265,767.82069 C 9.1942265,769.84869 10.274228,771.13269 11.978227,771.13269 C 13.478225,771.13269 14.426227,770.23269 14.546227,768.69669 L 13.538227,768.69669 C 13.370227,769.70469 12.854226,770.20869 12.002227,770.20869 C 10.898228,770.20869 10.238227,769.30869 10.238227,767.82069 C 10.238227,766.24869 10.886228,765.31269 11.978227,765.31269 C 12.818226,765.31269 13.346227,765.80469 13.466227,766.68069 L 14.474227,766.68069 M 18.086227,764.38869 C 16.322228,764.38869 15.254227,765.64869 15.254227,767.76069 C 15.254227,769.87269 16.310228,771.13269 18.098227,771.13269 C 19.862225,771.13269 20.942227,769.87269 20.942227,767.80869 C 20.942227,765.63669 19.898225,764.38869 18.086227,764.38869 M 18.098227,765.31269 C 19.226225,765.31269 19.898227,766.23669 19.898227,767.79669 C 19.898227,769.27269 19.202225,770.20869 18.098227,770.20869 C 16.982228,770.20869 16.298227,769.28469 16.298227,767.76069 C 16.298227,766.24869 16.982228,765.31269 18.098227,765.31269 M 22.341914,764.56869 L 22.341914,770.85669 L 23.349914,770.85669 L 23.349914,767.38869 C 23.349914,766.10469 24.021915,765.26469 25.053914,765.26469 C 25.845913,765.26469 26.349914,765.74469 26.349914,766.50069 L 26.349914,770.85669 L 27.345914,770.85669 L 27.345914,766.10469 C 27.345914,765.06069 26.565913,764.38869 25.353914,764.38869 C 24.417915,764.38869 23.817913,764.74869 23.265914,765.62469 L 23.265914,764.56869 L 22.341914,764.56869 M 33.309727,764.56869 L 32.313727,764.56869 L 32.313727,770.85669 L 33.309727,770.85669 L 33.309727,764.56869 M 33.309727,762.10869 L 32.301727,762.10869 L 32.301727,763.36869 L 33.309727,763.36869 L 33.309727,762.10869 M 35.021602,764.56869 L 35.021602,770.85669 L 36.029602,770.85669 L 36.029602,767.38869 C 36.029602,766.10469 36.701603,765.26469 37.733602,765.26469 C 38.525601,765.26469 39.029602,765.74469 39.029602,766.50069 L 39.029602,770.85669 L 40.025602,770.85669 L 40.025602,766.10469 C 40.025602,765.06069 39.2456,764.38869 38.033602,764.38869 C 37.097602,764.38869 36.497601,764.74869 35.945602,765.62469 L 35.945602,764.56869 L 35.021602,764.56869 M 46.117289,766.32069 C 46.105289,765.08469 45.289288,764.38869 43.837289,764.38869 C 42.37329,764.38869 41.425289,765.14469 41.425289,766.30869 C 41.425289,767.29269 41.929291,767.76069 43.417289,768.12069 L 44.353289,768.34869 C 45.049288,768.51669 45.325289,768.76869 45.325289,769.22469 C 45.325289,769.81269 44.737288,770.20869 43.861289,770.20869 C 43.32129,770.20869 42.865289,770.05269 42.613289,769.78869 C 42.457289,769.60869 42.385289,769.42869 42.325289,768.98469 L 41.269289,768.98469 C 41.317289,770.43669 42.133291,771.13269 43.777289,771.13269 C 45.361287,771.13269 46.369289,770.35269 46.369289,769.14069 C 46.369289,768.20469 45.841288,767.68869 44.593289,767.38869 L 43.633289,767.16069 C 42.81729,766.96869 42.469289,766.70469 42.469289,766.26069 C 42.469289,765.68469 42.98529,765.31269 43.801289,765.31269 C 44.605288,765.31269 45.037289,765.66069 45.061289,766.32069 L 46.117289,766.32069 M 47.509289,773.47269 L 48.517289,773.47269 L 48.517289,770.19669 C 49.045288,770.84469 49.63329,771.13269 50.449289,771.13269 C 52.069287,771.13269 53.137289,769.82469 53.137289,767.82069 C 53.137289,765.70869 52.105287,764.38869 50.437289,764.38869 C 49.58529,764.38869 48.901289,764.77269 48.433289,765.51669 L 48.433289,764.56869 L 47.509289,764.56869 L 47.509289,773.47269 M 50.269289,765.32469 C 51.373288,765.32469 52.093289,766.29669 52.093289,767.79669 C 52.093289,769.22469 51.361288,770.19669 50.269289,770.19669 C 49.21329,770.19669 48.517289,769.23669 48.517289,767.76069 C 48.517289,766.28469 49.21329,765.32469 50.269289,765.32469 M 55.340977,764.56869 L 54.344977,764.56869 L 54.344977,770.85669 L 55.340977,770.85669 L 55.340977,764.56869 M 55.340977,762.10869 L 54.332977,762.10869 L 54.332977,763.36869 L 55.340977,763.36869 L 55.340977,762.10869 M 57.040852,764.56869 L 57.040852,770.85669 L 58.048852,770.85669 L 58.048852,767.59269 C 58.048852,766.69269 58.276852,766.10469 58.756852,765.75669 C 59.068851,765.52869 59.368852,765.45669 60.064852,765.44469 L 60.064852,764.42469 C 59.896852,764.40069 59.812851,764.38869 59.680852,764.38869 C 59.032852,764.38869 58.540851,764.77269 57.964852,765.70869 L 57.964852,764.56869 L 57.040852,764.56869 M 66.376664,768.04869 C 66.376664,767.08869 66.304664,766.51269 66.124664,766.04469 C 65.716664,765.01269 64.756663,764.38869 63.580664,764.38869 C 61.828666,764.38869 60.700664,765.73269 60.700664,767.79669 C 60.700664,769.86069 61.792666,771.13269 63.556664,771.13269 C 64.996663,771.13269 65.992664,770.31669 66.244664,768.94869 L 65.236664,768.94869 C 64.960664,769.77669 64.396663,770.20869 63.592664,770.20869 C 62.956665,770.20869 62.416664,769.92069 62.080664,769.39269 C 61.840664,769.03269 61.756664,768.67269 61.744664,768.04869 L 66.376664,768.04869 M 61.768664,767.23269 C 61.852664,766.06869 62.560665,765.31269 63.568664,765.31269 C 64.552663,765.31269 65.308664,766.12869 65.308664,767.16069 C 65.308664,767.18469 65.308664,767.20869 65.296664,767.23269 L 61.768664,767.23269 M 72.840352,762.10869 L 71.844352,762.10869 L 71.844352,765.36069 C 71.424352,764.72469 70.752351,764.38869 69.912352,764.38869 C 68.280353,764.38869 67.212352,765.69669 67.212352,767.70069 C 67.212352,769.82469 68.256353,771.13269 69.948352,771.13269 C 70.812351,771.13269 71.412352,770.80869 71.952352,770.02869 L 71.952352,770.85669 L 72.840352,770.85669 L 72.840352,762.10869 M 70.080352,765.32469 C 71.16035,765.32469 71.844352,766.28469 71.844352,767.78469 C 71.844352,769.23669 71.14835,770.19669 70.092352,770.19669 C 68.988353,770.19669 68.256352,769.22469 68.256352,767.76069 C 68.256352,766.29669 68.988353,765.32469 70.080352,765.32469 M 77.556164,762.10869 L 77.556164,770.85669 L 78.456164,770.85669 L 78.456164,770.05269 C 78.936164,770.78469 79.572165,771.13269 80.448164,771.13269 C 82.104162,771.13269 83.184164,769.77669 83.184164,767.68869 C 83.184164,765.64869 82.152162,764.38869 80.496164,764.38869 C 79.632165,764.38869 79.020164,764.71269 78.552164,765.42069 L 78.552164,762.10869 L 77.556164,762.10869 M 80.304164,765.32469 C 81.420163,765.32469 82.140164,766.29669 82.140164,767.79669 C 82.140164,769.22469 81.396163,770.19669 80.304164,770.19669 C 79.248165,770.19669 78.552164,769.23669 78.552164,767.76069 C 78.552164,766.28469 79.248165,765.32469 80.304164,765.32469 M 88.243852,764.56869 L 86.503852,769.46469 L 84.895852,764.56869 L 83.827852,764.56869 L 85.951852,770.88069 L 85.567852,771.87669 C 85.411852,772.32069 85.183851,772.48869 84.763852,772.48869 C 84.619852,772.48869 84.451851,772.46469 84.235852,772.41669 L 84.235852,773.31669 C 84.439851,773.42469 84.643852,773.47269 84.907852,773.47269 C 85.231851,773.47269 85.579852,773.36469 85.843852,773.17269 C 86.155851,772.94469 86.335852,772.68069 86.527852,772.17669 L 89.323852,764.56869 L 88.243852,764.56869 M 101.42398,766.23669 L 97.775977,766.23669 L 97.775977,767.22069 L 100.43998,767.22069 L 100.43998,767.46069 C 100.43998,769.02069 99.287975,770.14869 97.691977,770.14869 C 96.803977,770.14869 95.999976,769.82469 95.483977,769.26069 C 94.907977,768.63669 94.559977,767.59269 94.559977,766.51269 C 94.559977,764.36469 95.783978,762.94869 97.631977,762.94869 C 98.963975,762.94869 99.923977,763.63269 100.16398,764.76069 L 101.30398,764.76069 C 100.99198,762.98469 99.647975,761.96469 97.643977,761.96469 C 96.575978,761.96469 95.711976,762.24069 95.027977,762.80469 C 94.019978,763.64469 93.443977,765.00069 93.443977,766.57269 C 93.443977,769.26069 95.087979,771.13269 97.451977,771.13269 C 98.639975,771.13269 99.587977,770.68869 100.43998,769.74069 L 100.71598,770.90469 L 101.42398,770.90469 L 101.42398,766.23669 M 108.6641,770.26869 C 108.5561,770.29269 108.5081,770.29269 108.4481,770.29269 C 108.1001,770.29269 107.9081,770.11269 107.9081,769.80069 L 107.9081,766.10469 C 107.9081,764.98869 107.0921,764.38869 105.5441,764.38869 C 104.6321,764.38869 103.8761,764.65269 103.4561,765.12069 C 103.1681,765.44469 103.0481,765.80469 103.0241,766.42869 L 104.0321,766.42869 C 104.1161,765.66069 104.5721,765.31269 105.5081,765.31269 C 106.4081,765.31269 106.9121,765.64869 106.9121,766.24869 L 106.9121,766.51269 C 106.9121,766.93269 106.6601,767.11269 105.8681,767.20869 C 104.4521,767.38869 104.2361,767.43669 103.8521,767.59269 C 103.1201,767.89269 102.7481,768.45669 102.7481,769.27269 C 102.7481,770.41269 103.5401,771.13269 104.8121,771.13269 C 105.6041,771.13269 106.2401,770.85669 106.9481,770.20869 C 107.0201,770.84469 107.3321,771.13269 107.9801,771.13269 C 108.1841,771.13269 108.3401,771.10869 108.6641,771.02469 L 108.6641,770.26869 M 106.9121,768.87669 C 106.9121,769.21269 106.8161,769.41669 106.5161,769.69269 C 106.1081,770.06469 105.6161,770.25669 105.0281,770.25669 C 104.2481,770.25669 103.7921,769.88469 103.7921,769.24869 C 103.7921,768.58869 104.2361,768.25269 105.3041,768.09669 C 106.3601,767.95269 106.5761,767.90469 106.9121,767.74869 L 106.9121,768.87669 M 109.75179,764.56869 L 109.75179,770.85669 L 110.75979,770.85669 L 110.75979,767.59269 C 110.75979,766.69269 110.98779,766.10469 111.46779,765.75669 C 111.77979,765.52869 112.07979,765.45669 112.77579,765.44469 L 112.77579,764.42469 C 112.60779,764.40069 112.52379,764.38869 112.39179,764.38869 C 111.74379,764.38869 111.25179,764.77269 110.67579,765.70869 L 110.67579,764.56869 L 109.75179,764.56869 M 113.7596,764.56869 L 113.7596,770.85669 L 114.7676,770.85669 L 114.7676,767.59269 C 114.7676,766.69269 114.9956,766.10469 115.4756,765.75669 C 115.7876,765.52869 116.0876,765.45669 116.7836,765.44469 L 116.7836,764.42469 C 116.6156,764.40069 116.5316,764.38869 116.3996,764.38869 C 115.7516,764.38869 115.2596,764.77269 114.6836,765.70869 L 114.6836,764.56869 L 113.7596,764.56869 M 123.09541,768.04869 C 123.09541,767.08869 123.02341,766.51269 122.84341,766.04469 C 122.43541,765.01269 121.47541,764.38869 120.29941,764.38869 C 118.54742,764.38869 117.41941,765.73269 117.41941,767.79669 C 117.41941,769.86069 118.51142,771.13269 120.27541,771.13269 C 121.71541,771.13269 122.71141,770.31669 122.96341,768.94869 L 121.95541,768.94869 C 121.67941,769.77669 121.11541,770.20869 120.31141,770.20869 C 119.67541,770.20869 119.13541,769.92069 118.79941,769.39269 C 118.55941,769.03269 118.47541,768.67269 118.46341,768.04869 L 123.09541,768.04869 M 118.48741,767.23269 C 118.57141,766.06869 119.27942,765.31269 120.28741,765.31269 C 121.27141,765.31269 122.02741,766.12869 122.02741,767.16069 C 122.02741,767.18469 122.02741,767.20869 122.01541,767.23269 L 118.48741,767.23269 M 126.6671,764.56869 L 125.6351,764.56869 L 125.6351,762.84069 L 124.6391,762.84069 L 124.6391,764.56869 L 123.7871,764.56869 L 123.7871,765.38469 L 124.6391,765.38469 L 124.6391,770.13669 C 124.6391,770.77269 125.0711,771.13269 125.8511,771.13269 C 126.0911,771.13269 126.3311,771.10869 126.6671,771.04869 L 126.6671,770.20869 C 126.5351,770.24469 126.3791,770.25669 126.1871,770.25669 C 125.7551,770.25669 125.6351,770.13669 125.6351,769.69269 L 125.6351,765.38469 L 126.6671,765.38469 L 126.6671,764.56869 M 132.20323,766.32069 C 132.19123,765.08469 131.37523,764.38869 129.92323,764.38869 C 128.45923,764.38869 127.51123,765.14469 127.51123,766.30869 C 127.51123,767.29269 128.01523,767.76069 129.50323,768.12069 L 130.43923,768.34869 C 131.13523,768.51669 131.41123,768.76869 131.41123,769.22469 C 131.41123,769.81269 130.82323,770.20869 129.94723,770.20869 C 129.40723,770.20869 128.95123,770.05269 128.69923,769.78869 C 128.54323,769.60869 128.47123,769.42869 128.41123,768.98469 L 127.35523,768.98469 C 127.40323,770.43669 128.21923,771.13269 129.86323,771.13269 C 131.44722,771.13269 132.45523,770.35269 132.45523,769.14069 C 132.45523,768.20469 131.92723,767.68869 130.67923,767.38869 L 129.71923,767.16069 C 128.90323,766.96869 128.55523,766.70469 128.55523,766.26069 C 128.55523,765.68469 129.07123,765.31269 129.88723,765.31269 C 130.69123,765.31269 131.12323,765.66069 131.14723,766.32069 L 132.20323,766.32069 M 137.22335,770.85669 L 141.17135,770.85669 C 141.99935,770.85669 142.61135,770.62869 143.07935,770.12469 C 143.51135,769.66869 143.75135,769.04469 143.75135,768.36069 C 143.75135,767.30469 143.27135,766.66869 142.15535,766.23669 C 142.94735,765.86469 143.36735,765.21669 143.36735,764.32869 C 143.36735,763.69269 143.12735,763.12869 142.67135,762.72069 C 142.21535,762.30069 141.61535,762.10869 140.77535,762.10869 L 137.22335,762.10869 L 137.22335,770.85669 M 138.33935,765.87669 L 138.33935,763.09269 L 140.49935,763.09269 C 141.12335,763.09269 141.47135,763.17669 141.77135,763.40469 C 142.08335,763.64469 142.25135,764.00469 142.25135,764.48469 C 142.25135,764.95269 142.08335,765.32469 141.77135,765.56469 C 141.47135,765.79269 141.12335,765.87669 140.49935,765.87669 L 138.33935,765.87669 M 138.33935,769.87269 L 138.33935,766.86069 L 141.06335,766.86069 C 141.60335,766.86069 141.96335,766.99269 142.22735,767.28069 C 142.49135,767.55669 142.63535,767.94069 142.63535,768.37269 C 142.63535,768.79269 142.49135,769.17669 142.22735,769.45269 C 141.96335,769.74069 141.60335,769.87269 141.06335,769.87269 L 138.33935,769.87269 M 146.11498,762.10869 L 145.10698,762.10869 L 145.10698,770.85669 L 146.11498,770.85669 L 146.11498,762.10869 M 152.74685,770.85669 L 152.74685,764.56869 L 151.75085,764.56869 L 151.75085,768.13269 C 151.75085,769.41669 151.07885,770.25669 150.03485,770.25669 C 149.24285,770.25669 148.73885,769.77669 148.73885,769.02069 L 148.73885,764.56869 L 147.74285,764.56869 L 147.74285,769.41669 C 147.74285,770.46069 148.52285,771.13269 149.74685,771.13269 C 150.67085,771.13269 151.25885,770.80869 151.84685,769.98069 L 151.84685,770.85669 L 152.74685,770.85669 M 159.79854,768.04869 C 159.79854,767.08869 159.72654,766.51269 159.54654,766.04469 C 159.13854,765.01269 158.17854,764.38869 157.00254,764.38869 C 155.25054,764.38869 154.12254,765.73269 154.12254,767.79669 C 154.12254,769.86069 155.21454,771.13269 156.97854,771.13269 C 158.41854,771.13269 159.41454,770.31669 159.66654,768.94869 L 158.65854,768.94869 C 158.38254,769.77669 157.81854,770.20869 157.01454,770.20869 C 156.37854,770.20869 155.83854,769.92069 155.50254,769.39269 C 155.26254,769.03269 155.17854,768.67269 155.16654,768.04869 L 159.79854,768.04869 M 155.19054,767.23269 C 155.27454,766.06869 155.98254,765.31269 156.99054,765.31269 C 157.97454,765.31269 158.73054,766.12869 158.73054,767.16069 C 158.73054,767.18469 158.73054,767.20869 158.71854,767.23269 L 155.19054,767.23269 M 165.97423,766.68069 C 165.92623,766.06869 165.79423,765.67269 165.55423,765.32469 C 165.12223,764.73669 164.36623,764.38869 163.49023,764.38869 C 161.79823,764.38869 160.69423,765.73269 160.69423,767.82069 C 160.69423,769.84869 161.77423,771.13269 163.47823,771.13269 C 164.97823,771.13269 165.92623,770.23269 166.04623,768.69669 L 165.03823,768.69669 C 164.87023,769.70469 164.35423,770.20869 163.50223,770.20869 C 162.39823,770.20869 161.73823,769.30869 161.73823,767.82069 C 161.73823,766.24869 162.38623,765.31269 163.47823,765.31269 C 164.31823,765.31269 164.84623,765.80469 164.96623,766.68069 L 165.97423,766.68069 M 172.10623,770.85669 L 172.10623,764.56869 L 171.11023,764.56869 L 171.11023,768.13269 C 171.11023,769.41669 170.43823,770.25669 169.39423,770.25669 C 168.60223,770.25669 168.09823,769.77669 168.09823,769.02069 L 168.09823,764.56869 L 167.10223,764.56869 L 167.10223,769.41669 C 167.10223,770.46069 167.88223,771.13269 169.10623,771.13269 C 170.03023,771.13269 170.61823,770.80869 171.20623,769.98069 L 171.20623,770.85669 L 172.10623,770.85669 M 173.82991,764.56869 L 173.82991,770.85669 L 174.83791,770.85669 L 174.83791,767.59269 C 174.83791,766.69269 175.06591,766.10469 175.54591,765.75669 C 175.85791,765.52869 176.15791,765.45669 176.85391,765.44469 L 176.85391,764.42469 C 176.68591,764.40069 176.60191,764.38869 176.46991,764.38869 C 175.82191,764.38869 175.32991,764.77269 174.75391,765.70869 L 174.75391,764.56869 L 173.82991,764.56869 M 180.42973,770.85669 L 182.84173,764.56869 L 181.71373,764.56869 L 179.93773,769.66869 L 178.25773,764.56869 L 177.12973,764.56869 L 179.33773,770.85669 L 180.42973,770.85669 M 189.16573,768.04869 C 189.16573,767.08869 189.09373,766.51269 188.91373,766.04469 C 188.50573,765.01269 187.54573,764.38869 186.36973,764.38869 C 184.61773,764.38869 183.48973,765.73269 183.48973,767.79669 C 183.48973,769.86069 184.58173,771.13269 186.34573,771.13269 C 187.78573,771.13269 188.78173,770.31669 189.03373,768.94869 L 188.02573,768.94869 C 187.74973,769.77669 187.18573,770.20869 186.38173,770.20869 C 185.74573,770.20869 185.20573,769.92069 184.86973,769.39269 C 184.62973,769.03269 184.54573,768.67269 184.53373,768.04869 L 189.16573,768.04869 M 184.55773,767.23269 C 184.64173,766.06869 185.34973,765.31269 186.35773,765.31269 C 187.34173,765.31269 188.09773,766.12869 188.09773,767.16069 C 188.09773,767.18469 188.09773,767.20869 188.08573,767.23269 L 184.55773,767.23269 M 201.52554,766.23669 L 197.87754,766.23669 L 197.87754,767.22069 L 200.54154,767.22069 L 200.54154,767.46069 C 200.54154,769.02069 199.38954,770.14869 197.79354,770.14869 C 196.90554,770.14869 196.10154,769.82469 195.58554,769.26069 C 195.00954,768.63669 194.66154,767.59269 194.66154,766.51269 C 194.66154,764.36469 195.88554,762.94869 197.73354,762.94869 C 199.06554,762.94869 200.02554,763.63269 200.26554,764.76069 L 201.40554,764.76069 C 201.09354,762.98469 199.74954,761.96469 197.74554,761.96469 C 196.67754,761.96469 195.81354,762.24069 195.12954,762.80469 C 194.12154,763.64469 193.54554,765.00069 193.54554,766.57269 C 193.54554,769.26069 195.18954,771.13269 197.55354,771.13269 C 198.74154,771.13269 199.68954,770.68869 200.54154,769.74069 L 200.81754,770.90469 L 201.52554,770.90469 L 201.52554,766.23669 M 208.76566,770.26869 C 208.65766,770.29269 208.60966,770.29269 208.54966,770.29269 C 208.20166,770.29269 208.00966,770.11269 208.00966,769.80069 L 208.00966,766.10469 C 208.00966,764.98869 207.19366,764.38869 205.64566,764.38869 C 204.73366,764.38869 203.97766,764.65269 203.55766,765.12069 C 203.26966,765.44469 203.14966,765.80469 203.12566,766.42869 L 204.13366,766.42869 C 204.21766,765.66069 204.67366,765.31269 205.60966,765.31269 C 206.50966,765.31269 207.01366,765.64869 207.01366,766.24869 L 207.01366,766.51269 C 207.01366,766.93269 206.76166,767.11269 205.96966,767.20869 C 204.55367,767.38869 204.33766,767.43669 203.95366,767.59269 C 203.22166,767.89269 202.84966,768.45669 202.84966,769.27269 C 202.84966,770.41269 203.64167,771.13269 204.91366,771.13269 C 205.70566,771.13269 206.34166,770.85669 207.04966,770.20869 C 207.12166,770.84469 207.43366,771.13269 208.08166,771.13269 C 208.28566,771.13269 208.44166,771.10869 208.76566,771.02469 L 208.76566,770.26869 M 207.01366,768.87669 C 207.01366,769.21269 206.91766,769.41669 206.61766,769.69269 C 206.20966,770.06469 205.71766,770.25669 205.12966,770.25669 C 204.34966,770.25669 203.89366,769.88469 203.89366,769.24869 C 203.89366,768.58869 204.33767,768.25269 205.40566,768.09669 C 206.46166,767.95269 206.67766,767.90469 207.01366,767.74869 L 207.01366,768.87669 M 210.82535,764.56869 L 209.82935,764.56869 L 209.82935,770.85669 L 210.82535,770.85669 L 210.82535,764.56869 M 210.82535,762.10869 L 209.81735,762.10869 L 209.81735,763.36869 L 210.82535,763.36869 L 210.82535,762.10869 M 212.53723,764.56869 L 212.53723,770.85669 L 213.54523,770.85669 L 213.54523,766.90869 C 213.54523,765.99669 214.20523,765.26469 215.02123,765.26469 C 215.76523,765.26469 216.18523,765.72069 216.18523,766.52469 L 216.18523,770.85669 L 217.19323,770.85669 L 217.19323,766.90869 C 217.19323,765.99669 217.85323,765.26469 218.66923,765.26469 C 219.40123,765.26469 219.83323,765.73269 219.83323,766.52469 L 219.83323,770.85669 L 220.84123,770.85669 L 220.84123,766.14069 C 220.84123,765.01269 220.19323,764.38869 219.01723,764.38869 C 218.17723,764.38869 217.67323,764.64069 217.08523,765.34869 C 216.71323,764.67669 216.20923,764.38869 215.39323,764.38869 C 214.55323,764.38869 214.00123,764.70069 213.46123,765.45669 L 213.46123,764.56869 L 212.53723,764.56869 M 226.83316,764.56869 L 225.83716,764.56869 L 225.83716,770.85669 L 226.83316,770.85669 L 226.83316,764.56869 M 226.83316,762.10869 L 225.82516,762.10869 L 225.82516,763.36869 L 226.83316,763.36869 L 226.83316,762.10869 M 233.35704,766.68069 C 233.30904,766.06869 233.17704,765.67269 232.93704,765.32469 C 232.50504,764.73669 231.74904,764.38869 230.87304,764.38869 C 229.18104,764.38869 228.07704,765.73269 228.07704,767.82069 C 228.07704,769.84869 229.15704,771.13269 230.86104,771.13269 C 232.36104,771.13269 233.30904,770.23269 233.42904,768.69669 L 232.42104,768.69669 C 232.25304,769.70469 231.73704,770.20869 230.88504,770.20869 C 229.78104,770.20869 229.12104,769.30869 229.12104,767.82069 C 229.12104,766.24869 229.76904,765.31269 230.86104,765.31269 C 231.70104,765.31269 232.22904,765.80469 232.34904,766.68069 L 233.35704,766.68069 M 236.96904,764.38869 C 235.20504,764.38869 234.13704,765.64869 234.13704,767.76069 C 234.13704,769.87269 235.19304,771.13269 236.98104,771.13269 C 238.74504,771.13269 239.82504,769.87269 239.82504,767.80869 C 239.82504,765.63669 238.78104,764.38869 236.96904,764.38869 M 236.98104,765.31269 C 238.10904,765.31269 238.78104,766.23669 238.78104,767.79669 C 238.78104,769.27269 238.08504,770.20869 236.98104,770.20869 C 235.86504,770.20869 235.18104,769.28469 235.18104,767.76069 C 235.18104,766.24869 235.86504,765.31269 236.98104,765.31269 M 241.22473,764.56869 L 241.22473,770.85669 L 242.23273,770.85669 L 242.23273,767.38869 C 242.23273,766.10469 242.90473,765.26469 243.93673,765.26469 C 244.72873,765.26469 245.23273,765.74469 245.23273,766.50069 L 245.23273,770.85669 L 246.22873,770.85669 L 246.22873,766.10469 C 246.22873,765.06069 245.44873,764.38869 244.23673,764.38869 C 243.30073,764.38869 242.70073,764.74869 242.14873,765.62469 L 242.14873,764.56869 L 241.22473,764.56869" id="text1235"/>
</svg>