<?xml version="1.0" encoding="UTF-8" standalone="no"?>
<!-- Created with Inkscape (http://www.inkscape.org/) -->
<svg xmlns:dc="http://purl.org/dc/elements/1.1/" xmlns:cc="http://creativecommons.org/ns#" xmlns:rdf="http://www.w3.org/1999/02/22-rdf-syntax-ns#" xmlns:svg="http://www.w3.org/2000/svg" xmlns="http://www.w3.org/2000/svg" xmlns:sodipodi="http://sodipodi.sourceforge.net/DTD/sodipodi-0.dtd" xmlns:inkscape="http://www.inkscape.org/namespaces/inkscape" width="184.16177" height="318.66718" id="svg5285" version="1.1" inkscape:version="0.48.1 r9760" sodipodi:docname="New document 8">
  <defs id="defs5287">
    <clipPath clipPathUnits="userSpaceOnUse" id="clipPath5493">
      <path inkscape:connector-curvature="0" style="fill:#2e3436;fill-opacity:1;fill-rule:nonzero;stroke:none" d="m 319.19626,180.05207 a 15.379573,15.379573 0 0 0 -15.84375,15.375 15.379573,15.379573 0 0 0 13.9375,15.28125 c 0.48443,1.10389 0.87573,2.29562 1.1875,3.5 -8.37248,3.15904 -15.77485,7.53461 -22.09375,12.9375 -0.57066,-0.42629 -1.34339,-0.8054 -2.34375,-1.25 -55.50788,-10.60661 -74.60539,25.09315 -75.3125,30.75 -0.70711,5.65685 38.51535,14.48465 59.375,-6.375 0.27075,-0.27075 0.45453,-0.45474 0.71875,-0.71875 -6.17132,12.02374 -9.40625,25.96974 -9.40625,40.84375 0,4.85401 0.65511,9.62733 1.84375,14.25 -0.286,-0.5859 -0.574,-1.15812 -0.84375,-1.75 4.8817,25.79764 26.9773,47.83547 48.46875,60.34375 0.0244,0.85251 0.04,1.6561 0.0625,2.71875 0.0267,1.2756 0.0449,2.71986 0.0625,4.28125 0.004,0.33456 0.028,0.59124 0.0312,0.9375 0.17908,19.33643 -0.67159,57.42615 -8.75,87.90625 -40.19664,16.23308 -68.57619,55.61161 -68.5625,101.625 -5e-4,1.7017 0.0487,3.37975 0.125,5.0625 0.003,0.009 -0.003,0.0221 0,0.0312 0.007,0.14622 0.024,0.29143 0.0312,0.4375 0.002,0.0311 -0.002,0.0627 0,0.0937 0.0365,0.71921 0.0747,1.44075 0.125,2.15625 0.11104,1.58911 0.25939,3.14904 0.4375,4.71875 0.0369,0.32439 0.054,0.64523 0.0937,0.96875 0.0625,0.5104 0.14925,1.02305 0.21875,1.53125 0.0457,0.33271 0.0763,0.66825 0.125,1 0.20283,1.38836 0.4331,2.75406 0.6875,4.125 0.0836,0.44958 0.19221,0.89611 0.28125,1.34375 0.0845,0.42517 0.16065,0.85787 0.25,1.28125 0.066,0.31202 0.11888,0.62646 0.1875,0.9375 0.0774,0.35163 0.16922,0.71215 0.25,1.0625 0.14763,0.63838 0.27876,1.27218 0.4375,1.90625 0.49858,1.99653 1.08105,3.95479 1.6875,5.90625 0.1302,0.41808 0.2712,0.83408 0.40625,1.25 0.23691,0.73095 0.46699,1.46337 0.71875,2.1875 0.13052,0.3746 0.27179,0.75226 0.40625,1.125 0.13522,0.37556 0.26706,0.75136 0.40625,1.125 0.0964,0.25828 0.183,0.5239 0.28125,0.78125 0.14371,0.3769 0.28977,0.7501 0.4375,1.125 0.13289,0.33672 0.27014,0.66492 0.40625,1 0.32491,0.80128 0.65681,1.61453 1,2.40625 0.0131,0.0303 0.0181,0.0635 0.0312,0.0937 0.27848,0.64083 0.5847,1.27186 0.875,1.90625 0.0527,0.11501 0.10313,0.22895 0.15625,0.34375 0.24665,0.53408 0.49505,1.06436 0.75,1.59375 0.12067,0.25012 0.2525,0.50094 0.375,0.75 2.21862,4.51715 4.73504,8.85942 7.53125,13 0.0716,0.10594 0.14676,0.20683 0.21875,0.3125 0.42273,0.62128 0.84618,1.23171 1.28125,1.84375 0.0605,0.085 0.1268,0.16522 0.1875,0.25 6.99409,9.78003 15.54791,18.36057 25.3125,25.375 -5.26681,5.69664 -8.46875,13.24287 -8.46875,21.53125 0,10.07484 14.68022,9.375 32.75,9.375 18.06978,0 32.71875,-0.28422 32.71875,-9.375 0,-0.40744 -0.0159,-0.81498 -0.0312,-1.21875 2.27008,0.14036 4.53832,0.21875 6.84375,0.21875 2.77287,0 5.52889,-0.11006 8.25,-0.3125 -0.0178,0.43462 -0.0625,0.87362 -0.0625,1.3125 0,9.09078 14.68022,9.375 32.75,9.375 18.06978,0 32.71875,0.69984 32.71875,-9.375 0,-8.56941 -3.44302,-16.33579 -9.03125,-22.09375 0.30562,-0.22362 0.60305,-0.4608 0.90625,-0.6875 0.007,-0.005 0.0247,0.005 0.0312,0 4.22373,-3.15955 8.18497,-6.61985 11.90625,-10.34375 0.61427,-0.61427 1.24413,-1.2151 1.84375,-1.84375 0.005,-0.006 -0.005,-0.0257 0,-0.0312 0.60462,-0.63414 1.19182,-1.25778 1.78125,-1.90625 4.71469,-5.18896 8.93494,-10.81955 12.59375,-16.84375 0.005,-0.008 -0.005,-0.0237 0,-0.0312 2.2862,-3.76627 4.36058,-7.67284 6.1875,-11.71875 0.36182,-0.79991 0.71948,-1.59625 1.0625,-2.40625 3.11292,-7.36428 5.46232,-15.16733 6.90625,-23.25 0.002,-0.0101 -0.002,-0.0212 0,-0.0312 0.319,-1.78856 0.6127,-3.58876 0.84375,-5.40625 0.001,-0.0103 -10e-4,-0.021 0,-0.0312 0.11462,-0.90365 0.22004,-1.80837 0.3125,-2.71875 0.001,-0.0103 -10e-4,-0.021 0,-0.0312 0.18547,-1.83139 0.31214,-3.67434 0.40625,-5.53125 0.0947,-1.8661 0.15625,-3.76674 0.15625,-5.65625 0,-1.90404 -0.0602,-3.77567 -0.15625,-5.65625 -0.007,-0.14691 -0.0233,-0.29074 -0.0312,-0.4375 -0.0431,-0.78304 -0.0967,-1.56512 -0.15625,-2.34375 -0.0339,-0.44775 -0.0544,-0.89752 -0.0937,-1.34375 -0.014,-0.15765 -0.0478,-0.31129 -0.0625,-0.46875 -0.13459,-1.45652 -0.27769,-2.90432 -0.46875,-4.34375 -0.003,-0.0205 0.003,-0.042 0,-0.0625 -0.10339,-0.77553 -0.22422,-1.54219 -0.34375,-2.3125 -0.12638,-0.8114 -0.26215,-1.63208 -0.40625,-2.4375 -0.27744,-1.55555 -0.59513,-3.09293 -0.9375,-4.625 -0.0537,-0.23973 -0.10101,-0.47962 -0.15625,-0.71875 -0.0337,-0.14601 -0.0595,-0.29171 -0.0937,-0.4375 -0.17312,-0.73554 -0.37463,-1.45776 -0.5625,-2.1875 -0.1068,-0.41554 -0.20096,-0.83638 -0.3125,-1.25 -0.0505,-0.18706 -0.10474,-0.37584 -0.15625,-0.5625 -0.15811,-0.57404 -0.33282,-1.14852 -0.5,-1.71875 -0.16562,-0.56401 -0.32558,-1.12733 -0.5,-1.6875 -0.2901,-0.93349 -0.59203,-1.85865 -0.90625,-2.78125 -0.25261,-0.74001 -0.51332,-1.48602 -0.78125,-2.21875 -10.83364,-29.69221 -34.14563,-53.35292 -63.59385,-64.6876 -0.37407,-1.2606 -0.74277,-2.52573 -1.09375,-3.8125 -0.056,-0.20554 -0.10086,-0.41885 -0.15625,-0.625 -0.5292,-1.96669 -1.05323,-3.95377 -1.53125,-5.96875 -0.33519,-1.41551 -0.62649,-2.84754 -0.9375,-4.28125 -0.0972,-0.44752 -0.21756,-0.89475 -0.3125,-1.34375 -0.67404,-3.19311 -1.31156,-6.41728 -1.875,-9.65625 -0.004,-0.0203 0.004,-0.0422 0,-0.0625 -3.45417,-19.88066 -4.91458,-40.14624 -5.53125,-54.9375 -10e-4,-0.0336 0.001,-0.0602 0,-0.0937 -0.13915,-3.3512 -0.24539,-6.4361 -0.3125,-9.15625 -0.0209,-0.89298 -0.0179,-1.56576 -0.0312,-2.375 25.90645,-13.24987 54.3125,-41.26948 54.3125,-73.6875 0,-0.68101 -0.0199,-1.35422 -0.0312,-2.03125 0,-0.20067 10e-4,-0.39342 0,-0.59375 -0.002,-0.0935 0.002,-0.18788 0,-0.28125 -0.0624,-6.88202 -0.84021,-13.56223 -2.3125,-19.9375 -1.2151,-5.63477 -2.89539,-10.99875 -5.09375,-16.0625 0.11905,0.51784 0.20159,1.04049 0.3125,1.5625 -0.8736,-2.01703 -1.81682,-4.01592 -2.84375,-5.9375 0.40783,0.40733 0.70122,0.70122 1.125,1.125 20.85965,20.85965 60.08211,12.03185 59.375,6.375 -0.70711,-5.65685 -19.77337,-41.35661 -75.28125,-30.75 -1.17282,0.52125 -2.0848,0.95218 -2.65625,1.46875 -6.35979,-5.43846 -13.73464,-9.86723 -22.03125,-13.0625 0.32353,-1.2761 0.76479,-2.52397 1.28125,-3.6875 a 15.379573,15.379573 0 0 0 13.1249,-15.18755 15.379573,15.379573 0 0 0 -30.75,0 15.379573,15.379573 0 0 0 5.90625,12.09375 c -0.18645,1.12668 -0.44973,2.24753 -0.8125,3.375 -6.60631,-1.51438 -13.68369,-2.34375 -21.1875,-2.34375 -7.66424,0 -14.8312,0.82425 -21.5,2.3125 -0.41845,-1.30702 -0.68762,-2.61059 -0.875,-3.90625 a 15.379573,15.379573 0 0 0 5.21875,-11.53125 15.379573,15.379573 0 0 0 -14.90625,-15.375 z" id="path5495"/>
    </clipPath>
    <filter color-interpolation-filters="sRGB" inkscape:collect="always" id="filter5360" x="-0.071955167" width="1.1439103" y="-0.10709216" height="1.2141843">
      <feGaussianBlur inkscape:collect="always" stdDeviation="6.5649723" id="feGaussianBlur5362"/>
    </filter>
    <filter color-interpolation-filters="sRGB" inkscape:collect="always" id="filter5372" x="-0.2833066" width="1.5666132" y="-0.10118099" height="1.2023619">
      <feGaussianBlur inkscape:collect="always" stdDeviation="1.1146734" id="feGaussianBlur5374"/>
    </filter>
    <filter color-interpolation-filters="sRGB" inkscape:collect="always" id="filter5352" x="-0.14247139" width="1.2849427" y="-0.091444522" height="1.182889">
      <feGaussianBlur inkscape:collect="always" stdDeviation="4.956817" id="feGaussianBlur5354"/>
    </filter>
    <filter color-interpolation-filters="sRGB" inkscape:collect="always" id="filter5340">
      <feGaussianBlur inkscape:collect="always" stdDeviation="4.1862474" id="feGaussianBlur5342"/>
    </filter>
    <filter color-interpolation-filters="sRGB" inkscape:collect="always" id="filter5376" x="-0.2833066" width="1.5666132" y="-0.10118099" height="1.2023619">
      <feGaussianBlur inkscape:collect="always" stdDeviation="1.1146734" id="feGaussianBlur5378"/>
    </filter>
    <filter inkscape:collect="always" id="filter5906" color-interpolation-filters="sRGB">
      <feGaussianBlur inkscape:collect="always" stdDeviation="5.6578945" id="feGaussianBlur5908"/>
    </filter>
  </defs>
  <sodipodi:namedview id="base" pagecolor="#ffffff" bordercolor="#666666" borderopacity="1.0" inkscape:pageopacity="0.0" inkscape:pageshadow="2" inkscape:zoom="0.7" inkscape:cx="-35.372938" inkscape:cy="172.74843" inkscape:document-units="px" inkscape:current-layer="g6535" showgrid="false" fit-margin-top="0" fit-margin-left="0" fit-margin-right="0" fit-margin-bottom="0" inkscape:window-width="1366" inkscape:window-height="717" inkscape:window-x="0" inkscape:window-y="24" inkscape:window-maximized="1"/>
  <metadata id="metadata5290">
    <rdf:RDF>
      <cc:Work rdf:about="">
        <dc:format>image/svg+xml</dc:format>
        <dc:type rdf:resource="http://purl.org/dc/dcmitype/StillImage"/>
        <dc:title/>
      </cc:Work>
    </rdf:RDF>
  </metadata>
  <g inkscape:label="Layer 1" inkscape:groupmode="layer" id="layer1" transform="translate(-32.773782,-26.472399)">
    <g id="g6535" transform="matrix(0.68474068,0,0,0.68474068,85.963574,218.02799)" inkscape:export-filename="/home/rlerch/Pictures/animals.png" inkscape:export-xdpi="101.39" inkscape:export-ydpi="101.39">
      <g id="g5910">
        <path transform="matrix(0.82210593,0,0,0.82679491,-37.321465,-107.63255)" inkscape:connector-curvature="0" style="opacity:0.27038628;color:#000000;fill:#2e3436;fill-opacity:1;fill-rule:nonzero;stroke:#2e3436;stroke-width:35.07326889;stroke-linecap:round;stroke-linejoin:round;stroke-miterlimit:4;stroke-opacity:1;stroke-dasharray:none;stroke-dashoffset:0;marker:none;visibility:visible;display:inline;overflow:visible;filter:url(#filter5906);enable-background:accumulate" d="m 82.488799,-177.06017 a 15.379573,15.379573 0 0 0 -15.84375,15.375 15.379573,15.379573 0 0 0 13.9375,15.28125 c 0.48443,1.10389 0.87573,2.29562 1.1875,3.5 -8.37248,3.15904 -15.77485,7.53461 -22.09375,12.9375 -0.57066,-0.42629 -1.34339,-0.8054 -2.34375,-1.25 -55.5078797,-10.60661 -74.60539,25.09315 -75.3125,30.75 -0.70711,5.65685 38.51535,14.48465 59.375,-6.375 0.27075,-0.27075 0.45453,-0.45474 0.71875,-0.71875 -6.17132,12.02374 -9.40625,25.96974 -9.40625,40.84375 0,4.85401 0.65511,9.62733 1.84375,14.25 -0.286,-0.5859 -0.574,-1.15812 -0.84375,-1.75 4.8817,25.79764 26.9773,47.8354697 48.46875,60.3437497 0.0244,0.85251 0.04,1.6561 0.0625,2.71875 0.0267,1.2756003 0.0449,2.7198603 0.0625,4.2812503 0.004,0.33456 0.028,0.59124 0.0312,0.9375 0.17908,19.33643 -0.67159,57.42615 -8.75,87.90625 -40.19664,16.23308 -68.5761897,55.61161 -68.5624997,101.625 -5e-4,1.7017 0.0487,3.37975 0.125,5.0625 0.003,0.009 -0.003,0.0221 0,0.0312 0.007,0.14622 0.024,0.29143 0.0312,0.4375 0.002,0.0311 -0.002,0.0627 0,0.0937 0.0365,0.71921 0.0747,1.44075 0.125,2.15625 0.11104,1.58911 0.25939,3.14904 0.4375,4.71875 0.0369,0.32439 0.054,0.64523 0.0937,0.96875 0.0625,0.5104 0.14925,1.02305 0.21875,1.53125 0.0457,0.33271 0.0763,0.66825 0.125,1 0.20283,1.38836 0.4331,2.75406 0.6875,4.125 0.0836,0.44958 0.19221,0.89611 0.28125,1.34375 0.0845,0.42517 0.16065,0.85787 0.25,1.28125 0.066,0.31202 0.11888,0.62646 0.1875,0.9375 0.0774,0.35163 0.16922,0.71215 0.25,1.0625 0.14763,0.63838 0.27876,1.27218 0.4375,1.90625 0.49858,1.99653 1.08105,3.95479 1.6875,5.90625 0.1301997,0.41808 0.2711997,0.83408 0.4062497,1.25 0.23691,0.73095 0.46699,1.46337 0.71875,2.1875 0.13052,0.3746 0.27179,0.75226 0.40625,1.125 0.13522,0.37556 0.26706,0.75136 0.40625,1.125 0.0964,0.25828 0.183,0.5239 0.28125,0.78125 0.14371,0.3769 0.28977,0.7501 0.4375,1.125 0.13289,0.33672 0.27014,0.66492 0.40625,1 0.32491,0.80128 0.65681,1.61453 1,2.40625 0.0131,0.0303 0.0181,0.0635 0.0312,0.0937 0.27848,0.64083 0.5847,1.27186 0.875,1.90625 0.0527,0.11501 0.10313,0.22895 0.15625,0.34375 0.24665,0.53408 0.49505,1.06436 0.75,1.59375 0.12067,0.25012 0.2525,0.50094 0.375,0.75 2.21862,4.51715 4.73504,8.85942 7.53125,13 0.0716,0.10594 0.14676,0.20683 0.21875,0.3125 0.42273,0.62128 0.84618,1.23171 1.28125,1.84375 0.0605,0.085 0.1268,0.16522 0.1875,0.25 6.99409,9.78003 15.54791,18.36057 25.3125,25.375 -5.26681,5.69664 -8.46875,13.24287 -8.46875,21.53125 0,10.07484 14.68022,9.375 32.75,9.375 18.06978,0 32.718751,-0.28422 32.718751,-9.375 0,-0.40744 -0.0159,-0.81498 -0.0312,-1.21875 2.27008,0.14036 4.53832,0.21875 6.84375,0.21875 2.77287,0 5.52889,-0.11006 8.25,-0.3125 -0.0178,0.43462 -0.0625,0.87362 -0.0625,1.3125 0,9.09078 14.68022,9.375 32.75,9.375 18.06978,0 32.71875,0.69984 32.71875,-9.375 0,-8.56941 -3.44302,-16.33579 -9.03125,-22.09375 0.30562,-0.22362 0.60305,-0.4608 0.90625,-0.6875 0.007,-0.005 0.0247,0.005 0.0312,0 4.22373,-3.15955 8.18497,-6.61985 11.90625,-10.34375 0.61427,-0.61427 1.24413,-1.2151 1.84375,-1.84375 0.005,-0.006 -0.005,-0.0257 0,-0.0312 0.60462,-0.63414 1.19182,-1.25778 1.78125,-1.90625 4.71469,-5.18896 8.93494,-10.81955 12.59375,-16.84375 0.005,-0.008 -0.005,-0.0237 0,-0.0312 2.2862,-3.76627 4.36058,-7.67284 6.1875,-11.71875 0.36182,-0.79991 0.71948,-1.59625 1.0625,-2.40625 3.11292,-7.36428 5.46232,-15.16733 6.90625,-23.25 0.002,-0.0101 -0.002,-0.0212 0,-0.0312 0.319,-1.78856 0.6127,-3.58876 0.84375,-5.40625 0.001,-0.0103 -0.001,-0.021 0,-0.0312 0.11462,-0.90365 0.22004,-1.80837 0.3125,-2.71875 0.001,-0.0103 -0.001,-0.021 0,-0.0312 0.18547,-1.83139 0.31214,-3.67434 0.40625,-5.53125 0.0947,-1.8661 0.15625,-3.76674 0.15625,-5.65625 0,-1.90404 -0.0602,-3.77567 -0.15625,-5.65625 -0.007,-0.14691 -0.0233,-0.29074 -0.0312,-0.4375 -0.0431,-0.78304 -0.0967,-1.56512 -0.15625,-2.34375 -0.0339,-0.44775 -0.0544,-0.89752 -0.0937,-1.34375 -0.014,-0.15765 -0.0478,-0.31129 -0.0625,-0.46875 -0.13459,-1.45652 -0.27769,-2.90432 -0.46875,-4.34375 -0.003,-0.0205 0.003,-0.042 0,-0.0625 -0.10339,-0.77553 -0.22422,-1.54219 -0.34375,-2.3125 -0.12638,-0.8114 -0.26215,-1.63208 -0.40625,-2.4375 -0.27744,-1.55555 -0.59513,-3.09293 -0.9375,-4.625 -0.0537,-0.23973 -0.10101,-0.47962 -0.15625,-0.71875 -0.0337,-0.14601 -0.0595,-0.29171 -0.0937,-0.4375 -0.17312,-0.73554 -0.37463,-1.45776 -0.5625,-2.1875 -0.1068,-0.41554 -0.20096,-0.83638 -0.3125,-1.25 -0.0505,-0.18706 -0.10474,-0.37584 -0.15625,-0.5625 -0.15811,-0.57404 -0.33282,-1.14852 -0.5,-1.71875 -0.16562,-0.56401 -0.32558,-1.12733 -0.5,-1.6875 -0.2901,-0.93349 -0.59203,-1.85865 -0.90625,-2.78125 -0.25261,-0.74001 -0.51332,-1.48602 -0.78125,-2.21875 -10.83364,-29.69221 -34.14563,-53.35292 -63.59385,-64.6876 -0.37407,-1.2606 -0.74277,-2.52573 -1.09375,-3.8125 -0.056,-0.20554 -0.10086,-0.41885 -0.15625,-0.625 -0.5292,-1.96669 -1.05323,-3.95377 -1.53125,-5.96875 -0.33519,-1.41551 -0.62649,-2.84754 -0.9375,-4.28125 -0.0972,-0.44752 -0.21756,-0.89475 -0.3125,-1.34375 -0.67404,-3.19311 -1.31156,-6.41728 -1.875,-9.65625 -0.004,-0.0203 0.004,-0.0422 0,-0.0625 -3.45417,-19.88066 -4.91458,-40.14624 -5.53125,-54.9375 -0.001,-0.0336 0.001,-0.0602 0,-0.0937 -0.13915,-3.3512 -0.24539,-6.4361 -0.3125,-9.15625 -0.0209,-0.89298 -0.0179,-1.5657603 -0.0312,-2.3750003 25.90645,-13.24987 54.3125,-41.2694797 54.3125,-73.6874997 0,-0.68101 -0.0199,-1.35422 -0.0312,-2.03125 0,-0.20067 10e-4,-0.39342 0,-0.59375 -0.002,-0.0935 0.002,-0.18788 0,-0.28125 -0.0624,-6.88202 -0.84021,-13.56223 -2.3125,-19.9375 -1.2151,-5.63477 -2.89539,-10.99875 -5.09375,-16.0625 0.11905,0.51784 0.20159,1.04049 0.3125,1.5625 -0.8736,-2.01703 -1.81682,-4.01592 -2.84375,-5.9375 0.40783,0.40733 0.70122,0.70122 1.125,1.125 20.85965,20.85965 60.08211,12.03185 59.375,6.375 -0.70711,-5.65685 -19.77337,-41.35661 -75.28125,-30.75 -1.17282,0.52125 -2.0848,0.95218 -2.65625,1.46875 -6.35979,-5.43846 -13.73464,-9.86723 -22.03125,-13.0625 0.32353,-1.2761 0.76479,-2.52397 1.28125,-3.6875 a 15.379573,15.379573 0 0 0 13.1249,-15.18755 15.379573,15.379573 0 0 0 -30.75,0 15.379573,15.379573 0 0 0 5.90625,12.09375 c -0.18645,1.12668 -0.44973,2.24753 -0.8125,3.375 -6.60631,-1.51438 -13.68369,-2.34375 -21.1875,-2.34375 -7.66424,0 -14.831201,0.82425 -21.500001,2.3125 -0.41845,-1.30702 -0.68762,-2.61059 -0.875,-3.90625 a 15.379573,15.379573 0 0 0 5.21875,-11.53125 15.379573,15.379573 0 0 0 -14.90625,-15.375 z" id="path5520"/>
        <path id="path5491" d="m 27.572252,-256.94581 a 12.643638,12.715753 0 0 0 -13.025241,12.71198 12.643638,12.715753 0 0 0 11.458101,12.63446 c 0.398253,0.91269 0.719943,1.898 0.976251,2.89378 -6.883065,2.61188 -12.968598,6.22958 -18.1634027,10.69666 -0.469143,-0.35246 -1.104409,-0.6659 -1.92681,-1.0335 -45.6333583,-8.76949 -61.3335343,20.74689 -61.9148533,25.42395 -0.581319,4.67705 31.663697,11.97583 48.8125393,-5.27082 0.222585,-0.22386 0.373672,-0.37598 0.590889,-0.59426 -5.0734793,9.94117 -7.7329343,21.47165 -7.7329343,33.76941 0,4.01327 0.53857,7.95982 1.515758,11.78182 -0.235122,-0.48442 -0.471889,-0.95753 -0.693652,-1.44689 4.0132743,21.32936 22.1781983,39.55012 39.846447,49.89191 0.02006,0.70485 0.03288,1.36925 0.05138,2.24785 0.02195,1.05466 0.03691,2.24876 0.05138,3.539711 0.0033,0.276612 0.02302,0.488834 0.02565,0.77512 0.147222,15.987262 -0.552118,47.479648 -7.193427,72.68044 -33.045896,13.421428 -56.376892,45.979398 -56.365638,84.023028 -4.11e-4,1.40696 0.04004,2.79436 0.102763,4.18565 0.0025,0.007 -0.0025,0.0183 0,0.0258 0.0058,0.12089 0.01973,0.24095 0.02565,0.36172 0.0016,0.0257 -0.0016,0.0518 0,0.0775 0.03001,0.59464 0.06141,1.19121 0.102763,1.78278 0.09129,1.31387 0.213246,2.60361 0.359672,3.90144 0.03033,0.2682 0.04439,0.53347 0.07703,0.80096 0.05138,0.42199 0.122699,0.84585 0.179836,1.26603 0.03757,0.27508 0.06273,0.5525 0.102763,0.82679 0.166748,1.14789 0.356054,2.27704 0.565198,3.41053 0.06873,0.37171 0.158017,0.7409 0.231217,1.11101 0.06947,0.35152 0.132071,0.70928 0.205527,1.05933 0.05426,0.25797 0.09773,0.51795 0.154144,0.77512 0.06363,0.29072 0.139117,0.5888 0.205527,0.87847 0.121367,0.52781 0.22917,1.05183 0.359671,1.57607 0.409886,1.65072 0.888738,3.2698 1.387304,4.88326 0.107038,0.34567 0.222955,0.68961 0.33398,1.03349 0.194765,0.60435 0.383916,1.20991 0.590889,1.80862 0.107301,0.30972 0.22344,0.62196 0.33398,0.93014 0.111166,0.31051 0.219552,0.62122 0.333981,0.93015 0.07925,0.21354 0.150445,0.43316 0.231217,0.64593 0.118145,0.31162 0.238222,0.62018 0.359672,0.93015 0.109249,0.27839 0.222083,0.54975 0.33398,0.82679 0.267111,0.66249 0.539968,1.33489 0.822106,1.98948 0.01077,0.025 0.01488,0.0525 0.02565,0.0775 0.22894,0.52983 0.480685,1.05156 0.719342,1.57607 0.04332,0.0951 0.08478,0.1893 0.128455,0.28421 0.202772,0.44158 0.406983,0.88001 0.616579,1.31771 0.0992,0.2068 0.207582,0.41417 0.30829,0.6201 1.82394,3.734751 3.892704,7.324921 6.191485,10.748331 0.05886,0.0876 0.120652,0.171 0.179836,0.25837 0.347529,0.51367 0.695649,1.01837 1.053323,1.52441 0.04974,0.0703 0.104243,0.1366 0.154145,0.20669 5.749883,8.08608 12.7820293,15.18043 20.8095563,20.97992 -4.329876,4.70996 -6.962209,10.94914 -6.962209,17.80193 0,8.32983 12.068695,7.75121 26.9239687,7.75121 14.855273,0 26.898287,-0.235 26.898287,-7.75121 0,-0.33687 -0.0131,-0.67382 -0.0256,-1.00765 1.86624,0.11605 3.73098,0.18086 5.62628,0.18086 2.2796,0 4.54534,-0.091 6.78238,-0.25838 -0.0146,0.35935 -0.0514,0.72231 -0.0514,1.08517 0,7.51621 12.06869,7.75121 26.92397,7.75121 14.855273,0 26.898273,0.57862 26.898273,-7.75121 0,-7.08514 -2.83052,-13.50635 -7.42464,-18.267 0.25125,-0.18489 0.49577,-0.38098 0.74503,-0.56842 0.006,-0.004 0.0203,0.004 0.0257,0 3.47236,-2.6123 6.72892,-5.47326 9.7882,-8.55216 0.505,-0.50787 1.02281,-1.00464 1.51576,-1.5244 0.004,-0.005 -0.004,-0.0213 0,-0.0258 0.49706,-0.5243 0.9798,-1.03992 1.46438,-1.57608 3.87597,-4.2902 7.34546,-8.94554 10.35339,-13.92632 0.004,-0.007 -0.004,-0.0196 0,-0.0258 1.8795,-3.11393 3.58486,-6.343861 5.08678,-9.689001 0.29746,-0.66136 0.59149,-1.31977 0.87349,-1.98948 2.55915,-6.08875 4.49061,-12.54027 5.67767,-19.22298 0.002,-0.008 -0.002,-0.0175 0,-0.0258 0.26225,-1.47878 0.5037,-2.96717 0.69365,-4.46986 8.2e-4,-0.009 -8.2e-4,-0.0174 0,-0.0258 0.0942,-0.74713 0.1809,-1.49515 0.25691,-2.24785 8.2e-4,-0.009 -8.2e-4,-0.0174 0,-0.0258 0.15247,-1.51419 0.25661,-3.03793 0.33398,-4.57321 0.0778,-1.54289 0.12845,-3.11433 0.12845,-4.67656 0,-1.57425 -0.0495,-3.12171 -0.12845,-4.67656 -0.006,-0.12147 -0.0192,-0.24038 -0.0257,-0.36172 -0.0354,-0.64742 -0.0795,-1.29404 -0.12845,-1.9378 -0.0279,-0.3702 -0.0447,-0.74207 -0.077,-1.11101 -0.0115,-0.13034 -0.0393,-0.25737 -0.0514,-0.38756 -0.11064,-1.20424 -0.22829,-2.40128 -0.38536,-3.59139 -0.002,-0.017 0.002,-0.0347 0,-0.0517 -0.085,-0.6412 -0.18433,-1.27507 -0.2826,-1.91196 -0.1039,-0.67086 -0.21551,-1.34939 -0.33398,-2.01531 -0.22808,-1.28612 -0.48926,-2.55722 -0.77072,-3.82393 -0.0442,-0.19821 -0.083,-0.39655 -0.12846,-0.59426 -0.0277,-0.12072 -0.0489,-0.24118 -0.077,-0.36172 -0.14232,-0.60814 -0.30798,-1.20527 -0.46243,-1.80861 -0.0878,-0.34357 -0.16521,-0.69152 -0.25691,-1.0335 -0.0415,-0.15466 -0.0861,-0.31074 -0.12846,-0.46507 -0.12998,-0.47461 -0.27361,-0.94959 -0.41105,-1.42105 -0.13616,-0.46632 -0.26766,-0.93207 -0.41105,-1.39522 -0.23849,-0.7718 -0.48671,-1.53672 -0.74503,-2.29952 -0.20768,-0.61184 -0.42201,-1.22864 -0.64227,-1.83445 -8.9064,-24.5493695 -28.07133,-44.11193 -52.280893,-53.483382 -0.30752,-1.042258 -0.61063,-2.088261 -0.89917,-3.152156 -0.046,-0.169939 -0.0829,-0.346303 -0.12846,-0.516747 -0.43506,-1.626049 -0.86587,-3.268957 -1.25885,-4.934932 -0.27556,-1.170336 -0.51504,-2.354331 -0.77072,-3.539715 -0.0799,-0.370008 -0.17886,-0.739775 -0.25691,-1.111006 -0.55413,-2.640047 -1.07824,-5.305775 -1.54145,-7.983738 -0.003,-0.01678 0.003,-0.03489 0,-0.05168 -2.83969,-16.437229 -4.0403,-33.192707 -4.54727,-45.422046 -8.2e-4,-0.02778 8.2e-4,-0.04977 0,-0.07747 -0.1144,-2.770755 -0.20174,-5.321335 -0.25691,-7.570337 -0.0172,-0.73831 -0.0147,-1.29457 -0.0257,-1.96364 21.29785,-10.95493 44.650633,-34.1214 44.650633,-60.92445 0,-0.56306 -0.0164,-1.11966 -0.0257,-1.67943 0,-0.16591 8.2e-4,-0.32528 0,-0.49091 -0.002,-0.0773 0.002,-0.15534 0,-0.23253 -0.0513,-5.69002 -0.69074,-11.21319 -1.90112,-16.48423 -0.99894,-4.6588 -2.38032,-9.09371 -4.1876,-13.28039 0.0979,0.42815 0.16572,0.86027 0.2569,1.29187 -0.71819,-1.66767 -1.49361,-3.32035 -2.33786,-4.9091 0.33528,0.33678 0.57648,0.57977 0.92487,0.93015 17.14884,17.24665 49.39386,9.94787 48.81254,5.27081 -0.58132,-4.67705 -16.25581,-34.19344 -61.88916,-25.42394 -0.964193,0.43097 -1.713933,0.78726 -2.183723,1.21435 -5.22842,-4.49649 -11.29133,-8.15818 -18.11202,-10.80001 0.26597,-1.05507 0.62874,-2.0868 1.05332,-3.0488 a 12.643638,12.715753 0 0 0 10.79006,-12.55699 12.643638,12.715753 0 0 0 -25.27976,0 12.643638,12.715753 0 0 0 4.85556,9.99905 c -0.15328,0.93153 -0.36972,1.85824 -0.66796,2.79043 -5.43108,-1.25208 -11.24944,-1.9378 -17.41837,-1.9378 -6.30081,0 -12.19281,0.68149 -17.675279,1.91196 -0.34401,-1.08063 -0.565296,-2.15842 -0.719342,-3.22966 a 12.643638,12.715753 0 0 0 4.290371,-9.53398 12.643638,12.715753 0 0 0 -12.254522,-12.71197 z" style="color:#000000;fill:#eeeeec;fill-opacity:1;fill-rule:nonzero;stroke:#eeeeec;stroke-width:28.91605568;stroke-linecap:round;stroke-linejoin:round;stroke-miterlimit:4;stroke-opacity:1;stroke-dasharray:none;stroke-dashoffset:0;marker:none;visibility:visible;display:inline;overflow:visible;enable-background:accumulate" inkscape:connector-curvature="0"/>
        <g transform="matrix(0.82210593,0,0,0.82679491,-234.84088,-405.81194)" id="g5452" clip-path="url(#clipPath5493)" style="stroke:none">
          <path inkscape:connector-curvature="0" d="m 441.29462,560.70587 c 0.0148,49.72803 -40.29355,90.04842 -90.02158,90.04842 -49.72803,0 -90.0364,-40.32039 -90.02158,-90.04842 -0.0148,-49.72803 40.29355,-90.04842 90.02158,-90.04842 49.72803,0 90.0364,40.32039 90.02158,90.04842 z" transform="matrix(1.21678,0,0,1.21678,-76.1501,-121.552)" id="path2383-92" style="fill:#ffcc00;fill-opacity:1;fill-rule:nonzero;stroke:none"/>
          <path inkscape:connector-curvature="0" d="m 93.338093,349.0455 a 18.031223,15.556349 0 1 1 -36.062447,0 18.031223,15.556349 0 1 1 36.062447,0 z" transform="matrix(0.424734,-0.244731,0.487905,0.846765,78.4336,337.302)" id="path3242-9" style="fill:#784421;fill-opacity:1;fill-rule:nonzero;stroke:none"/>
          <path inkscape:connector-curvature="0" d="m 454.1875,523.125 c 0.0768,1.68161 0.125,3.39329 0.125,5.09375 0,60.46428 -49.06696,109.53125 -109.53125,109.53125 -47.26217,0 -87.5912,-29.99927 -102.9375,-71.96875 2.65351,58.11219 50.67363,104.46875 109.4375,104.46875 60.46429,0 109.53125,-49.06697 109.53125,-109.53125 0,-13.20218 -2.33815,-25.87003 -6.625,-37.59375 z" id="path3221-5" style="fill:#000000;fill-opacity:0.31372549;fill-rule:nonzero;stroke:none;filter:url(#filter5360)"/>
          <path inkscape:connector-curvature="0" d="m 359.45331,671.27549 c 0,9.09078 14.66533,9.38135 32.73511,9.38135 18.06978,0 32.73512,0.69349 32.73512,-9.38135 0,-17.71594 -14.66534,-32.0941 -32.73512,-32.0941 -18.06978,0 -32.73511,14.37816 -32.73511,32.0941 z" id="path3172-4" style="fill:#784421;fill-opacity:1;fill-rule:nonzero;stroke:none"/>
          <path inkscape:connector-curvature="0" d="m 404.77885,680.0559 c 0,-16.36756 -9.44283,-26.43991 -9.44283,-26.43991 0,0 3.77713,13.84948 3.14761,26.43991 l 6.29522,0 z" id="path3174-6" style="fill:#000000;fill-opacity:0.31372549;fill-rule:evenodd;stroke:none;filter:url(#filter5372)"/>
          <path inkscape:connector-curvature="0" d="m 298.73628,487.34467 c 24.5,-37.90099 20,-128.73267 20,-128.73267 l 60,-3.26733 c 0,0 -1.5,91.48515 23.5,130.0396" id="path2399-2" style="fill:#ffcc00;fill-opacity:1;fill-rule:evenodd;stroke:none"/>
          <path inkscape:connector-curvature="0" d="m 93.338093,349.0455 a 18.031223,15.556349 0 1 1 -36.062447,0 18.031223,15.556349 0 1 1 36.062447,0 z" transform="matrix(0.583478,0,0,0.954545,319.842,61.2496)" id="path3244-7" style="fill:#784421;fill-opacity:1;fill-rule:nonzero;stroke:none"/>
          <path transform="translate(216.727,178.058)" inkscape:connector-curvature="0" d="m 162,177.28125 -17.15625,0.9375 L 102,180.5625 c 0,0 0.24111,4.85453 0.3125,12.5625 13.15896,8.25632 26.41989,13.0625 35.71875,13.0625 3.3283,0 7.10526,-0.5723 11.15625,-1.65625 6.18631,33.34103 17.66752,80.34255 36.03125,102.5 l -1,0.34375 1.28125,-0.0312 c -17.207,-26.53627 -21.83352,-78.1521 -23.0625,-107.75 -0.13915,-3.3512 -0.24539,-6.4361 -0.3125,-9.15625 -0.051,-2.17381 -0.0751,-4.09727 -0.0937,-5.78125 -0.0171,-1.35694 -0.0272,-2.37691 -0.0312,-3.375 -0.005,-1.55014 -0.006,-1.74795 0,-2.40625 0.002,-1.04455 0,-1.59375 0,-1.59375 z" id="path3214-6" style="fill:#000000;fill-opacity:0.31372549;fill-rule:evenodd;stroke:none;filter:url(#filter5352)"/>
          <path inkscape:connector-curvature="0" d="m 351.26753,208.56586 c -22.78984,0 -41.27805,6.96787 -54.875,18.59375 -0.57066,-0.42629 -1.34339,-0.8054 -2.34375,-1.25 -55.50788,-10.60661 -74.60539,25.09315 -75.3125,30.75 -0.70711,5.65685 38.51535,14.48465 59.375,-6.375 0.27075,-0.27075 0.45453,-0.45474 0.71875,-0.71875 -6.17132,12.02374 -9.40625,25.96974 -9.40625,40.84375 0,45.17448 56.1255,81.84375 81.84375,81.84375 26.71661,0 81.84375,-36.66927 81.84375,-81.84375 0,-15.04123 -3.46305,-29.13504 -9.9375,-41.25 0.40783,0.40733 0.70122,0.70122 1.125,1.125 20.85965,20.85965 60.08211,12.03185 59.375,6.375 -0.70711,-5.65685 -19.77337,-41.35661 -75.28125,-30.75 -1.17282,0.52125 -2.0848,0.95218 -2.65625,1.46875 -13.73546,-11.74564 -32.20698,-18.8125 -54.46875,-18.8125 z" id="path3155-7" style="fill:#ffcc00;fill-opacity:1;fill-rule:nonzero;stroke:none"/>
          <path inkscape:connector-curvature="0" d="m 347.6435,278.41325 c 0.004,12.51895 -10.14383,22.66953 -22.66277,22.66953 -12.51895,0 -22.66651,-10.15058 -22.66278,-22.66953 -0.004,-12.51894 10.14383,-22.66952 22.66278,-22.66952 12.51894,0 22.6665,10.15058 22.66277,22.66952 z" id="path3157-17" style="fill:#ffffff;fill-opacity:1;fill-rule:nonzero;stroke:none"/>
          <path inkscape:connector-curvature="0" d="m 400.3757,278.41325 c 0.004,12.51895 -10.14383,22.66953 -22.66277,22.66953 -12.51895,0 -22.66651,-10.15058 -22.66278,-22.66953 -0.004,-12.51894 10.14383,-22.66952 22.66278,-22.66952 12.51894,0 22.6665,10.15058 22.66277,22.66952 z" id="path3159-1" style="fill:#ffffff;fill-opacity:1;fill-rule:nonzero;stroke:none"/>
          <path inkscape:connector-curvature="0" d="m 380.23101,282.41325 c 10e-4,4.17298 -3.38127,7.55651 -7.55425,7.55651 -4.17298,0 -7.5555,-3.38353 -7.55425,-7.55651 -10e-4,-4.17298 3.38127,-7.5565 7.55425,-7.5565 4.17298,0 7.5555,3.38352 7.55425,7.5565 z" id="path3161-8" style="fill:#2e3436;fill-opacity:1;fill-rule:nonzero;stroke:none"/>
          <path inkscape:connector-curvature="0" d="m 338.20067,282.41325 c 10e-4,4.17298 -3.38127,7.55651 -7.55425,7.55651 -4.17298,0 -7.5555,-3.38353 -7.55425,-7.55651 -0.001,-4.17298 3.38127,-7.5565 7.55425,-7.5565 4.17298,0 7.5555,3.38352 7.55425,7.5565 z" id="path3163-6" style="fill:#2e3436;fill-opacity:1;fill-rule:nonzero;stroke:none"/>
          <path inkscape:connector-curvature="0" d="m 425.6875,253.51048 c 1.75462,7.63243 2.625,15.72251 2.625,24.125 0,45.17449 -55.12714,81.84375 -81.84375,81.84375 -20.70581,2e-5 -61.09673,-23.75565 -76.0625,-56.59375 7.61581,40.24628 57.1719,71.37501 80.875,71.375 26.71661,0 81.84375,-36.6693 81.84375,-81.84375 0,-14.08051 -2.41267,-27.33197 -7.4375,-38.90625 z" id="path3231-8" style="fill:#000000;fill-opacity:0.31372549;fill-rule:nonzero;stroke:none;filter:url(#filter5340)"/>
          <path inkscape:connector-curvature="0" d="m 344.4555,671.27549 c 0,9.09078 -14.66533,9.38135 -32.73511,9.38135 -18.06978,0 -32.73512,0.69349 -32.73512,-9.38135 0,-17.71594 14.66534,-32.0941 32.73512,-32.0941 18.06978,0 32.73511,14.37816 32.73511,32.0941 z" id="path3329-0" style="fill:#784421;fill-opacity:1;fill-rule:nonzero;stroke:none"/>
          <path inkscape:connector-curvature="0" d="m 299.12996,680.0559 c 0,-16.36756 9.44283,-26.43991 9.44283,-26.43991 0,0 -3.77713,13.84948 -3.14761,26.43991 l -6.29522,0 z" id="path3331-7" style="fill:#000000;fill-opacity:0.31372549;fill-rule:evenodd;stroke:none;filter:url(#filter5376)"/>
          <path inkscape:connector-curvature="0" d="m 367.86847,343.04459 c -2.29272,3.97309 -6.50025,5.8386 -9.39677,4.16629 -2.89654,-1.67231 -3.38472,-6.2489 -1.09029,-10.22099 2.29273,-3.9731 6.50026,-5.83861 9.39679,-4.1663 2.89653,1.67231 3.38471,6.2489 1.09027,10.221 z" id="path2398-8" style="fill:#000000;fill-opacity:1;fill-rule:nonzero;stroke:none"/>
          <path inkscape:connector-curvature="0" d="m 335.13142,343.04459 c 2.29272,3.97309 6.50025,5.8386 9.39677,4.16629 2.89654,-1.67231 3.38472,-6.2489 1.09029,-10.22099 -2.29273,-3.9731 -6.50026,-5.83861 -9.39679,-4.1663 -2.89653,1.67231 -3.38471,6.2489 -1.09027,10.221 z" id="path2412-6" style="fill:#000000;fill-opacity:1;fill-rule:nonzero;stroke:none"/>
          <path inkscape:connector-curvature="0" d="m 317.51803,224.48441 c 5.65685,-10.25305 -6.01041,-22.62742 -6.01041,-22.62742 l 17.32411,-4.24264 c 0,0 -2.47487,15.55634 6.71752,21.2132" id="path3224-69" style="fill:#ffcc00;fill-opacity:1;fill-rule:evenodd;stroke:none"/>
          <path inkscape:connector-curvature="0" d="m 82.37794,-127.96103 a 15.379573,15.379573 0 1 1 -30.759146,0 15.379573,15.379573 0 1 1 30.759146,0 z" transform="translate(251.736,323.399)" id="path3186-6" style="fill:#784421;fill-opacity:1;fill-rule:nonzero;stroke:none"/>
          <path inkscape:connector-curvature="0" d="m 418.58739,232.50248 c 35.78161,-4.56749 52.52347,16.96496 53.83655,20.22745 1.31309,3.26248 -35.12506,10.11372 -53.83655,-20.22745 z" id="path3190-1" style="fill:#d4aa00;fill-opacity:1;fill-rule:evenodd;stroke:none"/>
          <path inkscape:connector-curvature="0" d="m 384.69317,224.48441 c -5.65685,-10.25305 6.01041,-22.62742 6.01041,-22.62742 l -17.32411,-4.24264 c 0,0 2.47487,15.55634 -6.71752,21.2132" id="path3228-8" style="fill:#ffcc00;fill-opacity:1;fill-rule:evenodd;stroke:none"/>
          <path inkscape:connector-curvature="0" d="m 82.37794,-127.96103 a 15.379573,15.379573 0 1 1 -30.759146,0 15.379573,15.379573 0 1 1 30.759146,0 z" transform="translate(315.736,323.399)" id="path3222-5" style="fill:#784421;fill-opacity:1;fill-rule:nonzero;stroke:none"/>
          <path inkscape:connector-curvature="0" d="m 93.338093,349.0455 a 18.031223,15.556349 0 1 1 -36.062447,0 18.031223,15.556349 0 1 1 36.062447,0 z" transform="matrix(0.723665,0.177426,-0.324715,1.32441,330.724,54.998)" id="path3230-9" style="fill:#784421;fill-opacity:1;fill-rule:nonzero;stroke:none"/>
          <path inkscape:connector-curvature="0" d="m 93.338093,349.0455 a 18.031223,15.556349 0 1 1 -36.062447,0 18.031223,15.556349 0 1 1 36.062447,0 z" transform="matrix(1.35294,0,0,1.65909,231.867,-11.3361)" id="path3232-6" style="fill:#784421;fill-opacity:1;fill-rule:nonzero;stroke:none"/>
          <path inkscape:connector-curvature="0" d="m 93.338093,349.0455 a 18.031223,15.556349 0 1 1 -36.062447,0 18.031223,15.556349 0 1 1 36.062447,0 z" transform="matrix(0.446439,-0.148813,0.301854,0.905561,288.464,217.278)" id="path3234-6" style="fill:#784421;fill-opacity:1;fill-rule:nonzero;stroke:none"/>
          <path inkscape:connector-curvature="0" d="m 93.338093,349.0455 a 18.031223,15.556349 0 1 1 -36.062447,0 18.031223,15.556349 0 1 1 36.062447,0 z" transform="matrix(0.666667,0,0,0.954545,359.077,257.25)" id="path3236-1" style="fill:#784421;fill-opacity:1;fill-rule:nonzero;stroke:none"/>
          <path inkscape:connector-curvature="0" d="m 93.338093,349.0455 a 18.031223,15.556349 0 1 1 -36.062447,0 18.031223,15.556349 0 1 1 36.062447,0 z" transform="matrix(1.05882,0,0,1.36364,296.796,35.576)" id="path3238-7" style="fill:#784421;fill-opacity:1;fill-rule:nonzero;stroke:none"/>
          <path inkscape:connector-curvature="0" d="m 93.338093,349.0455 a 18.031223,15.556349 0 1 1 -36.062447,0 18.031223,15.556349 0 1 1 36.062447,0 z" transform="matrix(0.72549,0,0,1.36364,279.119,-35.4484)" id="path3240-5" style="fill:#784421;fill-opacity:1;fill-rule:nonzero;stroke:none"/>
          <path inkscape:connector-curvature="0" d="m 283.45849,232.50248 c -35.78161,-4.56749 -52.52347,16.96496 -53.83655,20.22745 -1.31309,3.26248 35.12506,10.11372 53.83655,-20.22745 z" id="path3246-5" style="fill:#d4aa00;fill-opacity:1;fill-rule:evenodd;stroke:none"/>
        </g>
      </g>
    </g>
  </g>
</svg>