<?xml version="1.0" encoding="UTF-8" standalone="no"?>
<!-- Created with Inkscape (http://www.inkscape.org/) -->

<svg
   xmlns:dc="http://purl.org/dc/elements/1.1/"
   xmlns:cc="http://creativecommons.org/ns#"
   xmlns:rdf="http://www.w3.org/1999/02/22-rdf-syntax-ns#"
   xmlns:svg="http://www.w3.org/2000/svg"
   xmlns="http://www.w3.org/2000/svg"
   xmlns:sodipodi="http://sodipodi.sourceforge.net/DTD/sodipodi-0.dtd"
   xmlns:inkscape="http://www.inkscape.org/namespaces/inkscape"
   width="744.09448819"
   height="1052.3622047"
   id="svg2"
   version="1.1"
   inkscape:version="0.48.2 r9819"
   sodipodi:docname="pies.svg">
  <defs
     id="defs4">
    <inkscape:path-effect
       effect="skeletal"
       id="path-effect5575"
       is_visible="true"
       pattern="M 0,5 C 0,2.24 2.24,0 5,0 7.76,0 10,2.24 10,5 10,7.76 7.76,10 5,10 2.24,10 0,7.76 0,5 z"
       copytype="single_stretched"
       prop_scale="1"
       scale_y_rel="false"
       spacing="0"
       normal_offset="0"
       tang_offset="0"
       prop_units="false"
       vertical_pattern="false"
       fuse_tolerance="0" />
    <inkscape:path-effect
       effect="skeletal"
       id="path-effect5571"
       is_visible="true"
       pattern="M 0,5 C 0,2.24 2.24,0 5,0 7.76,0 10,2.24 10,5 10,7.76 7.76,10 5,10 2.24,10 0,7.76 0,5 z"
       copytype="single_stretched"
       prop_scale="1"
       scale_y_rel="false"
       spacing="0"
       normal_offset="0"
       tang_offset="0"
       prop_units="false"
       vertical_pattern="false"
       fuse_tolerance="0" />
    <inkscape:path-effect
       effect="skeletal"
       id="path-effect5567"
       is_visible="true"
       pattern="M 0,5 C 0,2.24 2.24,0 5,0 7.76,0 10,2.24 10,5 10,7.76 7.76,10 5,10 2.24,10 0,7.76 0,5 z"
       copytype="single_stretched"
       prop_scale="1"
       scale_y_rel="false"
       spacing="0"
       normal_offset="0"
       tang_offset="0"
       prop_units="false"
       vertical_pattern="false"
       fuse_tolerance="0" />
    <inkscape:path-effect
       effect="skeletal"
       id="path-effect5559"
       is_visible="true"
       pattern="M 0,5 C 0,2.24 2.24,0 5,0 7.76,0 10,2.24 10,5 10,7.76 7.76,10 5,10 2.24,10 0,7.76 0,5 z"
       copytype="single_stretched"
       prop_scale="1"
       scale_y_rel="false"
       spacing="0"
       normal_offset="0"
       tang_offset="0"
       prop_units="false"
       vertical_pattern="false"
       fuse_tolerance="0" />
    <inkscape:path-effect
       effect="spiro"
       id="path-effect5557"
       is_visible="true" />
    <inkscape:path-effect
       effect="skeletal"
       id="path-effect5553"
       is_visible="true"
       pattern="m -98.994949,-67.730983 c 0,-2.76 2.24,-5 5,-5 2.76,0 5,2.24 5,5 0,2.76 -2.24,5 -5,5 -2.76,0 -5,-2.24 -5,-5 z"
       copytype="single_stretched"
       prop_scale="1"
       scale_y_rel="false"
       spacing="0"
       normal_offset="0"
       tang_offset="0"
       prop_units="false"
       vertical_pattern="false"
       fuse_tolerance="0" />
    <inkscape:path-effect
       effect="spiro"
       id="path-effect5551"
       is_visible="true" />
    <inkscape:path-effect
       effect="skeletal"
       id="path-effect5539"
       is_visible="true"
       pattern="m -243.67185,-53.457645 c 0,-2.76 2.24,-5 5,-5 2.76,0 5.00001,2.24 5.00001,5 0,2.76 -2.24001,5 -5.00001,5 -2.76,0 -5,-2.24 -5,-5 z"
       copytype="single_stretched"
       prop_scale="1"
       scale_y_rel="false"
       spacing="0"
       normal_offset="0"
       tang_offset="0"
       prop_units="false"
       vertical_pattern="false"
       fuse_tolerance="0" />
    <inkscape:path-effect
       effect="spiro"
       id="path-effect5537"
       is_visible="true" />
    <inkscape:path-effect
       effect="skeletal"
       id="path-effect5533"
       is_visible="true"
       pattern="M 0,0 0,10 10,5 z"
       copytype="single_stretched"
       prop_scale="1"
       scale_y_rel="false"
       spacing="0"
       normal_offset="0"
       tang_offset="0"
       prop_units="false"
       vertical_pattern="false"
       fuse_tolerance="0" />
    <inkscape:path-effect
       effect="spiro"
       id="path-effect5531"
       is_visible="true" />
    <marker
       inkscape:stockid="Arrow1Lend"
       orient="auto"
       refY="0.0"
       refX="0.0"
       id="Arrow1Lend"
       style="overflow:visible;">
      <path
         id="path3804"
         d="M 0.0,0.0 L 5.0,-5.0 L -12.5,0.0 L 5.0,5.0 L 0.0,0.0 z "
         style="fill-rule:evenodd;stroke:#000000;stroke-width:1.0pt;marker-start:none;"
         transform="scale(0.8) rotate(180) translate(12.5,0)" />
    </marker>
    <inkscape:path-effect
       effect="spiro"
       id="path-effect3796"
       is_visible="true" />
  </defs>
  <sodipodi:namedview
     id="base"
     pagecolor="#ffffff"
     bordercolor="#666666"
     borderopacity="1.0"
     inkscape:pageopacity="0.0"
     inkscape:pageshadow="2"
     inkscape:zoom="0.7"
     inkscape:cx="368.26086"
     inkscape:cy="728.32801"
     inkscape:document-units="px"
     inkscape:current-layer="layer1"
     showgrid="false"
     inkscape:window-width="1280"
     inkscape:window-height="711"
     inkscape:window-x="0"
     inkscape:window-y="0"
     inkscape:window-maximized="1"
     showguides="true"
     inkscape:guide-bbox="true">
    <sodipodi:guide
       orientation="-0.70710678,0.70710678"
       position="-35.355339,1067.7312"
       id="guide3786" />
  </sodipodi:namedview>
  <metadata
     id="metadata7">
    <rdf:RDF>
      <cc:Work
         rdf:about="">
        <dc:format>image/svg+xml</dc:format>
        <dc:type
           rdf:resource="http://purl.org/dc/dcmitype/StillImage" />
        <dc:title></dc:title>
      </cc:Work>
    </rdf:RDF>
  </metadata>
  <g
     inkscape:label="Layer 1"
     inkscape:groupmode="layer"
     id="layer1">
    <path
       sodipodi:type="arc"
       style="opacity:0.5;fill:#b5b9cb;fill-opacity:1;fill-rule:nonzero;stroke:#000000;stroke-width:2.99980044;stroke-linejoin:round;stroke-miterlimit:4;stroke-opacity:1;stroke-dasharray:none;stroke-dashoffset:0"
       id="path2985"
       sodipodi:cx="72.73098"
       sodipodi:cy="14.935518"
       sodipodi:rx="62.629459"
       sodipodi:ry="64.649765"
       d="m 135.36044,14.935518 a 62.629459,64.649765 0 1 1 -125.258919,0 62.629459,64.649765 0 1 1 125.258919,0 z"
       transform="matrix(1.6218427,0,0,1.6218427,764.04257,47.43844)" />
    <path
       sodipodi:type="star"
       style="fill:#000000;fill-opacity:1;fill-rule:nonzero;stroke:#4824ff;stroke-width:0;stroke-linejoin:round;stroke-miterlimit:0;stroke-opacity:1;stroke-dasharray:none;stroke-dashoffset:0"
       id="path4452"
       sodipodi:sides="3"
       sodipodi:cx="162.63457"
       sodipodi:cy="495.76813"
       sodipodi:r1="120.92332"
       sodipodi:r2="36.261555"
       sodipodi:arg1="0.5346889"
       sodipodi:arg2="1.500588"
       inkscape:flatsided="false"
       inkscape:rounded="0"
       inkscape:randomized="0"
       d="M 266.68028,557.38743 165.17834,531.94035 57.247829,555.0647 l 72.788791,-75.17971 33.93897,-105.03274 28.71315,100.6268 z"
       inkscape:transform-center-x="0.67051382"
       inkscape:transform-center-y="-29.648289"
       transform="translate(369.01813,-286.06899)"
       inkscape:export-filename="/home/piantado/Desktop/mit/Libraries/kelpy/kelpy/stimuli/black_star.png"
       inkscape:export-xdpi="200"
       inkscape:export-ydpi="200" />
    <rect
       style="fill:#fcff14;fill-opacity:1;fill-rule:nonzero;stroke:#000000;stroke-width:2.89861011999999985;stroke-linejoin:round;stroke-miterlimit:4;stroke-opacity:1;stroke-dasharray:none;stroke-dashoffset:0"
       id="rect3845"
       width="291.03046"
       height="291.03046"
       x="37.949039"
       y="478.88266"
       ry="6.6138501"
       inkscape:export-filename="/home/piantado/Desktop/mit/Libraries/kelpy/kelpy/stimuli/yellow_box.png"
       inkscape:export-xdpi="200"
       inkscape:export-ydpi="200" />
    <rect
       style="fill:#1f14ff;fill-opacity:1;fill-rule:nonzero;stroke:#000000;stroke-width:2.89861011999999985;stroke-linejoin:round;stroke-miterlimit:4;stroke-opacity:1;stroke-dasharray:none;stroke-dashoffset:0"
       id="rect3845-9"
       width="291.03046"
       height="291.03046"
       x="376.953"
       y="476.39093"
       ry="6.6138501"
       inkscape:export-filename="/home/piantado/Desktop/mit/Libraries/kelpy/kelpy/stimuli/blue_box.png"
       inkscape:export-xdpi="200"
       inkscape:export-ydpi="200" />
    <path
       sodipodi:type="arc"
       style="opacity:0.5;fill:#b5b9cb;fill-opacity:1;fill-rule:nonzero;stroke:#000000;stroke-width:2.99980044;stroke-linejoin:round;stroke-miterlimit:4;stroke-opacity:1;stroke-dasharray:none;stroke-dashoffset:0"
       id="path2985-5"
       sodipodi:cx="72.73098"
       sodipodi:cy="14.935518"
       sodipodi:rx="62.629459"
       sodipodi:ry="64.649765"
       d="m 135.36044,14.935518 a 62.629459,64.649765 0 1 1 -125.258919,0 62.629459,64.649765 0 1 1 125.258919,0 z"
       transform="matrix(1.6218427,0,0,1.6218427,779.18465,385.28197)" />
    <path
       style="fill:#000000;fill-opacity:1;fill-rule:evenodd;stroke:none"
       d="m 150.72295,211.85561 c -0.14683,-0.20494 0.86239,-1.1743 2.70709,-3.07819 0.92234,-0.95194 2.04795,-2.1468 3.35393,-3.60582 1.30599,-1.45903 2.78893,-3.18636 4.49524,-5.13625 1.45731,-1.67603 3.08925,-3.52889 4.99784,-5.4535 1.90859,-1.92461 4.0922,-3.92342 6.74115,-5.77929 2.08011,-1.46767 4.48904,-2.80693 7.20711,-3.77237 2.71806,-0.96544 5.74593,-1.55808 9.01649,-1.43192 10e-6,0 2e-5,0 2e-5,0 2.89841,0.13282 5.92505,0.90993 8.71184,2.53753 2.62193,1.53377 4.93673,3.85815 6.40988,6.86533 1.41,2.96227 1.89791,6.36278 1.38194,9.69925 -0.49006,3.16057 -1.77396,6.19685 -3.68013,8.82958 -1.80307,2.44618 -4.0237,4.54149 -6.51619,6.29479 -2.49248,1.75331 -5.257,3.16453 -8.10285,4.2584 -5.25291,2.07331 -10.73179,3.32426 -15.90394,4.98973 -4.83999,1.61865 -9.60785,3.5522 -13.032,6.83812 -2.31303,2.10988 -4.11726,4.88379 -5.27574,7.99002 -1.15848,3.10624 -1.67125,6.54492 -1.38471,9.90719 0.5123,6.38865 3.98134,12.82671 9.21891,17.26712 5.00312,4.26267 11.8203,6.75918 18.82315,7.08109 6.74215,0.31554 13.78256,-1.46216 20.12489,-4.81127 6.06277,-3.14517 11.38018,-7.79868 15.92826,-13.44868 4.54807,-5.65 8.32686,-12.29605 11.32669,-19.29804 2.82515,-6.68056 4.95502,-13.79732 6.7954,-21.20658 1.84039,-7.40925 3.3917,-15.11088 5.12568,-22.93427 1.94264,-8.94494 4.10397,-17.9032 5.81794,-26.87753 1.71396,-8.97432 2.9796,-17.9647 3.05288,-26.98147 0.0117,-1.44039 -0.007,-2.87747 -0.0594,-4.31131 -0.32986,-9.63096 -2.05541,-19.07302 -5.74211,-27.46442 -3.76651,-8.56157 -9.51165,-16.159368 -16.7992,-21.208358 -8.49362,-6.03738 -19.22673,-8.635418 -29.7391,-9.017336 -10.96802,-0.377012 -21.91276,1.784436 -32.51484,4.589006 -9.83884,2.654022 -19.3041,5.91799 -28.04497,9.946991 -8.74086,4.029001 -16.75719,8.823147 -23.81182,14.454117 0,0 -1e-5,1e-5 -2e-5,1e-5 -7.97578,6.376 -14.751632,13.86783 -19.838705,21.84662 -5.087074,7.9788 -8.486691,16.44494 -10.028383,24.92621 -0.902971,4.88198 -1.215447,9.74879 -0.984725,14.43615 0.230722,4.68736 1.004533,9.19552 2.259605,13.41062 1.447845,4.86792 3.534037,9.36083 6.042843,13.32865 2.508806,3.96782 5.440433,7.41151 8.613015,10.27541 4.00642,3.62038 8.40054,6.32958 12.73327,8.22018 4.33274,1.89059 8.60768,2.96569 12.57145,3.4284 0,0 1e-5,0 1e-5,0 4.54066,0.53307 8.67791,0.27357 12.19733,-0.31213 3.51941,-0.5857 6.43183,-1.497 8.73561,-2.37054 2.30378,-0.87354 4.00814,-1.70825 5.17264,-2.256 1.16451,-0.54776 1.79525,-0.80682 1.89669,-0.66524 0.10144,0.14158 -0.32919,0.68144 -1.33917,1.53213 -1.00997,0.8507 -2.60528,2.01163 -4.8851,3.2357 -2.27983,1.22406 -5.25332,2.51093 -8.95645,3.46053 -3.70312,0.94959 -8.14669,1.56168 -13.15237,1.28744 0,0 -1e-5,0 -1e-5,0 -4.36155,-0.24135 -9.12129,-1.15009 -14.00185,-2.98659 -4.88056,-1.8365 -9.885455,-4.604 -14.525495,-8.46957 -3.664244,-3.0553 -7.086495,-6.7643 -10.04946,-11.08596 -2.962966,-4.32167 -5.466776,-9.25698 -7.254183,-14.6712 -1.543983,-4.68073 -2.563398,-9.69242 -2.9732,-14.91489 -0.409802,-5.22247 -0.209843,-10.65597 0.671941,-16.12884 1.556808,-9.49572 5.091277,-18.97667 10.474252,-27.88512 5.382975,-8.90845 12.616027,-17.24432 21.249525,-24.28897 1e-5,0 1e-5,-1e-5 2e-5,-1e-5 7.58362,-6.197041 16.12494,-11.493972 25.36003,-15.927366 9.23509,-4.433394 19.16371,-8.003207 29.40923,-10.832146 11.00654,-3.09451 22.82669,-5.472681 35.23288,-5.220026 11.96864,0.223687 24.48369,3.304891 35.10509,10.570198 8.98291,6.274087 15.91846,15.238094 20.2966,25.30274 4.2732,9.81232 6.29772,20.48818 6.61334,31.13548 0.0438,1.58111 0.0544,3.15931 0.0343,4.73457 -0.1258,9.86106 -1.44411,19.43552 -3.2107,28.74414 -1.76659,9.30861 -3.98051,18.35146 -5.97588,27.15197 -1.71306,7.70966 -3.32597,15.50292 -5.30272,23.18839 -1.97675,7.68548 -4.31774,15.26299 -7.41913,22.56295 -3.25356,7.74956 -7.57362,15.13887 -12.90496,21.5191 -5.33134,6.38023 -11.67389,11.75094 -18.9523,15.59173 -7.70245,4.00526 -16.33251,6.00062 -24.82411,5.54328 -8.87946,-0.48387 -17.39221,-3.83871 -23.91542,-9.48294 -6.86907,-5.96527 -11.10673,-14.40985 -11.73243,-23.10649 -0.3169,-4.63696 0.46325,-9.22547 2.13494,-13.3671 1.67168,-4.14163 4.23488,-7.83651 7.50128,-10.76364 4.93828,-4.26354 10.64993,-6.55381 16.00188,-8.06975 5.64993,-1.66294 10.96055,-2.69589 15.61667,-4.40691 2.47762,-0.9392 4.83362,-2.03316 6.89117,-3.34304 2.05754,-1.30988 3.81682,-2.83561 5.14515,-4.62046 1.432,-1.87769 2.44923,-3.98842 2.83501,-6.11023 0.40461,-2.21574 0.20594,-4.50341 -0.62865,-6.38261 -0.81743,-1.93346 -2.34,-3.58123 -4.09229,-4.73492 -1.87584,-1.23706 -4.10278,-1.90918 -6.29989,-2.13231 -1e-5,0 -1e-5,0 -1e-5,0 -2.48708,-0.27605 -4.94997,0.0955 -7.26077,0.80127 -2.31079,0.70579 -4.47013,1.7469 -6.40655,2.90479 -2.47524,1.49374 -4.62113,3.22249 -6.56671,4.92786 -1.94558,1.70538 -3.68922,3.38985 -5.28863,4.91834 -1.86027,1.78916 -3.5401,3.38179 -5.04454,4.70145 -1.50444,1.31965 -2.83039,2.3707 -3.93806,3.16247 -2.21536,1.58353 -3.52541,2.1595 -3.67224,1.95456 z"
       id="path5535"
       inkscape:path-effect="#path-effect5537;#path-effect5539"
       inkscape:original-d="m 150.72295,211.85561 c -4.95638,9.62122 49.3558,-20.59451 51.10514,-17.67899 1.74927,2.91551 -48.77272,43.33557 -45.8572,36.92143 2.91553,-6.41415 82.26188,-14.66396 88.04869,-35.56935 8.16655,-29.50216 11.7701,-86.2031 -15.74374,-111.955994 -16.17767,-15.142307 -70.97723,8.64564 -66.29596,-4.88925 5.14702,-14.881499 -6.30054,123.550944 -11.25693,133.172154 z"
       inkscape:connector-curvature="0"
       sodipodi:nodetypes="zsssssz"
       inkscape:export-filename="/home/piantado/Desktop/mit/Libraries/kelpy/kelpy/stimuli/black_bean.png"
       inkscape:export-xdpi="200"
       inkscape:export-ydpi="200" />
    <path
       style="fill:none;stroke:#000000;stroke-width:1px;stroke-linecap:butt;stroke-linejoin:miter;stroke-opacity:1"
       d="m 1099.046,644.26055 c -259.09155,261.44763 325.4435,200.27293 0,0 z"
       id="path5561"
       inkscape:connector-curvature="0" />
    <path
       style="fill:none;stroke:#000000;stroke-width:1px;stroke-linecap:butt;stroke-linejoin:miter;stroke-opacity:1"
       d="m 1232.3861,430.10822 c -12.4173,36.00738 -14.1421,72.43209 -14.1421,111.11678 0,63.99007 79.3675,139.11323 139.401,109.09647 24.7081,-12.35402 25.4871,-92.623 10.1015,-113.13708 -5.5862,-7.44837 -18.6883,-5.05182 -22.2233,-12.12184 -2.7829,-5.56587 0.6663,-38.15658 4.0406,-40.4061 85.003,-56.66863 83.137,68.53814 127.2792,46.46702 37.2987,-18.64935 55.6104,-71.18977 12.1219,-92.93403 -36.1754,-18.08768 -122.4854,-16.91571 -151.5229,12.12183 -8.2303,8.23027 -6.5232,31.69127 -10.1016,42.4264 -6.5601,19.68058 13.9269,85.06805 2.0203,96.97465 -6.902,6.90202 -30.6956,3.84508 -38.3857,0 -15.6024,-7.80117 -25.0113,-108.32892 -12.1219,-121.21831 24.3215,-24.32145 16.831,-64.64976 -22.2233,-64.64976 -9.676,0 -11.5886,21.20194 -24.2437,26.26397 z"
       id="path5563"
       inkscape:connector-curvature="0" />
    <path
       style="fill:#000000;fill-rule:evenodd;stroke:none"
       d="m 1274.8125,290.70716 c 0.1924,0.21448 -0.8784,1.54861 -3.0923,3.92802 -2.2139,2.3794 -5.5733,5.80295 -9.9054,10.24316 -4.3322,4.4402 -9.6407,9.89489 -15.6547,16.40925 -6.014,6.51437 -12.7367,14.08618 -19.7472,22.86706 -5.0405,6.31352 -10.2191,13.23763 -15.048,20.95553 -3.4176,5.46884 -6.6735,11.29991 -9.2361,17.60314 -1.8515,4.57668 -3.3716,9.34987 -3.9699,14.25433 -0.4444,3.70659 -0.416,7.47266 0.5056,10.95794 0.7609,2.96663 2.1761,5.82633 4.1476,8.24696 1.993,2.48577 4.6524,4.5938 7.6396,6.3552 3.3511,1.96801 7.1487,3.433 11.1719,4.5909 4.5516,1.30122 9.3618,2.13772 14.3278,2.68414 11.4641,1.26173 23.5309,0.88367 35.9189,-0.3505 13.7427,-1.38117 27.7944,-3.91407 42.0158,-7.31698 14.5845,-3.49278 29.3127,-7.914 44.0145,-13.25054 6.189,-2.24743 12.3702,-4.65412 18.5204,-7.23683 8.0334,-3.37354 15.8735,-6.98908 23.4836,-10.85297 12.8117,-6.50983 24.9555,-13.6796 35.9898,-21.78278 9.8772,-7.27426 18.881,-15.17803 25.9655,-24.16065 3.1399,-3.97641 5.892,-8.12286 8.0318,-12.45025 1.99,-4.02995 3.4803,-8.20095 4.2434,-12.39817 0.757,-4.12149 0.8416,-8.31595 0.2282,-12.32908 -0.6531,-4.37505 -2.1537,-8.61918 -4.1864,-12.54765 -2.4511,-4.74419 -5.7271,-9.04335 -9.3486,-12.95873 -4.6434,-5.01164 -9.8793,-9.33695 -15.2654,-13.22366 -8.4078,-6.06929 -17.0897,-11.01607 -25.6224,-15.2788 -8.5328,-4.26273 -16.9168,-7.84062 -24.8588,-11.02702 -12.1179,-4.85255 -23.2586,-8.70985 -33.0912,-11.90913 -9.8325,-3.19928 -18.3583,-5.73779 -25.3222,-7.7949 -6.9638,-2.05711 -12.3675,-3.62979 -16.0059,-4.78423 -3.6385,-1.15444 -5.5132,-1.88889 -5.4438,-2.19404 0.069,-0.30515 2.0796,-0.16806 5.8604,0.40915 3.7807,0.57721 9.3329,1.59263 16.4663,3.12287 7.1334,1.53023 15.8497,3.57224 25.916,6.3204 10.0662,2.74816 21.4842,6.19982 33.951,10.71102 8.1622,2.9473 16.8271,6.3425 25.7355,10.51142 8.9084,4.16892 18.0612,9.11103 27.0701,15.29861 5.7923,3.98005 11.5271,8.5494 16.7827,13.996 4.1137,4.25665 7.9193,9.11643 10.9393,14.68105 2.5137,4.63819 4.3981,9.7746 5.3184,15.24639 0.8319,5.03301 0.8065,10.2385 -0.073,15.35344 -0.8973,5.17696 -2.599,10.19194 -4.8856,14.90698 -2.4458,5.04962 -5.5042,9.78984 -8.9479,14.21174 -7.7445,9.93383 -17.3203,18.53425 -27.6369,26.1706 -11.5256,8.55447 -24.1109,16.06783 -37.2874,22.78604 -7.8301,3.99527 -15.8881,7.72274 -24.1346,11.18657 -6.3133,2.65183 -12.6525,5.11404 -18.994,7.40355 -15.0636,5.44062 -30.1771,9.9158 -45.1547,13.41396 -14.5956,3.41181 -29.1108,5.90631 -43.3708,7.20559 -12.8217,1.17891 -25.5675,1.40025 -37.8662,-0.0964 -5.3436,-0.65029 -10.6417,-1.66383 -15.7707,-3.20398 -4.5378,-1.35488 -8.9844,-3.18557 -13.0941,-5.66177 -3.7036,-2.22421 -7.0909,-5.0708 -9.8163,-8.52783 -2.6906,-3.45124 -4.5515,-7.41211 -5.5211,-11.53223 -1.0973,-4.78298 -1.0765,-9.54255 -0.3983,-13.98325 0.8801,-5.82589 2.7023,-11.19621 4.8681,-16.11462 2.9755,-6.78589 6.5885,-12.88127 10.3215,-18.45949 5.2709,-7.88522 10.8274,-14.82743 16.2065,-21.0665 7.474,-8.6687 14.6197,-16.03629 21.0362,-22.2883 6.4166,-6.25202 12.1075,-11.38642 16.8165,-15.47356 4.7091,-4.08713 8.4397,-7.12477 11.028,-9.10103 2.5882,-1.97626 4.0362,-2.88966 4.2286,-2.67518 z"
       id="path5565"
       inkscape:path-effect="#path-effect5567"
       inkscape:original-d="m 1274.8125,290.70716 c -345.23665,309.71967 557.8678,42.85364 40.4061,-74.75128"
       inkscape:connector-curvature="0" />
    <path
       style="fill:#000000;fill-rule:evenodd;stroke:none"
       d="m 1216.2237,80.595435 c 0.1999,0.07162 0.1116,0.963259 -0.3078,2.613915 -0.4194,1.650656 -1.1995,4.052461 -2.2452,7.134527 -1.3605,4.009309 -3.2188,9.199558 -5.4376,15.488633 -1.8536,5.25467 -3.9667,11.27854 -6.2042,18.03671 -2.2374,6.75817 -4.6009,14.25021 -6.8637,22.46086 -1.8017,6.53939 -3.5466,13.51822 -4.9033,20.9314 -1.0868,5.96718 -1.9699,12.17133 -2.0365,18.52922 -0.013,4.75919 0.2496,9.51688 1.8851,13.6543 0.6242,1.59495 1.3974,3.07005 2.4038,4.22968 0,1e-5 0,1e-5 0,1e-5 0.9098,1.07287 2.0519,1.97447 3.3097,2.57297 0.3746,0.19963 0.9345,0.31694 1.6124,0.42994 0.8257,0.12301 1.758,0.12251 2.7748,0.0729 2.6465,-0.1331 5.431,-0.7656 8.3579,-1.55212 3.6894,-1.00984 7.405,-2.33289 11.1807,-3.81298 4.4023,-1.72892 8.8254,-3.67638 13.2927,-5.764 10.1213,-4.73025 20.3675,-10.14161 30.8069,-15.96224 10.9216,-6.09123 22.011,-12.63585 33.2547,-19.53541 19.4026,-11.90796 39.2718,-24.74586 59.0352,-38.77208 0.3478,-0.24705 0.6955,-0.49418 1.043,-0.74144 5.9803,-4.25547 11.8088,-8.48743 17.2541,-12.96836 1.6821,-1.39576 3.2314,-2.67224 4.4799,-3.99395 0,0 0,-10e-6 0,-10e-6 0.3655,-0.4214 0.5758,-0.60494 0.5409,-0.60752 -0.031,-0.0295 -0.1338,0.24978 -0.3425,0.83026 -0.332,0.38979 -0.2019,1.44368 0.3424,3.1944 -2.9261,-5.78814 -6.3026,-11.126343 -10.6212,-15.161162 -3.3094,-3.101163 -7.1756,-5.499714 -11.2491,-6.571461 -3.9258,-1.109156 -8.2611,-1.060046 -12.4902,-0.31276 -4.8822,0.870574 -9.657,2.763923 -14.2883,5.052813 -5.7978,2.873544 -11.2259,6.361756 -16.4139,10.14769 -5.188,3.78593 -10.1359,7.86938 -14.9518,11.97858 -11.093,9.50115 -21.2492,19.35281 -31.1105,28.6087 -4.8137,4.52008 -9.5638,8.92307 -14.3375,13.07343 -4.2457,3.69606 -8.5576,7.23973 -13.0665,10.35962 -3.5427,2.48654 -7.4284,4.81355 -11.7615,6.25377 -1.7165,0.57452 -3.6061,0.95744 -5.6093,0.99798 0,0 -10e-5,0 -10e-5,0 -1.8084,0.0354 -3.6661,-0.32442 -5.4215,-1.11747 0,0 0,0 0,-1e-5 -1.838,-0.8814 -3.326,-2.13121 -4.4472,-3.5537 -1.4061,-1.78758 -2.3507,-3.68774 -3.007,-5.52139 -0.9182,-2.51318 -1.4636,-4.99928 -1.8303,-7.37773 -0.5126,-3.27769 -0.7363,-6.45034 -0.8335,-9.48969 -0.1589,-4.94651 -0.022,-9.62292 0.2447,-14.0197 0.2667,-4.39679 0.6638,-8.51407 1.0858,-12.34574 0.8097,-5.74759 1.6465,-10.88279 2.4218,-15.37555 0.7753,-4.492756 1.49,-8.34304 2.0991,-11.515869 1.2182,-6.345657 1.999,-9.984698 2.2929,-10.589213 0,0 0,0 0,0 0.062,0.0092 0.062,0.0093 0.062,0.0093 0,0 10e-5,2.1e-5 0.062,0.0093 0,0 0,0 0,0 0.1036,0.663986 -0.2536,4.366785 -0.7799,10.782329 -0.2632,3.207773 -0.5663,7.093771 -0.8423,11.616989 -0.2761,4.52321 -0.5263,9.68361 -0.646,15.44002 -0.1955,3.81077 -0.3721,7.87552 -0.4264,12.16541 -0.054,4.28988 0.013,8.80495 0.3648,13.50853 0.2162,2.88175 0.5341,5.80554 1.1075,8.7133 0.4227,2.11743 0.9436,4.18955 1.7372,6.10135 0.5886,1.38449 1.2393,2.65313 2.0881,3.59919 0.6369,0.70876 1.3463,1.29562 2.0772,1.57377 0,0 0,1e-5 0,1e-5 0.6723,0.30282 1.5295,0.40828 2.433,0.38231 0,0 0,0 0,0 1.0621,-0.0289 2.2307,-0.33651 3.477,-0.7645 3.2498,-1.12563 6.4074,-3.22121 9.7115,-5.59636 4.0881,-2.98458 8.079,-6.45011 12.1491,-10.15471 4.5527,-4.14976 9.1278,-8.58354 13.831,-13.18177 9.6212,-9.41051 19.689,-19.51298 30.9278,-29.43128 4.8308,-4.27945 9.9101,-8.581964 15.366,-12.643963 5.456,-4.062 11.2887,-7.883318 17.6448,-11.153869 5.1151,-2.638192 10.7171,-4.867609 16.8031,-6.057614 5.3717,-1.05642 11.1433,-1.093863 16.8172,0.375627 5.88,1.60196 11.1707,4.751957 15.4849,8.839014 5.454,5.179651 9.5535,11.437978 12.7499,17.894685 0.6481,1.95832 0.7523,3.26155 0.3592,3.87534 -0.3043,0.93144 -0.5855,1.53364 -0.809,1.81308 -0.6804,1.03469 -1.306,1.75724 -1.785,2.22142 0,1e-5 0,1e-5 0,2e-5 -1.781,1.85518 -3.6206,3.40885 -5.3453,4.81979 -5.7494,4.7419 -11.7637,9.1261 -17.8028,13.41772 -0.3509,0.24936 -0.7015,0.4982 -1.0519,0.74657 -20.007,14.19353 -40.1173,27.0879 -59.749,38.94801 -11.3889,6.88151 -22.6608,13.39718 -33.7912,19.4451 -10.6258,5.77532 -21.1531,11.15486 -31.6173,15.85495 -4.6216,2.07607 -9.2529,4.02339 -13.9071,5.76061 -3.9768,1.48698 -8.0153,2.8348 -12.1288,3.88351 -3.2084,0.83207 -6.6054,1.49239 -10.1496,1.63716 -1.3875,0.0583 -2.8625,0.004 -4.3932,-0.23488 -1.2731,-0.18633 -2.6367,-0.58334 -4.0133,-1.2593 -2.3036,-1.18218 -4.2921,-2.82452 -5.8655,-4.77836 0,-1e-5 0,-2e-5 0,-2e-5 -1.6527,-2.08152 -2.8167,-4.34971 -3.602,-6.61994 -1.9506,-5.69673 -2.215,-11.3691 -1.969,-16.54835 0.2813,-6.99044 1.3999,-13.5541 2.7354,-19.69203 1.6576,-7.65161 3.6979,-14.74693 5.7932,-21.32523 2.6306,-8.26041 5.3609,-15.73506 7.9684,-22.43428 2.6075,-6.69922 5.0941,-12.6227 7.3272,-17.75501 2.6746,-6.147964 4.9933,-11.157037 6.8271,-14.975314 1.4195,-2.958661 2.5589,-5.171336 3.3553,-6.657524 0.7963,-1.486189 1.2771,-2.232391 1.477,-2.160767 z"
       id="path5569"
       inkscape:path-effect="#path-effect5571"
       inkscape:original-d="m 1216.2237,80.595435 c -5.3936,15.0539 -51.2165,114.802975 -22.2234,129.299525 25.6881,12.84407 192.7165,-99.44021 189.9087,-105.05586 -57.1373,-114.2745606 -202.8592,210.24884 -167.6853,-24.243665 z"
       inkscape:connector-curvature="0" />
    <path
       style="fill:#000000;fill-rule:evenodd;stroke:none"
       d="m 1210.1627,-184.06453 c -0.023,0.17964 -1.0428,0.21902 -3.0043,0.19357 -1.9615,-0.0255 -4.8661,-0.11291 -8.6616,-0.0777 -3.7954,0.0352 -8.4843,0.19657 -13.9859,0.73077 -5.5016,0.5342 -11.819,1.44494 -18.7997,2.98746 -6.0354,1.34119 -12.5949,3.14336 -19.4044,5.73737 -6.8095,2.594 -13.8723,5.97808 -20.7181,10.62087 -5.145,3.48806 -10.1492,7.68166 -14.3446,12.83297 -3.6779,4.51441 -6.7505,9.79377 -8.5273,15.63862 -1.7751,5.76407 -2.2692,12.15025 -1.4709,18.56926 0.9036,7.36081 3.5214,14.79367 7.191,22.015518 0.9737,1.98889 2.7037,3.871824 4.618,5.950181 2.4579,2.598302 5.1874,5.047989 8.0942,7.407353 2.9636,2.399065 6.0652,4.659118 9.336,6.670199 2.7519,1.670174 5.4595,3.186296 8.2274,4.059154 5.5657,1.785067 11.4079,2.867181 17.1474,2.47777 4.6958,-0.365978 9.3595,-1.56907 12.6532,-4.305823 3.2988,-2.494492 5.3796,-6.822832 6.1112,-11.364852 1.1281,-6.86542 -0.5996,-14.397921 -3.0655,-21.95152 -0.307,-1.00121 -1.0586,-1.98952 -1.9947,-2.81113 0,-10e-6 0,-10e-6 0,-2e-5 -1.0703,-0.95728 -2.5706,-1.70106 -4.2685,-2.41767 0,0 0,-1e-5 0,-1e-5 -3.9633,-1.63878 -8.6067,-2.44126 -13.5703,-3.48962 -4.4731,-0.86715 -9.5208,-1.8397 -14.5529,-4.30752 -2.0527,-0.97526 -4.1516,-2.50776 -5.9268,-4.75847 -1.7186,-2.38825 -2.5709,-5.14107 -2.5561,-7.87876 0,-2e-5 0,-4e-5 0,-6e-5 -0.041,-4.96338 0.4537,-10.16527 2.0143,-15.32344 1.1532,-3.84908 3.0858,-7.65823 5.993,-10.95363 2.5248,-2.79606 5.677,-4.96299 9.1815,-6.32926 3.489,-1.3353 7.1159,-1.92089 10.6403,-1.93088 10e-5,0 10e-5,0 10e-5,0 7.5854,-0.012 14.8829,2.02696 21.4419,5.08269 6.2947,2.8546 12.3426,6.72902 17.4957,11.83606 6.0204,6.08623 10.0186,13.74712 12.2861,21.69763 2.5462,8.8219 3.3423,18.00105 3.0469,27.0167 -0.3014,9.770127 -1.8097,19.507062 -4.2371,29.011984 -1.5925,6.255158 -3.5868,12.444529 -5.9955,18.504591 -1.2631,3.178096 -2.6347,6.306813 -4.1136,9.378021 -4.0132,8.358499 -8.8836,16.374647 -14.8571,23.557836 -5.1538,6.252097 -11.3846,11.9562413 -18.8854,15.9046151 0,7.3e-6 0,1.46e-5 0,2.19e-5 -3.3598,1.7543125 -7.0112,3.0799733 -10.8582,3.79600287 -3.7954,0.69618459 -7.6993,0.72974065 -11.5108,0.0794056 0,-2.82e-6 0,-5.63e-6 0,-8.45e-6 -4.134,-0.72435481 -8.0176,-2.19178388 -11.5181,-4.16927968 -4.1698,-2.3585732 -7.8216,-5.3135751 -11.0113,-8.5345173 -7.0473,-7.121635 -15.685,-13.042007 -23.8366,-19.991428 -9.2025,-7.75148 -17.8261,-16.782707 -23.3961,-27.826342 -7.1933,-14.495783 -13.5009,-29.113896 -18.4731,-43.827212 -4.1329,-12.21794 -7.3378,-24.5593 -9.1084,-36.88861 -1.4734,-10.22229 -1.9123,-20.49464 -0.8664,-30.49371 0.8913,-8.53444 2.9488,-16.86021 6.3158,-24.51709 3.0923,-7.01003 7.2947,-13.35719 12.3184,-18.74876 5.0337,-5.3888 10.803,-9.77413 16.8626,-13.22479 6.4636,-3.67971 13.2114,-6.33433 19.9159,-8.23252 7.3231,-2.07545 14.6027,-3.28282 21.6569,-3.90253 15.8903,-1.39675 30.6826,0.0245 43.7529,2.74093 7.0708,1.46668 13.6715,3.34659 19.7336,5.5395 10e-5,0 10e-5,0 10e-5,1e-5 6.1443,2.22051 11.758,4.78077 16.7218,7.62981 4.8372,2.76898 9.0956,5.86663 12.515,9.24912 1.6295,1.59845 3.08,3.30016 4.2686,5.06138 1.1886,1.76122 2.1161,3.58186 2.758,5.41854 0.6492,1.87943 0.9541,3.76549 0.95,5.54345 -0.01,2.05485 -0.4309,3.91584 -1.047,5.51356 -0.8612,2.22384 -2.0382,3.92707 -3.1447,5.24883 -1.5388,1.83922 -2.9398,2.981 -3.9129,3.68865 -0.9732,0.70764 -1.5343,0.9743 -1.6239,0.86674 -0.09,-0.10756 0.2945,-0.58934 1.0609,-1.47961 0.7664,-0.89027 1.9323,-2.18587 3.1569,-4.0579 0.8779,-1.34318 1.7937,-2.99234 2.3669,-4.98075 0.4118,-1.42082 0.6448,-3.02908 0.5282,-4.72501 -0.097,-1.47109 -0.4637,-3.02609 -1.1042,-4.57652 -0.6265,-1.53668 -1.5217,-3.05565 -2.6624,-4.54177 -1.1408,-1.48613 -2.5279,-2.9393 -4.0807,-4.35162 -3.2877,-2.96296 -7.3837,-5.65029 -12.0912,-8.11765 -4.8267,-2.52226 -10.2777,-4.76379 -16.2663,-6.70914 0,0 0,-1e-5 0,-1e-5 -5.905,-1.91601 -12.3185,-3.52768 -19.1823,-4.75036 -12.7022,-2.25761 -26.9472,-3.27131 -42.0448,-1.60628 -6.6913,0.73843 -13.5298,2.01221 -20.316,4.08269 -6.2079,1.89598 -12.3777,4.44536 -18.1675,7.88696 -5.4173,3.2193 -10.5226,7.22442 -14.8768,12.05028 -4.3512,4.80908 -7.9769,10.47823 -10.6226,16.70315 -2.905,6.80984 -4.6349,14.33165 -5.3725,22.13298 -0.865,9.16492 -0.324,18.71536 1.1523,28.37579 1.7876,11.65584 4.9811,23.42655 9.0717,35.22163 4.9288,14.197797 11.1843,28.377038 18.3228,42.545063 4.6162,9.328908 12.486,17.273928 21.1789,24.683885 7.6973,6.478 16.538,12.522381 24.5224,20.432362 2.7351,2.703826 5.6815,5.104451 8.8863,6.87062 2.6613,1.468917 5.4973,2.552886 8.3702,3.0230817 0,1.9e-6 0,3.7e-6 0,5.5e-6 2.6318,0.4481224 5.3831,0.4116066 8.0544,-0.083033 2.7357,-0.496169 5.4559,-1.511589 8.0697,-2.863266 0,-5e-6 0,-1.1e-5 0,-1.7e-5 5.9449,-3.042925 11.1383,-7.933847 15.803,-13.47282 5.3392,-6.402305 9.7585,-13.733768 13.5146,-21.511703 1.3753,-2.856743 2.6521,-5.770589 3.8293,-8.733542 2.2448,-5.649823 4.1091,-11.43135 5.6048,-17.281929 2.2667,-8.896546 3.6855,-17.909907 3.9656,-26.851077 0.2414,-8.26174 -0.4024,-16.41081 -2.6028,-23.94773 -1.9835,-6.70009 -5.1156,-12.95824 -9.7278,-17.50463 -4.0975,-4.14361 -9.1875,-7.38719 -14.6191,-9.92511 -5.6979,-2.58081 -11.6015,-4.35869 -17.3039,-4.28536 0,0 0,0 0,0 -2.5803,0.0292 -5.0675,0.37914 -7.2295,1.23332 -2.1226,0.81397 -4.069,2.12514 -5.5585,3.77418 -1.8161,1.93474 -3.0981,4.55127 -4.0214,7.36935 -1.2497,3.86541 -1.6371,8.13317 -1.6784,12.49942 0,1e-5 0,1e-5 0,2e-5 0.015,0.89163 0.2313,1.78116 0.6674,2.29002 0.4292,0.71344 1.4412,1.34782 2.6593,2.04603 3.328,1.80953 7.6146,2.55332 12.2008,3.58968 4.8071,1.00461 9.9858,2.01598 15.115,4.09413 0,0 0,1e-5 0,2e-5 2.2625,0.90236 4.5876,2.17664 6.732,3.99498 0,1e-5 10e-5,2e-5 10e-5,3e-5 2.055,1.76105 3.6749,4.08739 4.6089,6.80915 2.7721,8.16026 4.5216,17.13791 3.1756,26.136271 -0.9803,6.435073 -4.2215,12.558469 -9.4724,16.751881 -5.2877,3.975936 -11.536,5.682697 -17.4521,5.9117 -7.0962,0.330253 -13.9306,-0.979961 -20.1764,-3.132069 -3.7109,-1.286729 -6.9587,-3.113506 -9.8881,-5.001017 -3.584,-2.281382 -6.9232,-4.787917 -10.0571,-7.411808 -3.0747,-2.568076 -6.0107,-5.297402 -8.7071,-8.235547 -2.0416,-2.171005 -4.1492,-4.688601 -5.7219,-7.792675 -3.87,-7.857355 -6.5759,-16.167386 -7.4816,-24.546516 -0.7862,-7.36493 -0.039,-14.69262 2.1544,-21.36759 2.2382,-6.74025 5.8462,-12.64466 10.0953,-17.58083 4.8266,-5.60494 10.3681,-10.02127 15.974,-13.57686 7.4333,-4.71236 14.9571,-8.04158 22.1355,-10.50531 7.1784,-2.46374 14.0147,-4.06031 20.2642,-5.15852 7.2257,-1.27846 13.7382,-1.8877 19.3833,-2.10311 5.645,-0.21542 10.4257,-0.0406 14.2699,0.2666 3.8442,0.30721 6.7546,0.74356 8.6965,1.12085 1.9419,0.37728 2.9171,0.69292 2.8943,0.87256 z"
       id="path5573"
       inkscape:path-effect="#path-effect5575"
       inkscape:original-d="m 1210.1627,-184.06453 c -56.3199,-7.16072 -138.2851,24.4552 -105.0558,90.913727 3.8797,7.759459 21.5336,22.666895 32.3249,26.263967 25.6658,8.55527 51.4444,-1.230148 38.3858,-40.406104 -5.1508,-15.45236 -42.4264,-7.95544 -42.4264,-24.24366 0,-43.99942 42.2264,-30.5045 58.5888,-14.14213 41.3778,41.37775 -17.9173,182.092854 -70.7107,129.299521 C 1108.1665,-29.482 1085.3825,-41.6858 1074.8023,-62.846226 949.67737,-313.0961 1274.0476,-237.30192 1210.1627,-184.06453 z"
       inkscape:connector-curvature="0" />
  </g>
</svg>
